<?xml version="1.0" standalone="no"?>
<!DOCTYPE svg PUBLIC "-//W3C//DTD SVG 20010904//EN"
 "http://www.w3.org/TR/2001/REC-SVG-20010904/DTD/svg10.dtd">
<svg version="1.0" xmlns="http://www.w3.org/2000/svg"
 width="685.000000pt" height="685.000000pt" viewBox="0 0 685.000000 685.000000"
 preserveAspectRatio="xMidYMid meet">
<metadata>
Created by potrace 1.11, written by Peter Selinger 2001-2013
</metadata>
<g transform="translate(0.000000,685.000000) scale(0.100000,-0.100000)"
fill="#000000" stroke="none">
<path d="M3394 6712 c-2 -108 -7 -352 -18 -812 -1 -53 -5 -101 -9 -107 -19
-30 -182 -590 -203 -697 -2 -10 -8 -33 -13 -50 -26 -88 -121 -534 -145 -681
-3 -16 -12 -70 -20 -120 -8 -49 -18 -110 -21 -135 -3 -25 -8 -56 -10 -70 -2
-14 -7 -50 -10 -80 -4 -30 -8 -66 -10 -80 -2 -14 -6 -54 -10 -90 -3 -36 -8
-81 -10 -100 -20 -171 -32 -400 -36 -659 l-2 -134 -57 -66 c-56 -66 -210 -267
-210 -274 0 -2 -22 -37 -48 -78 -217 -333 -417 -808 -497 -1183 -14 -66 -55
-298 -60 -341 -3 -27 -8 -66 -10 -85 -24 -174 -24 -608 0 -795 1 -11 3 -32 4
-47 1 -22 5 -26 24 -22 12 2 45 7 72 10 83 11 88 15 112 90 12 38 45 143 73
234 81 258 158 485 186 548 15 31 37 81 51 111 32 71 104 182 161 249 75 89
246 206 333 227 26 6 27 4 44 -67 39 -165 156 -507 174 -509 54 -5 364 0 371
7 25 25 125 316 170 494 12 47 23 87 25 88 2 2 43 -15 91 -37 284 -133 437
-359 604 -893 110 -353 163 -514 169 -520 6 -7 68 -20 149 -32 31 -4 32 -3 33
32 0 21 2 46 4 57 22 117 23 642 1 760 -2 11 -6 47 -10 80 -4 33 -11 83 -16
110 -6 28 -12 66 -14 85 -3 19 -10 58 -16 85 -7 28 -14 61 -16 75 -22 118
-102 376 -174 559 -143 363 -404 798 -607 1011 -35 37 -43 52 -43 85 -4 230
-14 477 -25 585 -2 25 -7 79 -10 120 -4 41 -8 86 -10 100 -2 14 -7 56 -10 94
-3 37 -8 80 -10 95 -2 14 -8 60 -14 101 -6 41 -14 93 -17 115 -3 22 -11 76
-19 120 -8 44 -17 96 -20 115 -8 47 -14 80 -20 110 -3 14 -8 39 -10 55 -3 17
-8 37 -10 45 -2 8 -7 31 -10 50 -3 19 -17 85 -31 145 -14 61 -27 121 -30 135
-3 14 -10 43 -16 65 -5 22 -12 47 -13 55 -18 86 -130 480 -189 665 l-35 110
-6 285 c-4 157 -9 346 -10 420 -2 74 -4 174 -4 223 -1 76 -3 87 -18 87 -16 0
-18 -13 -19 -128z"/>
<path d="M3214 860 c-25 -10 -63 -54 -79 -94 -14 -34 -13 -113 2 -140 8 -15
13 -14 41 15 l32 33 1 -27 c1 -15 2 -30 3 -34 1 -5 6 -35 10 -68 16 -116 86
-292 146 -364 26 -30 37 -21 90 68 56 95 92 207 106 331 6 49 11 82 13 87 1 1
15 -13 33 -30 l32 -32 12 40 c21 73 -1 145 -59 194 -30 26 -33 26 -197 27 -91
0 -175 -2 -186 -6z"/>
</g>
</svg>
