<svg xmlns="http://www.w3.org/2000/svg" viewBox="0 0 233 263.5"><title>amelioration_generator</title><g id="Calque_2" data-name="Calque 2"><g id="energie"><rect x="119" y="187.64" width="113" height="74.86" rx="3" ry="3" style="fill:#aaa;stroke:#333;stroke-miterlimit:10;stroke-width:2px"/><circle cx="126.77" cy="195.41" r="2.82" style="fill:#545454;stroke:#212121;stroke-miterlimit:10;stroke-width:0.5px"/><circle cx="126.77" cy="254.73" r="2.82" style="fill:#545454;stroke:#212121;stroke-miterlimit:10;stroke-width:0.5px"/><circle cx="224.23" cy="195.41" r="2.82" style="fill:#545454;stroke:#212121;stroke-miterlimit:10;stroke-width:0.5px"/><circle cx="224.23" cy="254.73" r="2.82" style="fill:#545454;stroke:#212121;stroke-miterlimit:10;stroke-width:0.5px"/><line x1="183.27" y1="212.36" x2="215.76" y2="212.36" style="fill:#6d6d6d;stroke:#282828;stroke-linecap:round;stroke-miterlimit:10;stroke-width:2px"/><line x1="183.27" y1="219.42" x2="215.76" y2="219.42" style="fill:#6d6d6d;stroke:#282828;stroke-linecap:round;stroke-miterlimit:10;stroke-width:2px"/><line x1="183.27" y1="226.48" x2="215.76" y2="226.48" style="fill:#6d6d6d;stroke:#282828;stroke-linecap:round;stroke-miterlimit:10;stroke-width:2px"/><path d="M166.54,230H137.85a3.31,3.31,0,0,1-3.31-3.31V212.14a3.31,3.31,0,0,1,3.31-3.31h28.69a3.31,3.31,0,0,1,3.31,3.31V226.7A3.31,3.31,0,0,1,166.54,230Z" style="fill:#fff;stroke:#282828;stroke-miterlimit:10"/><polyline points="169.14 221.54 166.66 221.51 165.61 217.3 157.14 220.13 151.49 224.36 145.84 217.3 141.6 221.54 137.36 218.71 135.24 218.71" style="fill:none;stroke:#f20000;stroke-miterlimit:10"/><rect x="188.92" y="243.43" width="4.24" height="12.71" rx="0.74" ry="0.74" style="fill:#4f4f4f;stroke:#3f3f3f;stroke-miterlimit:10;stroke-width:0.5px"/><line x1="191.04" y1="237.08" x2="191.04" y2="249.79" style="fill:none;stroke:#282828;stroke-linecap:round;stroke-miterlimit:10"/><circle cx="191.04" cy="236.37" r="2.82" style="fill:#b70606"/><rect x="204.46" y="243.43" width="4.24" height="12.71" rx="0.74" ry="0.74" style="fill:#4f4f4f;stroke:#3f3f3f;stroke-miterlimit:10;stroke-width:0.5px"/><line x1="206.58" y1="237.08" x2="206.58" y2="249.79" style="fill:none;stroke:#282828;stroke-linecap:round;stroke-miterlimit:10"/><circle cx="206.58" cy="236.37" r="2.83" style="fill:#b70606"/><path d="M119,211.54C84,211.54,91,159,90,132S91,6.48,1,6.48" style="fill:none;stroke:#777;stroke-miterlimit:10;stroke-width:8px"/><rect x="115" y="205" width="5" height="13" rx="1.48" ry="1.48" style="fill:#070707"/><rect width="5" height="13" rx="1.48" ry="1.48" style="fill:#070707"/></g></g></svg>