<svg xmlns="http://www.w3.org/2000/svg" viewBox="0 0 124.58 87.93"><title>amelioration_arm</title><g id="Calque_2" data-name="Calque 2"><g id="menu"><polygon points="14.04 14.34 26.82 0.75 28.21 2.4 15 17.48 14.04 14.34" style="fill:#777;stroke:#111;stroke-miterlimit:10"/><polygon points="42.3 28.25 44.62 9.75 42.47 9.73 39.27 29.52 42.3 28.25" style="fill:#777;stroke:#111;stroke-miterlimit:10"/><polygon points="8.28 70.18 49.19 86.28 51.94 77.56 10.51 65.14 8.28 70.18" style="fill:#777;stroke:#111;stroke-miterlimit:10"/><circle cx="49.12" cy="81.46" r="6.46" transform="translate(-32.06 31.88) rotate(-27.5)" style="fill:#141414"/><polygon points="20.62 30.91 13.07 16.39 14.96 14.43 23.45 27.01 20.62 30.91" style="fill:#777;stroke:#111;stroke-miterlimit:10"/><polygon points="23.78 32.88 39.82 29.6 40.15 26.89 25.03 28.23 23.78 32.88" style="fill:#777;stroke:#111;stroke-miterlimit:10"/><polygon points="4.54 65.81 21.72 31.62 25.4 33.1 10.94 67.83 4.54 65.81" style="fill:#777;stroke:#111;stroke-miterlimit:10"/><circle cx="7.54" cy="66.44" r="7.54" transform="translate(-29.82 10.99) rotate(-27.5)" style="fill:#141414"/><circle cx="24.01" cy="30.42" r="5.17" transform="translate(-11.33 14.52) rotate(-27.5)" style="fill:#141414"/><circle cx="14.52" cy="15.93" r="2.58" transform="translate(-5.72 8.51) rotate(-27.5)" style="fill:#141414"/><circle cx="40.73" cy="28.03" r="2.58" transform="translate(-8.34 21.97) rotate(-27.5)" style="fill:#141414"/><polygon points="110.54 14.34 97.76 0.75 96.37 2.4 109.58 17.48 110.54 14.34" style="fill:#777;stroke:#111;stroke-miterlimit:10"/><polygon points="82.28 28.25 79.96 9.75 82.11 9.73 85.31 29.52 82.28 28.25" style="fill:#777;stroke:#111;stroke-miterlimit:10"/><polygon points="116.3 70.18 75.39 86.28 72.64 77.56 114.07 65.14 116.3 70.18" style="fill:#777;stroke:#111;stroke-miterlimit:10"/><circle cx="75.46" cy="81.46" r="6.46" transform="translate(-31.64 110.79) rotate(-62.5)" style="fill:#141414"/><polygon points="103.95 30.91 111.51 16.39 109.62 14.43 101.13 27.01 103.95 30.91" style="fill:#777;stroke:#111;stroke-miterlimit:10"/><polygon points="100.8 32.88 84.76 29.6 84.44 26.89 99.55 28.23 100.8 32.88" style="fill:#777;stroke:#111;stroke-miterlimit:10"/><polygon points="120.04 65.81 102.86 31.62 99.18 33.1 113.64 67.83 120.04 65.81" style="fill:#777;stroke:#111;stroke-miterlimit:10"/><circle cx="117.04" cy="66.44" r="7.54" transform="translate(4.07 139.58) rotate(-62.5)" style="fill:#141414"/><circle cx="100.57" cy="30.42" r="5.17" transform="translate(27.15 105.59) rotate(-62.5)" style="fill:#141414"/><circle cx="110.05" cy="15.93" r="2.58" transform="translate(45.11 106.2) rotate(-62.5)" style="fill:#141414"/><circle cx="83.85" cy="28.03" r="2.58" transform="translate(20.27 89.47) rotate(-62.5)" style="fill:#141414"/></g></g></svg>