<svg xmlns="http://www.w3.org/2000/svg" viewBox="0 0 132.27 406.18"><title>amelioration_post</title><g id="Calque_2" data-name="Calque 2"><g id="menu"><g id="menu-2" data-name="menu"><path d="M60.89.13h5.19a35,35,0,0,1,35,35v287a10.81,10.81,0,0,1-10.81,10.81H36.68a10.81,10.81,0,0,1-10.81-10.81v-287a35,35,0,0,1,35-35Z" style="fill:#e34b30;stroke:#0c0c0c;stroke-miterlimit:10;stroke-width:0.25px"/><circle cx="78.3" cy="42.3" r="0.57" style="fill:#fff;stroke:#0c0c0c;stroke-miterlimit:10;stroke-width:0.25px"/><circle cx="11.63" cy="200.72" r="0.57" style="fill:#fff;stroke:#0c0c0c;stroke-miterlimit:10;stroke-width:0.25px"/><path d="M98.38,396.81l-.18.59a5.78,5.78,0,0,0,4.21,7.36,41.74,41.74,0,0,0,18.84-.1,5.79,5.79,0,0,0,4.2-7.18l-.14-.5a5.8,5.8,0,0,0-5.59-4.25H103.92A5.8,5.8,0,0,0,98.38,396.81Z" style="fill:#4f4a4a;stroke:#0c0c0c;stroke-miterlimit:10;stroke-width:0.25px"/><path d="M111.67,406.05a39.05,39.05,0,0,1-15.29-2.92l-.22-.11,2-6.5a5.8,5.8,0,0,1,5.54-4.08h16.23a5.8,5.8,0,0,1,5.59,4.25l1.75,6.34-.24.09A41.85,41.85,0,0,1,111.67,406.05Zm-8.76-1.49a41.75,41.75,0,0,0,17.82-.08,5.82,5.82,0,0,0,4.37-7.21h0a5.8,5.8,0,0,0-5.59-4.25H104.13a5.8,5.8,0,0,0-5.54,4.08l0,.08A5.8,5.8,0,0,0,102.91,404.56Z" style="stroke:#0c0c0c;stroke-miterlimit:10;stroke-width:0.25px"/><path d="M96,98.58a5.74,5.74,0,0,1,.17-1.44c1.28-5.07,9.13-35.54,13-34.09s12,29,13.48,34a5.79,5.79,0,0,1,.23,1.56l2.77,273a5.76,5.76,0,0,0,.41,2.09c.81,2,2.67,6.7,4.09,10.53a5.78,5.78,0,0,1-3,7.27c-6.26,2.84-18,6.3-30.22,0a5.82,5.82,0,0,1-3-6.67l3.09-11.48a5.8,5.8,0,0,0,.2-1.53Z" style="fill:#fff;stroke:#0c0c0c;stroke-miterlimit:10;stroke-width:0.25px"/><path d="M111.46,395.29a31.93,31.93,0,0,1-18.77-6.07l-.16-.11,4.25-15.81a5.8,5.8,0,0,0,.2-1.53L95.73,97.82v0c.33-1.33,8.06-32.52,12.56-34.89a1.18,1.18,0,0,1,1-.1c4.3,1.61,13.49,33.62,13.88,35v.08L126,371.56a5.76,5.76,0,0,0,.41,2.09c1.25,3.1,4.86,12.19,5.69,15.26l.05.19-.17.11A39.92,39.92,0,0,1,111.46,395.29Zm-14.2-4c11.76,6,23.19,2.8,29.46,0a5.78,5.78,0,0,0,3.09-7.31c-1.83-4.95-4.35-11.16-4.38-11.24l0-.1-2.79-274a5.75,5.75,0,0,0-.23-1.54c-2.81-9.72-10-32.59-13.31-33.81a.63.63,0,0,0-.53.07c-3.35,1.77-9.27,22.46-12.09,33.8a5.71,5.71,0,0,0-.17,1.42l1.25,273.23a5.8,5.8,0,0,1-.2,1.53l-3,11.29A5.79,5.79,0,0,0,97.26,391.32Z" style="stroke:#0c0c0c;stroke-miterlimit:10;stroke-width:0.25px"/><path d="M6,396.81l-.18.59A5.78,5.78,0,0,0,10,404.76a41.74,41.74,0,0,0,18.84-.1,5.79,5.79,0,0,0,4.2-7.18l-.14-.5a5.8,5.8,0,0,0-5.59-4.25H11.53A5.8,5.8,0,0,0,6,396.81Z" style="fill:#4f4a4a;stroke:#0c0c0c;stroke-miterlimit:10;stroke-width:0.25px"/><path d="M19.28,406.05A39.05,39.05,0,0,1,4,403.13L3.77,403l2-6.5a5.8,5.8,0,0,1,5.54-4.08H27.55a5.8,5.8,0,0,1,5.59,4.25L34.89,403l-.24.09A41.85,41.85,0,0,1,19.28,406.05Zm-8.76-1.49a41.75,41.75,0,0,0,17.82-.08,5.82,5.82,0,0,0,4.37-7.21h0A5.8,5.8,0,0,0,27.12,393H11.74A5.8,5.8,0,0,0,6.2,397.1l0,.08A5.8,5.8,0,0,0,10.52,404.56Z" style="stroke:#0c0c0c;stroke-miterlimit:10;stroke-width:0.25px"/><path d="M3.62,98.58a5.74,5.74,0,0,1,.17-1.44c1.28-5.07,9.13-35.54,13-34.09s12,29,13.48,34a5.79,5.79,0,0,1,.23,1.56l2.77,273a5.76,5.76,0,0,0,.41,2.09c.81,2,2.67,6.7,4.09,10.53a5.78,5.78,0,0,1-3,7.27c-6.26,2.84-18,6.3-30.22,0a5.82,5.82,0,0,1-3-6.67l3.09-11.48a5.8,5.8,0,0,0,.2-1.53Z" style="fill:#fff;stroke:#0c0c0c;stroke-miterlimit:10;stroke-width:0.25px"/><path d="M19.07,395.29A31.93,31.93,0,0,1,.31,389.22l-.16-.11,4.25-15.81a5.8,5.8,0,0,0,.2-1.53L3.34,97.82v0c.33-1.33,8.06-32.52,12.56-34.89a1.18,1.18,0,0,1,1-.1c4.3,1.61,13.49,33.62,13.88,35v.08l2.78,273.71a5.76,5.76,0,0,0,.41,2.09c1.25,3.1,4.86,12.19,5.69,15.26l.05.19-.17.11A39.92,39.92,0,0,1,19.07,395.29Zm-14.2-4c11.76,6,23.19,2.8,29.45,0a5.78,5.78,0,0,0,3.09-7.31c-1.83-4.95-4.35-11.15-4.38-11.24l0-.1-2.79-274A5.75,5.75,0,0,0,30,97.14C27.19,87.42,20,64.54,16.7,63.32a.63.63,0,0,0-.53.07C12.82,65.16,6.9,85.85,4.08,97.19a5.71,5.71,0,0,0-.17,1.42L5.16,371.84a5.8,5.8,0,0,1-.2,1.53l-3,11.29A5.79,5.79,0,0,0,4.87,391.32Z" style="stroke:#0c0c0c;stroke-miterlimit:10;stroke-width:0.25px"/><rect x="3.74" y="97.52" width="26.61" height="1.14" style="stroke:#0c0c0c;stroke-miterlimit:10;stroke-width:0.25px"/><rect x="96.27" y="97.51" width="26.61" height="1.14" style="stroke:#0c0c0c;stroke-miterlimit:10;stroke-width:0.25px"/></g></g></g></svg>