<svg xmlns="http://www.w3.org/2000/svg" viewBox="0 0 66 79.48"><title>amelioration_react</title><g id="Calque_2" data-name="Calque 2"><g id="vaisseau"><line x1="33.04" y1="10.92" x2="33.04" y2="35.49" style="fill:#6b6b6b;stroke:#444;stroke-linecap:round;stroke-miterlimit:10;stroke-width:2px"/><path d="M57.06,8.19S33.2,4.91,9,8.19c0,0,4.91,17.47,11.47,31.67H45.32A169.48,169.48,0,0,0,57.06,8.19Z" style="fill:#515151;stroke:#444;stroke-miterlimit:10;stroke-width:3px"/><line x1="39.59" y1="10.92" x2="39.59" y2="35.49" style="fill:#6b6b6b;stroke:#444;stroke-linecap:round;stroke-miterlimit:10;stroke-width:2px"/><line x1="46.14" y1="10.92" x2="46.14" y2="27.85" style="fill:#6b6b6b;stroke:#444;stroke-linecap:round;stroke-miterlimit:10;stroke-width:2px"/><line x1="52.69" y1="10.92" x2="52.69" y2="14.74" style="fill:#6b6b6b;stroke:#444;stroke-linecap:round;stroke-miterlimit:10;stroke-width:2px"/><line x1="26.48" y1="10.92" x2="26.48" y2="35.49" style="fill:#6b6b6b;stroke:#444;stroke-linecap:round;stroke-miterlimit:10;stroke-width:2px"/><line x1="19.93" y1="10.92" x2="19.93" y2="27.85" style="fill:#6b6b6b;stroke:#444;stroke-linecap:round;stroke-miterlimit:10;stroke-width:2px"/><line x1="13.38" y1="10.92" x2="13.38" y2="14.74" style="fill:#6b6b6b;stroke:#444;stroke-linecap:round;stroke-miterlimit:10;stroke-width:2px"/><path d="M10.63,0S26.46,6.24,55.56,0V2.77s8.63,9.06,8,37.36L61.43,41l-1.58,3.65s8.08,10.16,5.72,14.59c0,0-6.7,9.37-20.31,7.3L42.4,60.74a18,18,0,0,1-6.51,2.37s-.78,16.37-2.66,16.37-2.08-16.56-2.08-16.56-.79,1.68-7.79-2.37L21.2,66.46S11,69.91,0,59.17A28.2,28.2,0,0,1,6.7,44.47L5.19,41.19l-2.82-.91S1.3,14.84,10.44,2.8Z" style="fill:#444"/><path d="M12,54.83s5.94,5.47,12.73.94" style="fill:#bcbcbc"/><path d="M12,52.94s5.94,5.47,12.73.94" style="fill:#bcbcbc"/><path d="M12,51.08s5.94,5.47,12.73.94" style="fill:#bcbcbc"/><path d="M13.23,49.63S18,54,23.42,50.38" style="fill:#bcbcbc"/><path d="M14,47.73s4.41,4.06,9.46.7" style="fill:#bcbcbc"/><path d="M42,55.13s5.94,5.47,12.73.94" style="fill:#bcbcbc"/><path d="M42,53.23s5.94,5.47,12.73.94" style="fill:#bcbcbc"/><path d="M42,51.38s5.94,5.47,12.73.94" style="fill:#bcbcbc"/><path d="M43.27,49.92s4.75,4.38,10.19.75" style="fill:#bcbcbc"/><path d="M44,48s4.41,4.06,9.46.7" style="fill:#bcbcbc"/><path d="M26,56.64S32.85,63,40.73,57.73" style="fill:#bcbcbc"/><path d="M25.94,54.45s6.88,6.33,14.75,1.09" style="fill:#bcbcbc"/><path d="M25.94,52.3s6.88,6.33,14.75,1.09" style="fill:#bcbcbc"/><path d="M27.42,50.61s5.5,5.07,11.8.87" style="fill:#bcbcbc"/><path d="M28.25,48.41s5.11,4.71,11,.81" style="fill:#bcbcbc"/><path d="M5.09,48.66" style="fill:none;stroke:#000;stroke-miterlimit:10;stroke-width:0.75px"/><polyline points="5.09 48.66 5.48 47.04 11.96 47.85 11.96 49.63 4.69 48.41" style="fill:#bcbcbc"/><polyline points="4.44 51.34 4.83 49.72 11.3 50.53 11.3 52.31 4.04 51.09" style="fill:#bcbcbc"/><polyline points="3.63 53.73 4.02 52.11 10.49 52.92 10.49 54.7 3.23 53.48" style="fill:#bcbcbc"/><polyline points="61.18 48.74 60.78 47.12 54.31 47.93 54.31 49.7 61.58 48.49" style="fill:#bcbcbc"/><polyline points="62.66 51.09 62.26 49.47 55.79 50.28 55.79 52.06 63.05 50.84" style="fill:#bcbcbc"/><polyline points="63.52 53.73 63.13 52.11 56.66 52.92 56.66 54.7 63.92 53.48" style="fill:#bcbcbc"/><path d="M33,75.1S26.51-3.11,32.81,4.42Z" style="fill:#bcbcbc"/><path d="M34.38,4.42,34.15,75.1s6.53-78.21.23-70.68" style="fill:#bcbcbc"/><line x1="12.93" y1="43.3" x2="24.34" y2="43.19" style="fill:#bcbcbc"/><line x1="12.94" y1="44.87" x2="24.35" y2="44.76" style="fill:#bcbcbc"/><line x1="12.96" y1="46.4" x2="24.37" y2="46.29" style="fill:#bcbcbc"/><line x1="42.08" y1="43.1" x2="53.49" y2="42.99" style="fill:#bcbcbc"/><line x1="42.09" y1="44.66" x2="53.5" y2="44.55" style="fill:#bcbcbc"/><line x1="42.11" y1="46.19" x2="53.52" y2="46.08" style="fill:#bcbcbc"/><line x1="27.21" y1="45.68" x2="30.72" y2="45.68" style="fill:#bcbcbc"/><line x1="36.47" y1="45.68" x2="39.98" y2="45.68" style="fill:#bcbcbc"/><path d="M5.09,48.66" style="fill:none"/><path d="M1.34,58.5s13.83.62,18.43,7" style="fill:#bcbcbc"/><path d="M65,58.27s-13.83.62-18.43,7" style="fill:#bcbcbc"/><path d="M37.88,10.42S53.15,7.29,54.82,3.76c0,0,10.07,10.93,8,36,0,0,1.33,1.37-21.47,1.46L37.88,39Z" style="fill:#bcbcbc"/><path d="M11.49,3.76s1.12,3.09,17,6.88L29,38.7l-4,2.84s-21.95.1-21.77-1.8S3.06,12.46,11.49,3.76Z" style="fill:#bcbcbc"/></g></g></svg>