<svg xmlns="http://www.w3.org/2000/svg" viewBox="0 0 82 59.59"><title>amelioration_solar</title><g id="Calque_2" data-name="Calque 2"><g id="menu"><g id="menu-2" data-name="menu"><rect x="28.21" y="27.63" width="12.65" height="4.33" rx="1.94" ry="1.94" style="fill:#444"/><rect x="28.88" y="22.47" width="2.66" height="14.65" rx="1.19" ry="1.19" style="fill:#444"/><rect x="1" y="1" width="28.96" height="57.59" rx="3.38" ry="3.38" style="fill:#0b206d;stroke:#444;stroke-miterlimit:10"/><path d="M26,59.09H5A4.5,4.5,0,0,1,.5,54.59V5A4.5,4.5,0,0,1,5,.5H26A4.5,4.5,0,0,1,30.46,5v49.6A4.5,4.5,0,0,1,26,59.09ZM5,1.5A3.5,3.5,0,0,0,1.5,5v49.6A3.5,3.5,0,0,0,5,58.09H26a3.5,3.5,0,0,0,3.5-3.5V5A3.5,3.5,0,0,0,26,1.5Z" style="fill:#0c0c0c;stroke:#444;stroke-miterlimit:10"/><rect x="1.25" y="6.33" width="28.3" height="0.67" style="fill:#cca811"/><rect x="1.25" y="13.98" width="28.3" height="0.67" style="fill:#cca811"/><rect x="1.25" y="21.64" width="28.3" height="0.67" style="fill:#cca811"/><rect x="1.25" y="29.29" width="28.3" height="0.67" style="fill:#cca811"/><rect x="1.25" y="36.95" width="28.3" height="0.67" style="fill:#cca811"/><rect x="1.25" y="44.61" width="28.3" height="0.67" style="fill:#cca811"/><rect x="1.25" y="52.26" width="28.3" height="0.67" style="fill:#cca811"/><rect x="15.15" y="1.33" width="0.67" height="56.92" style="fill:#cca811"/><rect x="41.14" y="27.63" width="12.65" height="4.33" rx="1.94" ry="1.94" transform="translate(94.92 59.59) rotate(-180)" style="fill:#444"/><rect x="50.46" y="22.47" width="2.66" height="14.65" rx="1.19" ry="1.19" transform="translate(103.58 59.59) rotate(180)" style="fill:#444"/><rect x="52.04" y="1" width="28.96" height="57.59" rx="3.79" ry="3.79" transform="translate(133.04 59.59) rotate(-180)" style="fill:#0b206d"/><path d="M77,59.09H56a4.5,4.5,0,0,1-4.49-4.49V5A4.5,4.5,0,0,1,56,.5H77A4.5,4.5,0,0,1,81.5,5v49.6A4.5,4.5,0,0,1,77,59.09ZM56,1.5A3.5,3.5,0,0,0,52.54,5v49.6a3.5,3.5,0,0,0,3.5,3.5H77a3.5,3.5,0,0,0,3.5-3.5V5A3.5,3.5,0,0,0,77,1.5Z" style="fill:#0c0c0c;stroke:#444;stroke-miterlimit:10"/><rect x="52.46" y="6.33" width="28.3" height="0.67" style="fill:#cca811"/><rect x="52.46" y="13.98" width="28.3" height="0.67" style="fill:#cca811"/><rect x="52.46" y="21.64" width="28.3" height="0.67" style="fill:#cca811"/><rect x="52.46" y="29.29" width="28.3" height="0.67" style="fill:#cca811"/><rect x="52.46" y="36.95" width="28.3" height="0.67" style="fill:#cca811"/><rect x="52.46" y="44.61" width="28.3" height="0.67" style="fill:#cca811"/><rect x="52.46" y="52.26" width="28.3" height="0.67" style="fill:#cca811"/><rect x="66.19" y="1.33" width="0.67" height="56.92" style="fill:#cca811"/></g></g></g></svg>