<svg xmlns="http://www.w3.org/2000/svg" viewBox="0 0 87.93 55.58"><title>arm_robot</title><g id="Calque_2" data-name="Calque 2"><g id="menu"><polygon points="73.59 14.04 87.18 26.82 85.53 28.21 70.45 15 73.59 14.04" style="fill:#777;stroke:#111;stroke-miterlimit:10"/><polygon points="59.68 42.3 78.18 44.62 78.2 42.47 58.41 39.27 59.68 42.3" style="fill:#777;stroke:#111;stroke-miterlimit:10"/><polygon points="17.75 8.28 1.65 49.19 10.36 51.94 22.79 10.51 17.75 8.28" style="fill:#777;stroke:#111;stroke-miterlimit:10"/><circle cx="6.46" cy="49.12" r="6.46" transform="translate(-21.95 8.53) rotate(-27.5)" style="fill:#141414"/><polygon points="57.02 20.62 71.54 13.07 73.5 14.96 60.92 23.45 57.02 20.62" style="fill:#777;stroke:#111;stroke-miterlimit:10"/><polygon points="55.04 23.78 58.33 39.82 61.03 40.15 59.7 25.03 55.04 23.78" style="fill:#777;stroke:#111;stroke-miterlimit:10"/><polygon points="22.12 4.54 56.31 21.72 54.83 25.4 20.1 10.94 22.12 4.54" style="fill:#777;stroke:#111;stroke-miterlimit:10"/><circle cx="21.49" cy="7.54" r="7.54" transform="translate(-1.05 10.77) rotate(-27.5)" style="fill:#141414"/><circle cx="57.5" cy="24.01" r="5.17" transform="translate(-4.59 29.26) rotate(-27.5)" style="fill:#141414"/><circle cx="71.99" cy="14.52" r="2.58" transform="translate(1.43 34.88) rotate(-27.5)" style="fill:#141414"/><circle cx="59.89" cy="40.73" r="2.58" transform="translate(-12.04 32.25) rotate(-27.5)" style="fill:#141414"/></g></g></svg>