<svg xmlns="http://www.w3.org/2000/svg" viewBox="0 0 48 67.24"><title>carbon</title><g id="Calque_2" data-name="Calque 2"><g id="bras"><polygon points="10.15 49.53 3.65 22.48 12.15 11.95 20.66 17.42 18.43 47.19 10.15 49.53" style="fill:#3b62d8"/><polygon points="26.33 58.73 30.79 23.09 40.71 17.62 48 24.71 37.88 50.55 26.33 58.73" style="fill:#cad8ff"/><polygon points="12.15 22.89 20.66 17.42 18.43 47.19 14.28 48.36 12.15 22.89" style="fill:#7c95ea"/><polygon points="12.15 11.95 20.66 17.42 12.15 22.89 12.15 11.95" style="fill:#abbbfa"/><polygon points="3.65 22.89 12.15 22.89 12.15 11.95 3.65 22.89" style="fill:#ccd6fe"/><polygon points="20.66 5.67 30.38 11.95 30.79 0 20.66 5.67" style="fill:#c9d4ff"/><polygon points="22.89 50.66 30.38 11.95 20.66 5.87 15.6 53.06 22.89 50.66" style="fill:#3b62d8"/><polygon points="30.79 0 30.38 11.95 40.71 7.7 30.79 0" style="fill:#abbbfa"/><polygon points="40.71 17.62 39.49 25.32 48 24.71 40.71 17.62" style="fill:#adbcf9"/><polygon points="31.8 54.86 39.49 25.32 48 24.71 37.87 50.63 31.8 54.86" style="fill:#7c95ea"/><polygon points="26.33 58.73 31.8 54.89 39.49 25.32 30.79 22.89 26.33 58.73" style="fill:#6381db"/><polygon points="40.71 7.7 30.38 11.95 22.89 50.63 29.16 48.41 40.71 7.7" style="fill:#7c95ea"/><polygon points="27.54 41.92 7.76 43.76 0 57.03 6.98 67.24 37.7 67.24 45.77 58.83 44.41 47.09 27.54 41.92 27.54 41.92" style="fill:#a0866f"/><polygon points="0 57.03 24.1 55.29 6.98 67.24 0 57.03" style="fill:#8e6f5a"/><polygon points="44.41 47.09 24.1 55.29 45.77 58.83 44.41 47.09" style="fill:#8e6f5a"/><polygon points="24.1 55.29 45.77 58.83 37.7 67.24 6.98 67.24 24.1 55.29" style="fill:#816349"/><polygon points="7.76 43.76 24.1 55.29 27.54 41.92 7.76 43.76" style="fill:#8e6f5a"/><polygon points="1 57.03 25.1 55.29 7.98 67.24 1 57.03" style="fill:#8e6f5a"/><polygon points="8.76 43.76 25.1 55.29 28.54 41.92 8.76 43.76" style="fill:#8e6f5a"/></g></g></svg>