<svg xmlns="http://www.w3.org/2000/svg" viewBox="0 0 36.66 47.46"><title>flame</title><g id="Calque_2" data-name="Calque 2"><g id="fire"><path d="M30.27,0H6.39c-8,6-7,12-5,17a15.19,15.19,0,0,0,4.65-5C6.62,28.55,11.62,39.33,18,47.46h.71C25,39.33,30,28.55,30.6,12a15.19,15.19,0,0,0,4.65,5C37.25,12,38.25,6,30.27,0Z" style="fill:#f39a02"/><path d="M20.21,47.75" style="fill:#ff3600"/><path d="M3.09,10.52c-.7-3-.75-6.52,4.32-9.24A7.72,7.72,0,0,1,3.09,10.52Z" style="fill:#feea00"/><path d="M34.37,11.52c.7-3,.75-6.52-4.32-9.24A7.72,7.72,0,0,0,34.37,11.52Z" style="fill:#feea00"/><path d="M18.09,24c-3.94-5-6.85-12.08-5.85-24H24.17c1,11.92-1.92,19-5.85,24h-.23Z" style="fill:#feea00"/></g></g></svg>