<svg xmlns="http://www.w3.org/2000/svg" viewBox="0 0 73.44 402.56"><title>fuselage</title><g id="Calque_2" data-name="Calque 2"><g id="vaisseau"><path d="M61.53,360.83c-6.21,26.41-12.9,40.24-12.9,40.24H24.81s-4.75-9.82-10-28.72c-1-3.53-2-7.37-2.94-11.52L8,341.76C-1.9,286.17-5.56,193.08,35.13,69.12L36.72,0l1.59,69.09c40.7,124,37,217.05,27.14,272.64Z" style="fill:#bcbcbc;stroke:#444;stroke-miterlimit:10;stroke-width:3px"/><path d="M37.47,69.42c35,197-2,332-2,332S36.58,64.4,37.47,69.42Z" style="fill:#e2e2e2"/><path d="M58.72,371.92s-21.85-3-44,0a229.69,229.69,0,0,0,10.5,29H48A155.19,155.19,0,0,0,58.72,371.92Z" style="fill:#515151;stroke:#444;stroke-miterlimit:10;stroke-width:3px"/><line x1="42.72" y1="374.42" x2="42.72" y2="396.92" style="fill:#6b6b6b;stroke:#444;stroke-linecap:round;stroke-miterlimit:10;stroke-width:2px"/><line x1="48.72" y1="374.42" x2="48.72" y2="389.92" style="fill:#6b6b6b;stroke:#444;stroke-linecap:round;stroke-miterlimit:10;stroke-width:2px"/><line x1="54.72" y1="374.42" x2="54.72" y2="377.92" style="fill:#6b6b6b;stroke:#444;stroke-linecap:round;stroke-miterlimit:10;stroke-width:2px"/><line x1="30.72" y1="374.42" x2="30.72" y2="396.92" style="fill:#6b6b6b;stroke:#444;stroke-linecap:round;stroke-miterlimit:10;stroke-width:2px"/><line x1="24.72" y1="374.42" x2="24.72" y2="389.92" style="fill:#6b6b6b;stroke:#444;stroke-linecap:round;stroke-miterlimit:10;stroke-width:2px"/><line x1="18.72" y1="374.42" x2="18.72" y2="377.92" style="fill:#6b6b6b;stroke:#444;stroke-linecap:round;stroke-miterlimit:10;stroke-width:2px"/><circle cx="36.72" cy="195.42" r="18.5" style="fill:#fce856;stroke:#444;stroke-miterlimit:10;stroke-width:3px"/><line x1="36.72" y1="374.42" x2="36.72" y2="396.92" style="fill:#6b6b6b;stroke:#444;stroke-linecap:round;stroke-miterlimit:10;stroke-width:2px"/></g></g></svg>