<svg xmlns="http://www.w3.org/2000/svg" viewBox="0 0 76.5 51.36"><title>generator</title><g id="Calque_2" data-name="Calque 2"><g id="menu"><g id="menu-2" data-name="menu"><rect x="1" y="1" width="74.5" height="49.36" rx="3" ry="3" style="fill:#aaa;stroke:#0c0c0c;stroke-miterlimit:10;stroke-width:2px"/><circle cx="6.12" cy="6.12" r="1.86" style="fill:#545454;stroke:#212121;stroke-miterlimit:10;stroke-width:0.5px"/><circle cx="6.12" cy="45.23" r="1.86" style="fill:#545454;stroke:#212121;stroke-miterlimit:10;stroke-width:0.5px"/><circle cx="70.38" cy="6.12" r="1.86" style="fill:#545454;stroke:#212121;stroke-miterlimit:10;stroke-width:0.5px"/><circle cx="70.38" cy="45.23" r="1.86" style="fill:#545454;stroke:#212121;stroke-miterlimit:10;stroke-width:0.5px"/><line x1="43.37" y1="17.3" x2="64.79" y2="17.3" style="fill:#6d6d6d;stroke:#282828;stroke-linecap:round;stroke-miterlimit:10;stroke-width:2px"/><line x1="43.37" y1="21.95" x2="64.79" y2="21.95" style="fill:#6d6d6d;stroke:#282828;stroke-linecap:round;stroke-miterlimit:10;stroke-width:2px"/><line x1="43.37" y1="26.61" x2="64.79" y2="26.61" style="fill:#6d6d6d;stroke:#282828;stroke-linecap:round;stroke-miterlimit:10;stroke-width:2px"/><path d="M32.34,28.94H13.43a2.18,2.18,0,0,1-2.18-2.18v-9.6A2.18,2.18,0,0,1,13.43,15H32.34a2.18,2.18,0,0,1,2.18,2.18v9.6A2.18,2.18,0,0,1,32.34,28.94Z" style="fill:#fff;stroke:#282828;stroke-miterlimit:10"/><polyline points="34.06 23.35 32.42 23.33 31.73 20.56 26.14 22.42 22.42 25.21 18.69 20.56 15.9 23.35 13.11 21.49 11.71 21.49" style="fill:none;stroke:#f20000;stroke-miterlimit:10"/><rect x="47.1" y="37.78" width="2.79" height="8.38" rx="0.74" ry="0.74" style="fill:#4f4f4f;stroke:#3f3f3f;stroke-miterlimit:10;stroke-width:0.5px"/><line x1="48.49" y1="33.59" x2="48.49" y2="41.97" style="fill:none;stroke:#282828;stroke-linecap:round;stroke-miterlimit:10"/><circle cx="48.49" cy="33.13" r="1.86" style="fill:#b70606"/><rect x="57.34" y="37.78" width="2.79" height="8.38" rx="0.74" ry="0.74" style="fill:#4f4f4f;stroke:#3f3f3f;stroke-miterlimit:10;stroke-width:0.5px"/><line x1="58.74" y1="33.59" x2="58.74" y2="41.97" style="fill:none;stroke:#282828;stroke-linecap:round;stroke-miterlimit:10"/><circle cx="58.74" cy="33.13" r="1.86" style="fill:#b70606"/></g></g></g></svg>