<svg xmlns="http://www.w3.org/2000/svg" xmlns:xlink="http://www.w3.org/1999/xlink" viewBox="0 0 391.62 391.62"><defs><style>.cls-1{fill:gray;stroke:#252626;stroke-width:12px;}.cls-1,.cls-10,.cls-3,.cls-6,.cls-7,.cls-9{stroke-miterlimit:10;}.cls-2{fill:url(#Dégradé_sans_nom_11);}.cls-3{fill:#6b6b6b;stroke-linecap:round;stroke-width:2px;}.cls-10,.cls-3,.cls-6,.cls-7,.cls-9{stroke:#444;}.cls-4{fill:#73a99d;}.cls-5{fill:#537774;}.cls-6{fill:#777;}.cls-10,.cls-6,.cls-7,.cls-9{stroke-width:3px;}.cls-7{fill:#bcbcbc;}.cls-8{fill:#e2e2e2;}.cls-9{fill:#fce856;}.cls-10{fill:#515151;}.cls-11{fill:url(#Dégradé_sans_nom_8);}.cls-12{fill:#cecece;}</style><linearGradient id="Dégradé_sans_nom_11" x1="195.81" y1="367.93" x2="195.81" y2="23.69" gradientUnits="userSpaceOnUse"><stop offset="0" stop-color="#2e316f"/><stop offset="1" stop-color="#1b1436"/></linearGradient><linearGradient id="Dégradé_sans_nom_8" x1="291.9" y1="230.81" x2="54.63" y2="230.81" gradientUnits="userSpaceOnUse"><stop offset="0" stop-color="#fff"/><stop offset="1" stop-color="#f39a02"/></linearGradient></defs><title>logo</title><g id="Calque_2" data-name="Calque 2"><g id="LOGO"><circle class="cls-1" cx="195.81" cy="195.81" r="189.81"/><circle class="cls-2" cx="195.81" cy="195.81" r="172.12"/><line class="cls-3" x1="95.76" y1="161.75" x2="92.04" y2="165.65"/><line class="cls-3" x1="97.27" y1="163.19" x2="96.43" y2="164.07"/><line class="cls-3" x1="91.22" y1="157.43" x2="85.82" y2="163.1"/><line class="cls-3" x1="89.71" y1="155.99" x2="85.99" y2="159.89"/><line class="cls-3" x1="88.2" y1="154.55" x2="87.36" y2="155.43"/><polygon class="cls-4" points="112.62 264.12 323.28 264.12 297.94 299.25 133.58 296.9 112.62 264.12"/><rect class="cls-5" x="230.43" y="277.33" width="83.36" height="10.08" rx="5.04" ry="5.04"/><path class="cls-4" d="M317.65,263.57s-4.87,15.09-27.06,35.24,7.78,3.78,7.78,3.78l13.35-13.81,11.57-20.5Z"/><rect class="cls-5" x="121.16" y="277.33" width="29.44" height="10.08" rx="5.04" ry="5.04"/><path class="cls-4" d="M108.05,250.12h7.83s5.93,28.9,31.45,50-3.68,6.61-3.68,6.61L119,282.37l-4-13.29Z"/><path class="cls-6" d="M93.67,200.8C101.46,184,109,174,102.46,161.62l25.08-21.29s.88,36.41-31.66,63.38Z"/><path class="cls-6" d="M51,160.18c16.35-8.59,26-16.59,38.71-10.68l20-26.08s-36.41.9-61.76,34.71Z"/><path class="cls-7" d="M102.25,161.4a74.5,74.5,0,0,1-12.91,7l-6-5.72a65,65,0,0,1,4.38-9.63q.9-1.68,2-3.61l3.59-5.75c10.85-16.38,32.28-40.73,72.29-62.21l17-17-16.19,17.8c-19.5,41-42.77,63.6-58.61,75.24Z"/><line class="cls-3" x1="92.74" y1="158.87" x2="87.33" y2="164.54"/><path class="cls-8" d="M166.15,82.16c-38.47,58.06-80.21,83.21-80.21,83.21S167.13,80.68,166.15,82.16Z"/><circle class="cls-9" cx="135.71" cy="113.74" r="6.44" transform="translate(-40.25 133.57) rotate(-46.4)"/><path class="cls-10" d="M98.88,163.52A64.47,64.47,0,0,0,87.79,153a80,80,0,0,0-4.32,9.83l5.73,5.46A54,54,0,0,0,98.88,163.52Z"/><line class="cls-3" x1="94.25" y1="160.31" x2="88.85" y2="165.98"/><circle class="cls-4" cx="217.91" cy="221.59" r="116.65" transform="translate(-30.12 34.32) rotate(-8.43)"/><circle class="cls-5" cx="217.91" cy="221.59" r="105.52"/><rect class="cls-4" x="133.78" y="146.76" width="90.34" height="8.6" rx="4.3" ry="4.3"/><rect class="cls-4" x="115.03" y="166.54" width="98.98" height="11.97" rx="5.99" ry="5.99"/><rect class="cls-4" x="124.91" y="152.11" width="73.85" height="18.26" rx="8.12" ry="8.12"/><rect class="cls-5" x="166.46" y="155.36" width="53.52" height="11.18" rx="5.59" ry="5.59"/><rect class="cls-4" x="157.19" y="205.12" width="172.9" height="11.38" rx="5.62" ry="5.62"/><rect class="cls-4" x="195.91" y="229.54" width="129.93" height="10.91" rx="5.45" ry="5.45"/><rect class="cls-4" x="214.01" y="213.18" width="75.79" height="16.36" rx="7.83" ry="7.83"/><rect class="cls-5" x="178.95" y="216.5" width="49.21" height="13.04" rx="6.52" ry="6.52"/><rect class="cls-5" x="276.89" y="216.5" width="39.94" height="13.04" rx="6.52" ry="6.52"/><path class="cls-11" d="M81.55,162.58s7.94,3.18,9.22,7.58c-14,29-34.85,115.29,201.13,126.7C291.9,296.86-40.47,327.1,81.55,162.58Z"/><path class="cls-12" d="M231.16,65.59a1.5,1.5,0,0,0,0-3,1.5,1.5,0,0,0,0,3Z"/><path class="cls-12" d="M277.62,106.24a1.5,1.5,0,0,0,0-3,1.5,1.5,0,0,0,0,3Z"/><path class="cls-12" d="M120.82,84.51c3.86,0,3.87-6,0-6s-3.87,6,0,6Z"/><path class="cls-12" d="M173.09,102.37a1.5,1.5,0,0,0,0-3,1.5,1.5,0,0,0,0,3Z"/><path class="cls-12" d="M84,102.37a1.5,1.5,0,0,0,0-3,1.5,1.5,0,0,0,0,3Z"/><path class="cls-12" d="M49.19,189.49a1.5,1.5,0,0,0,0-3,1.5,1.5,0,0,0,0,3Z"/><path class="cls-12" d="M345.38,208.41c3.86,0,3.87-6,0-6s-3.87,6,0,6Z"/><path class="cls-12" d="M337.63,152.7a1.5,1.5,0,0,0,0-3,1.5,1.5,0,0,0,0,3Z"/><path class="cls-12" d="M312.47,108.18a1.5,1.5,0,0,0,0-3,1.5,1.5,0,0,0,0,3Z"/><path class="cls-12" d="M163.41,50.1a1.5,1.5,0,0,0,0-3,1.5,1.5,0,0,0,0,3Z"/></g></g></svg>