<svg xmlns="http://www.w3.org/2000/svg" viewBox="0 0 67.64 68.22"><title>post_comb</title><g id="Calque_2" data-name="Calque 2"><g id="menu"><g id="menu-2" data-name="menu"><rect x="33.97" y="-6.47" width="14.8" height="65.49" rx="5.41" ry="5.41" transform="translate(30.69 -21.56) rotate(45)" style="fill:#e34b30;stroke:#0c0c0c;stroke-miterlimit:10;stroke-width:0.25px"/><circle cx="60.72" cy="11.05" r="0.11" transform="translate(9.97 46.17) rotate(-45)" style="fill:#fff;stroke:#0c0c0c;stroke-miterlimit:10;stroke-width:0.25px"/><circle cx="29.4" cy="23.81" r="0.11" transform="translate(-8.23 27.76) rotate(-45)" style="fill:#fff;stroke:#0c0c0c;stroke-miterlimit:10;stroke-width:0.25px"/><path d="M14.93,62.78l-1.85,1A8,8,0,0,0,17.31,68l1-1.8Z" style="fill:#4f4a4a;stroke:#0c0c0c;stroke-miterlimit:10;stroke-width:0.25px"/><path d="M14.75,66.3A7.69,7.69,0,0,1,13,63.77l0,0,1.93-1,3.47,3.47-1.07,1.88,0,0A8.24,8.24,0,0,1,14.75,66.3Zm-1.6-2.53a8.08,8.08,0,0,0,4.14,4.14l1-1.72-3.35-3.35Z" style="stroke:#0c0c0c;stroke-miterlimit:10;stroke-width:0.25px"/><path d="M55.45,21.24s6.31-3.81,6.68-3S59.19,25,59.19,25L21.34,63.61s-1,2.45-1.42,3.12c0,0-4.63-.84-5.42-5.42l2.9-1.67Z" style="fill:#fff;stroke:#0c0c0c;stroke-miterlimit:10;stroke-width:0.25px"/><path d="M16.22,64.78a6.28,6.28,0,0,1-1.77-3.46v0l2.92-1.69L55.42,21.2h0c.23-.14,5.65-3.4,6.6-3.11a.23.23,0,0,1,.15.12c.37.82-2.8,6.56-2.94,6.8h0L21.39,63.65c-.07.17-1.05,2.48-1.41,3.11l0,0h0A7.86,7.86,0,0,1,16.22,64.78Zm-1.65-3.44c.75,4.23,4.88,5.23,5.33,5.33.39-.7,1.38-3,1.39-3.07v0L59.15,24.95c.92-1.65,3.22-6.05,2.93-6.69a.12.12,0,0,0-.08-.06c-.73-.23-4.57,1.92-6.51,3.09L17.44,59.69Z" style="stroke:#0c0c0c;stroke-miterlimit:10;stroke-width:0.25px"/><path d="M2.07,49.92l-1.85,1a8,8,0,0,0,4.23,4.23l1-1.8Z" style="fill:#4f4a4a;stroke:#0c0c0c;stroke-miterlimit:10;stroke-width:0.25px"/><path d="M1.89,53.45A7.69,7.69,0,0,1,.17,50.91l0,0,1.93-1,3.47,3.47L4.48,55.2l0,0A8.24,8.24,0,0,1,1.89,53.45ZM.29,50.92a8.08,8.08,0,0,0,4.14,4.14l1-1.72L2.06,50Z" style="stroke:#0c0c0c;stroke-miterlimit:10;stroke-width:0.25px"/><path d="M42.6,8.38s6.31-3.81,6.68-3-2.93,6.75-2.93,6.75L8.48,50.76s-1,2.45-1.42,3.12c0,0-4.63-.84-5.42-5.42l2.9-1.67Z" style="fill:#fff;stroke:#0c0c0c;stroke-miterlimit:10;stroke-width:0.25px"/><path d="M3.36,51.92a6.28,6.28,0,0,1-1.77-3.46v0l2.92-1.69L42.56,8.34h0c.23-.14,5.65-3.4,6.6-3.11a.23.23,0,0,1,.15.12c.37.82-2.8,6.56-2.94,6.8h0L8.53,50.79c-.07.17-1.05,2.48-1.41,3.11l0,0h0A7.86,7.86,0,0,1,3.36,51.92ZM1.71,48.48c.75,4.23,4.88,5.23,5.33,5.33.39-.7,1.38-3,1.39-3.07v0L46.29,12.09c.92-1.65,3.22-6.05,2.93-6.69a.12.12,0,0,0-.08-.06c-.73-.23-4.57,1.92-6.51,3.09L4.58,46.83Z" style="stroke:#0c0c0c;stroke-miterlimit:10;stroke-width:0.25px"/><rect x="44.32" y="7.67" width="0.22" height="5.24" transform="translate(5.74 34.43) rotate(-45)" style="stroke:#0c0c0c;stroke-miterlimit:10;stroke-width:0.25px"/><rect x="57.2" y="20.54" width="0.22" height="5.24" transform="translate(0.41 47.31) rotate(-45)" style="stroke:#0c0c0c;stroke-miterlimit:10;stroke-width:0.25px"/></g></g></g></svg>