<svg xmlns="http://www.w3.org/2000/svg" viewBox="0 0 55 66.23"><title>reactor_anti</title><g id="Calque_2" data-name="Calque 2"><g id="menu"><g id="menu-2" data-name="menu"><path d="M8.86,0S22,5.2,46.3,0V2.31S53.49,9.86,53,33.44l-1.77.74-1.31,3s6.74,8.46,4.77,12.16c0,0-5.59,7.81-16.93,6.08l-2.38-4.85a15,15,0,0,1-5.42,2s-.65,13.64-2.21,13.64S26,52.43,26,52.43s-.66,1.4-6.49-2l-1.81,4.93S9.2,58.26,0,49.3A23.5,23.5,0,0,1,5.59,37.06L4.32,34.32,2,33.57S1.09,12.37,8.7,2.34Z" style="fill:#0c0c0c"/><path d="M10,45.69s4.95,4.56,10.61.78" style="fill:none;stroke:#fff;stroke-miterlimit:10;stroke-width:0.75px"/><path d="M10,44.11s4.95,4.56,10.61.78" style="fill:none;stroke:#fff;stroke-miterlimit:10;stroke-width:0.75px"/><path d="M10,42.57s4.95,4.56,10.61.78" style="fill:none;stroke:#fff;stroke-miterlimit:10;stroke-width:0.75px"/><path d="M11,41.36S15,45,19.52,42" style="fill:none;stroke:#fff;stroke-miterlimit:10;stroke-width:0.75px"/><path d="M11.63,39.77s3.68,3.39,7.89.58" style="fill:none;stroke:#fff;stroke-miterlimit:10;stroke-width:0.75px"/><path d="M35,45.94s4.95,4.56,10.61.78" style="fill:none;stroke:#fff;stroke-miterlimit:10;stroke-width:0.75px"/><path d="M35,44.36s4.95,4.56,10.61.78" style="fill:none;stroke:#fff;stroke-miterlimit:10;stroke-width:0.75px"/><path d="M35,42.81s4.95,4.56,10.61.78" style="fill:none;stroke:#fff;stroke-miterlimit:10;stroke-width:0.75px"/><path d="M36.06,41.6s4,3.65,8.49.63" style="fill:none;stroke:#fff;stroke-miterlimit:10;stroke-width:0.75px"/><path d="M36.66,40s3.68,3.39,7.89.58" style="fill:none;stroke:#fff;stroke-miterlimit:10;stroke-width:0.75px"/><path d="M21.65,47.2s5.73,5.28,12.29.9" style="fill:none;stroke:#fff;stroke-miterlimit:10;stroke-width:0.75px"/><path d="M21.62,45.37s5.73,5.28,12.29.9" style="fill:none;stroke:#fff;stroke-miterlimit:10;stroke-width:0.75px"/><path d="M21.62,43.58s5.73,5.28,12.29.9" style="fill:none;stroke:#fff;stroke-miterlimit:10;stroke-width:0.75px"/><path d="M22.85,42.18s4.58,4.22,9.83.72" style="fill:none;stroke:#fff;stroke-miterlimit:10;stroke-width:0.75px"/><path d="M23.55,40.34s4.26,3.92,9.14.67" style="fill:none;stroke:#fff;stroke-miterlimit:10;stroke-width:0.75px"/><path d="M4.24,40.55" style="fill:none;stroke:#000;stroke-miterlimit:10;stroke-width:0.75px"/><polyline points="4.24 40.55 4.57 39.2 9.97 39.88 9.97 41.36 3.91 40.34" style="fill:#f4f4f4"/><polyline points="3.7 42.79 4.03 41.43 9.42 42.11 9.42 43.59 3.37 42.58" style="fill:#f4f4f4"/><polyline points="3.02 44.78 3.35 43.42 8.74 44.1 8.74 45.58 2.69 44.56" style="fill:#f4f4f4"/><polyline points="50.98 40.62 50.65 39.26 45.26 39.94 45.26 41.42 51.31 40.41" style="fill:#f9f9f9"/><polyline points="52.21 42.58 51.89 41.23 46.49 41.9 46.49 43.38 52.55 42.37" style="fill:#f9f9f9"/><polyline points="52.94 44.78 52.61 43.42 47.21 44.1 47.21 45.58 53.27 44.56" style="fill:#f9f9f9"/><path d="M27.53,62.58s-5.44-65.18-.19-58.9Z" style="fill:#fff"/><path d="M28.65,3.68l-.19,58.9s5.44-65.18.19-58.9" style="fill:#fff"/><line x1="10.78" y1="36.09" x2="20.29" y2="36" style="fill:none;stroke:#fff;stroke-miterlimit:10"/><line x1="10.79" y1="37.39" x2="20.29" y2="37.3" style="fill:none;stroke:#fff;stroke-miterlimit:10"/><line x1="10.8" y1="38.67" x2="20.31" y2="38.57" style="fill:none;stroke:#fff;stroke-miterlimit:10"/><line x1="35.07" y1="35.91" x2="44.58" y2="35.82" style="fill:none;stroke:#fff;stroke-miterlimit:10"/><line x1="35.08" y1="37.22" x2="44.58" y2="37.12" style="fill:none;stroke:#fff;stroke-miterlimit:10"/><line x1="35.09" y1="38.49" x2="44.6" y2="38.4" style="fill:none;stroke:#fff;stroke-miterlimit:10"/><line x1="22.67" y1="38.06" x2="25.6" y2="38.06" style="fill:none;stroke:#fff;stroke-miterlimit:10;stroke-width:3px"/><line x1="30.4" y1="38.06" x2="33.32" y2="38.06" style="fill:none;stroke:#fff;stroke-miterlimit:10;stroke-width:3px"/><path d="M4.24,40.55" style="fill:none"/><path d="M1.12,48.75s11.52.52,15.36,5.79" style="fill:none;stroke:#fff;stroke-miterlimit:10;stroke-width:2px"/><path d="M54.17,48.56s-11.52.52-15.36,5.79" style="fill:none;stroke:#fff;stroke-miterlimit:10;stroke-width:2px"/><path d="M31.57,8.68S44.29,6.07,45.68,3.14c0,0,8.4,9.11,6.68,30,0,0,1.11,1.14-17.89,1.21l-2.89-1.86Z" style="fill:#fff"/><path d="M9.58,3.14s.93,2.58,14.2,5.73l.36,23.38-3.3,2.37s-18.29.08-18.14-1.5S2.55,10.39,9.58,3.14Z" style="fill:#fff"/></g></g></g></svg>