<svg xmlns="http://www.w3.org/2000/svg" viewBox="0 0 1799 1088"><defs><style>.cls-1{fill:#363636;stroke-width:8px;}.cls-1,.cls-2{stroke:#000;}.cls-1,.cls-2,.cls-3,.cls-5{stroke-miterlimit:10;}.cls-2{fill:#b2b2b2;}.cls-2,.cls-3{stroke-width:2px;}.cls-3{fill:#8e8e8e;stroke:#727272;}.cls-4,.cls-5{fill:#444;}.cls-5{stroke:#6b6b6b;stroke-width:3px;}</style></defs><title>right_door_6</title><g id="Calque_2" data-name="Calque 2"><g id="Calque_1-2" data-name="Calque 1"><path class="cls-1" d="M4,4V354.75A189.81,189.81,0,0,1,4,734.37V1084H1795V4Z"/><path class="cls-2" d="M4,730.37V1059H1773V23H4V350.75A189.81,189.81,0,0,1,4,730.37Z"/><path class="cls-3" d="M4,353.75A189.81,189.81,0,0,1,4,733.37V1038H1745V44H4Z"/><circle class="cls-4" cx="48.58" cy="68.78" r="11.43"/><circle class="cls-5" cx="48.58" cy="68.78" r="5.02"/><circle class="cls-4" cx="48.58" cy="293.82" r="11.43"/><circle class="cls-5" cx="48.58" cy="293.82" r="5.02"/><circle class="cls-4" cx="48.58" cy="779.16" r="11.43"/><circle class="cls-5" cx="48.58" cy="779.16" r="5.02"/><circle class="cls-4" cx="48.87" cy="998.22" r="11.43"/><circle class="cls-5" cx="48.87" cy="998.22" r="5.02"/></g></g></svg>