<svg xmlns="http://www.w3.org/2000/svg" xmlns:xlink="http://www.w3.org/1999/xlink" viewBox="0 0 100.04 190.45"><defs><clipPath id="clip-path"><path id="SVGID" d="M44.07,134.8V110.15c0-2.22,0-4.44,0-6.66a19.75,19.75,0,0,0-.9-5.84,18,18,0,0,0-3.59-6.21,17.56,17.56,0,0,0-10.11-5.69c-.62-.12-1.26-.08-1.88-.26H25.36c-.61.18-1.26.14-1.88.26a17.56,17.56,0,0,0-10.11,5.69,18,18,0,0,0-3.59,6.21,19.69,19.69,0,0,0-.9,5.84c-.06,2.22,0,4.44,0,6.66V134.8c0,1,0,1.95,0,2.92,0,.5.15.62.63.61,2.59,0,5.18,0,7.77,0H35.69c2.59,0,5.18,0,7.77,0,.48,0,.65-.12.63-.61C44,136.75,44.07,135.77,44.07,134.8ZM16,129.49a2.64,2.64,0,1,1,2.63-2.66s0,0,0,0A2.62,2.62,0,0,1,16,129.49Zm10.51,0a2.63,2.63,0,0,1-2.4-3.56,2.42,2.42,0,0,1,2-1.64l.39-.1.39.1a2.43,2.43,0,0,1,2,1.64,2.64,2.64,0,0,1-2.41,3.57Zm5.18-18.76a5.21,5.21,0,0,1-10.37,0c0-.43,0-.61.52-.6,1.55,0,3.11,0,4.67,0s3.11,0,4.67,0C31.65,110.12,31.71,110.3,31.66,110.73ZM37,129.49a2.62,2.62,0,0,1-2.63-2.61s0,0,0,0A2.63,2.63,0,1,1,37,129.49Z" style="fill:none"/></clipPath></defs><title>robot_vert</title><g id="Calque_2" data-name="Calque 2"><g id="bras"><ellipse cx="25.28" cy="166.9" rx="25.28" ry="6.5" style="opacity:0.4"/><path d="M77.93,96.37a1.65,1.65,0,0,1,1.57-1.57,1.71,1.71,0,0,1,1.56,1.54,1.57,1.57,0,0,1-3.13,0Z" style="fill:#6f7487"/><path d="M79.77,147.33l6.32,21.22a1.7,1.7,0,0,0,3.25,0l6.84-21.22a1.7,1.7,0,0,0-1.62-2.22H81.4A1.7,1.7,0,0,0,79.77,147.33Z" style="fill:#454545"/><path d="M87.72,170.06h0a2,2,0,0,1-1.88-1.42l-6.32-21.22a2,2,0,0,1,1.91-2.56H94.56a2,2,0,0,1,1.89,2.6l-6.84,21.23A2,2,0,0,1,87.72,170.06ZM80,147.25l6.32,21.22a1.38,1.38,0,0,0,1.34,1h0a1.38,1.38,0,0,0,1.35-1l6.84-21.23a1.42,1.42,0,0,0-1.35-1.85H81.4A1.42,1.42,0,0,0,80,147.25Z"/><rect x="79.12" y="146.81" width="16.82" height="2.04" rx="1.02" ry="1.02" transform="translate(-42.85 35.95) rotate(-18.74)" style="fill:#454545"/><path d="M80.53,151.51a1.31,1.31,0,0,1-.42-2.54l14-4.75a1.31,1.31,0,0,1,.84,2.47h0l-14,4.75A1.31,1.31,0,0,1,80.53,151.51Zm14-6.79a.72.72,0,0,0-.24,0l-14,4.75a.73.73,0,1,0,.47,1.39l14-4.75a.73.73,0,0,0-.24-1.43Z"/><path d="M8.88,110.22v24.65c-1,0-1.95,0-2.92,0-.47,0-.59-.14-.59-.59q0-8.21,0-16.42c0-2.36,0-4.72,0-7.07,0-.46.12-.61.59-.59C6.93,110.25,7.91,110.22,8.88,110.22Z" style="fill:#777"/><path d="M5.88,135.47a1.09,1.09,0,0,1-.78-.27,1.18,1.18,0,0,1-.3-.9c0-5.45,0-11,0-16.42V116c0-1.75,0-3.49,0-5.23a1.19,1.19,0,0,1,.3-.9,1.17,1.17,0,0,1,.88-.27c.66,0,1.33,0,2,0H9.45v25.8H8.15c-.71,0-1.45,0-2.17,0Zm0-24.67v0c0,1.74,0,3.48,0,5.23v1.84c0,5.45,0,11,0,16.42v0c.74,0,1.49,0,2.21,0h.15V110.8H8c-.68,0-1.35,0-2,0Z" style="fill:#444"/><path d="M18.82,126.89A2.84,2.84,0,0,1,16,129.74h0a2.88,2.88,0,0,1-2.86-2.86A2.91,2.91,0,0,1,16,124,2.87,2.87,0,0,1,18.82,126.89Z" style="fill:#777"/><path d="M16,130.6a3.73,3.73,0,1,1,3.69-3.72A3.7,3.7,0,0,1,16,130.6Zm0-5.73a2,2,0,0,0,0,4,2,2,0,0,0,2-2h0A2,2,0,0,0,16,124.87Z" style="fill:#444"/><path d="M29.35,126.89a2.84,2.84,0,0,1-2.83,2.85h0a2.88,2.88,0,0,1-2.86-2.86A2.91,2.91,0,0,1,26.51,124,2.87,2.87,0,0,1,29.35,126.89Z" style="fill:#6f7487"/><path d="M47.28,114.29c.2-.27.37-.59.74-.69a1.05,1.05,0,0,1,1.33,1c0,.42,0,.84,0,1.27,0,2.56,0,5.13,0,7.7,0,2,0,4.08,0,6.13,0,.29,0,.58,0,.86,0,.59,0,1.15-.66,1.42s-1-.12-1.42-.55Z" style="fill:#828694"/><path d="M48.3,132.4a1.74,1.74,0,0,1-1.24-.74l-.07-.08V114.2l.13-.19a1.47,1.47,0,0,1,.82-.69,1.28,1.28,0,0,1,1.09.17,1.48,1.48,0,0,1,.6,1.13c0,.3,0,.6,0,.91v.37q0,1.93,0,3.85t0,3.86q0,2,0,4.08v2l0,.29c0,.19,0,.38,0,.57a1.6,1.6,0,0,1-.83,1.69A1.29,1.29,0,0,1,48.3,132.4Zm-.74-1c.4.44.68.55,1,.4s.49-.52.49-1.16c0-.2,0-.4,0-.61l0-.27v-2q0-2,0-4.08t0-3.86q0-1.92,0-3.84v-.37c0-.29,0-.58,0-.87a.92.92,0,0,0-.36-.7.71.71,0,0,0-.62-.09c-.22.06-.35.24-.5.46l0,0Z"/><path d="M84,93.72c0-.35,0-.7.05-1a2,2,0,0,1,2.09-2.06c1,0,2,0,3,0a2,2,0,0,1,2.07,2.19c0,1.94,0,3.89,0,5.83,0,.81-.18,1-1,1.27H85.09c-.81-.25-1-.48-1-1.32,0-.59,0-1.2,0-1.8A14.59,14.59,0,0,0,84,93.72Z" style="fill:#828694"/><path d="M90.32,100.2H85a1.41,1.41,0,0,1-1.22-1.59c0-.41,0-.82,0-1.23V96.8a14.62,14.62,0,0,0,0-3.05v-.34c0-.25,0-.51,0-.76a2.34,2.34,0,0,1,2.37-2.32c1.06,0,2.09,0,3.06,0a2.32,2.32,0,0,1,2.34,2.48c0,1.3,0,2.59,0,3.89v1.95c0,.93-.26,1.26-1.2,1.55Zm-5.19-.57h5.11c.67-.2.75-.32.75-1V96.69c0-1.3,0-2.59,0-3.88A1.75,1.75,0,0,0,89.2,90.9c-1,0-2,0-3,0a1.76,1.76,0,0,0-1.82,1.79c0,.24,0,.49,0,.74v.28a14.91,14.91,0,0,1,0,3.11v.53c0,.41,0,.82,0,1.23C84.38,99.28,84.48,99.42,85.13,99.62Z"/><path d="M86.13,121.54V102.68c0-.25,0-.5,0-.76H89.3c0,.25,0,.5,0,.75v18.86Z" style="fill:#828694"/><path d="M89.54,121.83h-3.7V102.68c0-.18,0-.35,0-.53l0-.52H89.6l0,.55c0,.16,0,.33,0,.49Zm-3.12-.58H89V102.68c0-.16,0-.31,0-.47H86.4c0,.16,0,.31,0,.47Z"/><path d="M49.4,129.74c0-2,0-4.08,0-6.13,0-2.56,0-5.13,0-7.7.62.15,1.25.26,1.86.44a1.57,1.57,0,0,1,1.17,1.32V128a1.49,1.49,0,0,1-1.18,1.33C50.64,129.47,50,129.6,49.4,129.74Z" style="fill:#828694"/><path d="M49.12,130.1v-.36q0-1.53,0-3.06t0-3.06c0-2.56,0-5.14,0-7.7v-.36l.35.08.57.13c.43.09.87.19,1.31.32a1.84,1.84,0,0,1,1.37,1.56V128a1.79,1.79,0,0,1-1.41,1.61c-.41.11-.84.2-1.27.3Zm.56-13.83c0,2.45,0,4.9,0,7.34q0,1.53,0,3.06c0,.9,0,1.8,0,2.71l.22,0c.42-.09.84-.19,1.26-.3a1.21,1.21,0,0,0,1-1.08V117.68a1.27,1.27,0,0,0-1-1c-.42-.13-.85-.22-1.27-.31Z"/><path d="M89.32,125.73c.62,0,1.24,0,1.86,0,.79,0,1.14.39,1.15,1.21v1.51c0,.93-.15,1.13-1,1.42H88.21c-.72,0-1.43,0-2.15,0a2,2,0,0,1-2-2.08h0a2,2,0,0,1,2-2Z" style="fill:#7cea82"/><path d="M91.34,130.14H88.21c-.71,0-1.44,0-2.16,0a2.31,2.31,0,0,1-2.24-2.38,2.27,2.27,0,0,1,2.26-2.28h4c.38,0,.76,0,1.14,0a1.33,1.33,0,0,1,1.43,1.49v1.52c0,1.06-.22,1.36-1.23,1.69Zm-2-4.13H86.08a1.69,1.69,0,0,0-1.7,1.71,1.74,1.74,0,0,0,1.69,1.8c.71,0,1.44,0,2.14,0h3c.74-.24.8-.34.8-1.13v-1.51c0-.66-.24-.91-.87-.92-.37,0-.74,0-1.11,0Z"/><path d="M56.53,116.64V129c-.31,0-.62,0-.93,0A1.06,1.06,0,0,1,54.53,128V117.7a1.09,1.09,0,0,1,1.14-1.07C56,116.62,56.24,116.63,56.53,116.64Z" style="fill:#d4dbeb"/><path d="M55.91,129.31h-.32A1.33,1.33,0,0,1,54.24,128V117.7a1.39,1.39,0,0,1,1.41-1.35c.2,0,.4,0,.6,0h.56v13h-.91Zm0-12.4h-.24c-.55,0-.77.24-.87.83V128a.77.77,0,0,0,.79.77h.63V116.92Z"/><path d="M54.52,117.7q0,5.13,0,10.26l-2.1,0v-10.3Z" style="fill:#484857"/><path d="M52.13,128.27V117.4l2.68,0v10.83Zm.57-10.3v9.72l1.53,0V118Z"/><path d="M89.29,101.93H86.09a.93.93,0,0,1-1-.91c0-.36,0-.73,0-1.1h5.2c0,.37,0,.74-.05,1.1A.92.92,0,0,1,89.29,101.93Z" style="fill:#7cea82"/><path d="M89.3,102.21H86.09a1.21,1.21,0,0,1-1.24-1.16,7.25,7.25,0,0,1,0-.79c0-.11,0-.22,0-.33v-.3h5.79l0,.64c0,.26,0,.52,0,.78a1.2,1.2,0,0,1-1.21,1.17Zm-3.92-2v0a6.74,6.74,0,0,0,0,.73.65.65,0,0,0,.68.66h3.19a.64.64,0,0,0,.66-.66c0-.24,0-.49,0-.73v-.05Z"/><path d="M86.13,121.54h3.11c.82.27,1.12.68,1,1.32s-.52.68-1,.8H86.13c-.85-.28-1.18-.79-.94-1.43A1.2,1.2,0,0,1,86.13,121.54Z" style="fill:#5d668a"/><path d="M89.28,123.94H86a1.75,1.75,0,0,1-1.11-.83,1.22,1.22,0,0,1,0-1,1.5,1.5,0,0,1,1.13-.86h3.28c1,.32,1.34.87,1.16,1.66a1.42,1.42,0,0,1-1.17,1Zm-3.11-.57h3c.41-.11.64-.24.72-.58s.09-.68-.74-1h-3c-.38.11-.61.22-.71.5a.65.65,0,0,0,0,.53A1.2,1.2,0,0,0,86.17,123.37Z"/><path d="M84,93.72a14.59,14.59,0,0,1,0,3.08l-2.16,0a3.52,3.52,0,0,0-.58-3Z" style="fill:#484857"/><path d="M84.29,97.08l-2.8,0,.1-.36a3.23,3.23,0,0,0-.54-2.8l-.3-.44,3.54,0,0,.26a14.84,14.84,0,0,1,0,3.14Zm-2.06-.59h1.54a14.34,14.34,0,0,0,0-2.5h-2A3.66,3.66,0,0,1,82.23,96.49Z"/><path d="M86.13,123.66h3.12a14.32,14.32,0,0,0,.07,2.07H86.08A19.15,19.15,0,0,0,86.13,123.66Z" style="fill:#7cea82"/><path d="M89.66,126H85.74l.05-.33a7.31,7.31,0,0,0,0-1.24c0-.27,0-.53,0-.8v-.27h3.66l0,.27c0,.27,0,.54,0,.81a5.31,5.31,0,0,0,.06,1.22Zm-3.26-.57H89a7.55,7.55,0,0,1,0-1c0-.16,0-.33,0-.49H86.41c0,.16,0,.33,0,.49C86.42,124.76,86.43,125.1,86.4,125.44Z"/><path d="M65.86,119.77a3,3,0,0,1,3.06,2.91s0,.1,0,.15a3.06,3.06,0,0,1-3,3.11h0a3.16,3.16,0,0,1-3.12-3.12,3.06,3.06,0,0,1,3.08-3Z" style="fill:#6f7487"/><path d="M65.91,126.22a3.44,3.44,0,0,1-3.45-3.4,3.35,3.35,0,0,1,3.35-3.33h0l0,.29v-.29a3.27,3.27,0,0,1,3.35,3.19c0,.05,0,.11,0,.16a3.35,3.35,0,0,1-3.29,3.39Zm-.09-6.16A2.78,2.78,0,0,0,63,122.82a2.86,2.86,0,0,0,2.84,2.83,2.77,2.77,0,0,0,2.75-2.82c0-.06,0-.1,0-.15a2.7,2.7,0,0,0-2.76-2.63h0Z"/><path d="M44.07,110.07v24.65c1,0,1.95,0,2.92,0,.47,0,.59-.14.59-.59q0-8.21,0-16.42c0-2.36,0-4.72,0-7.07,0-.46-.12-.61-.59-.59C46,110.1,45,110.07,44.07,110.07Z" style="fill:#777"/><path d="M47.07,135.32H47c-.72,0-1.45,0-2.16,0H43.5V109.5h1.58c.64,0,1.28,0,1.92,0a1.16,1.16,0,0,1,.88.27,1.19,1.19,0,0,1,.3.9c0,1.74,0,3.49,0,5.23v1.84c0,5.45,0,11,0,16.42a1.18,1.18,0,0,1-.3.9A1.09,1.09,0,0,1,47.07,135.32Zm-1.54-1.17c.49,0,1,0,1.48,0v0c0-5.45,0-11,0-16.42V115.9c0-1.75,0-3.5,0-5.24h0c-.66,0-1.31,0-2,0h-.42v23.5h.88Z" style="fill:#444"/><path d="M35.77,138.33H17.27c.83,3.88,5.07,7.1,9.23,7h0C30.7,145.42,34.94,142.21,35.77,138.33Z" style="fill:#777"/><path d="M26.32,145.9c-4.38,0-8.74-3.37-9.61-7.45l-.15-.69H36.48l-.15.69c-.88,4.15-5.38,7.56-9.8,7.45Zm-8.3-7a9.09,9.09,0,0,0,8.46,5.85h.06A9.21,9.21,0,0,0,35,138.9Z" style="fill:#444"/><path d="M31.34,110c-1.6,0-3.21,0-4.81,0h-.1c-1.6,0-3.21,0-4.81,0-.52,0-.59.18-.54.62a5.48,5.48,0,0,0,5.34,4.85h.11a5.49,5.49,0,0,0,5.34-4.85C31.93,110.21,31.86,110,31.34,110Z" style="fill:#717588"/><path d="M87.91,142.61H79.3c-.22,0-.29,0-.29-.28q0-5.48,0-11c0-.22.06-.27.27-.27H96.55c.21,0,.27,0,.27.27q0,5.49,0,11c0,.21-.06.25-.26.25Zm4.64-6.35h1.57c.13,0,.18,0,.18-.17,0-.45,0-.91,0-1.37,0-.16-.06-.18-.2-.18H91c-.17,0-.2.06-.2.21,0,.43,0,.86,0,1.29,0,.17,0,.22.21.22C91.52,136.26,92,136.26,92.55,136.26Zm-4.65,3.48h1.55c.15,0,.21,0,.21-.2q0-.67,0-1.34c0-.17-.06-.2-.21-.2h-3c-.15,0-.21,0-.21.2q0,.67,0,1.34c0,.17.06.2.21.2Zm4.62,0h1.55c.15,0,.22,0,.21-.2,0-.45,0-.9,0-1.34,0-.16,0-.2-.2-.2H91c-.14,0-.2,0-.2.18q0,.68,0,1.38c0,.15,0,.2.2.2.51,0,1,0,1.54,0Z" style="fill:#d4dbeb"/><path d="M96.57,142.9H79.3a.5.5,0,0,1-.57-.56q0-5.48,0-11a.49.49,0,0,1,.56-.55H96.55a.49.49,0,0,1,.56.55q0,5.49,0,11a.54.54,0,0,1-.14.41A.53.53,0,0,1,96.57,142.9Zm-17.27-.57H96.53c0-3.68,0-7.3,0-10.93H79.3Q79.31,136.86,79.3,142.32ZM91,140a.44.44,0,0,1-.5-.48c0-.46,0-.92,0-1.37a.43.43,0,0,1,.48-.48h3.1a.44.44,0,0,1,.48.48c0,.45,0,.89,0,1.33a.49.49,0,0,1-.12.36.5.5,0,0,1-.38.13H92.27c-.43,0-.86,0-1.28,0Zm.08-1.76c0,.4,0,.79,0,1.18.33,0,.64,0,1,0H94c0-.4,0-.78,0-1.16ZM89.44,140h-3a.44.44,0,0,1-.5-.48c0-.45,0-.89,0-1.33a.49.49,0,0,1,.12-.36.5.5,0,0,1,.38-.13h3a.44.44,0,0,1,.5.48c0,.45,0,.89,0,1.33a.49.49,0,0,1-.12.36A.5.5,0,0,1,89.44,140Zm-2.65-.58h2.57c0-.4,0-.78,0-1.16H86.48c0,.4,0,.78,0,1.16Zm4.2-2.9a.48.48,0,0,1-.35-.12.51.51,0,0,1-.13-.38c0-.29,0-.57,0-.86v-.43a.44.44,0,0,1,.48-.5h3.12a.43.43,0,0,1,.48.47c0,.31,0,.61,0,.91v.46a.45.45,0,0,1-.12.33.47.47,0,0,1-.35.12H91Zm.1-1.72v.35c0,.26,0,.53,0,.79H94v-.33c0-.27,0-.54,0-.81Z"/><path d="M87.9,131.25H76.38c-.23,0-.31,0-.3-.29,0-1,0-2.08,0-3.13,0-.45.12-.58.58-.59.27,0,.55,0,.82,0H97.84a11.51,11.51,0,0,1,1.54,0,.38.38,0,0,1,.38.38v3.41c0,.14-.05.18-.18.17H87.9Z" style="fill:#7cea82"/><path d="M87.9,131.54H76.38a.51.51,0,0,1-.59-.58c0-.69,0-1.39,0-2.08v-1c0-.61.25-.86.86-.88h0l.43,0,.39,0H97.84a11.88,11.88,0,0,1,1.56,0,.65.65,0,0,1,.45.2.66.66,0,0,1,.19.47v3.41a.42.42,0,0,1-.49.46H87.9ZM76.36,131H99.47v-3.27c0-.08,0-.12-.09-.12a11.46,11.46,0,0,0-1.52,0H77.47l-.43,0-.39,0c-.29,0-.29,0-.29.3v1c0,.7,0,1.39,0,2.09Z"/><path d="M92.55,136.26H91c-.18,0-.21-.05-.21-.22,0-.43,0-.86,0-1.29,0-.15,0-.21.2-.21h3.12c.14,0,.2,0,.2.18,0,.45,0,.91,0,1.37,0,.15-.06.17-.18.17Z" style="fill:#1f1f1f"/><path d="M87.89,139.74H86.4c-.15,0-.21,0-.21-.2q0-.67,0-1.34c0-.17.06-.2.21-.2h3c.15,0,.21,0,.21.2q0,.67,0,1.34c0,.17-.06.2-.21.2Z" style="fill:#212121"/><path d="M92.51,139.74H91c-.15,0-.2,0-.2-.2q0-.68,0-1.38c0-.15.06-.18.2-.18h3.1c.16,0,.21,0,.2.2,0,.45,0,.9,0,1.34,0,.17-.06.2-.21.2Z" style="fill:#252121"/><path d="M87.92,142.39h8.63c.23,0,.29.05.29.28,0,.86,0,1.72,0,2.58a.55.55,0,0,1-.53.57H79.63l-.31,0a.34.34,0,0,1-.31-.34,4.45,4.45,0,0,1,0-.59v-2.09c0-.42,0-.38.37-.38Z" style="fill:#7cea82"/><path d="M79.59,146.11l-.31,0a.62.62,0,0,1-.56-.63,4.24,4.24,0,0,1,0-.59v-2.21a.54.54,0,0,1,.11-.43.53.53,0,0,1,.44-.11h.1l17.2,0a.58.58,0,0,1,.44.14.57.57,0,0,1,.14.43c0,.57,0,1.14,0,1.72v.86a.84.84,0,0,1-.81.85H79.59Zm-.33-3.42v2.19a4.26,4.26,0,0,0,0,.56c0,.06,0,.09,0,.09l.28,0H96.27a.27.27,0,0,0,.2-.08.26.26,0,0,0,.07-.19v-.87c0-.57,0-1.15,0-1.72h0Z"/><rect x="80.88" y="152.74" width="15.61" height="2.04" rx="1.02" ry="1.02" transform="translate(-44.69 36.63) rotate(-18.74)" style="fill:#454545"/><path d="M82.25,157.25a1.31,1.31,0,0,1-.42-2.54l12.85-4.36a1.31,1.31,0,1,1,.84,2.47h0l-12.85,4.36A1.31,1.31,0,0,1,82.25,157.25Zm12.85-6.4a.73.73,0,0,0-.24,0L82,155.25a.73.73,0,1,0,.47,1.39l12.85-4.36a.73.73,0,0,0-.24-1.43Z"/><rect x="82.66" y="159.14" width="11.43" height="1.79" rx="0.9" ry="0.9" transform="translate(-46.72 36.87) rotate(-18.74)" style="fill:#454545"/><path d="M83.82,162.77a1.18,1.18,0,0,1-.38-2.31l9.13-3.1a1.18,1.18,0,0,1,1.5.74,1.18,1.18,0,0,1-.74,1.5l-9.13,3.1A1.18,1.18,0,0,1,83.82,162.77Zm9.13-4.89a.61.61,0,0,0-.2,0L83.62,161a.61.61,0,0,0-.07,1.13.61.61,0,0,0,.47,0l9.13-3.1a.61.61,0,0,0-.2-1.19Z"/><rect x="84.68" y="165.54" width="6.9" height="1.78" rx="0.89" ry="0.89" transform="translate(-48.79 37.13) rotate(-18.74)" style="fill:#454545"/><path d="M85.7,168.43a1.18,1.18,0,0,1-.38-2.29l4.84-1.64a1.18,1.18,0,0,1,.76,2.23h0l-4.84,1.64A1.18,1.18,0,0,1,85.7,168.43ZM90.54,165a.6.6,0,0,0-.19,0l-4.84,1.64a.6.6,0,1,0,.39,1.14l4.84-1.64h0a.6.6,0,0,0-.19-1.18Z"/><path d="M65.75,116.34l7.81-15.7,2.54-5.11c.93-1.88,1.77-2.37,3.83-2.22a3.52,3.52,0,0,1,2.22,2.15,3.91,3.91,0,0,1-.42,2.71q-5.06,10.12-10.1,20.26c-.1.2-.23.4-.34.61a.39.39,0,0,1-.33-.19,6.69,6.69,0,0,0-2.66-1.92A12.8,12.8,0,0,0,65.75,116.34ZM77.89,97.25a1.56,1.56,0,0,0,2.53-1.83,1.72,1.72,0,0,0-2.16-.36A1.65,1.65,0,0,0,77.89,97.25Z" style="fill:#7cea82"/><path d="M71.46,119.33h-.18a.68.68,0,0,1-.58-.34,6.43,6.43,0,0,0-2.52-1.8,7.71,7.71,0,0,0-1.79-.45l-.71-.13-.37-.07L75.84,95.4c1-2,1.95-2.54,4.11-2.38L80,93a3.77,3.77,0,0,1,2.39,2.33A4.17,4.17,0,0,1,82,98.3q-5.07,10.13-10.1,20.26c-.06.12-.13.24-.2.37l-.14.25Zm-5.28-3.2.32.05a8.27,8.27,0,0,1,1.91.48,7,7,0,0,1,2.77,2v0c.06-.11.13-.22.18-.33q5-10.14,10.11-20.27a3.58,3.58,0,0,0,.4-2.51,3.21,3.21,0,0,0-2-1.93c-1.9-.13-2.63.3-3.51,2.07Zm13-18-.32,0a1.87,1.87,0,0,1-1.23-.71h0a1.94,1.94,0,0,1,.43-2.57,2,2,0,0,1,2.57.42,1.79,1.79,0,0,1,.29,1.33,1.92,1.92,0,0,1-.73,1.26A1.69,1.69,0,0,1,79.21,98.16Zm-1.08-1.06a1.32,1.32,0,0,0,.85.47,1.2,1.2,0,0,0,.89-.18,1.36,1.36,0,0,0,.5-.89,1.22,1.22,0,0,0-.19-.9,1.44,1.44,0,0,0-1.77-.3A1.36,1.36,0,0,0,78.13,97.09Z"/><path d="M70.19,117a13.24,13.24,0,0,1,1.74,1.93A6.69,6.69,0,0,1,73,122a.39.39,0,0,0,.16.35c-.15.68-.1,1.38-.27,2.07A7.18,7.18,0,0,1,66.06,130c-2.75.06-5.52,0-8.28,0-.72,0-1-.24-1.25-1V116.64c.29-.85.54-1,1.45-1,2.56,0,5.1,0,7.65,0A8.25,8.25,0,0,1,70.19,117Zm-4.33,11a5.08,5.08,0,0,0,5.13-5s0-.07,0-.1a5.13,5.13,0,0,0-10.27-.11v.05A5.08,5.08,0,0,0,65.86,128Z" style="fill:#828694"/><path d="M62.52,130.37H57.78c-.94,0-1.25-.42-1.52-1.24V129l0-12.47A1.48,1.48,0,0,1,58,115.32h7.65a8.61,8.61,0,0,1,4.71,1.44l.06,0c.17.18.35.36.52.53a8,8,0,0,1,1.25,1.45A7,7,0,0,1,73.28,122c0,.09,0,.12,0,.14l.15.11,0,.18a7,7,0,0,0-.12,1,7.2,7.2,0,0,1-.15,1.12,7.46,7.46,0,0,1-7.1,5.81C64.89,130.36,63.7,130.37,62.52,130.37Zm-5.7-1.4c.24.71.43.81,1,.81h2c2.05,0,4.17,0,6.25,0a6.89,6.89,0,0,0,6.56-5.37,6.77,6.77,0,0,0,.13-1,8.75,8.75,0,0,1,.1-.88.68.68,0,0,1-.14-.47,6.43,6.43,0,0,0-1-2.92,7.52,7.52,0,0,0-1.17-1.35l-.52-.52a7.75,7.75,0,0,0-4.37-1.33H58c-.76,0-.92.11-1.16.79Zm9.1-.71h-.06A5.37,5.37,0,0,1,62,126.68a5.46,5.46,0,0,1-1.57-3.91v-.06a5.33,5.33,0,0,1,1.61-3.77,5.44,5.44,0,0,1,3.81-1.53,5.32,5.32,0,0,1,5.42,5.42v.11A5.38,5.38,0,0,1,65.91,128.26ZM65.81,118A4.79,4.79,0,0,0,61,122.73a4.92,4.92,0,0,0,1.4,3.55,4.81,4.81,0,0,0,3.44,1.4h.06a4.8,4.8,0,0,0,4.8-4.75v-.09A4.76,4.76,0,0,0,65.86,118Z"/><path d="M65.86,128a5.13,5.13,0,0,1-.05-10.27h.05A5.13,5.13,0,0,1,66,128Zm0-8.2a3.06,3.06,0,0,0-3.11,3v0a3.16,3.16,0,0,0,3.12,3.12,3.06,3.06,0,0,0,3-3.08v0A3,3,0,0,0,66,119.77h-.15Z" style="fill:#7cea82"/><path d="M65.86,128.26A5.38,5.38,0,0,1,62,126.69a5.47,5.47,0,0,1-1.58-3.91,5.37,5.37,0,0,1,5.37-5.36h0A5.42,5.42,0,1,1,66,128.26Zm0-10.27A4.81,4.81,0,0,0,61,122.78a4.9,4.9,0,0,0,1.41,3.51,4.81,4.81,0,0,0,3.44,1.4H66a4.85,4.85,0,0,0-.1-9.69Zm0,8.23a3.43,3.43,0,0,1-3.41-3.4,3.35,3.35,0,0,1,1-2.39,3.45,3.45,0,0,1,2.38-.94H66a3.27,3.27,0,0,1,3.19,3.35A3.35,3.35,0,0,1,65.87,126.22Zm-.06-6.16A2.77,2.77,0,0,0,63,122.79a2.87,2.87,0,0,0,2.84,2.86,2.77,2.77,0,0,0,2.75-2.79,2.71,2.71,0,0,0-2.63-2.8h-.19Z"/><polygon points="4.55 164.07 23 144.01 28.07 143.42 44.13 158.91 40.4 168.94 7.42 168.66 4.55 164.07" style="fill:#282828"/><path d="M41,169.81l-34.06-.3L3.48,164l19.1-20.77,5.79-.67,16.76,16.16Zm-33.1-2,31.9.28,3.32-8.94L27.77,144.32l-4.35.51L5.63,164.17Z"/><path d="M11.63,157.66a6,6,0,1,0,6,6A6,6,0,0,0,11.63,157.66Zm0,8.89a2.87,2.87,0,1,1,2.87-2.87A2.87,2.87,0,0,1,11.63,166.55Z" style="fill:#828694"/><path d="M11.63,170a6.31,6.31,0,1,1,6.31-6.31A6.32,6.32,0,0,1,11.63,170Zm0-12a5.74,5.74,0,1,0,5.74,5.74A5.74,5.74,0,0,0,11.63,157.95Zm0,8.89a3.15,3.15,0,1,1,3.15-3.15A3.16,3.16,0,0,1,11.63,166.84Zm0-5.74a2.58,2.58,0,1,0,2.58,2.58A2.58,2.58,0,0,0,11.63,161.1Z"/><path d="M19.07,152.09a4.55,4.55,0,1,0,4.55,4.55A4.55,4.55,0,0,0,19.07,152.09Zm0,6.72a2.17,2.17,0,1,1,2.17-2.17A2.17,2.17,0,0,1,19.07,158.81Z" style="fill:#828694"/><path d="M19.07,161.49a4.84,4.84,0,1,1,4.84-4.84A4.84,4.84,0,0,1,19.07,161.49Zm0-9.11a4.27,4.27,0,1,0,4.27,4.27A4.27,4.27,0,0,0,19.07,152.38Zm0,6.72a2.45,2.45,0,1,1,2.45-2.45A2.46,2.46,0,0,1,19.07,159.1Zm0-4.34A1.88,1.88,0,1,0,21,156.65,1.88,1.88,0,0,0,19.07,154.77Z"/><path d="M22.15,161.2a4.19,4.19,0,1,0,4.19,4.19A4.19,4.19,0,0,0,22.15,161.2Zm0,6.19a2,2,0,1,1,2-2A2,2,0,0,1,22.15,167.39Z" style="fill:#828694"/><path d="M22.15,169.87a4.48,4.48,0,1,1,4.48-4.48A4.49,4.49,0,0,1,22.15,169.87Zm0-8.39a3.91,3.91,0,1,0,3.91,3.91A3.91,3.91,0,0,0,22.15,161.49Zm0,6.19a2.28,2.28,0,1,1,2.28-2.28A2.29,2.29,0,0,1,22.15,167.68Zm0-4a1.71,1.71,0,1,0,1.71,1.71A1.71,1.71,0,0,0,22.15,163.68Z"/><circle cx="26.44" cy="149.82" r="1.72" style="fill:#f9f9f9"/><path d="M26.44,151.76a1.94,1.94,0,1,1,1.94-1.94A1.94,1.94,0,0,1,26.44,151.76Zm0-3.44A1.51,1.51,0,1,0,28,149.82,1.51,1.51,0,0,0,26.44,148.32Z"/><circle cx="11.63" cy="163.68" r="1.72" style="fill:#f9f9f9"/><path d="M11.63,165.62a1.94,1.94,0,1,1,1.94-1.94A1.94,1.94,0,0,1,11.63,165.62Zm0-3.44a1.51,1.51,0,1,0,1.51,1.51A1.51,1.51,0,0,0,11.63,162.18Z"/><circle cx="37.01" cy="161.25" r="2.01" style="fill:#f9f9f9"/><path d="M37,163.47a2.22,2.22,0,1,1,2.22-2.22A2.22,2.22,0,0,1,37,163.47Zm0-4a1.79,1.79,0,1,0,1.79,1.79A1.79,1.79,0,0,0,37,159.45Z"/><circle cx="19.07" cy="156.65" r="1.19" transform="translate(-105.18 59.37) rotate(-45)" style="fill:#f9f9f9"/><path d="M19.07,158a1.4,1.4,0,1,1,1-.41A1.4,1.4,0,0,1,19.07,158Zm0-2.37a1,1,0,1,0,.69.28A1,1,0,0,0,19.07,155.67Z"/><circle cx="22.15" cy="165.39" r="1.09" transform="translate(-110.46 64.11) rotate(-45)" style="fill:#f9f9f9"/><path d="M22.15,166.7a1.31,1.31,0,1,1,.93-.38A1.31,1.31,0,0,1,22.15,166.7Zm0-2.19a.88.88,0,1,0,.62.26A.87.87,0,0,0,22.15,164.52Z"/><path d="M28.71,164.64a1.65,1.65,0,1,0,1.65,1.65A1.65,1.65,0,0,0,28.71,164.64Zm0,2.43a.79.79,0,1,1,.79-.79A.79.79,0,0,1,28.71,167.07Z" style="fill:#828694"/><path d="M28.71,168.23a1.94,1.94,0,1,1,1.94-1.94A1.94,1.94,0,0,1,28.71,168.23Zm0-3.3a1.36,1.36,0,1,0,1.36,1.36A1.36,1.36,0,0,0,28.71,164.93Zm0,2.43a1.07,1.07,0,1,1,1.07-1.07A1.07,1.07,0,0,1,28.71,167.36Zm0-1.57a.5.5,0,1,0,.5.5A.5.5,0,0,0,28.71,165.79Z"/><path d="M33.23,150.73A2.29,2.29,0,1,0,35.53,153,2.29,2.29,0,0,0,33.23,150.73Zm0,3.39A1.09,1.09,0,1,1,34.32,153,1.09,1.09,0,0,1,33.23,154.12Z" style="fill:#828694"/><path d="M33.23,155.61A2.58,2.58,0,1,1,35.81,153,2.58,2.58,0,0,1,33.23,155.61Zm0-4.59a2,2,0,1,0,2,2A2,2,0,0,0,33.23,151Zm0,3.39A1.38,1.38,0,1,1,34.61,153,1.38,1.38,0,0,1,33.23,154.41Zm0-2.18A.81.81,0,1,0,34,153,.81.81,0,0,0,33.23,152.22Z"/><circle cx="33.23" cy="153.03" r="0.6" transform="translate(-98.47 68.32) rotate(-45)" style="fill:#f9f9f9"/><path d="M33.23,153.84a.81.81,0,1,1,.58-.24h0A.81.81,0,0,1,33.23,153.84Zm0-1.2a.38.38,0,1,0,.27.11A.38.38,0,0,0,33.23,152.64Z"/><path d="M44.07,134.8V110.15c0-2.22,0-4.44,0-6.66a19.75,19.75,0,0,0-.9-5.84,18,18,0,0,0-3.59-6.21,17.56,17.56,0,0,0-10.11-5.69c-.62-.12-1.26-.08-1.88-.26H25.36c-.61.18-1.26.14-1.88.26a17.56,17.56,0,0,0-10.11,5.69,18,18,0,0,0-3.59,6.21,19.69,19.69,0,0,0-.9,5.84c-.06,2.22,0,4.44,0,6.66V134.8c0,1,0,1.95,0,2.92,0,.5.15.62.63.61,2.59,0,5.18,0,7.77,0H35.69c2.59,0,5.18,0,7.77,0,.48,0,.65-.12.63-.61C44,136.75,44.07,135.77,44.07,134.8ZM18.25,99.56H34.69c.34,0,.53,0,.52.47q0,2.19,0,4.38c0,.42-.17.47-.52.47H18.24c-.35,0-.52-.06-.52-.47q0-2.19,0-4.38C17.72,99.6,17.91,99.55,18.25,99.56ZM16,129.49a2.64,2.64,0,1,1,2.63-2.66s0,0,0,0A2.62,2.62,0,0,1,16,129.49Zm10.51,0a2.63,2.63,0,0,1-2.4-3.56,2.42,2.42,0,0,1,2-1.64l.39-.1.39.1a2.43,2.43,0,0,1,2,1.64,2.64,2.64,0,0,1-2.41,3.57Zm5.18-18.76a5.21,5.21,0,0,1-10.37,0c0-.43,0-.61.52-.6,1.55,0,3.11,0,4.67,0s3.11,0,4.67,0C31.65,110.12,31.71,110.3,31.66,110.73ZM37,129.49a2.62,2.62,0,0,1-2.63-2.61s0,0,0,0A2.63,2.63,0,1,1,37,129.49Z" style="fill:#bcbcbc"/><path d="M9.48,138.91a1.2,1.2,0,0,1-.9-.3,1.19,1.19,0,0,1-.28-.9c0-.63,0-1.29,0-1.92,0-.33,0-.65,0-1V110.15c0-.68,0-1.35,0-2,0-1.52,0-3.09,0-4.65a19.89,19.89,0,0,1,.93-6A18.5,18.5,0,0,1,13,91.06a18.22,18.22,0,0,1,10.42-5.87,7.71,7.71,0,0,1,.86-.1,4.82,4.82,0,0,0,1-.14l.16,0,2.39,0a4.84,4.84,0,0,0,1,.14,7.73,7.73,0,0,1,.86.1A18.23,18.23,0,0,1,40,91.06a18.51,18.51,0,0,1,3.7,6.41,19.94,19.94,0,0,1,.92,6c0,1.58,0,3.19,0,4.74q0,1,0,1.94V134.8c0,.28,0,.55,0,.83,0,.68,0,1.38,0,2.07a1.19,1.19,0,0,1-.27.9,1.23,1.23,0,0,1-.93.31H14.68c-1.72,0-3.45,0-5.17,0Zm0-1.15H9.5c1.73,0,3.46,0,5.18,0H43.51v0c0-.71,0-1.43,0-2.12,0-.27,0-.55,0-.82V110.15q0-1,0-1.94c0-1.54,0-3.14,0-4.7a18.85,18.85,0,0,0-.86-5.67,17.38,17.38,0,0,0-3.47-6,16.88,16.88,0,0,0-9.79-5.51,6.58,6.58,0,0,0-.73-.09,6.14,6.14,0,0,1-1.11-.16H25.44a6.13,6.13,0,0,1-1.11.16,6.59,6.59,0,0,0-.73.09,16.88,16.88,0,0,0-9.79,5.5,17.37,17.37,0,0,0-3.47,6,18.81,18.81,0,0,0-.87,5.67c0,1.53,0,3.1,0,4.61,0,.68,0,1.36,0,2V134.8c0,.32,0,.65,0,1,0,.64,0,1.31,0,2Zm16.61-7.66,0-.09a3.2,3.2,0,0,1-2.21-1.45,3.17,3.17,0,0,1-.28-2.84,3,3,0,0,1,2.47-2l.3-.08.18-.06.18.06.32.08a3,3,0,0,1,2.45,2,3.19,3.19,0,0,1-.29,2.86,3.26,3.26,0,0,1-2.61,1.49Zm.42-5.31-.29.06a1.85,1.85,0,0,0-1.58,1.29,2,2,0,0,0,.18,1.81,2,2,0,0,0,3.37,0,2.07,2.07,0,0,0,.19-1.82,1.85,1.85,0,0,0-1.56-1.28ZM37,130.07a3.2,3.2,0,0,1-3.19-3.18,3.2,3.2,0,1,1,3.2,3.18h0Zm0-5.29a2.08,2.08,0,0,0-2,2.08,2.05,2.05,0,0,0,2,2.06h0a2.07,2.07,0,0,0,0-4.14Zm-21,5.28a3.22,3.22,0,0,1,0-6.43h0a3.22,3.22,0,0,1,0,6.43l0-.57v.57Zm0-5.29h0a2.07,2.07,0,0,0,0,4.14h0a2,2,0,0,0,2-2.06A2.07,2.07,0,0,0,16,124.78ZM26.5,116a5.84,5.84,0,0,1-5.78-5.17,1.15,1.15,0,0,1,.22-.94,1.13,1.13,0,0,1,.89-.3c1.11,0,2.25,0,3.35,0h1.67c1.41,0,2.86,0,4.28,0a1.11,1.11,0,0,1,.89.3,1.15,1.15,0,0,1,.21.94A5.83,5.83,0,0,1,26.5,116Zm-4.63-5.26a4.64,4.64,0,0,0,9.22,0c-1.42,0-2.85,0-4.24,0H25.18C24.09,110.73,23,110.73,21.86,110.71Zm12.86-5.26H18.24a1.11,1.11,0,0,1-.83-.27,1.07,1.07,0,0,1-.26-.78c0-1.45,0-2.92,0-4.36a1.08,1.08,0,0,1,.27-.78,1.1,1.1,0,0,1,.83-.27H34.69a1.11,1.11,0,0,1,.83.27,1.07,1.07,0,0,1,.26.78c0,1.45,0,2.91,0,4.36a1.09,1.09,0,0,1-.27.79A1.08,1.08,0,0,1,34.73,105.45ZM18.3,100.13c0,1.38,0,2.79,0,4.18H34.64c0-1.38,0-2.79,0-4.18H18.3Z" style="fill:#444"/><g style="clip-path:url(#clip-path)"><path d="M32.9,0c14.19,113-.81,190.42-.81,190.42S32.53-2.85,32.9,0Z" style="fill:#e2e2e2"/></g><path d="M36.1,99.28c0-.54-.19-.6-.56-.6h-8.9c-3,0-5.93,0-8.9,0-.37,0-.57.05-.56.6q0,2.79,0,5.59c0,.53.18.61.56.6h8.91c3,0,5.94,0,8.91,0,.38,0,.56-.07.56-.6Q36.06,102.08,36.1,99.28Z" style="fill:#fff"/><path d="M17.71,105.76a.82.82,0,0,1-.61-.19,1,1,0,0,1-.21-.7c0-1.86,0-3.73,0-5.58a.94.94,0,0,1,.2-.69.85.85,0,0,1,.64-.2h.19c2.9,0,5.8,0,8.71,0h8.9a.86.86,0,0,1,.64.19,1,1,0,0,1,.21.69h0c0,1.86,0,3.73,0,5.58a1,1,0,0,1-.21.7.84.84,0,0,1-.64.2c-2.92,0-5.94,0-8.91,0s-5.94,0-8.91,0Zm0-6.79c-.19,0-.23,0-.23,0s0,0,0,.28c0,1.86,0,3.74,0,5.6,0,.24,0,.29,0,.29s0,0,.23,0c3,0,5.94,0,8.91,0s6,0,8.91,0c.19,0,.23,0,.23,0s0,0,0-.29c0-1.85,0-3.73,0-5.59,0-.24,0-.29,0-.29a.62.62,0,0,0-.23,0h-8.9c-2.9,0-5.81,0-8.71,0Z"/><polygon points="29.5 104.44 29.5 101.67 28.78 102.39 24.49 103.01 23.38 101.35 21.17 102.45 19.41 101.28 18.09 101.55 17.98 100.98 19.53 100.67 21.21 101.79 23.58 100.61 24.77 102.39 28.51 101.85 30.08 100.28 30.08 103.25 32.58 101.25 34.71 101.55 34.63 102.12 32.74 101.85 29.5 104.44" style="fill:#7cea82"/><path d="M34.09,127A2.89,2.89,0,0,0,37,129.94h0a2.92,2.92,0,1,0-2.9-2.91Z" style="fill:#777"/><path d="M37,130.51A3.47,3.47,0,0,1,33.51,127,3.48,3.48,0,1,1,37,130.51Zm0-5.84A2.36,2.36,0,0,0,34.66,127h0A2.32,2.32,0,0,0,37,129.37a2.35,2.35,0,1,0,0-4.69Z" style="fill:#444"/><circle cx="26.44" cy="149.82" r="0.57" transform="translate(-46.72 16.43) rotate(-18.74)"/><path d="M26.45,150.68a.86.86,0,1,1,.81-1.14h0a.86.86,0,0,1-.54,1.09A.86.86,0,0,1,26.45,150.68Zm0-1.15-.09,0a.29.29,0,1,0,.36.18h0a.29.29,0,0,0-.27-.19Z"/><circle cx="11.63" cy="163.68" r="0.57" transform="matrix(0.95, -0.32, 0.32, 0.95, -51.96, 12.41)"/><path d="M11.63,164.55a.86.86,0,1,1,.28,0A.85.85,0,0,1,11.63,164.55Zm0-1.15-.09,0a.29.29,0,0,0,0,.53.28.28,0,0,0,.22,0,.29.29,0,0,0,.18-.36h0a.29.29,0,0,0-.27-.19Z"/><circle cx="37.01" cy="161.25" r="0.57" transform="translate(-49.83 20.43) rotate(-18.74)"/><path d="M37,162.11a.86.86,0,1,1,.28,0A.85.85,0,0,1,37,162.11ZM37,161l-.09,0a.29.29,0,0,0,0,.53.28.28,0,0,0,.22,0,.29.29,0,0,0,.18-.36h0A.29.29,0,0,0,37,161Z"/><path d="M37,153.93a7.31,7.31,0,1,0,7.31,7.31A7.31,7.31,0,0,0,37,153.93Zm0,10.8a3.48,3.48,0,1,1,3.48-3.48A3.48,3.48,0,0,1,37,164.73Z" style="fill:#828694"/><path d="M37,168.85a7.6,7.6,0,1,1,7.6-7.6A7.61,7.61,0,0,1,37,168.85Zm0-14.63a7,7,0,1,0,7,7A7,7,0,0,0,37,154.22ZM37,165a3.77,3.77,0,1,1,3.77-3.77A3.77,3.77,0,0,1,37,165Zm0-7a3.2,3.2,0,1,0,3.2,3.2A3.2,3.2,0,0,0,37,158.05Z"/><path d="M26.44,143.8a6,6,0,1,0,6,6A6,6,0,0,0,26.44,143.8Zm0,8.89a2.87,2.87,0,1,1,2.87-2.87A2.87,2.87,0,0,1,26.44,152.69Z" style="fill:#828694"/><path d="M26.44,156.13a6.31,6.31,0,1,1,6.31-6.31A6.32,6.32,0,0,1,26.44,156.13Zm0-12a5.74,5.74,0,1,0,5.74,5.74A5.74,5.74,0,0,0,26.44,144.09Zm0,8.89a3.15,3.15,0,1,1,3.15-3.15A3.16,3.16,0,0,1,26.44,153Zm0-5.74A2.58,2.58,0,1,0,29,149.82,2.58,2.58,0,0,0,26.44,147.24Z"/><path d="M44.7,156.61,30.94,142.85a5.54,5.54,0,0,0-8,0C20.61,145.14,5.13,161.2,5.13,161.2c-4,4-2.29,8,1.72,8.6,4,0,22.94.57,31,0C48.14,169.8,48.14,160.05,44.7,156.61Zm-9,10.7c-6.37.45-21.38,0-24.56,0-5.77-.08-6.91-1.81-1.36-6.82l14.1-14.55c2.15-2.22,3.87-2.22,6.37,0,1.92,1.71,8.08,8.3,10.92,10.92C45,160.34,43.93,167.31,35.74,167.31Z" style="fill:#686a69"/><path d="M27.12,170.34c-5.28,0-11-.1-15.12-.18-2.34,0-4.19-.08-5.15-.08a4.75,4.75,0,0,1-4.08-3c-.62-1.87.16-4.09,2.16-6.08.15-.16,15.51-16.08,17.78-18.35a5.83,5.83,0,0,1,8.44,0l13.77,13.77a8.68,8.68,0,0,1,1.53,8.9c-.74,1.78-2.84,4.78-8.62,4.78C35.15,170.28,31.26,170.34,27.12,170.34ZM7,169.52c1,0,2.76,0,5,.07,7.37.13,19.71.36,25.79-.08,4.05,0,6.93-1.57,8.11-4.42a8.07,8.07,0,0,0-1.41-8.28L30.73,143a5.27,5.27,0,0,0-7.62,0c-2.27,2.27-17.62,18.19-17.78,18.35-1.84,1.84-2.58,3.84-2,5.5a4.18,4.18,0,0,0,3.58,2.62Zm20.24-1.72c-4.19,0-8.7-.08-12-.14-1.86,0-3.32-.06-4.08-.06-3.12,0-4.76-.57-5.17-1.66s.69-3,3.61-5.66l14.09-14.54c2.25-2.34,4.15-2.34,6.76,0,.94.84,2.88,2.82,4.93,4.93,2.23,2.28,4.53,4.65,6,6a6.4,6.4,0,0,1,1.81,6.92c-1,2.56-3.72,4-7.45,4C33.62,167.74,30.53,167.8,27.25,167.8ZM11.19,167c.77,0,2.23,0,4.09.06,5.85.11,15.63.28,20.44-.06h0c3.49,0,6-1.34,6.93-3.67A5.82,5.82,0,0,0,41,157.06c-1.47-1.35-3.78-3.72-6-6-2-2.1-4-4.08-4.9-4.9-2.38-2.11-3.94-2.12-6,0L10,160.68c-2.66,2.41-3.83,4.1-3.47,5S8.42,167,11.19,167Z"/><polygon points="79.56 171.4 77.56 166.4 79.56 162.4 85.74 164.09 87.53 161.2 90.56 165.4 95.56 162.4 98.56 164.4 99.56 171.4 79.56 171.4" style="fill:#2b1c1c;stroke:#000;stroke-miterlimit:10;stroke-width:0.5px"/></g></g></svg>