<svg id="Calque_1" data-name="Calque 1" xmlns="http://www.w3.org/2000/svg" xmlns:xlink="http://www.w3.org/1999/xlink" viewBox="0 0 560 560"><defs><clipPath id="clip-path"><path id="SVGID" d="M250.6,300.78V174.93c0-11.34.21-22.68-.09-34-.27-10-1.3-20.09-4.57-29.79a92.07,92.07,0,0,0-18.31-31.7c-13.83-15.73-31.22-25-51.59-29-3.16-.62-6.45-.4-9.58-1.33H155.09c-3.12.92-6.42.7-9.58,1.33-20.37,4-37.75,13.31-51.59,29a92.07,92.07,0,0,0-18.31,31.7c-3.27,9.68-4.3,19.71-4.57,29.79-.3,11.33-.08,22.67-.09,34V300.78c0,5,.15,9.94,0,14.91-.09,2.54.77,3.15,3.2,3.13,13.22-.1,26.44,0,39.65,0h94c13.22,0,26.44-.07,39.65,0,2.43,0,3.3-.6,3.2-3.13C250.44,310.72,250.59,305.74,250.6,300.78Zm-143.48-27.1a13.49,13.49,0,1,1,13.42-13.56s0,.09,0,.13a13.38,13.38,0,0,1-13.33,13.43Zm53.65,0c-10.76-.76-15.2-10.78-12.27-18.17,1.84-4.66,5.15-7.66,10.29-8.38a15,15,0,0,0,2-.5,15,15,0,0,0,2,.5c5.13.71,8.44,3.72,10.29,8.38,2.89,7.43-1.56,17.45-12.3,18.2Zm26.47-95.75c-1.57,13.46-12.49,23.29-26.47,23.81-14-.52-24.9-10.37-26.47-23.81-.25-2.19.07-3.13,2.65-3.06,7.93.19,15.88.11,23.81.13s15.88.06,23.82-.13C187.16,174.79,187.49,175.73,187.23,177.93Zm27.18,95.76A13.38,13.38,0,0,1,201,260.35s0-.06,0-.09a13.42,13.42,0,1,1,13.36,13.42Z" style="fill:none"/></clipPath></defs><title>robot_rouge</title><ellipse cx="154.65" cy="464.64" rx="129.04" ry="33.18" style="opacity:0.4"/><path d="M423.43,104.59a8.45,8.45,0,0,1,8-8c3.85,0,7.88,4,7.94,7.88.07,4-3.91,8-8,8C427.45,112.51,423.49,108.58,423.43,104.59Z" style="fill:#6f7487"/><path d="M432.8,364.73,465,473.07a8.69,8.69,0,0,0,16.6.19l34.93-108.35a8.69,8.69,0,0,0-8.27-11.36H441.13A8.69,8.69,0,0,0,432.8,364.73Z" style="fill:#454545"/><path d="M473.39,480.75h-.13a10,10,0,0,1-9.62-7.26L431.4,365.15a10.15,10.15,0,0,1,9.73-13.05h67.18A10.15,10.15,0,0,1,518,365.36L483,473.71A10,10,0,0,1,473.39,480.75ZM434.21,364.31l32.25,108.35a7,7,0,0,0,6.84,5.16h.08a7,7,0,0,0,6.88-5l34.93-108.35a7.22,7.22,0,0,0-6.88-9.44H441.13a7.22,7.22,0,0,0-6.92,9.29Z"/><rect x="429.51" y="362.11" width="85.84" height="10.4" rx="1.02" ry="1.02" transform="translate(-92.95 171.21) rotate(-18.74)" style="fill:#454545"/><path d="M436.71,386.1a6.67,6.67,0,0,1-2.14-13L506,348.88a6.67,6.67,0,0,1,4.28,12.63h0l-71.44,24.23A6.68,6.68,0,0,1,436.71,386.1Zm71.44-34.64a3.7,3.7,0,0,0-1.2.2l-71.44,24.23a3.74,3.74,0,1,0,2.4,7.08l71.44-24.23a3.74,3.74,0,0,0-1.2-7.28Z"/><path d="M70.95,175.3V301.15c-5,0-9.94-.1-14.92.1-2.42.1-3-.73-3-3q.11-41.9,0-83.82c0-12.05.06-24.11-.05-36.09,0-2.33.59-3.11,3-3C61,175.44,66,175.31,70.95,175.3Z" style="fill:#777"/><path d="M55.65,304.19a5.58,5.58,0,0,1-4-1.38,6,6,0,0,1-1.56-4.57c.07-27.81.07-56,0-83.81V205c0-8.91,0-17.82-.06-26.68a6.08,6.08,0,0,1,1.55-4.61,6,6,0,0,1,4.51-1.36c3.38.09,6.76.05,10.15,0l4.69,0h2.93V304.08H67.21c-3.64,0-7.39,0-11.06.11Zm.25-125.94v.09C56,187.19,56,196.11,56,205v9.38c.07,27.81.07,56,0,83.83v.08c3.79-.15,7.59-.14,11.29-.11H68v-120l-1.71,0c-3.46,0-6.92.07-10.4,0Z" style="fill:#444"/><path d="M121.67,260.38a14.5,14.5,0,0,1-14.44,14.56h-.1a14.69,14.69,0,0,1-14.59-14.6,14.85,14.85,0,0,1,14.62-14.64A14.67,14.67,0,0,1,121.67,260.38Z" style="fill:#777"/><path d="M107.25,279.33a19,19,0,1,1,18.82-19,18.89,18.89,0,0,1-18.82,19Zm-.13-29.25a10.23,10.23,0,0,0,0,20.46,10.11,10.11,0,0,0,10.12-10.15v0A10.31,10.31,0,0,0,107.11,250.09Z" style="fill:#444"/><path d="M175.46,260.38A14.5,14.5,0,0,1,161,274.94h-.1a14.69,14.69,0,0,1-14.59-14.6,14.85,14.85,0,0,1,14.62-14.64A14.67,14.67,0,0,1,175.46,260.38Z" style="fill:#6f7487"/><path d="M267,196.09c1-1.39,1.89-3,3.77-3.51,3.47-1,6.48,1.35,6.81,5.33.18,2.15.15,4.31.21,6.47,0,13.06-.08,26.21-.08,39.31,0,10.43.08,20.84.12,31.27-.07,1.47-.22,2.94-.2,4.41,0,3-.22,5.89-3.36,7.25s-5.34-.59-7.27-2.82Z" style="fill:#828694"/><path d="M272.18,288.55c-3.07,0-5.2-2.46-6.34-3.79l-.36-.41V195.61l.67-.95a7.5,7.5,0,0,1,4.18-3.5,6.55,6.55,0,0,1,5.59.88,7.57,7.57,0,0,1,3.05,5.75c.13,1.54.15,3.09.18,4.64l0,1.91q0,9.84,0,19.66t0,19.69q0,10.42.07,20.83l0,10.43-.09,1.5c-.06,1-.13,1.93-.11,2.9,0,2.54,0,6.77-4.24,8.61A6.56,6.56,0,0,1,272.18,288.55Zm-3.77-5.3c2.06,2.27,3.47,2.8,5.23,2,2.11-.92,2.48-2.64,2.48-5.91,0-1,.05-2.07.12-3.11l.08-1.37-.05-10.35q-.06-10.42-.07-20.85,0-9.84,0-19.7t0-19.61l0-1.91c0-1.48,0-3-.17-4.44a4.72,4.72,0,0,0-1.81-3.59,3.63,3.63,0,0,0-3.15-.45c-1.11.29-1.77,1.24-2.54,2.34l-.15.21Z"/><path d="M454.58,91.06c.08-1.78.12-3.57.26-5.34.5-6.37,4.3-10.25,10.69-10.51,5.15-.21,10.33-.23,15.48,0,6.6.3,10.51,4.53,10.56,11.2.07,9.92,0,19.85,0,29.78,0,4.14-.94,5.24-5.09,6.49H460c-4.12-1.26-5-2.47-5.19-6.75-.09-3-.14-6.12-.21-9.18A74.5,74.5,0,0,0,454.58,91.06Z" style="fill:#828694"/><path d="M486.69,124.14l-27.16-.06c-4.69-1.43-6-3.17-6.23-8.09-.06-2.08-.1-4.19-.15-6.3l-.06-2.91a74.62,74.62,0,0,0,0-15.57V91.1l.07-1.63c.05-1.29.1-2.58.2-3.87.56-7.14,5.08-11.57,12.09-11.85,5.41-.22,10.66-.22,15.61,0,7.32.33,11.9,5.18,12,12.65,0,6.62,0,13.24,0,19.86l0,9.93c0,4.75-1.32,6.44-6.14,7.89Zm-26.51-2.93h26.08c3.41-1,3.85-1.65,3.85-5l0-9.94c0-6.61,0-13.22,0-19.83,0-5.93-3.39-9.49-9.16-9.75-4.87-.22-10-.22-15.35,0-5.54.23-8.84,3.48-9.29,9.16-.1,1.25-.15,2.5-.19,3.75L456,91a76.12,76.12,0,0,1,0,15.89l.07,2.72c0,2.1.09,4.2.15,6.26C456.37,119.47,456.86,120.18,460.18,121.21Z"/><path d="M465.28,233.09V136.83c0-1.29-.13-2.57-.21-3.86h16.38c-.08,1.29-.23,2.57-.23,3.85V233.1Z" style="fill:#828694"/><path d="M482.68,234.57H463.81V136.83c0-.9-.07-1.79-.13-2.69l-.17-2.63H483l-.19,2.8c-.07.84-.13,1.67-.13,2.5Zm-15.94-2.94h13V136.82c0-.79.05-1.59.11-2.38H466.64c.06.8.1,1.6.1,2.39Z"/><path d="M277.8,275c0-10.43-.12-20.84-.12-31.27,0-13.06,0-26.21.08-39.31,3.17.74,6.4,1.32,9.51,2.27a8,8,0,0,1,6,6.76V266a7.59,7.59,0,0,1-6,6.79C284.1,273.59,280.93,274.23,277.8,275Z" style="fill:#828694"/><path d="M276.33,276.8V275q0-7.82-.06-15.63t-.06-15.64c0-13.06,0-26.21.08-39.32v-1.84l1.79.42c1,.23,2,.44,2.93.65,2.2.47,4.47,1,6.67,1.64a9.42,9.42,0,0,1,7,8V266a9.13,9.13,0,0,1-7.19,8.22c-2.08.55-4.27,1-6.46,1.53Zm2.88-70.59c-.07,12.5-.07,25-.07,37.48q0,7.81.06,15.62c0,4.61.05,9.21.06,13.82l1.14-.25c2.15-.48,4.3-1,6.43-1.52a6.19,6.19,0,0,0,4.94-5.5V213.4a6.51,6.51,0,0,0-4.86-5.34c-2.15-.66-4.36-1.14-6.5-1.6Z"/><path d="M481.57,254.48c3.16,0,6.33-.17,9.48-.08,4,.11,5.81,2,5.87,6.18v7.71c0,4.77-.74,5.77-5.29,7.25H475.89c-3.66,0-7.31,0-11-.18a10.35,10.35,0,0,1-10-10.64v-.06c.08-5.73,4.2-9.85,10.13-10.15Z" style="fill:#d83b38"/><path d="M491.86,277h-16c-3.61,0-7.35,0-11-.19a11.82,11.82,0,0,1-11.44-12.14c.09-6.52,4.83-11.29,11.53-11.63l16.61,0c1.24,0,2.48,0,3.72-.05,1.94,0,3.88-.08,5.81,0,4.76.13,7.21,2.69,7.29,7.62v7.73c0,5.42-1.12,7-6.3,8.65Zm-10.29-21.06L465,256c-5.09.26-8.61,3.76-8.67,8.71a8.88,8.88,0,0,0,8.62,9.21c3.64.18,7.34.18,10.92.18h15.49c3.75-1.24,4.06-1.74,4.06-5.79v-7.71c0-3.39-1.21-4.63-4.44-4.71-1.88-.06-3.77,0-5.66,0-1.26,0-2.52.05-3.78.05Z"/><path d="M314.19,208.06v63.19c-1.59,0-3.17.07-4.76,0-3.19-.12-5.17-2.12-5.46-5.4V213.48c.61-3.64,2.29-5.24,5.82-5.44C311.23,208,312.71,208,314.19,208.06Z" style="fill:#d4dbeb"/><path d="M311,272.74c-.55,0-1.1,0-1.65,0-3.93-.15-6.5-2.67-6.86-6.74V213.48c.75-4.55,3-6.66,7.2-6.9,1-.06,2,0,3.08,0l2.88,0v66.11h-3Zm.08-63.28c-.41,0-.83,0-1.24,0-2.82.16-3.95,1.23-4.45,4.23l0,52.12a3.94,3.94,0,0,0,4.06,3.94c1,0,2.07,0,3.1,0h.14l0-60.3Z"/><path d="M303.92,213.49q0,26.18,0,52.36L293.2,266V213.41Z" style="fill:#484857"/><path d="M291.73,267.47V211.94l13.66.1V267.3Zm2.93-52.58V264.5l7.8-.1V214.95Z"/><path d="M481.44,133H465.06c-3-.15-4.51-1.86-4.86-4.64-.23-1.86-.17-3.75-.24-5.62h26.54c-.08,1.87-.06,3.76-.26,5.61C485.92,131.1,484.37,132.79,481.44,133Z" style="fill:#d83b38"/><path d="M481.48,134.42H465.06c-3.64-.18-5.85-2.28-6.31-5.92a37,37,0,0,1-.21-4.06c0-.57,0-1.13,0-1.7l-.05-1.52H488l-.12,3.26c0,1.33-.07,2.66-.21,4-.41,3.64-2.59,5.75-6.16,6Zm-20-10.26c0,.08,0,.16,0,.24a34.39,34.39,0,0,0,.19,3.74c.28,2.22,1.36,3.25,3.48,3.36h16.26c2.1-.13,3.14-1.17,3.38-3.35.13-1.23.16-2.48.2-3.73,0-.09,0-.17,0-.26Z"/><path d="M465.28,233.09h15.89c4.19,1.39,5.72,3.5,4.94,6.72-.62,2.62-2.65,3.49-4.93,4.09H465.27c-4.36-1.43-6-4-4.79-7.29C461.31,234.39,463.24,233.65,465.28,233.09Z" style="fill:#5d668a"/><path d="M481.37,245.36l-16.56-.07c-2.85-.93-4.75-2.35-5.64-4.22a6.24,6.24,0,0,1-.06-5c1.18-3.15,4.17-4,5.78-4.41l.39-.05,16.35.07c4.88,1.61,6.86,4.45,5.9,8.45-.9,3.82-4.33,4.72-6,5.16Zm-15.86-2.93H481c2.08-.57,3.29-1.23,3.7-3s.45-3.47-3.76-4.92H465.48c-1.94.55-3.09,1.14-3.63,2.56a3.32,3.32,0,0,0,0,2.69C462.32,240.87,463.59,241.78,465.51,242.44Z"/><path d="M454.58,91.06a74.5,74.5,0,0,1,0,15.71l-11-.09c1.59-5.65.26-10.77-2.94-15.52Z" style="fill:#484857"/><path d="M455.9,108.24l-14.29-.12.52-1.84c1.36-4.86.47-9.54-2.75-14.31l-1.53-2.26,18-.13L456,90.9a75.77,75.77,0,0,1,0,16Zm-10.52-3,7.88.07a73.18,73.18,0,0,0,0-12.76l-10.08.07A18.66,18.66,0,0,1,445.37,105.22Z"/><path d="M465.27,243.9h15.91c.21,3.53-.38,7,.34,10.58H465C465.55,251,465.12,247.42,465.27,243.9Z" style="fill:#d83b38"/><path d="M483.31,255.94h-20l.26-1.68a37.31,37.31,0,0,0,.23-6.33c0-1.36-.05-2.72,0-4.09l.06-1.4h18.69l.08,1.38c.08,1.38,0,2.75,0,4.12a27.12,27.12,0,0,0,.3,6.25ZM466.65,253h13.16a38.54,38.54,0,0,1-.09-5.16c0-.83,0-1.66,0-2.49H466.7c0,.83,0,1.67,0,2.5C466.76,249.55,466.79,251.27,466.65,253Z"/><path d="M361.81,224.07a15.23,15.23,0,0,1,15.6,14.85q0,.38,0,.75A15.62,15.62,0,0,1,362,255.53h-.15a16.15,16.15,0,0,1-16-15.94,15.62,15.62,0,0,1,15.72-15.52Z" style="fill:#6f7487"/><path d="M362.05,257a17.56,17.56,0,0,1-17.59-17.38,17.11,17.11,0,0,1,17.08-17h.11l.15,1.47,0-1.46a16.69,16.69,0,0,1,17.1,16.27c0,.28,0,.55,0,.83A17.08,17.08,0,0,1,362.05,257Zm-.46-31.46a14.18,14.18,0,0,0-14.2,14.07,14.6,14.6,0,0,0,14.5,14.47,14.16,14.16,0,0,0,14-14.37c0-.29,0-.51,0-.74a13.76,13.76,0,0,0-14.1-13.42h-.25Z"/><path d="M250.59,174.56V300.41c5,0,9.94-.1,14.92.1,2.42.1,3-.73,3-3q-.11-41.9,0-83.82c0-12.05-.06-24.11.05-36.09,0-2.33-.59-3.11-3-3C260.55,174.7,255.53,174.56,250.59,174.56Z" style="fill:#777"/><path d="M265.89,303.44h-.5c-3.66-.15-7.43-.13-11.05-.11h-6.67V171.63h2.93c1.7,0,3.4,0,5.11,0,3.25,0,6.52.07,9.78,0a5.94,5.94,0,0,1,4.47,1.36,6.06,6.06,0,0,1,1.55,4.58c-.08,8.89-.07,17.79-.06,26.71v9.38c-.07,27.81-.07,56,0,83.81a6,6,0,0,1-1.56,4.58A5.59,5.59,0,0,1,265.89,303.44Zm-7.86-6c2.5,0,5,0,7.57.13v-.09c-.07-27.8-.07-56,0-83.83V204.3c0-8.93,0-17.86.06-26.74v-.06c-3.36.09-6.68.06-10,0l-2.13,0v120H258Z" style="fill:#444"/><path d="M208.2,318.79H113.79c4.22,19.83,25.88,36.23,47.1,35.71h.23C182.31,355,204,338.6,208.2,318.79Z" style="fill:#777"/><path d="M160,357.43c-22.35,0-44.62-17.2-49.06-38l-.75-3.54H211.82l-.75,3.54c-4.51,21.16-27.44,38.6-50,38Zm-42.37-35.72c5.59,16.95,24.55,30.28,43.2,29.85h.3c18.5.4,37.65-13.16,43.25-29.85Z" style="fill:#444"/><path d="M185.59,174.32c-8.18.2-16.36.12-24.54.13h-.51c-8.18,0-16.36.07-24.54-.13-2.67-.07-3,.91-2.75,3.18,1.62,13.9,12.85,24.11,27.25,24.74h.58c14.4-.66,25.62-10.84,27.25-24.74C188.62,175.23,188.23,174.26,185.59,174.32Z" style="fill:#717588"/><path d="M474.36,340.65H430.42c-1.12,0-1.47-.21-1.47-1.42q.07-28,0-55.94c0-1.11.31-1.36,1.39-1.36h88.13c1.06,0,1.4.22,1.4,1.36q-.06,28,0,56.07c0,1.06-.31,1.3-1.33,1.29Q496.45,340.62,474.36,340.65ZM498,308.25h8c.64,0,.93-.1.92-.84,0-2.32-.05-4.65,0-7,0-.81-.31-.91-1-.91H490.07c-.87,0-1,.32-1,1.07,0,2.19.05,4.39,0,6.58,0,.84.18,1.12,1.07,1.1C492.78,308.21,495.41,308.25,498,308.25ZM474.29,326h7.89c.76,0,1.09-.12,1.06-1q-.09-3.42,0-6.84c0-.87-.32-1-1.07-1H466.64c-.75,0-1.09.12-1.06,1q.09,3.42,0,6.84c0,.87.32,1,1.07,1C469.2,326,471.75,326,474.29,326Zm23.57,0h7.9c.74,0,1.1-.1,1.07-1-.06-2.28-.05-4.57,0-6.85,0-.81-.24-1-1-1H490c-.71,0-1,.15-1,.93q.07,3.49,0,7c0,.75.22,1,1,1,2.59-.13,5.2-.1,7.84-.1Z" style="fill:#d4dbeb"/><path d="M518.6,342.11h-.07q-22.06,0-44.17,0H430.42c-1.26,0-2.93-.3-2.93-2.88q.07-28,0-55.93c0-1.9.93-2.82,2.85-2.82h88.13c1.93,0,2.86.92,2.86,2.82q-.06,28,0,56.06a2.78,2.78,0,0,1-.7,2.07A2.73,2.73,0,0,1,518.6,342.11Zm-88.18-2.93h43.93q22,0,44,0c0-18.77,0-37.28,0-55.78h-88Q430.49,311.29,430.42,339.18Zm59.67-11.61a2.26,2.26,0,0,1-2.54-2.46c0-2.37,0-4.69,0-7a2.21,2.21,0,0,1,2.47-2.43h15.81a2.23,2.23,0,0,1,2.47,2.47c0,2.29-.06,4.55,0,6.81a2.49,2.49,0,0,1-.6,1.84,2.56,2.56,0,0,1-1.94.66h-9.12c-2.21,0-4.38,0-6.55.1Zm.41-9c0,2,0,4,0,6,1.67-.06,3.24-.17,5-.07h9.91c0-2,0-4,0-5.93Zm-8.32,8.86H471.74c-1.69,0-3.37,0-5.07,0a2.25,2.25,0,0,1-2.56-2.47c.06-2.3.06-4.55,0-6.8a2.49,2.49,0,0,1,.6-1.85,2.55,2.55,0,0,1,1.93-.66h15.53a2.24,2.24,0,0,1,2.54,2.47c-.06,2.3-.06,4.55,0,6.8a2.49,2.49,0,0,1-.6,1.84A2.55,2.55,0,0,1,482.18,327.47Zm-13.55-2.94h13.14c0-2,0-4,0-5.91H467.06c0,2,0,4,0,5.91ZM490,309.74a2.46,2.46,0,0,1-1.79-.62,2.62,2.62,0,0,1-.66-1.94c0-1.48,0-2.93,0-4.38v-2.2a2.24,2.24,0,0,1,2.47-2.54H506a2.19,2.19,0,0,1,2.47,2.38c0,1.57,0,3.11,0,4.65v2.33a2.31,2.31,0,0,1-.59,1.69,2.38,2.38,0,0,1-1.79.62h-10.3c-1.87,0-3.74,0-5.61,0Zm.49-8.76v1.79c0,1.34,0,2.68,0,4,1.84,0,3.55,0,5.26,0h9.74V305.1c0-1.37,0-2.74,0-4.11Z"/><path d="M474.33,282.68H415.49c-1.17,0-1.57-.24-1.55-1.5.08-5.32,0-10.64,0-16,0-2.28.63-3,3-3,1.4,0,2.79.18,4.2.18h104a58.76,58.76,0,0,1,7.86,0,1.94,1.94,0,0,1,1.92,2s0,.08,0,.13v17.29c0,.7-.26.94-.92.88h-1.05Z" style="fill:#d83b38"/><path d="M474.33,284.14H415.49a2.61,2.61,0,0,1-3-3c.05-3.54,0-7.07,0-10.61l0-5.33c0-3.1,1.27-4.4,4.38-4.48h0c.76,0,1.49,0,2.21.09s1.34.09,2,.09H525a60.66,60.66,0,0,1,8,0,3.33,3.33,0,0,1,2.31,1,3.37,3.37,0,0,1,1,2.41v17.4a2.16,2.16,0,0,1-2.52,2.34h-.92Zm-58.92-2.93h.08l117.88,0V264.47c0-.4-.2-.61-.47-.61a58.52,58.52,0,0,0-7.76,0H421.09c-.73,0-1.47,0-2.2-.09s-1.33-.09-2-.09c-1.49,0-1.49.07-1.49,1.55l0,5.32c0,3.55,0,7.11,0,10.67Z"/><path d="M498,308.25h-7.89c-.89,0-1.09-.26-1.07-1.1.06-2.19,0-4.39,0-6.58,0-.75.11-1.08,1-1.07H506c.69,0,1,.1,1,.91-.05,2.32,0,4.65,0,7,0,.74-.28.85-.92.84Z" style="fill:#1f1f1f"/><path d="M474.29,326h-7.63c-.75,0-1.09-.11-1.07-1q.09-3.42,0-6.84c0-.87.31-1,1.06-1h15.53c.75,0,1.09.11,1.07,1q-.09,3.42,0,6.84c0,.87-.31,1-1.06,1C479.56,326,476.93,326,474.29,326Z" style="fill:#212121"/><path d="M497.87,326H490c-.74,0-1-.2-1-1q.07-3.49,0-7c0-.78.28-.93,1-.93h15.81c.8,0,1.06.22,1,1-.05,2.28-.06,4.57,0,6.85,0,.88-.33,1-1.07,1C503.13,326,500.5,326,497.87,326Z" style="fill:#252121"/><path d="M474.41,339.52h44c1.16,0,1.49.27,1.47,1.45-.07,4.4,0,8.79,0,13.19a2.81,2.81,0,0,1-2.73,2.89H432.1a10.21,10.21,0,0,1-1.57-.09,1.72,1.72,0,0,1-1.61-1.73,22.72,22.72,0,0,1-.17-3V341.53c0-2.16-.25-1.93,1.87-1.93Z" style="fill:#d83b38"/><path d="M431.92,358.52a12.32,12.32,0,0,1-1.58-.11,3.16,3.16,0,0,1-2.88-3.19,21.65,21.65,0,0,1-.17-3V340.93a2.78,2.78,0,0,1,.58-2.22,2.71,2.71,0,0,1,2.23-.58h.53l87.83-.08a3,3,0,0,1,2.23.73,2.93,2.93,0,0,1,.7,2.2c0,2.92,0,5.84,0,8.76v4.41a4.28,4.28,0,0,1-4.15,4.35H431.92Zm-1.7-17.46v11.16a21.77,21.77,0,0,0,.16,2.84c0,.32.11.43.25.44a9.25,9.25,0,0,0,1.45.09h85a1.39,1.39,0,0,0,1-.42,1.34,1.34,0,0,0,.37-1v-4.43c0-2.92,0-5.85,0-8.78h0Z"/><rect x="438.46" y="392.38" width="79.66" height="10.4" rx="1.02" ry="1.02" transform="translate(-102.36 174.7) rotate(-18.74)" style="fill:#454545"/><path d="M445.49,415.37a6.67,6.67,0,0,1-2.14-13l65.59-22.24a6.67,6.67,0,1,1,4.28,12.63h0L447.64,415A6.68,6.68,0,0,1,445.49,415.37Zm65.59-32.65a3.75,3.75,0,0,0-1.2.2L444.3,405.16a3.74,3.74,0,1,0,2.4,7.08L512.29,390a3.74,3.74,0,0,0-1.2-7.28Z"/><rect x="447.59" y="425.05" width="58.37" height="9.16" rx="0.9" ry="0.9" transform="translate(-112.74 175.91) rotate(-18.74)" style="fill:#454545"/><path d="M453.47,443.58a6,6,0,0,1-1.94-11.77L498.14,416a6,6,0,0,1,7.66,3.78,6,6,0,0,1-3.78,7.67l-46.6,15.81A6,6,0,0,1,453.47,443.58Zm46.61-25a3.14,3.14,0,0,0-1,.17l-46.6,15.81a3.12,3.12,0,0,0-.37,5.75,3.13,3.13,0,0,0,2.38.15l46.6-15.81a3.12,3.12,0,0,0-1-6.07Z"/><rect x="457.86" y="457.71" width="35.2" height="9.1" rx="0.89" ry="0.89" transform="translate(-123.29 177.22) rotate(-18.74)" style="fill:#454545"/><path d="M463.09,472.47a6,6,0,0,1-1.92-11.71l24.72-8.39a6,6,0,0,1,3.86,11.39h0L465,472.15A6,6,0,0,1,463.09,472.47ZM487.82,455a3.07,3.07,0,0,0-1,.17l-24.72,8.39a3.08,3.08,0,1,0,2,5.84L488.81,461h0a3.09,3.09,0,0,0-1-6Z"/><path d="M361.23,206.54l39.85-80.14c4.32-8.7,8.65-17.36,13-26.09,4.75-9.59,9.06-12.11,19.54-11.33C439,91,443,94.43,445,100c1.15,4.9,0,9.36-2.16,13.82q-25.85,51.68-51.58,103.43c-.5,1-1.17,2.05-1.73,3.11a2,2,0,0,1-1.71-1,34.15,34.15,0,0,0-13.57-9.8C370,207.76,365.58,207.42,361.23,206.54Zm62-97.43c2.37,3.25,7.86,4.17,11,1.87,3.35-2.45,4.32-8,1.93-11.2s-7.89-4.06-11-1.86A8.45,8.45,0,0,0,423.25,109.11Z" style="fill:#d83b38"/><path d="M390.37,221.8h-.89a3.5,3.5,0,0,1-3-1.72,32.8,32.8,0,0,0-12.85-9.18,39.36,39.36,0,0,0-9.11-2.27c-1.21-.2-2.42-.4-3.62-.65l-1.87-.38L412.76,99.66c5-10.13,9.93-13,21-12.15l.41.09c6.22,2.36,10.21,6.24,12.21,11.87,1.15,4.88.43,9.58-2.22,15q-25.86,51.69-51.58,103.43c-.29.61-.65,1.24-1,1.87-.24.42-.49.84-.72,1.27Zm-27-16.35,1.64.28a42.23,42.23,0,0,1,9.74,2.45,35.69,35.69,0,0,1,14.12,10.2l.07-.13c.33-.56.65-1.12.92-1.68q25.74-51.78,51.59-103.45c2.36-4.79,3-8.75,2-12.83-1.63-4.55-5-7.83-10.24-9.88-9.72-.67-13.43,1.52-17.9,10.54ZM430,113.72a10.51,10.51,0,0,1-1.63-.13,9.55,9.55,0,0,1-6.29-3.62l0-.07a9.88,9.88,0,0,1,2.2-13.13c3.89-2.72,10.36-1.63,13.13,2.14a9.14,9.14,0,0,1,1.48,6.79,9.79,9.79,0,0,1-3.73,6.46A8.62,8.62,0,0,1,430,113.72Zm-5.52-5.44a6.72,6.72,0,0,0,4.35,2.41,6.15,6.15,0,0,0,4.56-.9,7,7,0,0,0,2.57-4.54,6.21,6.21,0,0,0-.95-4.61c-1.82-2.48-6.54-3.27-9-1.53A6.94,6.94,0,0,0,424.46,108.28Z"/><path d="M383.92,209.91c3,3.22,6.48,6,8.88,9.87a34.15,34.15,0,0,1,5.43,15.83,2,2,0,0,0,.82,1.8c-.76,3.49-.52,7-1.36,10.58a36.67,36.67,0,0,1-34.86,28.53c-14.06.3-28.18.11-42.28.08-3.7,0-5-1.22-6.39-5.34V208.06c1.47-4.32,2.77-5.27,7.39-5.27,13.06,0,26,.06,39.07,0C369.2,202.68,376.8,205.44,383.92,209.91Zm-22.1,56A26,26,0,0,0,388,240.2q0-.26,0-.51c-.05-14.91-11.31-26.17-26.22-26.21a25.92,25.92,0,0,0-26.19,25.65q0,.13,0,.26a25.93,25.93,0,0,0,26.18,26.51Z" style="fill:#828694"/><path d="M344.74,278.14c-4.65,0-9.28,0-13.85,0l-10.34,0c-4.79,0-6.38-2.14-7.77-6.34l-.07-.46.08-63.66c1.67-4.92,3.56-6.26,8.78-6.26h13.05c8.67,0,17.34,0,26,0,8.07-.06,16.05,2.31,24.07,7.35l.29.24c.87.93,1.77,1.82,2.68,2.71A41,41,0,0,1,394,219a35.63,35.63,0,0,1,5.65,16.48c0,.43.07.62.22.73l.78.56-.21.94a35.76,35.76,0,0,0-.61,4.9,36.77,36.77,0,0,1-.75,5.7A38.1,38.1,0,0,1,362.87,278C356.85,278.1,350.77,278.14,344.74,278.14ZM315.63,271c1.22,3.6,2.18,4.12,4.92,4.12l10.35,0c10.47.05,21.29.11,31.9-.12a35.17,35.17,0,0,0,33.47-27.39,34.57,34.57,0,0,0,.69-5.27,44.69,44.69,0,0,1,.51-4.51,3.49,3.49,0,0,1-.69-2.4,32.83,32.83,0,0,0-5.2-14.9,38.37,38.37,0,0,0-6-6.88c-.89-.87-1.78-1.75-2.63-2.66-7.47-4.66-14.7-7-22.33-6.8-8.69,0-17.36,0-26,0h-13c-3.87,0-4.71.54-5.93,4.05Zm46.44-3.64h-.28a27.44,27.44,0,0,1-19.61-8,27.85,27.85,0,0,1-8-20v-.31a27.19,27.19,0,0,1,8.22-19.25A27.78,27.78,0,0,1,361.82,212c15.71,0,27.61,11.94,27.67,27.67v.55A27.45,27.45,0,0,1,362.07,267.37Zm-.53-52.42a24.46,24.46,0,0,0-24.46,24.2,25.11,25.11,0,0,0,7.17,18.14,24.53,24.53,0,0,0,17.54,7.16h.28a24.52,24.52,0,0,0,24.49-24.25v-.47c0-14.09-10.69-24.73-24.75-24.77Z"/><path d="M361.79,265.9c-14.78,0-26.24-11.57-26.21-26.5a25.92,25.92,0,0,1,25.93-25.92h.26c14.91,0,26.12,11.3,26.22,26.21a26,26,0,0,1-25.7,26.21Zm0-41.83a15.62,15.62,0,0,0-15.86,15.38s0,.1,0,.14a16.15,16.15,0,0,0,15.93,15.93,15.62,15.62,0,0,0,15.53-15.71q0-.08,0-.15a15.23,15.23,0,0,0-14.86-15.59h-.74Z" style="fill:#d83b38"/><path d="M361.79,267.37a27.46,27.46,0,0,1-19.61-8,27.91,27.91,0,0,1-8.05-20A27.42,27.42,0,0,1,361.51,212h0c15.93,0,27.83,11.89,27.94,27.66a27.42,27.42,0,0,1-27.15,27.68Zm0-52.41A24.54,24.54,0,0,0,337,239.41a25,25,0,0,0,7.2,17.89,24.56,24.56,0,0,0,17.54,7.14h.51a24.51,24.51,0,0,0,24.23-24.73C386.43,225.6,375.79,215,361.78,215Zm.1,42a17.53,17.53,0,0,1-17.4-17.37,17.09,17.09,0,0,1,5.19-12.19,17.59,17.59,0,0,1,12.15-4.81h.76a16.72,16.72,0,0,1,16.29,17.09A17.13,17.13,0,0,1,361.87,257Zm-.33-31.45a14.15,14.15,0,0,0-14.14,13.94,14.63,14.63,0,0,0,14.48,14.58,14.15,14.15,0,0,0,14-14.23,13.83,13.83,0,0,0-13.43-14.29h-1Z"/><polygon points="48.86 450.18 143.02 347.79 168.9 344.77 250.88 423.82 231.85 475.06 63.5 473.6 48.86 450.18" style="fill:#282828"/><path d="M234.9,479.48,61.06,478l-17.69-28.3,97.52-106,29.57-3.45L256,422.66ZM66,469.23l162.86,1.42,17-45.65-78.41-75.61L145.14,352,54.36,450.68Z"/><path d="M85,417.48a30.74,30.74,0,1,0,30.74,30.74A30.74,30.74,0,0,0,85,417.48Zm0,45.38a14.64,14.64,0,1,1,14.64-14.64A14.64,14.64,0,0,1,85,462.86Z" style="fill:#828694"/><path d="M85,480.43a32.21,32.21,0,1,1,32.21-32.21A32.24,32.24,0,0,1,85,480.43Zm0-61.48a29.28,29.28,0,1,0,29.28,29.28A29.31,29.31,0,0,0,85,418.94Zm0,45.38a16.1,16.1,0,1,1,16.1-16.1A16.12,16.12,0,0,1,85,464.33ZM85,435a13.18,13.18,0,1,0,13.18,13.18A13.19,13.19,0,0,0,85,435Z"/><path d="M123,389.06a23.24,23.24,0,1,0,23.24,23.24A23.24,23.24,0,0,0,123,389.06Zm0,34.31A11.07,11.07,0,1,1,134,412.3,11.07,11.07,0,0,1,123,423.36Z" style="fill:#828694"/><path d="M123,437a24.7,24.7,0,1,1,24.7-24.7A24.73,24.73,0,0,1,123,437Zm0-46.48a21.78,21.78,0,1,0,21.78,21.78A21.8,21.8,0,0,0,123,390.52Zm0,34.3A12.53,12.53,0,1,1,135.5,412.3,12.54,12.54,0,0,1,123,424.83Zm0-22.13a9.6,9.6,0,1,0,9.6,9.6A9.61,9.61,0,0,0,123,402.7Z"/><path d="M138.71,435.54a21.41,21.41,0,1,0,21.41,21.41A21.41,21.41,0,0,0,138.71,435.54Zm0,31.6a10.19,10.19,0,1,1,10.19-10.19A10.19,10.19,0,0,1,138.71,467.14Z" style="fill:#828694"/><path d="M138.71,479.82a22.87,22.87,0,1,1,22.87-22.87A22.9,22.9,0,0,1,138.71,479.82Zm0-42.82a19.95,19.95,0,1,0,19.95,19.95A20,20,0,0,0,138.71,437Zm0,31.61a11.66,11.66,0,1,1,11.66-11.66A11.67,11.67,0,0,1,138.71,468.61Zm0-20.39a8.73,8.73,0,1,0,8.73,8.73A8.74,8.74,0,0,0,138.71,448.21Z"/><circle cx="160.61" cy="377.47" r="8.78" style="fill:#f9f9f9"/><path d="M160.61,387.35a9.88,9.88,0,1,1,9.88-9.88A9.89,9.89,0,0,1,160.61,387.35Zm0-17.57a7.69,7.69,0,1,0,7.69,7.69A7.69,7.69,0,0,0,160.61,369.78Z"/><circle cx="84.97" cy="448.22" r="8.78" style="fill:#f9f9f9"/><path d="M85,458.1a9.88,9.88,0,1,1,9.88-9.88A9.89,9.89,0,0,1,85,458.1Zm0-17.57a7.69,7.69,0,1,0,7.69,7.69A7.69,7.69,0,0,0,85,440.54Z"/><circle cx="214.53" cy="435.78" r="10.25" style="fill:#f9f9f9"/><path d="M214.53,447.12a11.35,11.35,0,1,1,11.35-11.35A11.36,11.36,0,0,1,214.53,447.12Zm0-20.49a9.15,9.15,0,1,0,9.15,9.15A9.16,9.16,0,0,0,214.53,426.63Z"/><circle cx="122.97" cy="412.3" r="6.06" transform="translate(-255.52 207.71) rotate(-45)" style="fill:#f9f9f9"/><path d="M123,419.45a7.16,7.16,0,1,1,5.06-2.09A7.15,7.15,0,0,1,123,419.45Zm0-12.12a5,5,0,1,0,3.51,1.45A4.93,4.93,0,0,0,123,407.34Z"/><circle cx="138.71" cy="456.95" r="5.59" transform="translate(-282.48 231.92) rotate(-45)" style="fill:#f9f9f9"/><path d="M138.71,463.62a6.68,6.68,0,1,1,4.73-2A6.67,6.67,0,0,1,138.71,463.62Zm0-11.16a4.48,4.48,0,1,0,3.17,1.31A4.46,4.46,0,0,0,138.71,452.46Z"/><path d="M172.2,453.1a8.42,8.42,0,1,0,8.42,8.42A8.42,8.42,0,0,0,172.2,453.1Zm0,12.43a4,4,0,1,1,4-4A4,4,0,0,1,172.2,465.53Z" style="fill:#828694"/><path d="M172.2,471.4a9.88,9.88,0,1,1,9.88-9.88A9.89,9.89,0,0,1,172.2,471.4Zm0-16.83a7,7,0,1,0,7,7A7,7,0,0,0,172.2,454.57Zm0,12.43a5.47,5.47,0,1,1,5.47-5.47A5.48,5.48,0,0,1,172.2,467Zm0-8a2.54,2.54,0,1,0,2.54,2.54A2.55,2.55,0,0,0,172.2,459Z"/><path d="M195.25,382.1A11.71,11.71,0,1,0,207,393.82,11.71,11.71,0,0,0,195.25,382.1Zm0,17.29a5.58,5.58,0,1,1,5.58-5.58A5.58,5.58,0,0,1,195.25,399.39Z" style="fill:#828694"/><path d="M195.25,407a13.18,13.18,0,1,1,13.18-13.18A13.19,13.19,0,0,1,195.25,407Zm0-23.42a10.25,10.25,0,1,0,10.25,10.25A10.26,10.26,0,0,0,195.25,383.57Zm0,17.29a7,7,0,1,1,7-7A7,7,0,0,1,195.25,400.85Zm0-11.15a4.11,4.11,0,1,0,4.11,4.11A4.12,4.12,0,0,0,195.25,389.7Z"/><circle cx="195.25" cy="393.82" r="3.06" transform="translate(-221.28 253.41) rotate(-45)" style="fill:#f9f9f9"/><path d="M195.25,398a4.15,4.15,0,1,1,2.94-1.22h0A4.15,4.15,0,0,1,195.25,398Zm0-6.11a2,2,0,1,0,1.38.57A2,2,0,0,0,195.25,391.86Z"/><path d="M250.6,300.78V174.93c0-11.34.21-22.68-.09-34-.27-10-1.3-20.09-4.57-29.79a92.07,92.07,0,0,0-18.31-31.7c-13.83-15.73-31.22-25-51.59-29-3.16-.62-6.45-.4-9.58-1.33H155.09c-3.12.92-6.42.7-9.58,1.33-20.37,4-37.75,13.31-51.59,29a92.07,92.07,0,0,0-18.31,31.7c-3.27,9.68-4.3,19.71-4.57,29.79-.3,11.33-.08,22.67-.09,34V300.78c0,5,.15,9.94,0,14.91-.09,2.54.77,3.15,3.2,3.13,13.22-.1,26.44,0,39.65,0h94c13.22,0,26.44-.07,39.65,0,2.43,0,3.3-.6,3.2-3.13C250.44,310.72,250.59,305.74,250.6,300.78ZM118.8,120.86c13.86.05,27.73,0,41.59.05h.72q20.79,0,41.59-.05c1.76,0,2.7.22,2.66,2.39q-.2,11.18,0,22.37c0,2.13-.84,2.42-2.64,2.41-13.88-.06-27.75,0-41.63-.06h-.71q-20.82,0-41.63.06c-1.8,0-2.67-.28-2.64-2.41q.19-11.18,0-22.37C116.1,121.09,117,120.85,118.8,120.86ZM107.12,273.68a13.49,13.49,0,1,1,13.42-13.56s0,.09,0,.13a13.38,13.38,0,0,1-13.33,13.43Zm53.65,0c-10.76-.76-15.2-10.78-12.27-18.17,1.84-4.66,5.15-7.66,10.29-8.38a15,15,0,0,0,2-.5,15,15,0,0,0,2,.5c5.13.71,8.44,3.72,10.29,8.38,2.89,7.43-1.56,17.45-12.3,18.2Zm26.47-95.75c-1.57,13.46-12.49,23.29-26.47,23.81-14-.52-24.9-10.37-26.47-23.81-.25-2.19.07-3.13,2.65-3.06,7.93.19,15.88.11,23.81.13s15.88.06,23.82-.13C187.16,174.79,187.49,175.73,187.23,177.93Zm27.18,95.76A13.38,13.38,0,0,1,201,260.35s0-.06,0-.09a13.42,13.42,0,1,1,13.36,13.42Z" style="fill:#bcbcbc"/><path d="M74,321.74a5.31,5.31,0,0,1-6-6.17c.1-3.23.06-6.57,0-9.8,0-1.67,0-3.34,0-5V174.93c0-3.46,0-6.92,0-10.37,0-7.77-.09-15.8.12-23.71.34-12.54,1.8-22,4.73-30.65a94.43,94.43,0,0,1,18.89-32.7c13.76-15.64,31.66-25.72,53.21-30a39.37,39.37,0,0,1,4.4-.53,24.61,24.61,0,0,0,4.91-.73l.83-.12,12.2.12a24.73,24.73,0,0,0,4.92.73,39.48,39.48,0,0,1,4.4.53c21.57,4.27,39.48,14.35,53.22,30a94.47,94.47,0,0,1,18.89,32.7c2.93,8.68,4.39,18.13,4.72,30.64.21,8.07.17,16.27.13,24.19q0,4.95,0,9.9V300.78c0,1.41,0,2.82,0,4.23,0,3.47-.07,7.06.08,10.54a6.06,6.06,0,0,1-1.4,4.6,6.27,6.27,0,0,1-4.73,1.59c-8.82,0-17.63,0-26.43,0H113.81l-13.23,0c-8.79,0-17.6,0-26.4,0Zm-.16-5.86h.26c8.82-.07,17.64,0,26.47,0l13.21,0H221c8.82,0,17.64,0,26.46,0h.27s0-.06,0-.09c-.15-3.63-.12-7.29-.08-10.84,0-1.4,0-2.79,0-4.18V174.93q0-5,0-9.93c0-7.88.09-16-.13-24-.32-11.9-1.68-20.82-4.41-28.93a88.7,88.7,0,0,0-17.73-30.7c-13.06-14.85-29.4-24-50-28.1a33.61,33.61,0,0,0-3.75-.45,31.34,31.34,0,0,1-5.67-.83H155.49a31.28,31.28,0,0,1-5.67.83,33.63,33.63,0,0,0-3.75.45c-20.54,4.05-36.88,13.24-50,28.1a88.65,88.65,0,0,0-17.73,30.7c-2.74,8.09-4.1,17-4.42,28.94-.21,7.82-.17,15.81-.12,23.53,0,3.47,0,6.94,0,10.41V300.78c0,1.65,0,3.3,0,4.94,0,3.29.07,6.68,0,10C73.87,315.81,73.87,315.85,73.87,315.89Zm84.77-39.1-.13-.44a16.34,16.34,0,0,1-11.31-7.41,16.17,16.17,0,0,1-1.44-14.5c2.31-5.85,6.66-9.38,12.6-10.2a11.64,11.64,0,0,0,1.51-.39l.91-.29.91.29a11.64,11.64,0,0,0,1.61.41c5.82.8,10.18,4.33,12.5,10.18A16.3,16.3,0,0,1,174.31,269,16.66,16.66,0,0,1,161,276.63Zm2.14-27.11q-.74.2-1.5.33c-4,.56-6.52,2.64-8.07,6.57a10.44,10.44,0,0,0,.94,9.24,10,10,0,0,0,17.21.06,10.56,10.56,0,0,0,1-9.31c-1.56-3.92-4.09-6-8-6.54C161.82,249.93,161.29,249.82,160.78,249.68Zm53.58,26.93a16.33,16.33,0,0,1-16.31-16.26,16.35,16.35,0,1,1,16.36,16.25h-.05Zm0-27a10.64,10.64,0,0,0-10.43,10.62,10.49,10.49,0,0,0,10.43,10.51h0a10.56,10.56,0,0,0,0-21.11Zm-107.3,27a16.42,16.42,0,0,1-.09-32.83h.09a16.42,16.42,0,0,1,.17,32.83l-.1-2.93v2.93Zm0-27H107a10.56,10.56,0,0,0,.05,21.12h.16a10.46,10.46,0,0,0,10.4-10.49,10.56,10.56,0,0,0-10.56-10.63Zm53.82-45c-15.71-.58-27.74-11.44-29.48-26.4-.12-1-.37-3.2,1.1-4.8a5.75,5.75,0,0,1,4.54-1.53c5.68.14,11.5.13,17.11.13h8.53c7.17,0,14.58,0,21.86-.14a5.67,5.67,0,0,1,4.53,1.53c1.46,1.6,1.21,3.76,1.09,4.8C188.39,193.23,176.36,204.09,160.87,204.67ZM137.23,177.8c1.49,11.92,11.18,20.55,23.64,21,12.25-.47,21.94-9.1,23.43-21-7.25.17-14.57.15-21.65.13h-8.51C148.6,177.92,142.88,177.93,137.23,177.8ZM202.89,151h-.17c-13.87-.06-27.74,0-41.63-.06h-.7q-20.82,0-41.62.06h0a5.68,5.68,0,0,1-4.22-1.4,5.48,5.48,0,0,1-1.34-4c.13-7.39.13-14.88,0-22.28a5.49,5.49,0,0,1,1.38-4,5.61,5.61,0,0,1,4.25-1.37c13.86,0,27.73,0,41.59.05h.71q20.79,0,41.58-.05h0a5.65,5.65,0,0,1,4.25,1.4,5.44,5.44,0,0,1,1.33,4c-.13,7.38-.13,14.87,0,22.26a5.57,5.57,0,0,1-1.39,4A5.51,5.51,0,0,1,202.89,151ZM119,123.79c.11,7.06.11,14.23,0,21.32q20.65-.09,41.34-.06h.71c13.8.06,27.56,0,41.34.06-.12-7-.12-14.22,0-21.32q-20.65.08-41.32.05h-.72C146.59,123.8,132.82,123.85,119,123.79Z" style="fill:#444"/><g style="clip-path:url(#clip-path)"><path d="M193.54-387.17c72.43,576.77-4.14,972-4.14,972S191.69-401.87,193.54-387.17Z" style="fill:#e2e2e2"/></g><path d="M209.89,119.46c0-2.77-1-3.06-2.86-3.05-15.15.06-30.29,0-45.44.06s-30.29,0-45.44-.06c-1.89,0-2.91.28-2.86,3.05q.21,14.26,0,28.53c0,2.71.9,3.09,2.84,3.08,15.15-.08,30.31,0,45.47-.08s30.31,0,45.47.08c1.93,0,2.87-.37,2.84-3.08Q209.68,133.75,209.89,119.46Z" style="fill:#fff"/><path d="M116,152.53a4.2,4.2,0,0,1-3.14-1,4.9,4.9,0,0,1-1.09-3.56c.14-9.48.14-19.06,0-28.5a4.8,4.8,0,0,1,1-3.53,4.34,4.34,0,0,1,3.29-1h1c14.82.06,29.63.13,44.45.06,15.15-.06,30.29,0,45.44-.06a4.37,4.37,0,0,1,3.25,1,4.86,4.86,0,0,1,1.09,3.54v0c-.14,9.47-.14,19.05,0,28.48a4.84,4.84,0,0,1-1.05,3.55,4.31,4.31,0,0,1-3.25,1c-14.9-.08-30.31-.16-45.46-.08s-30.31,0-45.47.08Zm.1-34.66c-1,0-1.16.1-1.2.13s-.21.24-.2,1.43c.14,9.48.14,19.08,0,28.57,0,1.23.22,1.46.22,1.46s.13.12,1.15.13c15.16-.08,30.32,0,45.47-.08s30.58,0,45.48.08c1,0,1.15-.13,1.16-.14s.22-.24.21-1.46c-.14-9.45-.14-19.05,0-28.55,0-1.21-.22-1.46-.22-1.46a3.19,3.19,0,0,0-1.17-.12c-15.16.06-30.3,0-45.45.06-14.82.07-29.65,0-44.48-.06Z"/><polygon points="176.22 145.8 176.22 131.65 172.52 135.35 150.63 138.48 144.98 130 133.66 135.66 124.68 129.67 117.95 131.02 117.38 128.15 125.3 126.56 133.88 132.28 145.98 126.23 152.04 135.32 171.14 132.59 179.15 124.58 179.15 139.71 191.91 129.51 202.78 131.06 202.37 133.96 192.75 132.58 176.22 145.8" style="fill:#d83b38"/><path d="M199.62,261.13A14.78,14.78,0,0,0,214.33,276h.12a14.9,14.9,0,1,0-14.83-14.85Z" style="fill:#777"/><path d="M214.47,278.9a17.7,17.7,0,0,1-17.77-17.78,17.78,17.78,0,1,1,17.77,17.78Zm-.09-29.8a12,12,0,0,0-11.83,12v0A11.85,11.85,0,0,0,214.34,273a12,12,0,1,0,0-23.95Z" style="fill:#444"/><circle cx="160.61" cy="377.47" r="2.93" transform="translate(-112.73 71.59) rotate(-18.74)"/><path d="M160.61,381.86a4.39,4.39,0,1,1,4.15-5.8h0a4.39,4.39,0,0,1-2.75,5.57A4.4,4.4,0,0,1,160.61,381.86Zm0-5.86a1.41,1.41,0,0,0-.47.08A1.46,1.46,0,1,0,162,377h0a1.46,1.46,0,0,0-1.38-1Z"/><circle cx="84.97" cy="448.22" r="2.93" transform="translate(-139.47 51.05) rotate(-18.74)"/><path d="M85,452.62a4.41,4.41,0,1,1,1.41-.23A4.36,4.36,0,0,1,85,452.62Zm0-5.86a1.41,1.41,0,0,0-.47.08,1.46,1.46,0,0,0-.18,2.7,1.43,1.43,0,0,0,1.12.07,1.46,1.46,0,0,0,.92-1.85h0a1.46,1.46,0,0,0-1.38-1Z"/><circle cx="214.53" cy="435.78" r="2.93" transform="matrix(0.95, -0.32, 0.32, 0.95, -128.61, 92)"/><path d="M214.52,440.17a4.41,4.41,0,1,1,1.41-.23A4.36,4.36,0,0,1,214.52,440.17Zm0-5.86a1.41,1.41,0,0,0-.47.08,1.46,1.46,0,0,0-.18,2.7,1.41,1.41,0,0,0,1.12.07,1.46,1.46,0,0,0,.92-1.85h0a1.46,1.46,0,0,0-1.38-1Z"/><path d="M214.53,398.45a37.33,37.33,0,1,0,37.33,37.33A37.33,37.33,0,0,0,214.53,398.45Zm0,55.11a17.78,17.78,0,1,1,17.78-17.78A17.78,17.78,0,0,1,214.53,453.56Z" style="fill:#828694"/><path d="M214.53,474.57a38.79,38.79,0,1,1,38.79-38.79A38.84,38.84,0,0,1,214.53,474.57Zm0-74.66a35.87,35.87,0,1,0,35.87,35.87A35.91,35.91,0,0,0,214.53,399.91Zm0,55.11a19.24,19.24,0,1,1,19.24-19.24A19.26,19.26,0,0,1,214.53,455Zm0-35.55a16.31,16.31,0,1,0,16.31,16.31A16.33,16.33,0,0,0,214.53,419.47Z"/><path d="M160.61,346.73a30.74,30.74,0,1,0,30.74,30.74A30.74,30.74,0,0,0,160.61,346.73Zm0,45.38a14.64,14.64,0,1,1,14.64-14.64A14.64,14.64,0,0,1,160.61,392.11Z" style="fill:#828694"/><path d="M160.61,409.67a32.21,32.21,0,1,1,32.21-32.21A32.24,32.24,0,0,1,160.61,409.67Zm0-61.48a29.28,29.28,0,1,0,29.28,29.28A29.31,29.31,0,0,0,160.61,348.19Zm0,45.38a16.1,16.1,0,1,1,16.1-16.1A16.12,16.12,0,0,1,160.61,393.57Zm0-29.28a13.18,13.18,0,1,0,13.18,13.18A13.19,13.19,0,0,0,160.61,364.29Z"/><path d="M253.81,412.11l-70.27-70.27c-11.71-11.71-29.28-11.71-41,0s-90.76,93.69-90.76,93.69c-20.49,20.49-11.71,41,8.78,43.92,20.49,0,117.11,2.93,158.1,0C271.38,479.45,271.38,429.68,253.81,412.11Zm-45.75,54.6c-32.5,2.32-109.11,0-125.37,0-29.44-.43-35.29-9.22-7-34.82,0,0,62.85-64.84,72-74.29,11-11.36,19.74-11.36,32.5,0,9.81,8.73,41.23,42.37,55.72,55.72C255.27,431.14,249.85,466.71,208.06,466.71Z" style="fill:#686a69"/><path d="M164,482.22c-27,0-56.05-.53-77.17-.91-11.94-.22-21.36-.39-26.3-.39-10.41-1.47-18.13-7.21-20.85-15.37-3.18-9.54.84-20.85,11-31,.77-.8,79.18-82.1,90.76-93.69,12.27-12.27,30.79-12.27,43.06,0l70.27,70.27c9.26,9.26,14.72,28.8,7.82,45.45-3.77,9.11-14.5,24.39-44,24.39C205,481.89,185.19,482.22,164,482.22ZM61.38,478c4.92,0,14.08.17,25.55.37,37.64.68,100.62,1.83,131.64-.39,20.69,0,35.36-8,41.39-22.58,6.43-15.53,1.4-33.68-7.19-42.26l-70.27-70.27c-11.09-11.09-27.83-11.09-38.92,0-11.57,11.57-90,92.85-90.74,93.67-9.4,9.4-13.16,19.62-10.34,28.07,2.36,7.08,9.19,12.09,18.28,13.38Zm103.34-8.8c-21.39,0-44.43-.42-61.17-.72-9.49-.17-16.93-.31-20.85-.31-15.9-.23-24.27-2.93-26.37-8.49-2.34-6.23,3.51-15.41,18.42-28.89,0,0,62.78-64.77,71.9-74.22,11.5-11.92,21.19-11.95,34.52-.07,4.79,4.26,14.69,14.41,25.17,25.16,11.37,11.66,23.13,23.72,30.57,30.58,10.13,9.34,13.85,23.54,9.24,35.35-5.1,13.07-19,20.58-38,20.59C197.24,468.95,181.49,469.21,164.71,469.21Zm-82-4c3.91,0,11.37.13,20.87.31,29.84.54,79.77,1.45,104.36-.31h.1c17.83,0,30.72-6.82,35.36-18.73,4.17-10.69.76-23.6-8.49-32.13-7.5-6.91-19.29-19-30.68-30.69-10.44-10.71-20.3-20.82-25-25-12.13-10.8-20.11-10.82-30.48-.07-9.12,9.45-72,74.29-72,74.29-13.59,12.29-19.53,20.93-17.72,25.75,1.57,4.17,9.53,6.38,23.65,6.59Z"/><polygon points="431.72 490.16 421.51 464.63 431.72 444.22 463.31 452.82 472.43 438.09 487.87 459.53 513.4 444.22 528.71 454.43 533.82 490.16 431.72 490.16" style="fill:#2b1c1c;stroke:#000;stroke-miterlimit:10;stroke-width:0.5px"/></svg>