<svg xmlns="http://www.w3.org/2000/svg" viewBox="0 0 81.36 52.5"><title>solar_panel</title><g id="Calque_2" data-name="Calque 2"><g id="menu"><g id="menu-2" data-name="menu"><rect x="24.83" y="24.31" width="11.34" height="3.88" rx="1.94" ry="1.94" style="fill:#0c0c0c"/><rect x="25.43" y="19.69" width="2.39" height="13.13" rx="1.19" ry="1.19" style="fill:#0c0c0c"/><rect x="0.45" y="0.45" width="25.95" height="51.61" rx="3.38" ry="3.38" style="fill:#0b206d"/><path d="M22.82,52.5H4a4,4,0,0,1-4-4V4A4,4,0,0,1,4,0H22.82a4,4,0,0,1,4,4V48.47A4,4,0,0,1,22.82,52.5ZM4,.89A3.14,3.14,0,0,0,.89,4V48.47A3.14,3.14,0,0,0,4,51.61H22.82A3.14,3.14,0,0,0,26,48.47V4A3.14,3.14,0,0,0,22.82.89Z" style="fill:#0c0c0c"/><rect x="0.67" y="5.22" width="25.36" height="0.6" style="fill:#cca811"/><rect x="0.67" y="12.08" width="25.36" height="0.6" style="fill:#cca811"/><rect x="0.67" y="18.94" width="25.36" height="0.6" style="fill:#cca811"/><rect x="0.67" y="25.8" width="25.36" height="0.6" style="fill:#cca811"/><rect x="0.67" y="32.66" width="25.36" height="0.6" style="fill:#cca811"/><rect x="0.67" y="39.52" width="25.36" height="0.6" style="fill:#cca811"/><rect x="0.67" y="46.38" width="25.36" height="0.6" style="fill:#cca811"/><rect x="13.13" y="0.75" width="0.6" height="51.01" style="fill:#cca811"/><rect x="45.19" y="24.31" width="11.34" height="3.88" rx="1.94" ry="1.94" transform="translate(101.72 52.5) rotate(-180)" style="fill:#0c0c0c"/><rect x="53.54" y="19.69" width="2.39" height="13.13" rx="1.19" ry="1.19" transform="translate(109.47 52.5) rotate(180)" style="fill:#0c0c0c"/><rect x="54.96" y="0.45" width="25.95" height="51.61" rx="3.79" ry="3.79" transform="translate(135.87 52.5) rotate(-180)" style="fill:#0b206d"/><path d="M77.33,52.5H58.54a4,4,0,0,1-4-4V4a4,4,0,0,1,4-4H77.33a4,4,0,0,1,4,4V48.47A4,4,0,0,1,77.33,52.5ZM58.54.89A3.14,3.14,0,0,0,55.41,4V48.47a3.14,3.14,0,0,0,3.13,3.13H77.33a3.14,3.14,0,0,0,3.13-3.13V4A3.14,3.14,0,0,0,77.33.89Z" style="fill:#0c0c0c"/><rect x="55.33" y="5.22" width="25.36" height="0.6" style="fill:#cca811"/><rect x="55.33" y="12.08" width="25.36" height="0.6" style="fill:#cca811"/><rect x="55.33" y="18.94" width="25.36" height="0.6" style="fill:#cca811"/><rect x="55.33" y="25.8" width="25.36" height="0.6" style="fill:#cca811"/><rect x="55.33" y="32.66" width="25.36" height="0.6" style="fill:#cca811"/><rect x="55.33" y="39.52" width="25.36" height="0.6" style="fill:#cca811"/><rect x="55.33" y="46.38" width="25.36" height="0.6" style="fill:#cca811"/><rect x="67.64" y="0.75" width="0.6" height="51.01" style="fill:#cca811"/></g></g></g></svg>