<svg id="Calque_1" data-name="Calque 1" xmlns="http://www.w3.org/2000/svg" viewBox="0 0 1900 3000"><title>Plan de travail 1</title><circle cx="153" cy="1430" r="1" style="fill:#fff"/><circle cx="472" cy="1559" r="1" style="fill:#fff"/><circle cx="27" cy="1319" r="1" style="fill:#fff"/><circle cx="1057" cy="1320" r="1" style="fill:#fff"/><circle cx="1497" cy="1534" r="1" style="fill:#fff"/><circle cx="1312" cy="1347" r="1" style="fill:#fff"/><circle cx="659" cy="1324" r="1" style="fill:#fff"/><circle cx="865" cy="1708" r="1" style="fill:#fff"/><circle cx="98.48" cy="1201.87" r="2" style="fill:#fff"/><circle cx="314" cy="1605" r="2" style="fill:#fff"/><circle cx="1228" cy="1550" r="2" style="fill:#fff"/><circle cx="1729" cy="1609" r="2" style="fill:#fff"/><circle cx="1587" cy="1301" r="2" style="fill:#fff"/><circle cx="416.5" cy="1305.5" r="2.5" style="fill:#fff"/><circle cx="1196.13" cy="2531.96" r="2.5" style="fill:#fff"/><circle cx="150" cy="988.57" r="1" style="fill:#fff"/><circle cx="469" cy="1117.57" r="1" style="fill:#fff"/><circle cx="24" cy="877.57" r="1" style="fill:#fff"/><circle cx="979" cy="988.57" r="1" style="fill:#fff"/><circle cx="1494" cy="1092.57" r="1" style="fill:#fff"/><circle cx="1309" cy="905.57" r="1" style="fill:#fff"/><circle cx="1876" cy="883.57" r="1" style="fill:#fff"/><circle cx="862" cy="1266.57" r="1" style="fill:#fff"/><circle cx="657" cy="963.57" r="2" style="fill:#fff"/><circle cx="311" cy="1163.57" r="2" style="fill:#fff"/><circle cx="1225" cy="1108.57" r="2" style="fill:#fff"/><circle cx="1726" cy="1167.57" r="2" style="fill:#fff"/><circle cx="1584" cy="859.57" r="2" style="fill:#fff"/><circle cx="413.5" cy="864.07" r="2.5" style="fill:#fff"/><circle cx="810.5" cy="1113.07" r="2.5" style="fill:#fff"/><circle cx="150" cy="625.57" r="1" style="fill:#fff"/><circle cx="469" cy="754.57" r="1" style="fill:#fff"/><circle cx="24" cy="514.57" r="1" style="fill:#fff"/><circle cx="979" cy="625.57" r="1" style="fill:#fff"/><circle cx="1494" cy="729.57" r="1" style="fill:#fff"/><circle cx="1309" cy="542.57" r="1" style="fill:#fff"/><circle cx="1876" cy="520.57" r="1" style="fill:#fff"/><circle cx="862" cy="903.57" r="1" style="fill:#fff"/><circle cx="657" cy="600.57" r="2" style="fill:#fff"/><circle cx="311" cy="800.57" r="2" style="fill:#fff"/><circle cx="1225" cy="745.57" r="2" style="fill:#fff"/><circle cx="1726" cy="804.57" r="2" style="fill:#fff"/><circle cx="1584" cy="496.57" r="2" style="fill:#fff"/><circle cx="413.5" cy="501.07" r="2.5" style="fill:#fff"/><circle cx="810.5" cy="750.07" r="2.5" style="fill:#fff"/><circle cx="281" cy="234.57" r="1" style="fill:#fff"/><circle cx="600" cy="363.57" r="1" style="fill:#fff"/><circle cx="155" cy="123.57" r="1" style="fill:#fff"/><circle cx="1110" cy="234.57" r="1" style="fill:#fff"/><circle cx="1625" cy="338.57" r="1" style="fill:#fff"/><circle cx="1440" cy="151.57" r="1" style="fill:#fff"/><circle cx="993" cy="512.57" r="1" style="fill:#fff"/><circle cx="788" cy="209.57" r="2" style="fill:#fff"/><circle cx="442" cy="409.57" r="2" style="fill:#fff"/><circle cx="1356" cy="354.57" r="2" style="fill:#fff"/><circle cx="1857" cy="413.57" r="2" style="fill:#fff"/><circle cx="1715" cy="105.57" r="2" style="fill:#fff"/><circle cx="353" cy="112.57" r="2.5" style="fill:#fff"/><circle cx="941.5" cy="359.07" r="2.5" style="fill:#fff"/><circle cx="194" cy="1821" r="1" style="fill:#fff"/><circle cx="513" cy="1950" r="1" style="fill:#fff"/><circle cx="68" cy="1710" r="1" style="fill:#fff"/><circle cx="1023" cy="1821" r="1" style="fill:#fff"/><circle cx="1538" cy="1925" r="1" style="fill:#fff"/><circle cx="1353" cy="1738" r="1" style="fill:#fff"/><circle cx="906" cy="2099" r="1" style="fill:#fff"/><circle cx="701" cy="1533" r="2" style="fill:#fff"/><circle cx="355" cy="1996" r="2" style="fill:#fff"/><circle cx="1269" cy="1941" r="2" style="fill:#fff"/><circle cx="1770" cy="2000" r="2" style="fill:#fff"/><circle cx="1628" cy="1692" r="2" style="fill:#fff"/><circle cx="457.5" cy="1696.5" r="2.5" style="fill:#fff"/><circle cx="854.5" cy="1945.5" r="2.5" style="fill:#fff"/><circle cx="309" cy="2207.96" r="1" style="fill:#fff"/><circle cx="628" cy="2336.96" r="1" style="fill:#fff"/><circle cx="183" cy="2096.96" r="1" style="fill:#fff"/><circle cx="1138" cy="2207.96" r="1" style="fill:#fff"/><circle cx="1653" cy="2311.96" r="1" style="fill:#fff"/><circle cx="1468" cy="2124.96" r="1" style="fill:#fff"/><circle cx="1021" cy="2485.96" r="1" style="fill:#fff"/><circle cx="816" cy="2182.96" r="2" style="fill:#fff"/><circle cx="470" cy="2382.96" r="2" style="fill:#fff"/><circle cx="1384" cy="2327.96" r="2" style="fill:#fff"/><circle cx="1885" cy="2386.96" r="2" style="fill:#fff"/><circle cx="1743" cy="2078.96" r="2" style="fill:#fff"/><circle cx="149" cy="2267.09" r="2.5" style="fill:#fff"/><circle cx="969.5" cy="2332.46" r="2.5" style="fill:#fff"/><circle cx="180" cy="2615.96" r="1" style="fill:#fff"/><circle cx="499" cy="2744.96" r="1" style="fill:#fff"/><circle cx="54" cy="2504.96" r="1" style="fill:#fff"/><circle cx="1009" cy="2615.96" r="1" style="fill:#fff"/><circle cx="1524" cy="2719.96" r="1" style="fill:#fff"/><circle cx="1339" cy="2532.96" r="1" style="fill:#fff"/><circle cx="892" cy="2893.96" r="1" style="fill:#fff"/><circle cx="687" cy="2590.96" r="2" style="fill:#fff"/><circle cx="341" cy="2790.96" r="2" style="fill:#fff"/><circle cx="1255" cy="2735.96" r="2" style="fill:#fff"/><circle cx="1756" cy="2794.96" r="2" style="fill:#fff"/><circle cx="1614" cy="2486.96" r="2" style="fill:#fff"/><circle cx="443.5" cy="2491.46" r="2.5" style="fill:#fff"/><circle cx="840.5" cy="2740.46" r="2.5" style="fill:#fff"/></svg>