<svg xmlns="http://www.w3.org/2000/svg" viewBox="0 0 1920 402.63"><title>univers_bleu</title><g id="Calque_2" data-name="Calque 2"><g id="Calque_11" data-name="Calque 11"><path d="M0,46.63c237-75,351-37,351-37s-131,15-100,95c7,22,139-17,216,61s105,105,165,91,56-59,115-78c0,0-55,77,8,71,26,0,63-65,270-56s162,104,289,57c0,0,191-203,305-229,0,0-68,100,0,111,24,5,113-85,301-28v298H0Z" style="fill:#b2c4ea"/><path d="M0,149.63c67-145,351-140,351-140s-180,48-149,128c18,70,141-22,327,76,43.65,23,66,69,95,69,61.61,0,27-22,89-54,0,0,0,51,63,45,26,0,41.87-9.15,249-4,161,4,199-9,326-56,0,0,108-109,222-135,0,0-96,129,118,85,24,5,59-26,229-31v270H0Z" style="fill:#7196d8"/><path d="M0,178.31c62-31.69,50-89.69,177-99.69-88,115,146,135,275,133,122,2,123.12,116.09,242,89,237-54,284.47-49.47,534-18,111,14,199-150,297-172-128,161,251,37,395,74v218H0Z" style="fill:#285db2"/></g></g></svg>