<svg xmlns="http://www.w3.org/2000/svg" viewBox="0 0 1920 521.33"><title>univers_vert</title><g id="Calque_2" data-name="Calque 2"><g id="montain"><g id="Rocks"><g id="Front"><path id="Left-arm" d="M185.93,311.81c-47.5-23.93,10-70.2,42.29-136.17,44.94-93.25,109.22-70.12,109.22-70.12,43.3,12.84,66.78.94,66.78.94C442.32,94.35,420.11,122,420.11,122c-24.5,27.19-63.85,20.85-63.85,20.85-63.76-8.66-83.5,42.7-89,64.77C258.26,247.11,233.44,335.73,185.93,311.81Z" style="fill:#50d686"/></g></g><path d="M367.68,132.43c3.49-.32,6.12-2.46,6-4.87s-3.17-4.15-6.65-3.84-6.13,2.48-5.94,4.84S364.17,132.73,367.68,132.43Z" style="fill:#73e8a7"/><path d="M343.07,122.46c-4-.22-7.37,1.77-7.52,4.5s2.92,5.19,6.91,5.46,7.29-1.8,7.46-4.56S347,122.7,343.07,122.46Z" style="fill:#73e8a7"/><path d="M247.65,191.34c2.7,1.41,6.48-.56,8.55-4.43s1.51-8.11-1.19-9.55-6.49.61-8.49,4.44S245,189.95,247.65,191.34Z" style="fill:#73e8a7"/><path d="M294.15,135.07c-1.76-2.44-6.08-2.37-9.61.12s-5,6.56-3.31,9,6.07,2.39,9.6-.1S295.9,137.53,294.15,135.07Z" style="fill:#73e8a7"/><path d="M307.34,130c.41,3,4.33,4.87,8.6,4.18s7.44-3.64,6.94-6.6-4.36-4.83-8.65-4.12S306.83,127.06,307.34,130Z" style="fill:#73e8a7"/><path d="M386.18,121.44c-2.59,1.28-3.92,3.87-3,5.63s3.78,2.2,6.35.83,4-3.9,3-5.67S388.76,120.08,386.18,121.44Z" style="fill:#73e8a7"/><path d="M270.15,163.52c2.63-3.5,2.8-7.73.4-9.6s-6.48-.51-9.09,3-2.83,7.77-.39,9.55S267.54,167,270.15,163.52Z" style="fill:#73e8a7"/><g id="Rocks-2" data-name="Rocks"><g id="Front-2" data-name="Front"><path id="Left-arm-2" data-name="Left-arm" d="M702.93,380.31c4.28-22.33,7.83-77.24-53.72-96,0,0-38.39-10.69-49.28-45.64,0,0-8.6-34.42,20.94-7.5,0,0,16.36,20.63,61.05,27.07,0,0,68.06,5.87,69.89,109.37C753.59,441,786.44,507.08,733.29,509S694.65,419.94,702.93,380.31Z" style="fill:#50d686"/></g></g><path d="M643.21,270c-3-1.75-4.53-4.8-3.38-6.92s4.62-2.45,7.65-.7,4.54,4.81,3.37,6.88S646.28,271.75,643.21,270Z" style="fill:#73e8a7"/><path d="M669.73,271.25c3.69,1.46,6,4.69,4.94,7.23s-4.82,3.49-8.56,2.08-5.87-4.69-4.87-7.26S666,269.81,669.73,271.25Z" style="fill:#73e8a7"/><path d="M727.61,373.72c-3,.15-5.65-3.22-5.91-7.6s2-8,5.08-8.18,5.64,3.26,5.85,7.58S730.59,373.56,727.61,373.72Z" style="fill:#73e8a7"/><path d="M708.89,303.16c2.62-1.48,6.51.39,8.68,4.13s1.81,8.05-.77,9.58-6.51-.37-8.68-4.1S706.28,304.66,708.89,303.16Z" style="fill:#73e8a7"/><path d="M699,293c-1.64,2.59-6,2.61-9.56.2s-5.23-6.42-3.55-8.9,6-2.56,9.58-.12S700.73,290.58,699,293Z" style="fill:#73e8a7"/><path d="M631,252.29c1.81,2.25,1.94,5.16.35,6.36s-4.35.42-6.12-1.9-2-5.2-.34-6.4S629.23,250,631,252.29Z" style="fill:#73e8a7"/><path d="M718.8,339c-.93-4.28.69-8.19,3.66-8.89s6.1,2.25,7,6.53-.68,8.24-3.64,8.84S719.72,343.28,718.8,339Z" style="fill:#73e8a7"/><g id="Rocks-3" data-name="Rocks"><g id="Front-3" data-name="Front"><path id="Left-arm-3" data-name="Left-arm" d="M1611.35,169.93c6.84-21.68,16.76-75.81-42.18-101.63,0,0-36.89-15.09-43.63-51.06,0,0-4.54-35.19,21.67-5,0,0,13.85,22.39,57.49,34,0,0,66.92,13.74,56.7,116.76-6.79,73.15,18.16,142.59-34.85,138.26S1598.52,208.33,1611.35,169.93Z" style="fill:#50d686"/></g></g><path d="M1564.87,53.44c-2.81-2.09-3.94-5.29-2.55-7.26s4.87-1.89,7.68.19,3.95,5.31,2.54,7.23S1567.71,55.52,1564.87,53.44Z" style="fill:#73e8a7"/><path d="M1591.06,57.75c3.49,1.88,5.37,5.35,4.07,7.76s-5.2,2.91-8.74,1.07-5.28-5.34-4-7.77S1587.57,55.9,1591.06,57.75Z" style="fill:#73e8a7"/><path d="M1636.63,166.26c-3-.2-5.24-3.85-5-8.23s2.94-7.71,6-7.53,5.22,3.9,4.93,8.21S1639.61,166.44,1636.63,166.26Z" style="fill:#73e8a7"/><path d="M1626.25,94c2.78-1.16,6.42,1.14,8.14,5.11s.86,8.21-1.87,9.42-6.43-1.12-8.14-5.09S1623.47,95.19,1626.25,94Z" style="fill:#73e8a7"/><path d="M1617.64,82.8c-1.93,2.38-6.23,1.9-9.52-.92s-4.45-7-2.49-9.25,6.23-1.85,9.53,1S1619.6,80.56,1617.64,82.8Z" style="fill:#73e8a7"/><path d="M1554.8,34.41c1.54,2.45,1.33,5.35-.39,6.36s-4.37-.09-5.86-2.6-1.36-5.39.41-6.39S1553.31,31.91,1554.8,34.41Z" style="fill:#73e8a7"/><path d="M1631.92,130.78c-.42-4.36,1.64-8.05,4.66-8.4s5.79,2.94,6.19,7.3-1.64,8.11-4.65,8.35S1632.33,135.11,1631.92,130.78Z" style="fill:#73e8a7"/><path d="M0,163.33c71-2,288,10,356,52S495.63,387.28,568.82,391.8,780,380.33,832,363.33s101-35,194-33,240,33,312,11,373-133,497-123l85,8.45V521.33H0Z" style="fill:#73e8a7"/><path d="M0,235.33c132,2,274-30,537,107,127.62,66.48,214.25,37.2,242.63,2.1S1010,290.33,1078,316.33s272,72,348,31,372-133,494-109v283H0Z" style="fill:#50d686"/><path d="M0,301.33c124-44,377,129,808.76,60.44C1045.1,324.24,1316,409.33,1456,351.33s392-98.5,464-49v217H0Z" style="fill:#2bb25e"/></g></g></svg>