<svg xmlns="http://www.w3.org/2000/svg" viewBox="0 0 1920 491"><title>Fichier 1</title><g id="Calque_2" data-name="Calque 2"><g id="montain"><polygon points="0 247.4 145 37 274 175 332 93 432 263 471 208 537 312 1086 312 1119 302 1146.36 312 1288.89 312 1346 277 1398 312 1570 60 1650 111 1691 243 1744 175 1822 312 1920 235.5 1920 471 0 471 0 247.4" style="fill:#e34b30"/><polygon points="0 471 0 132.87 107 51.77 165 112.16 260 0 356 185.5 404 172.56 479 283.28 536 268.9 613 332.17 725 328 808 279 1078 279 1088 296 1160 332 1222 335.05 1264 294.79 1352 335.05 1419 228.64 1500 247.33 1613 21.57 1691 84.84 1731 241.58 1808 172.56 1846 294.79 1920 208.1 1920 471 0 471" style="fill:#ba3525"/><polygon points="0 491 1920 491 1920 179 1851.67 266.14 1808.7 231.98 1731.75 334.45 1648.8 0 1554.86 294.6 1462.92 362.31 1425.95 316.77 1332.01 335.27 1277.04 359.65 894.29 359.47 862.31 338.12 822.34 359.47 516.54 359.47 473.57 267.91 405.61 244.79 311.67 95.35 265.7 122.39 190.75 0 131.79 135.2 94.81 111.01 0 205 0 491" style="fill:#991f16"/></g></g></svg>