<svg xmlns="http://www.w3.org/2000/svg" viewBox="0 0 233 263.5"><title>amelioration_generator</title><g data-name="Calque 2"><rect x="119" y="187.64" width="113" height="74.86" rx="3" ry="3" fill="#aaa" stroke="#333" stroke-miterlimit="10" stroke-width="2"/><circle cx="126.77" cy="195.41" r="2.82" fill="#545454" stroke="#212121" stroke-miterlimit="10" stroke-width=".5"/><circle cx="126.77" cy="254.73" r="2.82" fill="#545454" stroke="#212121" stroke-miterlimit="10" stroke-width=".5"/><circle cx="224.23" cy="195.41" r="2.82" fill="#545454" stroke="#212121" stroke-miterlimit="10" stroke-width=".5"/><circle cx="224.23" cy="254.73" r="2.82" fill="#545454" stroke="#212121" stroke-miterlimit="10" stroke-width=".5"/><path fill="#6d6d6d" stroke="#282828" stroke-linecap="round" stroke-miterlimit="10" stroke-width="2" d="M183.27 212.36h32.49m-32.49 7.06h32.49m-32.49 7.06h32.49"/><path d="M166.54 230h-28.69a3.31 3.31 0 0 1-3.31-3.31v-14.55a3.31 3.31 0 0 1 3.31-3.31h28.69a3.31 3.31 0 0 1 3.31 3.31v14.56a3.31 3.31 0 0 1-3.31 3.3z" fill="#fff" stroke="#282828" stroke-miterlimit="10"/><path fill="none" stroke="#f20000" stroke-miterlimit="10" d="M169.14 221.54l-2.48-.03-1.05-4.21-8.47 2.83-5.65 4.23-5.65-7.06-4.24 4.24-4.24-2.83h-2.12"/><rect x="188.92" y="243.43" width="4.24" height="12.71" rx=".74" ry=".74" fill="#4f4f4f" stroke="#3f3f3f" stroke-miterlimit="10" stroke-width=".5"/><path fill="none" stroke="#282828" stroke-linecap="round" stroke-miterlimit="10" d="M191.04 237.08v12.71"/><circle cx="191.04" cy="236.37" r="2.82" fill="#b70606"/><rect x="204.46" y="243.43" width="4.24" height="12.71" rx=".74" ry=".74" fill="#4f4f4f" stroke="#3f3f3f" stroke-miterlimit="10" stroke-width=".5"/><path fill="none" stroke="#282828" stroke-linecap="round" stroke-miterlimit="10" d="M206.58 237.08v12.71"/><circle cx="206.58" cy="236.37" r="2.83" fill="#b70606"/><path d="M119 211.54c-35 0-28-52.54-29-79.54S91 6.48 1 6.48" fill="none" stroke="#777" stroke-miterlimit="10" stroke-width="8"/><rect x="115" y="205" width="5" height="13" rx="1.48" ry="1.48" fill="#070707"/><rect width="5" height="13" rx="1.48" ry="1.48" fill="#070707"/></g></svg>