<svg xmlns="http://www.w3.org/2000/svg" viewBox="0 0 82 59.59"><title>amelioration_solar</title><g data-name="menu"><rect x="28.21" y="27.63" width="12.65" height="4.33" rx="1.94" ry="1.94" fill="#444"/><rect x="28.88" y="22.47" width="2.66" height="14.65" rx="1.19" ry="1.19" fill="#444"/><rect x="1" y="1" width="28.96" height="57.59" rx="3.38" ry="3.38" fill="#0b206d" stroke="#444" stroke-miterlimit="10"/><path d="M26 59.09H5a4.5 4.5 0 0 1-4.5-4.5V5A4.5 4.5 0 0 1 5 .5h21A4.5 4.5 0 0 1 30.46 5v49.6A4.5 4.5 0 0 1 26 59.09zM5 1.5A3.5 3.5 0 0 0 1.5 5v49.6A3.5 3.5 0 0 0 5 58.09h21a3.5 3.5 0 0 0 3.5-3.5V5A3.5 3.5 0 0 0 26 1.5z" fill="#0c0c0c" stroke="#444" stroke-miterlimit="10"/><path fill="#cca811" d="M1.25 6.33h28.3V7H1.25zm0 7.65h28.3v.67H1.25zm0 7.66h28.3v.67H1.25zm0 7.65h28.3v.67H1.25zm0 7.66h28.3v.67H1.25zm0 7.66h28.3v.67H1.25zm0 7.65h28.3v.67H1.25z"/><path fill="#cca811" d="M15.15 1.33h.67v56.92h-.67z"/><rect x="41.14" y="27.63" width="12.65" height="4.33" rx="1.94" ry="1.94" transform="rotate(-180 47.46 29.795)" fill="#444"/><rect x="50.46" y="22.47" width="2.66" height="14.65" rx="1.19" ry="1.19" transform="rotate(180 51.79 29.795)" fill="#444"/><rect x="52.04" y="1" width="28.96" height="57.59" rx="3.79" ry="3.79" transform="rotate(-180 66.52 29.795)" fill="#0b206d"/><path d="M77 59.09H56a4.5 4.5 0 0 1-4.49-4.49V5A4.5 4.5 0 0 1 56 .5h21A4.5 4.5 0 0 1 81.5 5v49.6a4.5 4.5 0 0 1-4.5 4.49zM56 1.5A3.5 3.5 0 0 0 52.54 5v49.6a3.5 3.5 0 0 0 3.5 3.5H77a3.5 3.5 0 0 0 3.5-3.5V5A3.5 3.5 0 0 0 77 1.5z" fill="#0c0c0c" stroke="#444" stroke-miterlimit="10"/><path fill="#cca811" d="M52.46 6.33h28.3V7h-28.3zm0 7.65h28.3v.67h-28.3zm0 7.66h28.3v.67h-28.3zm0 7.65h28.3v.67h-28.3zm0 7.66h28.3v.67h-28.3zm0 7.66h28.3v.67h-28.3zm0 7.65h28.3v.67h-28.3z"/><path fill="#cca811" d="M66.19 1.33h.67v56.92h-.67z"/></g></svg>