<svg xmlns="http://www.w3.org/2000/svg" viewBox="0 0 132.27 406.18"><title>amelioration_post</title><g data-name="menu" stroke="#0c0c0c" stroke-miterlimit="10" stroke-width=".25"><path d="M60.89.13h5.19a35 35 0 0 1 35 35v287a10.81 10.81 0 0 1-10.81 10.81H36.68a10.81 10.81 0 0 1-10.81-10.81v-287a35 35 0 0 1 35-35z" fill="#e34b30"/><circle cx="78.3" cy="42.3" r=".57" fill="#fff"/><circle cx="11.63" cy="200.72" r=".57" fill="#fff"/><path d="M98.38 396.81l-.18.59a5.78 5.78 0 0 0 4.21 7.36 41.74 41.74 0 0 0 18.84-.1 5.79 5.79 0 0 0 4.2-7.18l-.14-.5a5.8 5.8 0 0 0-5.59-4.25h-15.8a5.8 5.8 0 0 0-5.54 4.08z" fill="#4f4a4a"/><path d="M111.67 406.05a39.05 39.05 0 0 1-15.29-2.92l-.22-.11 2-6.5a5.8 5.8 0 0 1 5.54-4.08h16.23a5.8 5.8 0 0 1 5.59 4.25l1.75 6.34-.24.09a41.85 41.85 0 0 1-15.36 2.93zm-8.76-1.49a41.75 41.75 0 0 0 17.82-.08 5.82 5.82 0 0 0 4.37-7.21 5.8 5.8 0 0 0-5.59-4.25h-15.38a5.8 5.8 0 0 0-5.54 4.08v.08a5.8 5.8 0 0 0 4.32 7.38z"/><path d="M96 98.58a5.74 5.74 0 0 1 .17-1.44c1.28-5.07 9.13-35.54 13-34.09s12 29 13.48 34a5.79 5.79 0 0 1 .23 1.56l2.77 273a5.76 5.76 0 0 0 .41 2.09c.81 2 2.67 6.7 4.09 10.53a5.78 5.78 0 0 1-3 7.27c-6.26 2.84-18 6.3-30.22 0a5.82 5.82 0 0 1-3-6.67l3.09-11.48a5.8 5.8 0 0 0 .2-1.53z" fill="#fff"/><path d="M111.46 395.29a31.93 31.93 0 0 1-18.77-6.07l-.16-.11 4.25-15.81a5.8 5.8 0 0 0 .2-1.53L95.73 97.82c.33-1.33 8.06-32.52 12.56-34.89a1.18 1.18 0 0 1 1-.1c4.3 1.61 13.49 33.62 13.88 35v.08L126 371.56a5.76 5.76 0 0 0 .41 2.09c1.25 3.1 4.86 12.19 5.69 15.26l.05.19-.17.11a39.92 39.92 0 0 1-20.52 6.08zm-14.2-4c11.76 6 23.19 2.8 29.46 0a5.78 5.78 0 0 0 3.09-7.31c-1.83-4.95-4.35-11.16-4.38-11.24v-.1l-2.79-274a5.75 5.75 0 0 0-.23-1.54c-2.81-9.72-10-32.59-13.31-33.81a.63.63 0 0 0-.53.07c-3.35 1.77-9.27 22.46-12.09 33.8a5.71 5.71 0 0 0-.17 1.42l1.25 273.23a5.8 5.8 0 0 1-.2 1.53l-3 11.29a5.79 5.79 0 0 0 2.9 6.69z"/><path d="M6 396.81l-.18.59a5.78 5.78 0 0 0 4.18 7.36 41.74 41.74 0 0 0 18.84-.1 5.79 5.79 0 0 0 4.2-7.18l-.14-.5a5.8 5.8 0 0 0-5.59-4.25H11.53A5.8 5.8 0 0 0 6 396.81z" fill="#4f4a4a"/><path d="M19.28 406.05A39.05 39.05 0 0 1 4 403.13l-.23-.13 2-6.5a5.8 5.8 0 0 1 5.54-4.08h16.24a5.8 5.8 0 0 1 5.59 4.25l1.75 6.33-.24.09a41.85 41.85 0 0 1-15.37 2.96zm-8.76-1.49a41.75 41.75 0 0 0 17.82-.08 5.82 5.82 0 0 0 4.37-7.21 5.8 5.8 0 0 0-5.59-4.27H11.74a5.8 5.8 0 0 0-5.54 4.1v.08a5.8 5.8 0 0 0 4.32 7.38z"/><path d="M3.62 98.58a5.74 5.74 0 0 1 .17-1.44c1.28-5.07 9.13-35.54 13-34.09s12 29 13.48 34a5.79 5.79 0 0 1 .23 1.56l2.77 273a5.76 5.76 0 0 0 .41 2.09c.81 2 2.67 6.7 4.09 10.53a5.78 5.78 0 0 1-3 7.27c-6.26 2.84-18 6.3-30.22 0a5.82 5.82 0 0 1-3-6.67l3.09-11.48a5.8 5.8 0 0 0 .2-1.53z" fill="#fff"/><path d="M19.07 395.29a31.93 31.93 0 0 1-18.76-6.07l-.16-.11L4.4 373.3a5.8 5.8 0 0 0 .2-1.53L3.34 97.82c.33-1.33 8.06-32.52 12.56-34.89a1.18 1.18 0 0 1 1-.1c4.3 1.61 13.49 33.62 13.88 35v.08l2.78 273.71a5.76 5.76 0 0 0 .41 2.09c1.25 3.1 4.86 12.19 5.69 15.26l.05.19-.17.11a39.92 39.92 0 0 1-20.47 6.02zm-14.2-4c11.76 6 23.19 2.8 29.45 0a5.78 5.78 0 0 0 3.09-7.31c-1.83-4.95-4.35-11.15-4.38-11.24v-.1l-2.79-274a5.75 5.75 0 0 0-.24-1.5c-2.81-9.72-10-32.6-13.3-33.82a.63.63 0 0 0-.53.07c-3.35 1.77-9.27 22.46-12.09 33.8a5.71 5.71 0 0 0-.17 1.42l1.25 273.23a5.8 5.8 0 0 1-.2 1.53l-3 11.29a5.79 5.79 0 0 0 2.91 6.66z"/><path d="M3.74 97.52h26.61v1.14H3.74zm92.53-.01h26.61v1.14H96.27z"/></g></svg>