<svg xmlns="http://www.w3.org/2000/svg" viewBox="0 0 66 79.48"><title>amelioration_react</title><g data-name="Calque 2"><path fill="#6b6b6b" stroke="#444" stroke-linecap="round" stroke-miterlimit="10" stroke-width="2" d="M33.04 10.92v24.57"/><path d="M57.06 8.19S33.2 4.91 9 8.19c0 0 4.91 17.47 11.47 31.67h24.85A169.48 169.48 0 0 0 57.06 8.19z" fill="#515151" stroke="#444" stroke-miterlimit="10" stroke-width="3"/><path fill="#6b6b6b" stroke="#444" stroke-linecap="round" stroke-miterlimit="10" stroke-width="2" d="M39.59 10.92v24.57m6.55-24.57v16.93m6.55-16.93v3.82m-26.21-3.82v24.57m-6.55-24.57v16.93m-6.55-16.93v3.82"/><path d="M10.63 0s15.83 6.24 44.93 0v2.77s8.63 9.06 8 37.36l-2.13.87-1.58 3.65s8.08 10.16 5.72 14.59c0 0-6.7 9.37-20.31 7.3l-2.86-5.8a18 18 0 0 1-6.51 2.37s-.78 16.37-2.66 16.37-2.08-16.56-2.08-16.56-.79 1.68-7.79-2.37l-2.16 5.91S11 69.91 0 59.17a28.2 28.2 0 0 1 6.7-14.7l-1.51-3.28-2.82-.91S1.3 14.84 10.44 2.8z" fill="#444"/><path d="M12 54.83s5.94 5.47 12.73.94M12 52.94s5.94 5.47 12.73.94M12 51.08s5.94 5.47 12.73.94m-11.5-2.39S18 54 23.42 50.38M14 47.73s4.41 4.06 9.46.7M42 55.13s5.94 5.47 12.73.94M42 53.23s5.94 5.47 12.73.94M42 51.38s5.94 5.47 12.73.94m-11.46-2.4s4.75 4.38 10.19.75M44 48s4.41 4.06 9.46.7M26 56.64s6.85 6.36 14.73 1.09m-14.79-3.28s6.88 6.33 14.75 1.09M25.94 52.3s6.88 6.33 14.75 1.09m-13.27-2.78s5.5 5.07 11.8.87m-10.97-3.07s5.11 4.71 11 .81m-34.16-.56l.39-1.62 6.48.81v1.78l-7.27-1.22m-.25 2.93l.39-1.62 6.47.81v1.78l-7.26-1.22m-.41 2.64l.39-1.62 6.47.81v1.78l-7.26-1.22m57.95-4.74l-.4-1.62-6.47.81v1.77l7.27-1.21m1.08 2.6l-.4-1.62-6.47.81v1.78l7.26-1.22m.47 2.89l-.39-1.62-6.47.81v1.78l7.26-1.22" fill="#bcbcbc"/><path d="M33 75.1s-6.49-78.21-.19-70.68zm1.38-70.68l-.23 70.68s6.53-78.21.23-70.68M12.93 43.3l11.41-.11m-11.4 1.68l11.41-.11M12.96 46.4l11.41-.11m17.71-3.19l11.41-.11m-11.4 1.67l11.41-.11m-11.39 1.64l11.41-.11m-26.31-.4h3.51m5.75 0h3.51M1.34 58.5s13.83.62 18.43 7M65 58.27s-13.83.62-18.43 7m-8.69-54.85s15.27-3.13 16.94-6.66c0 0 10.07 10.93 8 36 0 0 1.33 1.37-21.47 1.46L37.88 39zM11.49 3.76s1.12 3.09 17 6.88L29 38.7l-4 2.84s-21.95.1-21.77-1.8-.17-27.28 8.26-35.98z" fill="#bcbcbc"/></g></svg>