<svg xmlns="http://www.w3.org/2000/svg" viewBox="0 0 124.58 87.93"><title>amelioration_arm</title><g data-name="Calque 2"><path fill="#777" stroke="#111" stroke-miterlimit="10" d="M14.04 14.34L26.82.75l1.39 1.65L15 17.48l-.96-3.14zM42.3 28.25l2.32-18.5-2.15-.02-3.2 19.79 3.03-1.27zM8.28 70.18l40.91 16.1 2.75-8.72-41.43-12.42-2.23 5.04z"/><circle cx="49.12" cy="81.46" r="6.46" transform="rotate(-27.5 49.111 81.45)" fill="#141414"/><path fill="#777" stroke="#111" stroke-miterlimit="10" d="M20.62 30.91l-7.55-14.52 1.89-1.96 8.49 12.58-2.83 3.9zm3.16 1.97l16.04-3.28.33-2.71-15.12 1.34-1.25 4.65z"/><path fill="#777" stroke="#111" stroke-miterlimit="10" d="M4.54 65.81l17.18-34.19 3.68 1.48-14.46 34.73-6.4-2.02z"/><circle cx="7.54" cy="66.44" r="7.54" transform="rotate(-27.5 7.546 66.427)" fill="#141414"/><circle cx="24.01" cy="30.42" r="5.17" transform="rotate(-27.5 24.004 30.41)" fill="#141414"/><circle cx="14.52" cy="15.93" r="2.58" transform="rotate(-27.5 14.529 15.943)" fill="#141414"/><circle cx="40.73" cy="28.03" r="2.58" transform="rotate(-27.5 40.722 28.026)" fill="#141414"/><path fill="#777" stroke="#111" stroke-miterlimit="10" d="M110.54 14.34L97.76.75 96.37 2.4l13.21 15.08.96-3.14zM82.28 28.25l-2.32-18.5 2.15-.02 3.2 19.79-3.03-1.27zm34.02 41.93l-40.91 16.1-2.75-8.72 41.43-12.42 2.23 5.04z"/><circle cx="75.46" cy="81.46" r="6.46" transform="rotate(-62.5 75.468 81.466)" fill="#141414"/><path fill="#777" stroke="#111" stroke-miterlimit="10" d="M103.95 30.91l7.56-14.52-1.89-1.96-8.49 12.58 2.82 3.9zm-3.15 1.97L84.76 29.6l-.32-2.71 15.11 1.34 1.25 4.65z"/><path fill="#777" stroke="#111" stroke-miterlimit="10" d="M120.04 65.81l-17.18-34.19-3.68 1.48 14.46 34.73 6.4-2.02z"/><circle cx="117.04" cy="66.44" r="7.54" transform="rotate(-62.5 117.045 66.436)" fill="#141414"/><circle cx="100.57" cy="30.42" r="5.17" transform="rotate(-62.5 100.578 30.424)" fill="#141414"/><circle cx="110.05" cy="15.93" r="2.58" transform="rotate(-62.5 110.061 15.93)" fill="#141414"/><circle cx="83.85" cy="28.03" r="2.58" transform="rotate(-62.5 83.856 28.033)" fill="#141414"/></g></svg>