<svg xmlns="http://www.w3.org/2000/svg" viewBox="0 0 87.93 55.58"><title>arm_robot</title><g data-name="Calque 2"><path fill="#777" stroke="#111" stroke-miterlimit="10" d="M73.59 14.04l13.59 12.78-1.65 1.39L70.45 15l3.14-.96zM59.68 42.3l18.5 2.32.02-2.15-19.79-3.2 1.27 3.03zM17.75 8.28L1.65 49.19l8.71 2.75 12.43-41.43-5.04-2.23z"/><circle cx="6.46" cy="49.12" r="6.46" transform="rotate(-27.5 6.455 49.116)" fill="#141414"/><path fill="#777" stroke="#111" stroke-miterlimit="10" d="M57.02 20.62l14.52-7.55 1.96 1.89-12.58 8.49-3.9-2.83zm-1.98 3.16l3.29 16.04 2.7.33-1.33-15.12-4.66-1.25z"/><path fill="#777" stroke="#111" stroke-miterlimit="10" d="M22.12 4.54l34.19 17.18-1.48 3.68L20.1 10.94l2.02-6.4z"/><circle cx="21.49" cy="7.54" r="7.54" transform="rotate(-27.5 21.482 7.53)" fill="#141414"/><circle cx="57.5" cy="24.01" r="5.17" transform="rotate(-27.5 57.493 24.009)" fill="#141414"/><circle cx="71.99" cy="14.52" r="2.58" transform="rotate(-27.5 71.986 14.518)" fill="#141414"/><circle cx="59.89" cy="40.73" r="2.58" transform="rotate(-27.5 59.877 40.727)" fill="#141414"/></g></svg>