<svg xmlns="http://www.w3.org/2000/svg" viewBox="0 0 48 67.24"><title>carbon</title><g data-name="Calque 2"><path fill="#3b62d8" d="M10.15 49.53l-6.5-27.05 8.5-10.53 8.51 5.47-2.23 29.77-8.28 2.34z"/><path fill="#cad8ff" d="M26.33 58.73l4.46-35.64 9.92-5.47L48 24.71 37.88 50.55l-11.55 8.18z"/><path fill="#7c95ea" d="M12.15 22.89l8.51-5.47-2.23 29.77-4.15 1.17-2.13-25.47z"/><path fill="#abbbfa" d="M12.15 11.95l8.51 5.47-8.51 5.47V11.95z"/><path fill="#ccd6fe" d="M3.65 22.89h8.5V11.95l-8.5 10.94z"/><path fill="#c9d4ff" d="M20.66 5.67l9.72 6.28L30.79 0 20.66 5.67z"/><path fill="#3b62d8" d="M22.89 50.66l7.49-38.71-9.72-6.08-5.06 47.19 7.29-2.4z"/><path fill="#abbbfa" d="M30.79 0l-.41 11.95L40.71 7.7 30.79 0z"/><path fill="#adbcf9" d="M40.71 17.62l-1.22 7.7 8.51-.61-7.29-7.09z"/><path fill="#7c95ea" d="M31.8 54.86l7.69-29.54 8.51-.61-10.13 25.92-6.07 4.23z"/><path fill="#6381db" d="M26.33 58.73l5.47-3.84 7.69-29.57-8.7-2.43-4.46 35.84z"/><path fill="#7c95ea" d="M40.71 7.7l-10.33 4.25-7.49 38.68 6.27-2.22L40.71 7.7z"/><path fill="#a0866f" d="M27.54 41.92L7.76 43.76 0 57.03l6.98 10.21H37.7l8.07-8.41-1.36-11.74-16.87-5.17z"/><path fill="#8e6f5a" d="M0 57.03l24.1-1.74L6.98 67.24 0 57.03zm44.41-9.94l-20.31 8.2 21.67 3.54-1.36-11.74z"/><path fill="#816349" d="M24.1 55.29l21.67 3.54-8.07 8.41H6.98L24.1 55.29z"/><path fill="#8e6f5a" d="M7.76 43.76L24.1 55.29l3.44-13.37-19.78 1.84zM1 57.03l24.1-1.74L7.98 67.24 1 57.03z"/><path fill="#8e6f5a" d="M8.76 43.76L25.1 55.29l3.44-13.37-19.78 1.84z"/></g></svg>