<svg xmlns="http://www.w3.org/2000/svg" viewBox="0 0 36.66 47.46"><title>flame</title><g data-name="Calque 2"><path d="M30.27 0H6.39c-8 6-7 12-5 17a15.19 15.19 0 0 0 4.65-5C6.62 28.55 11.62 39.33 18 47.46h.71C25 39.33 30 28.55 30.6 12a15.19 15.19 0 0 0 4.65 5c2-5 3-11-4.98-17z" fill="#f39a02"/><path d="M3.09 10.52c-.7-3-.75-6.52 4.32-9.24a7.72 7.72 0 0 1-4.32 9.24zm31.28 1c.7-3 .75-6.52-4.32-9.24a7.72 7.72 0 0 0 4.32 9.24zM18.09 24c-3.94-5-6.85-12.08-5.85-24h11.93c1 11.92-1.92 19-5.85 24h-.23z" fill="#feea00"/></g></svg>