<svg xmlns="http://www.w3.org/2000/svg" viewBox="0 0 73.44 402.56"><title>fuselage</title><g data-name="Calque 2"><path d="M61.53 360.83c-6.21 26.41-12.9 40.24-12.9 40.24H24.81s-4.75-9.82-10-28.72c-1-3.53-2-7.37-2.94-11.52L8 341.76C-1.9 286.17-5.56 193.08 35.13 69.12L36.72 0l1.59 69.09c40.7 124 37 217.05 27.14 272.64z" fill="#bcbcbc" stroke="#444" stroke-miterlimit="10" stroke-width="3"/><path d="M37.47 69.42c35 197-2 332-2 332s1.11-337.02 2-332z" fill="#e2e2e2"/><path d="M58.72 371.92s-21.85-3-44 0a229.69 229.69 0 0 0 10.5 29H48a155.19 155.19 0 0 0 10.72-29z" fill="#515151" stroke="#444" stroke-miterlimit="10" stroke-width="3"/><path fill="#6b6b6b" stroke="#444" stroke-linecap="round" stroke-miterlimit="10" stroke-width="2" d="M42.72 374.42v22.5m6-22.5v15.5m6-15.5v3.5m-24-3.5v22.5m-6-22.5v15.5m-6-15.5v3.5"/><circle cx="36.72" cy="195.42" r="18.5" fill="#fce856" stroke="#444" stroke-miterlimit="10" stroke-width="3"/><path fill="#6b6b6b" stroke="#444" stroke-linecap="round" stroke-miterlimit="10" stroke-width="2" d="M36.72 374.42v22.5"/></g></svg>