<svg xmlns="http://www.w3.org/2000/svg" viewBox="0 0 76.5 51.36"><title>generator</title><g data-name="menu"><rect x="1" y="1" width="74.5" height="49.36" rx="3" ry="3" fill="#aaa" stroke="#0c0c0c" stroke-miterlimit="10" stroke-width="2"/><circle cx="6.12" cy="6.12" r="1.86" fill="#545454" stroke="#212121" stroke-miterlimit="10" stroke-width=".5"/><circle cx="6.12" cy="45.23" r="1.86" fill="#545454" stroke="#212121" stroke-miterlimit="10" stroke-width=".5"/><circle cx="70.38" cy="6.12" r="1.86" fill="#545454" stroke="#212121" stroke-miterlimit="10" stroke-width=".5"/><circle cx="70.38" cy="45.23" r="1.86" fill="#545454" stroke="#212121" stroke-miterlimit="10" stroke-width=".5"/><path fill="#6d6d6d" stroke="#282828" stroke-linecap="round" stroke-miterlimit="10" stroke-width="2" d="M43.37 17.3h21.42m-21.42 4.65h21.42m-21.42 4.66h21.42"/><path d="M32.34 28.94H13.43a2.18 2.18 0 0 1-2.18-2.18v-9.6A2.18 2.18 0 0 1 13.43 15h18.91a2.18 2.18 0 0 1 2.18 2.18v9.6a2.18 2.18 0 0 1-2.18 2.16z" fill="#fff" stroke="#282828" stroke-miterlimit="10"/><path fill="none" stroke="#f20000" stroke-miterlimit="10" d="M34.06 23.35l-1.64-.02-.69-2.77-5.59 1.86-3.72 2.79-3.73-4.65-2.79 2.79-2.79-1.86h-1.4"/><rect x="47.1" y="37.78" width="2.79" height="8.38" rx=".74" ry=".74" fill="#4f4f4f" stroke="#3f3f3f" stroke-miterlimit="10" stroke-width=".5"/><path fill="none" stroke="#282828" stroke-linecap="round" stroke-miterlimit="10" d="M48.49 33.59v8.38"/><circle cx="48.49" cy="33.13" r="1.86" fill="#b70606"/><rect x="57.34" y="37.78" width="2.79" height="8.38" rx=".74" ry=".74" fill="#4f4f4f" stroke="#3f3f3f" stroke-miterlimit="10" stroke-width=".5"/><path fill="none" stroke="#282828" stroke-linecap="round" stroke-miterlimit="10" d="M58.74 33.59v8.38"/><circle cx="58.74" cy="33.13" r="1.86" fill="#b70606"/></g></svg>