<svg xmlns="http://www.w3.org/2000/svg" viewBox="0 0 1412 1088"><defs><style>.cls-1{fill:#363636;stroke-width:8px}.cls-1,.cls-2{stroke:#000}.cls-1,.cls-2,.cls-3,.cls-5{stroke-miterlimit:10}.cls-2,.cls-3{fill:#b2b2b2;stroke-width:2px}.cls-3{fill:#8e8e8e;stroke:#727272}.cls-4,.cls-5{fill:#444}.cls-5{stroke:#6b6b6b;stroke-width:3px}</style></defs><title>left_door_6_1</title><g id="Calque_2" data-name="Calque 2"><g id="Calque_1-2" data-name="Calque 1"><path class="cls-1" d="M1408 4v350.75a189.81 189.81 0 0 0 0 379.62V1084H4V4z"/><path class="cls-2" d="M1408 730.37V1059H26V23h1382v327.75a189.81 189.81 0 0 0 0 379.62z"/><path class="cls-3" d="M1406 353.75a189.81 189.81 0 0 0 0 379.62V1038H48V44h1358z"/><circle class="cls-4" cx="1367" cy="68.78" r="11.43"/><circle class="cls-5" cx="1367" cy="68.78" r="5.02"/><circle class="cls-4" cx="1367" cy="293.82" r="11.43"/><circle class="cls-5" cx="1367" cy="293.82" r="5.02"/><circle class="cls-4" cx="1367" cy="779.16" r="11.43"/><circle class="cls-5" cx="1367" cy="779.16" r="5.02"/><circle class="cls-4" cx="1367.29" cy="998.22" r="11.43"/><circle class="cls-5" cx="1367.29" cy="998.22" r="5.02"/></g></g></svg>