<svg xmlns="http://www.w3.org/2000/svg" viewBox="0 0 82.59 82.59"><title>planet_rouge</title><g data-name="menu"><circle cx="41.29" cy="41.29" r="41.29" transform="rotate(-8.43 41.294 41.31)" fill="#ea6c73"/><circle cx="41.29" cy="41.3" r="37.35" fill="#d83b38"/><path d="M13 14.81h29a1.52 1.52 0 0 1 1.52 1.52A1.52 1.52 0 0 1 42 17.86H13a1.52 1.52 0 0 1-1.52-1.52A1.52 1.52 0 0 1 13 14.81zm-6 7.01h30.79a2.12 2.12 0 0 1 2.12 2.12 2.12 2.12 0 0 1-2.12 2.12H7a2.12 2.12 0 0 1-2.12-2.12A2.12 2.12 0 0 1 7 21.82z" fill="#ea6c73"/><rect x="8.37" y="16.71" width="26.14" height="6.46" rx="2.87" ry="2.87" fill="#ea6c73"/><rect x="23.08" y="17.86" width="18.94" height="3.96" rx="1.98" ry="1.98" fill="#d83b38"/><rect x="19.8" y="35.47" width="61.2" height="4.03" rx="1.99" ry="1.99" fill="#ea6c73"/><rect x="33.5" y="44.11" width="45.99" height="3.86" rx="1.93" ry="1.93" fill="#ea6c73"/><rect x="39.91" y="38.32" width="26.83" height="5.79" rx="2.77" ry="2.77" fill="#ea6c73"/><path d="M29.81 39.5h12.8a2.31 2.31 0 0 1 2.31 2.31 2.31 2.31 0 0 1-2.31 2.31h-12.8a2.31 2.31 0 0 1-2.31-2.31 2.31 2.31 0 0 1 2.31-2.31zm34.66 0H74a2.31 2.31 0 0 1 2.31 2.31 2.31 2.31 0 0 1-2.31 2.3h-9.53a2.31 2.31 0 0 1-2.31-2.31 2.31 2.31 0 0 1 2.31-2.3z" fill="#d83b38"/></g></svg>