<svg xmlns="http://www.w3.org/2000/svg" viewBox="0 0 106.59 106.59"><title>planet_vert</title><g data-name="menu"><path fill="#73a99d" d="M5.19 72.73h96.23L89.85 88.78 14.77 87.7 5.19 72.73z"/><path d="M61.31 78.76h33.47a2.3 2.3 0 0 1 2.3 2.3 2.3 2.3 0 0 1-2.3 2.3H61.31a2.3 2.3 0 0 1-2.3-2.3 2.3 2.3 0 0 1 2.3-2.3z" fill="#537774"/><path d="M98.85 72.48s-2.22 6.89-12.36 16.1S90 90.3 90 90.3l6.14-6.3 5.29-9.36z" fill="#73a99d"/><path d="M11.39 78.76h8.84a2.3 2.3 0 0 1 2.3 2.3 2.3 2.3 0 0 1-2.3 2.3h-8.84a2.3 2.3 0 0 1-2.3-2.3 2.3 2.3 0 0 1 2.3-2.3z" fill="#537774"/><path d="M3.1 66.34h3.58A44.29 44.29 0 0 0 21 89.18c11.66 9.64-1.68 3-1.68 3L8.11 81.07 6.28 75z" fill="#73a99d"/><circle cx="53.29" cy="53.29" r="53.29" transform="rotate(-8.43 53.301 53.314)" fill="#80e886"/><circle cx="53.29" cy="53.3" r="48.2" fill="#5cd65f"/><path d="M16.82 19.12h37.34a2 2 0 0 1 2 2 2 2 0 0 1-2 2H16.82a2 2 0 0 1-2-2 2 2 0 0 1 2-2zM9 28.16h39.77a2.74 2.74 0 0 1 2.74 2.73 2.74 2.74 0 0 1-2.74 2.73H9a2.74 2.74 0 0 1-2.74-2.73A2.74 2.74 0 0 1 9 28.16z" fill="#80e886"/><rect x="10.81" y="21.56" width="33.73" height="8.34" rx="3.71" ry="3.71" fill="#80e886"/><rect x="29.79" y="23.05" width="24.45" height="5.11" rx="2.55" ry="2.55" fill="#5cd65f"/><rect x="25.55" y="45.78" width="78.98" height="5.2" rx="2.57" ry="2.57" fill="#80e886"/><rect x="43.24" y="56.93" width="59.35" height="4.98" rx="2.49" ry="2.49" fill="#80e886"/><rect x="51.51" y="49.46" width="34.62" height="7.47" rx="3.58" ry="3.58" fill="#80e886"/><path d="M38.47 51H55a3 3 0 0 1 3 3 3 3 0 0 1-3 3H38.47a3 3 0 0 1-3-3 3 3 0 0 1 3-3zm44.74 0H95.5a3 3 0 0 1 3 3 3 3 0 0 1-3 3H83.21a3 3 0 0 1-3-3 3 3 0 0 1 3-3z" fill="#5cd65f"/></g></svg>