<svg xmlns="http://www.w3.org/2000/svg" viewBox="0 0 67.64 68.22"><title>post_comb</title><g data-name="menu" stroke="#0c0c0c" stroke-miterlimit="10" stroke-width=".25"><rect x="33.97" y="-6.47" width="14.8" height="65.49" rx="5.41" ry="5.41" transform="rotate(45 41.37 26.266)" fill="#e34b30"/><circle cx="60.72" cy="11.05" r=".11" transform="rotate(-45 60.717 11.05)" fill="#fff"/><circle cx="29.4" cy="23.81" r=".11" transform="rotate(-45 29.394 23.814)" fill="#fff"/><path d="M14.93 62.78l-1.85 1A8 8 0 0 0 17.31 68l1-1.8z" fill="#4f4a4a"/><path d="M14.75 66.3A7.69 7.69 0 0 1 13 63.77l1.93-1 3.47 3.47-1.07 1.88a8.24 8.24 0 0 1-2.58-1.82zm-1.6-2.53a8.08 8.08 0 0 0 4.14 4.14l1-1.72-3.35-3.35z"/><path d="M55.45 21.24s6.31-3.81 6.68-3S59.19 25 59.19 25L21.34 63.61s-1 2.45-1.42 3.12c0 0-4.63-.84-5.42-5.42l2.9-1.67z" fill="#fff"/><path d="M16.22 64.78a6.28 6.28 0 0 1-1.77-3.46l2.92-1.69L55.42 21.2c.23-.14 5.65-3.4 6.6-3.11a.23.23 0 0 1 .15.12c.37.82-2.8 6.56-2.94 6.8L21.39 63.65c-.07.17-1.05 2.48-1.41 3.11a7.86 7.86 0 0 1-3.76-1.98zm-1.65-3.44c.75 4.23 4.88 5.23 5.33 5.33.39-.7 1.38-3 1.39-3.07l37.86-38.65c.92-1.65 3.22-6.05 2.93-6.69a.12.12 0 0 0-.08-.06c-.73-.23-4.57 1.92-6.51 3.09l-38.05 38.4z"/><path d="M2.07 49.92l-1.85 1a8 8 0 0 0 4.23 4.23l1-1.8z" fill="#4f4a4a"/><path d="M1.89 53.45a7.69 7.69 0 0 1-1.72-2.54l1.93-1 3.47 3.47-1.09 1.82a8.24 8.24 0 0 1-2.59-1.75zm-1.6-2.53a8.08 8.08 0 0 0 4.14 4.14l1-1.72L2.06 50z"/><path d="M42.6 8.38s6.31-3.81 6.68-3-2.93 6.75-2.93 6.75L8.48 50.76s-1 2.45-1.42 3.12c0 0-4.63-.84-5.42-5.42l2.9-1.67z" fill="#fff"/><path d="M3.36 51.92a6.28 6.28 0 0 1-1.77-3.46l2.92-1.69L42.56 8.34c.23-.14 5.65-3.4 6.6-3.11a.23.23 0 0 1 .15.12c.37.82-2.8 6.56-2.94 6.8L8.53 50.79c-.07.17-1.05 2.48-1.41 3.11a7.86 7.86 0 0 1-3.76-1.98zm-1.65-3.44c.75 4.23 4.88 5.23 5.33 5.33.39-.7 1.38-3 1.39-3.07l37.86-38.65c.92-1.65 3.22-6.05 2.93-6.69a.12.12 0 0 0-.08-.06c-.73-.23-4.57 1.92-6.51 3.09L4.58 46.83z"/><path d="M42.502 8.515l.156-.156 3.705 3.705-.155.156zM55.38 21.387l.156-.155 3.705 3.705-.155.156z"/></g></svg>