<svg xmlns="http://www.w3.org/2000/svg" viewBox="0 0 55 66.23"><title>reactor_anti</title><g data-name="menu"><path d="M8.86 0S22 5.2 46.3 0v2.31s7.19 7.55 6.7 31.13l-1.77.74-1.31 3s6.74 8.46 4.77 12.16c0 0-5.59 7.81-16.93 6.08l-2.38-4.85a15 15 0 0 1-5.42 2s-.65 13.64-2.21 13.64S26 52.43 26 52.43s-.66 1.4-6.49-2l-1.81 4.93S9.2 58.26 0 49.3a23.5 23.5 0 0 1 5.59-12.24l-1.27-2.74L2 33.57s-.91-21.2 6.7-31.23z" fill="#0c0c0c"/><path d="M10 45.69s4.95 4.56 10.61.78M10 44.11s4.95 4.56 10.61.78M10 42.57s4.95 4.56 10.61.78M11 41.36s4 3.64 8.52.64m-7.89-2.23s3.68 3.39 7.89.58M35 45.94s4.95 4.56 10.61.78M35 44.36s4.95 4.56 10.61.78M35 42.81s4.95 4.56 10.61.78m-9.55-1.99s4 3.65 8.49.63M36.66 40s3.68 3.39 7.89.58m-22.9 6.62s5.73 5.28 12.29.9m-12.32-2.73s5.73 5.28 12.29.9m-12.29-2.69s5.73 5.28 12.29.9m-11.06-2.3s4.58 4.22 9.83.72m-9.13-2.56s4.26 3.92 9.14.67" fill="none" stroke="#fff" stroke-miterlimit="10" stroke-width=".75"/><path fill="#f4f4f4" d="M4.24 40.55l.33-1.35 5.4.68v1.48l-6.06-1.02m-.21 2.45l.33-1.36 5.39.68v1.48l-6.05-1.01m-.35 2.2l.33-1.36 5.39.68v1.48l-6.05-1.02"/><path fill="#f9f9f9" d="M50.98 40.62l-.33-1.36-5.39.68v1.48l6.05-1.01m.9 2.17l-.32-1.35-5.4.67v1.48l6.06-1.01m.39 2.41l-.33-1.36-5.4.68v1.48l6.06-1.02"/><path d="M27.53 62.58s-5.44-65.18-.19-58.9zm1.12-58.9l-.19 58.9s5.44-65.18.19-58.9" fill="#fff"/><path fill="none" stroke="#fff" stroke-miterlimit="10" d="M10.78 36.09l9.51-.09m-9.5 1.39l9.5-.09m-9.49 1.37l9.51-.1m14.76-2.66l9.51-.09m-9.5 1.4l9.5-.1m-9.49 1.37l9.51-.09"/><path fill="none" stroke="#fff" stroke-miterlimit="10" stroke-width="3" d="M22.67 38.06h2.93m4.8 0h2.92"/><path d="M1.12 48.75s11.52.52 15.36 5.79m37.69-5.98s-11.52.52-15.36 5.79" fill="none" stroke="#fff" stroke-miterlimit="10" stroke-width="2"/><path d="M31.57 8.68s12.72-2.61 14.11-5.54c0 0 8.4 9.11 6.68 30 0 0 1.11 1.14-17.89 1.21l-2.89-1.86zM9.58 3.14s.93 2.58 14.2 5.73l.36 23.38-3.3 2.37s-18.29.08-18.14-1.5-.15-22.73 6.88-29.98z" fill="#fff"/></g></svg>