<svg xmlns="http://www.w3.org/2000/svg" viewBox="0 0 1799 1088"><defs><style>.cls-1{fill:#363636;stroke-width:8px}.cls-1,.cls-2{stroke:#000}.cls-1,.cls-2,.cls-3,.cls-5{stroke-miterlimit:10}.cls-2,.cls-3{fill:#b2b2b2;stroke-width:2px}.cls-3{fill:#8e8e8e;stroke:#727272}.cls-4,.cls-5{fill:#444}.cls-5{stroke:#6b6b6b;stroke-width:3px}</style></defs><title>right_door_6</title><g id="Calque_2" data-name="Calque 2"><g id="Calque_1-2" data-name="Calque 1"><path class="cls-1" d="M4 4v350.75a189.81 189.81 0 0 1 0 379.62V1084h1791V4z"/><path class="cls-2" d="M4 730.37V1059h1769V23H4v327.75a189.81 189.81 0 0 1 0 379.62z"/><path class="cls-3" d="M4 353.75a189.81 189.81 0 0 1 0 379.62V1038h1741V44H4z"/><circle class="cls-4" cx="48.58" cy="68.78" r="11.43"/><circle class="cls-5" cx="48.58" cy="68.78" r="5.02"/><circle class="cls-4" cx="48.58" cy="293.82" r="11.43"/><circle class="cls-5" cx="48.58" cy="293.82" r="5.02"/><circle class="cls-4" cx="48.58" cy="779.16" r="11.43"/><circle class="cls-5" cx="48.58" cy="779.16" r="5.02"/><circle class="cls-4" cx="48.87" cy="998.22" r="11.43"/><circle class="cls-5" cx="48.87" cy="998.22" r="5.02"/></g></g></svg>