<svg xmlns="http://www.w3.org/2000/svg" viewBox="0 0 100.04 190.45"><defs><clipPath id="a"><path d="M44.07 134.8v-31.31a19.75 19.75 0 0 0-.9-5.84 18 18 0 0 0-3.59-6.21 17.56 17.56 0 0 0-10.11-5.69c-.62-.12-1.26-.08-1.88-.26h-2.23c-.61.18-1.26.14-1.88.26a17.56 17.56 0 0 0-10.11 5.69 18 18 0 0 0-3.59 6.21 19.69 19.69 0 0 0-.9 5.84c-.06 2.22 0 4.44 0 6.66v27.57c0 .5.15.62.63.61h33.95c.48 0 .65-.12.63-.61-.09-.97-.02-1.95-.02-2.92zM16 129.49a2.64 2.64 0 1 1 2.63-2.66 2.62 2.62 0 0 1-2.63 2.66zm10.51 0a2.63 2.63 0 0 1-2.4-3.56 2.42 2.42 0 0 1 2-1.64l.39-.1.39.1a2.43 2.43 0 0 1 2 1.64 2.64 2.64 0 0 1-2.41 3.57zm5.18-18.76a5.21 5.21 0 0 1-10.37 0c0-.43 0-.61.52-.6h9.34c.47-.01.53.17.48.6zM37 129.49a2.62 2.62 0 0 1-2.63-2.61 2.63 2.63 0 1 1 2.63 2.61z" fill="none"/></clipPath></defs><title>robot_vert</title><g data-name="Calque 2"><ellipse cx="25.28" cy="166.9" rx="25.28" ry="6.5" opacity=".4"/><path d="M77.93 96.37a1.65 1.65 0 0 1 1.57-1.57 1.71 1.71 0 0 1 1.56 1.54 1.57 1.57 0 0 1-3.13 0z" fill="#6f7487"/><path d="M79.77 147.33l6.32 21.22a1.7 1.7 0 0 0 3.25 0l6.84-21.22a1.7 1.7 0 0 0-1.62-2.22H81.4a1.7 1.7 0 0 0-1.63 2.22z" fill="#454545"/><path d="M87.72 170.06a2 2 0 0 1-1.88-1.42l-6.32-21.22a2 2 0 0 1 1.91-2.56h13.13a2 2 0 0 1 1.89 2.6l-6.84 21.23a2 2 0 0 1-1.89 1.37zM80 147.25l6.32 21.22a1.38 1.38 0 0 0 1.34 1 1.38 1.38 0 0 0 1.35-1l6.84-21.23a1.42 1.42 0 0 0-1.35-1.85H81.4a1.42 1.42 0 0 0-1.4 1.86z"/><rect x="79.12" y="146.81" width="16.82" height="2.04" rx="1.02" ry="1.02" transform="rotate(-18.74 87.507 147.815)" fill="#454545"/><path d="M80.53 151.51a1.31 1.31 0 0 1-.42-2.54l14-4.75a1.31 1.31 0 0 1 .84 2.47l-14 4.75a1.31 1.31 0 0 1-.42.07zm14-6.79a.72.72 0 0 0-.24 0l-14 4.75a.73.73 0 1 0 .47 1.39l14-4.75a.73.73 0 0 0-.24-1.43z"/><path d="M8.88 110.22v24.65H5.96c-.47 0-.59-.14-.59-.59v-23.49c0-.46.12-.61.59-.59.97.05 1.95.02 2.92.02z" fill="#777"/><path d="M5.88 135.47a1.09 1.09 0 0 1-.78-.27 1.18 1.18 0 0 1-.3-.9v-23.53a1.19 1.19 0 0 1 .3-.9 1.17 1.17 0 0 1 .88-.27h3.47v25.8H5.98zm0-24.67v23.49h2.36V110.8H6z" fill="#444"/><path d="M18.82 126.89a2.84 2.84 0 0 1-2.82 2.85 2.88 2.88 0 0 1-2.86-2.86A2.91 2.91 0 0 1 16 124a2.87 2.87 0 0 1 2.82 2.89z" fill="#777"/><path d="M16 130.6a3.73 3.73 0 1 1 3.69-3.72A3.7 3.7 0 0 1 16 130.6zm0-5.73a2 2 0 0 0 0 4 2 2 0 0 0 2-2 2 2 0 0 0-2-2z" fill="#444"/><path d="M29.35 126.89a2.84 2.84 0 0 1-2.83 2.85 2.88 2.88 0 0 1-2.86-2.86 2.91 2.91 0 0 1 2.85-2.88 2.87 2.87 0 0 1 2.84 2.89z" fill="#6f7487"/><path d="M47.28 114.29c.2-.27.37-.59.74-.69a1.05 1.05 0 0 1 1.33 1v15.96c0 .59 0 1.15-.66 1.42s-1-.12-1.42-.55z" fill="#828694"/><path d="M48.3 132.4a1.74 1.74 0 0 1-1.24-.74l-.07-.08V114.2l.13-.19a1.47 1.47 0 0 1 .82-.69 1.28 1.28 0 0 1 1.09.17 1.48 1.48 0 0 1 .6 1.13v15.93a1.6 1.6 0 0 1-.83 1.69 1.29 1.29 0 0 1-.5.16zm-.74-1c.4.44.68.55 1 .4s.49-.52.49-1.16v-15.9a.92.92 0 0 0-.36-.7.71.71 0 0 0-.62-.09c-.22.06-.35.24-.5.46z"/><path d="M84 93.72c0-.35 0-.7.05-1a2 2 0 0 1 2.09-2.06h3a2 2 0 0 1 2.07 2.19v5.83c0 .81-.18 1-1 1.27h-5.12c-.81-.25-1-.48-1-1.32v-1.8a14.59 14.59 0 0 0-.09-3.11z" fill="#828694"/><path d="M90.32 100.2H85a1.41 1.41 0 0 1-1.22-1.59V96.8a14.62 14.62 0 0 0 0-3.05v-1.1a2.34 2.34 0 0 1 2.37-2.32h3.06a2.32 2.32 0 0 1 2.34 2.48v5.84c0 .93-.26 1.26-1.2 1.55zm-5.19-.57h5.11c.67-.2.75-.32.75-1v-5.82a1.75 1.75 0 0 0-1.79-1.91h-3a1.76 1.76 0 0 0-1.82 1.79v1.02a14.91 14.91 0 0 1 0 3.11v1.76c0 .7.1.84.75 1.04z"/><path d="M86.13 121.54v-19.62h3.17v19.61z" fill="#828694"/><path d="M89.54 121.83h-3.7v-20.2h3.76v1.04zm-3.12-.58H89v-19.04h-2.6v.47z"/><path d="M49.4 129.74v-13.83c.62.15 1.25.26 1.86.44a1.57 1.57 0 0 1 1.17 1.32V128a1.49 1.49 0 0 1-1.18 1.33c-.61.14-1.25.27-1.85.41z" fill="#828694"/><path d="M49.12 130.1v-14.54l.35.08.57.13c.43.09.87.19 1.31.32a1.84 1.84 0 0 1 1.37 1.56V128a1.79 1.79 0 0 1-1.41 1.61c-.41.11-.84.2-1.27.3zm.56-13.83v13.11h.22c.42-.09.84-.19 1.26-.3a1.21 1.21 0 0 0 1-1.08v-10.32a1.27 1.27 0 0 0-1-1c-.42-.13-.85-.22-1.27-.31z"/><path d="M89.32 125.73h1.86c.79 0 1.14.39 1.15 1.21v1.51c0 .93-.15 1.13-1 1.42h-5.27a2 2 0 0 1-2-2.08 2 2 0 0 1 2-2z" fill="#7cea82"/><path d="M91.34 130.14h-5.29a2.31 2.31 0 0 1-2.24-2.38 2.27 2.27 0 0 1 2.26-2.28h5.14a1.33 1.33 0 0 1 1.43 1.49v1.52c0 1.06-.22 1.36-1.23 1.69zm-2-4.13h-3.26a1.69 1.69 0 0 0-1.7 1.71 1.74 1.74 0 0 0 1.69 1.8h5.14c.74-.24.8-.34.8-1.13v-1.51c0-.66-.24-.91-.87-.92h-1.11z"/><path d="M56.53 116.64V129h-.93a1.06 1.06 0 0 1-1.07-1v-10.3a1.09 1.09 0 0 1 1.14-1.07c.33-.01.57 0 .86.01z" fill="#d4dbeb"/><path d="M55.91 129.31h-.32a1.33 1.33 0 0 1-1.35-1.31v-10.3a1.39 1.39 0 0 1 1.41-1.35h1.16v13h-.91zm0-12.4h-.24c-.55 0-.77.24-.87.83V128a.77.77 0 0 0 .79.77h.63v-11.85z"/><path d="M54.52 117.7v10.26h-2.1v-10.3z" fill="#484857"/><path d="M52.13 128.27V117.4h2.68v10.83zm.57-10.3v9.72h1.53V118z"/><path d="M89.29 101.93h-3.2a.93.93 0 0 1-1-.91v-1.1h5.2c0 .37 0 .74-.05 1.1a.92.92 0 0 1-.95.91z" fill="#7cea82"/><path d="M89.3 102.21h-3.21a1.21 1.21 0 0 1-1.24-1.16 7.25 7.25 0 0 1 0-.79v-.63h5.79v1.42a1.2 1.2 0 0 1-1.21 1.17zm-3.92-2a6.74 6.74 0 0 0 0 .73.65.65 0 0 0 .68.66h3.19a.64.64 0 0 0 .66-.66v-.78z"/><path d="M86.13 121.54h3.11c.82.27 1.12.68 1 1.32s-.52.68-1 .8h-3.11c-.85-.28-1.18-.79-.94-1.43a1.2 1.2 0 0 1 .94-.69z" fill="#5d668a"/><path d="M89.28 123.94H86a1.75 1.75 0 0 1-1.11-.83 1.22 1.22 0 0 1 0-1 1.5 1.5 0 0 1 1.13-.86h3.28c1 .32 1.34.87 1.16 1.66a1.42 1.42 0 0 1-1.17 1zm-3.11-.57h3c.41-.11.64-.24.72-.58s.09-.68-.74-1h-3c-.38.11-.61.22-.71.5a.65.65 0 0 0 0 .53 1.2 1.2 0 0 0 .73.55z"/><path d="M84 93.72a14.59 14.59 0 0 1 0 3.08h-2.16a3.52 3.52 0 0 0-.58-3z" fill="#484857"/><path d="M84.29 97.08h-2.8l.1-.36a3.23 3.23 0 0 0-.54-2.8l-.3-.44h3.54v.26a14.84 14.84 0 0 1 0 3.14zm-2.06-.59h1.54a14.34 14.34 0 0 0 0-2.5h-2a3.66 3.66 0 0 1 .46 2.5z"/><path d="M86.13 123.66h3.12a14.32 14.32 0 0 0 .07 2.07h-3.24a19.15 19.15 0 0 0 .05-2.07z" fill="#7cea82"/><path d="M89.66 126h-3.92l.05-.33a7.31 7.31 0 0 0 0-1.24v-1.07h3.66v1.08a5.31 5.31 0 0 0 .06 1.22zm-3.26-.57H89a7.55 7.55 0 0 1 0-1v-.49h-2.59v.49c.01.33.02.67-.01 1.01z"/><path d="M65.86 119.77a3 3 0 0 1 3.06 2.91v.15a3.06 3.06 0 0 1-3 3.11 3.16 3.16 0 0 1-3.12-3.12 3.06 3.06 0 0 1 3.08-3z" fill="#6f7487"/><path d="M65.91 126.22a3.44 3.44 0 0 1-3.45-3.4 3.35 3.35 0 0 1 3.35-3.33v.29-.29a3.27 3.27 0 0 1 3.35 3.19v.16a3.35 3.35 0 0 1-3.29 3.39zm-.09-6.16a2.78 2.78 0 0 0-2.82 2.76 2.86 2.86 0 0 0 2.84 2.83 2.77 2.77 0 0 0 2.75-2.82v-.15a2.7 2.7 0 0 0-2.76-2.63z"/><path d="M44.07 110.07v24.65h2.92c.47 0 .59-.14.59-.59v-23.49c0-.46-.12-.61-.59-.59-.99.05-1.99.02-2.92.02z" fill="#777"/><path d="M47.07 135.32H43.5V109.5H47a1.16 1.16 0 0 1 .88.27 1.19 1.19 0 0 1 .3.9v23.49a1.18 1.18 0 0 1-.3.9 1.09 1.09 0 0 1-.81.26zm-1.54-1.17h1.48v-23.49h-2.42v23.5h.88z" fill="#444"/><path d="M35.77 138.33h-18.5c.83 3.88 5.07 7.1 9.23 7 4.2.09 8.44-3.12 9.27-7z" fill="#777"/><path d="M26.32 145.9c-4.38 0-8.74-3.37-9.61-7.45l-.15-.69h19.92l-.15.69c-.88 4.15-5.38 7.56-9.8 7.45zm-8.3-7a9.09 9.09 0 0 0 8.46 5.85h.06A9.21 9.21 0 0 0 35 138.9z" fill="#444"/><path d="M31.34 110h-9.72c-.52 0-.59.18-.54.62a5.48 5.48 0 0 0 5.34 4.85h.11a5.49 5.49 0 0 0 5.34-4.85c.06-.41-.01-.62-.53-.62z" fill="#717588"/><path d="M87.91 142.61H79.3c-.22 0-.29 0-.29-.28v-11c0-.22.06-.27.27-.27h17.27c.21 0 .27 0 .27.27v11c0 .21-.06.25-.26.25zm4.64-6.35h1.57c.13 0 .18 0 .18-.17v-1.37c0-.16-.06-.18-.2-.18H91c-.17 0-.2.06-.2.21v1.29c0 .17 0 .22.21.22h1.54zm-4.65 3.48h1.55c.15 0 .21 0 .21-.2v-1.34c0-.17-.06-.2-.21-.2h-3c-.15 0-.21 0-.21.2v1.34c0 .17.06.2.21.2zm4.62 0h1.55c.15 0 .22 0 .21-.2v-1.34c0-.16 0-.2-.2-.2H91c-.14 0-.2 0-.2.18v1.38c0 .15 0 .2.2.2h1.54z" fill="#d4dbeb"/><path d="M96.57 142.9H79.3a.5.5 0 0 1-.57-.56v-11a.49.49 0 0 1 .56-.55h17.26a.49.49 0 0 1 .56.55v11a.54.54 0 0 1-.14.41.53.53 0 0 1-.4.15zm-17.27-.57h17.23V131.4H79.3q.01 5.46 0 10.92zM91 140a.44.44 0 0 1-.5-.48v-1.37a.43.43 0 0 1 .48-.48h3.1a.44.44 0 0 1 .48.48v1.33a.49.49 0 0 1-.12.36.5.5 0 0 1-.38.13h-3.07zm.08-1.76v1.18H94v-1.16zM89.44 140h-3a.44.44 0 0 1-.5-.48v-1.33a.49.49 0 0 1 .12-.36.5.5 0 0 1 .38-.13h3a.44.44 0 0 1 .5.48v1.33a.49.49 0 0 1-.12.36.5.5 0 0 1-.38.13zm-2.65-.58h2.57v-1.16h-2.88v1.16zm4.2-2.9a.48.48 0 0 1-.35-.12.51.51 0 0 1-.13-.38v-1.29a.44.44 0 0 1 .48-.5h3.12a.43.43 0 0 1 .48.47v1.37a.45.45 0 0 1-.12.33.47.47 0 0 1-.35.12H91zm.1-1.72v1.14H94v-1.14z"/><path d="M87.9 131.25H76.38c-.23 0-.31 0-.3-.29v-3.13c0-.45.12-.58.58-.59h21.18a11.51 11.51 0 0 1 1.54 0 .38.38 0 0 1 .38.38v3.41c0 .14-.05.18-.18.17H87.9z" fill="#7cea82"/><path d="M87.9 131.54H76.38a.51.51 0 0 1-.59-.58v-3.08c0-.61.25-.86.86-.88h21.19a11.88 11.88 0 0 1 1.56 0 .65.65 0 0 1 .45.2.66.66 0 0 1 .19.47v3.41a.42.42 0 0 1-.49.46H87.9zM76.36 131h23.11v-3.27c0-.08 0-.12-.09-.12a11.46 11.46 0 0 0-1.52 0H76.65c-.29 0-.29 0-.29.3V131z"/><path d="M92.55 136.26H91c-.18 0-.21-.05-.21-.22v-1.29c0-.15 0-.21.2-.21h3.12c.14 0 .2 0 .2.18v1.37c0 .15-.06.17-.18.17z" fill="#1f1f1f"/><path d="M87.89 139.74H86.4c-.15 0-.21 0-.21-.2v-1.34c0-.17.06-.2.21-.2h3c.15 0 .21 0 .21.2v1.34c0 .17-.06.2-.21.2z" fill="#212121"/><path d="M92.51 139.74H91c-.15 0-.2 0-.2-.2v-1.38c0-.15.06-.18.2-.18h3.1c.16 0 .21 0 .2.2v1.34c0 .17-.06.2-.21.2z" fill="#252121"/><path d="M87.92 142.39h8.63c.23 0 .29.05.29.28v2.58a.55.55 0 0 1-.53.57H79.32a.34.34 0 0 1-.31-.34 4.45 4.45 0 0 1 0-.59v-2.09c0-.42 0-.38.37-.38z" fill="#7cea82"/><path d="M79.59 146.11h-.31a.62.62 0 0 1-.56-.63 4.24 4.24 0 0 1 0-.59v-2.21a.54.54 0 0 1 .11-.43.53.53 0 0 1 .44-.11h17.3a.58.58 0 0 1 .44.14.57.57 0 0 1 .14.43v2.58a.84.84 0 0 1-.81.85H79.59zm-.33-3.42v2.19a4.26 4.26 0 0 0 0 .56v.09h17.01a.27.27 0 0 0 .2-.08.26.26 0 0 0 .07-.19v-2.59z"/><rect x="80.88" y="152.74" width="15.61" height="2.04" rx="1.02" ry="1.02" transform="rotate(-18.74 88.648 153.73)" fill="#454545"/><path d="M82.25 157.25a1.31 1.31 0 0 1-.42-2.54l12.85-4.36a1.31 1.31 0 1 1 .84 2.47l-12.85 4.36a1.31 1.31 0 0 1-.42.07zm12.85-6.4a.73.73 0 0 0-.24 0L82 155.25a.73.73 0 1 0 .47 1.39l12.85-4.36a.73.73 0 0 0-.24-1.43z"/><rect x="82.66" y="159.14" width="11.43" height="1.79" rx=".9" ry=".9" transform="rotate(-18.74 88.36 160.001)" fill="#454545"/><path d="M83.82 162.77a1.18 1.18 0 0 1-.38-2.31l9.13-3.1a1.18 1.18 0 0 1 1.5.74 1.18 1.18 0 0 1-.74 1.5l-9.13 3.1a1.18 1.18 0 0 1-.38.07zm9.13-4.89a.61.61 0 0 0-.2 0L83.62 161a.61.61 0 0 0-.07 1.13.61.61 0 0 0 .47 0l9.13-3.1a.61.61 0 0 0-.2-1.19z"/><rect x="84.68" y="165.54" width="6.9" height="1.78" rx=".89" ry=".89" transform="rotate(-18.74 88.113 166.404)" fill="#454545"/><path d="M85.7 168.43a1.18 1.18 0 0 1-.38-2.29l4.84-1.64a1.18 1.18 0 0 1 .76 2.23l-4.84 1.64a1.18 1.18 0 0 1-.38.06zm4.84-3.43a.6.6 0 0 0-.19 0l-4.84 1.64a.6.6 0 1 0 .39 1.14l4.84-1.64a.6.6 0 0 0-.19-1.18z"/><path d="M65.75 116.34l7.81-15.7 2.54-5.11c.93-1.88 1.77-2.37 3.83-2.22a3.52 3.52 0 0 1 2.22 2.15 3.91 3.91 0 0 1-.42 2.71q-5.06 10.12-10.1 20.26c-.1.2-.23.4-.34.61a.39.39 0 0 1-.33-.19 6.69 6.69 0 0 0-2.66-1.92 12.8 12.8 0 0 0-2.55-.59zm12.14-19.09a1.56 1.56 0 0 0 2.53-1.83 1.72 1.72 0 0 0-2.16-.36 1.65 1.65 0 0 0-.37 2.19z" fill="#7cea82"/><path d="M71.46 119.33h-.18a.68.68 0 0 1-.58-.34 6.43 6.43 0 0 0-2.52-1.8 7.71 7.71 0 0 0-1.79-.45l-.71-.13-.37-.07L75.84 95.4c1-2 1.95-2.54 4.11-2.38L80 93a3.77 3.77 0 0 1 2.39 2.33A4.17 4.17 0 0 1 82 98.3q-5.07 10.13-10.1 20.26c-.06.12-.13.24-.2.37l-.14.25zm-5.28-3.2l.32.05a8.27 8.27 0 0 1 1.91.48 7 7 0 0 1 2.77 2c.06-.11.13-.22.18-.33q5-10.14 10.11-20.27a3.58 3.58 0 0 0 .4-2.51 3.21 3.21 0 0 0-2-1.93c-1.9-.13-2.63.3-3.51 2.07zm13-18h-.32a1.87 1.87 0 0 1-1.23-.71 1.94 1.94 0 0 1 .43-2.57 2 2 0 0 1 2.57.42 1.79 1.79 0 0 1 .29 1.33 1.92 1.92 0 0 1-.73 1.26 1.69 1.69 0 0 1-.98.3zm-1.08-1.06a1.32 1.32 0 0 0 .85.47 1.2 1.2 0 0 0 .89-.18 1.36 1.36 0 0 0 .5-.89 1.22 1.22 0 0 0-.19-.9 1.44 1.44 0 0 0-1.77-.3 1.36 1.36 0 0 0-.25 1.82z"/><path d="M70.19 117a13.24 13.24 0 0 1 1.74 1.93A6.69 6.69 0 0 1 73 122a.39.39 0 0 0 .16.35c-.15.68-.1 1.38-.27 2.07a7.18 7.18 0 0 1-6.83 5.58c-2.75.06-5.52 0-8.28 0-.72 0-1-.24-1.25-1v-12.36c.29-.85.54-1 1.45-1h7.65a8.25 8.25 0 0 1 4.56 1.36zm-4.33 11a5.08 5.08 0 0 0 5.13-5v-.1a5.13 5.13 0 0 0-10.27-.11v.05a5.08 5.08 0 0 0 5.14 5.16z" fill="#828694"/><path d="M62.52 130.37h-4.74c-.94 0-1.25-.42-1.52-1.24v-12.6a1.48 1.48 0 0 1 1.74-1.21h7.65a8.61 8.61 0 0 1 4.71 1.44h.06c.17.18.35.36.52.53a8 8 0 0 1 1.25 1.45 7 7 0 0 1 1.09 3.26v.14l.15.11v.18a7 7 0 0 0-.12 1 7.2 7.2 0 0 1-.15 1.12 7.46 7.46 0 0 1-7.1 5.81c-1.17 0-2.36.01-3.54.01zm-5.7-1.4c.24.71.43.81 1 .81h8.25a6.89 6.89 0 0 0 6.56-5.37 6.77 6.77 0 0 0 .13-1 8.75 8.75 0 0 1 .1-.88.68.68 0 0 1-.14-.47 6.43 6.43 0 0 0-1-2.92 7.52 7.52 0 0 0-1.17-1.35l-.52-.52a7.75 7.75 0 0 0-4.37-1.33H58c-.76 0-.92.11-1.16.79zm9.1-.71h-.06a5.37 5.37 0 0 1-3.86-1.58 5.46 5.46 0 0 1-1.57-3.91v-.06a5.33 5.33 0 0 1 1.61-3.77 5.44 5.44 0 0 1 3.81-1.53 5.32 5.32 0 0 1 5.42 5.42v.11a5.38 5.38 0 0 1-5.36 5.32zM65.81 118a4.79 4.79 0 0 0-4.81 4.73 4.92 4.92 0 0 0 1.4 3.55 4.81 4.81 0 0 0 3.44 1.4h.06a4.8 4.8 0 0 0 4.8-4.75v-.09a4.76 4.76 0 0 0-4.84-4.84z"/><path d="M65.86 128a5.13 5.13 0 0 1-.05-10.27h.05A5.13 5.13 0 0 1 66 128zm0-8.2a3.06 3.06 0 0 0-3.11 3 3.16 3.16 0 0 0 3.12 3.12 3.06 3.06 0 0 0 3-3.08 3 3 0 0 0-2.87-3.07h-.15z" fill="#7cea82"/><path d="M65.86 128.26a5.38 5.38 0 0 1-3.86-1.57 5.47 5.47 0 0 1-1.58-3.91 5.37 5.37 0 0 1 5.37-5.36 5.42 5.42 0 1 1 .21 10.84zm0-10.27a4.81 4.81 0 0 0-4.86 4.79 4.9 4.9 0 0 0 1.41 3.51 4.81 4.81 0 0 0 3.44 1.4H66a4.85 4.85 0 0 0-.1-9.69zm0 8.23a3.43 3.43 0 0 1-3.41-3.4 3.35 3.35 0 0 1 1-2.39 3.45 3.45 0 0 1 2.38-.94H66a3.27 3.27 0 0 1 3.19 3.35 3.35 3.35 0 0 1-3.32 3.38zm-.06-6.16a2.77 2.77 0 0 0-2.8 2.73 2.87 2.87 0 0 0 2.84 2.86 2.77 2.77 0 0 0 2.75-2.79 2.71 2.71 0 0 0-2.63-2.8h-.19z"/><path fill="#282828" d="M4.55 164.07L23 144.01l5.07-.59 16.06 15.49-3.73 10.03-32.98-.28-2.87-4.59z"/><path d="M41 169.81l-34.06-.3L3.48 164l19.1-20.77 5.79-.67 16.76 16.16zm-33.1-2l31.9.28 3.32-8.94-15.35-14.83-4.35.51-17.79 19.34z"/><path d="M11.63 157.66a6 6 0 1 0 6 6 6 6 0 0 0-6-6zm0 8.89a2.87 2.87 0 1 1 2.87-2.87 2.87 2.87 0 0 1-2.87 2.87z" fill="#828694"/><path d="M11.63 170a6.31 6.31 0 1 1 6.31-6.31 6.32 6.32 0 0 1-6.31 6.31zm0-12a5.74 5.74 0 1 0 5.74 5.74 5.74 5.74 0 0 0-5.74-5.79zm0 8.89a3.15 3.15 0 1 1 3.15-3.15 3.16 3.16 0 0 1-3.15 3.1zm0-5.74a2.58 2.58 0 1 0 2.58 2.58 2.58 2.58 0 0 0-2.58-2.63z"/><path d="M19.07 152.09a4.55 4.55 0 1 0 4.55 4.55 4.55 4.55 0 0 0-4.55-4.55zm0 6.72a2.17 2.17 0 1 1 2.17-2.17 2.17 2.17 0 0 1-2.17 2.17z" fill="#828694"/><path d="M19.07 161.49a4.84 4.84 0 1 1 4.84-4.84 4.84 4.84 0 0 1-4.84 4.84zm0-9.11a4.27 4.27 0 1 0 4.27 4.27 4.27 4.27 0 0 0-4.27-4.27zm0 6.72a2.45 2.45 0 1 1 2.45-2.45 2.46 2.46 0 0 1-2.45 2.45zm0-4.34a1.88 1.88 0 1 0 1.93 1.89 1.88 1.88 0 0 0-1.93-1.88z"/><path d="M22.15 161.2a4.19 4.19 0 1 0 4.19 4.19 4.19 4.19 0 0 0-4.19-4.19zm0 6.19a2 2 0 1 1 2-2 2 2 0 0 1-2 2z" fill="#828694"/><path d="M22.15 169.87a4.48 4.48 0 1 1 4.48-4.48 4.49 4.49 0 0 1-4.48 4.48zm0-8.39a3.91 3.91 0 1 0 3.91 3.91 3.91 3.91 0 0 0-3.91-3.9zm0 6.19a2.28 2.28 0 1 1 2.28-2.28 2.29 2.29 0 0 1-2.28 2.29zm0-4a1.71 1.71 0 1 0 1.71 1.71 1.71 1.71 0 0 0-1.71-1.7z"/><circle cx="26.44" cy="149.82" r="1.72" fill="#f9f9f9"/><path d="M26.44 151.76a1.94 1.94 0 1 1 1.94-1.94 1.94 1.94 0 0 1-1.94 1.94zm0-3.44a1.51 1.51 0 1 0 1.56 1.5 1.51 1.51 0 0 0-1.56-1.5z"/><circle cx="11.63" cy="163.68" r="1.72" fill="#f9f9f9"/><path d="M11.63 165.62a1.94 1.94 0 1 1 1.94-1.94 1.94 1.94 0 0 1-1.94 1.94zm0-3.44a1.51 1.51 0 1 0 1.51 1.51 1.51 1.51 0 0 0-1.51-1.51z"/><circle cx="37.01" cy="161.25" r="2.01" fill="#f9f9f9"/><path d="M37 163.47a2.22 2.22 0 1 1 2.22-2.22 2.22 2.22 0 0 1-2.22 2.22zm0-4a1.79 1.79 0 1 0 1.79 1.79 1.79 1.79 0 0 0-1.79-1.81z"/><circle cx="19.07" cy="156.65" r="1.19" transform="rotate(-45 19.076 156.648)" fill="#f9f9f9"/><path d="M19.07 158a1.4 1.4 0 1 1 1-.41 1.4 1.4 0 0 1-1 .41zm0-2.37a1 1 0 1 0 .69.28 1 1 0 0 0-.69-.24z"/><circle cx="22.15" cy="165.39" r="1.09" transform="rotate(-45 22.158 165.392)" fill="#f9f9f9"/><path d="M22.15 166.7a1.31 1.31 0 1 1 .93-.38 1.31 1.31 0 0 1-.93.38zm0-2.19a.88.88 0 1 0 .62.26.87.87 0 0 0-.62-.25z"/><path d="M28.71 164.64a1.65 1.65 0 1 0 1.65 1.65 1.65 1.65 0 0 0-1.65-1.65zm0 2.43a.79.79 0 1 1 .79-.79.79.79 0 0 1-.79.79z" fill="#828694"/><path d="M28.71 168.23a1.94 1.94 0 1 1 1.94-1.94 1.94 1.94 0 0 1-1.94 1.94zm0-3.3a1.36 1.36 0 1 0 1.36 1.36 1.36 1.36 0 0 0-1.36-1.36zm0 2.43a1.07 1.07 0 1 1 1.07-1.07 1.07 1.07 0 0 1-1.07 1.07zm0-1.57a.5.5 0 1 0 .5.5.5.5 0 0 0-.5-.5z"/><path d="M33.23 150.73a2.29 2.29 0 1 0 2.3 2.27 2.29 2.29 0 0 0-2.3-2.27zm0 3.39a1.09 1.09 0 1 1 1.09-1.12 1.09 1.09 0 0 1-1.09 1.12z" fill="#828694"/><path d="M33.23 155.61a2.58 2.58 0 1 1 2.58-2.61 2.58 2.58 0 0 1-2.58 2.61zm0-4.59a2 2 0 1 0 2 2 2 2 0 0 0-2-2.02zm0 3.39a1.38 1.38 0 1 1 1.38-1.41 1.38 1.38 0 0 1-1.38 1.41zm0-2.18a.81.81 0 1 0 .77.77.81.81 0 0 0-.77-.78z"/><circle cx="33.23" cy="153.03" r=".6" transform="rotate(-45 33.235 153.024)" fill="#f9f9f9"/><path d="M33.23 153.84a.81.81 0 1 1 .58-.24.81.81 0 0 1-.58.24zm0-1.2a.38.38 0 1 0 .27.11.38.38 0 0 0-.27-.11z"/><path d="M44.07 134.8v-31.31a19.75 19.75 0 0 0-.9-5.84 18 18 0 0 0-3.59-6.21 17.56 17.56 0 0 0-10.11-5.69c-.62-.12-1.26-.08-1.88-.26h-2.23c-.61.18-1.26.14-1.88.26a17.56 17.56 0 0 0-10.11 5.69 18 18 0 0 0-3.59 6.21 19.69 19.69 0 0 0-.9 5.84c-.06 2.22 0 4.44 0 6.66v27.57c0 .5.15.62.63.61h33.95c.48 0 .65-.12.63-.61-.09-.97-.02-1.95-.02-2.92zM18.25 99.56h16.44c.34 0 .53 0 .52.47v4.38c0 .42-.17.47-.52.47H18.24c-.35 0-.52-.06-.52-.47v-4.38c0-.43.19-.48.53-.47zM16 129.49a2.64 2.64 0 1 1 2.63-2.66 2.62 2.62 0 0 1-2.63 2.66zm10.51 0a2.63 2.63 0 0 1-2.4-3.56 2.42 2.42 0 0 1 2-1.64l.39-.1.39.1a2.43 2.43 0 0 1 2 1.64 2.64 2.64 0 0 1-2.41 3.57zm5.18-18.76a5.21 5.21 0 0 1-10.37 0c0-.43 0-.61.52-.6h9.34c.47-.01.53.17.48.6zM37 129.49a2.62 2.62 0 0 1-2.63-2.61 2.63 2.63 0 1 1 2.63 2.61z" fill="#bcbcbc"/><path d="M9.48 138.91a1.2 1.2 0 0 1-.9-.3 1.19 1.19 0 0 1-.28-.9V103.5a19.89 19.89 0 0 1 .93-6A18.5 18.5 0 0 1 13 91.06a18.22 18.22 0 0 1 10.42-5.87 7.71 7.71 0 0 1 .86-.1 4.82 4.82 0 0 0 1-.14h2.55a4.84 4.84 0 0 0 1 .14 7.73 7.73 0 0 1 .86.1A18.23 18.23 0 0 1 40 91.06a18.51 18.51 0 0 1 3.7 6.41 19.94 19.94 0 0 1 .92 6v34.23a1.19 1.19 0 0 1-.27.9 1.23 1.23 0 0 1-.93.31H9.51zm0-1.15h34.03v-34.25a18.85 18.85 0 0 0-.86-5.67 17.38 17.38 0 0 0-3.47-6 16.88 16.88 0 0 0-9.79-5.51 6.58 6.58 0 0 0-.73-.09 6.14 6.14 0 0 1-1.11-.16h-2.11a6.13 6.13 0 0 1-1.11.16 6.59 6.59 0 0 0-.73.09 16.88 16.88 0 0 0-9.79 5.5 17.37 17.37 0 0 0-3.47 6 18.81 18.81 0 0 0-.87 5.67v34.3zm16.61-7.66v-.09a3.2 3.2 0 0 1-2.21-1.45 3.17 3.17 0 0 1-.28-2.84 3 3 0 0 1 2.47-2l.3-.08.18-.06.18.06.32.08a3 3 0 0 1 2.45 2 3.19 3.19 0 0 1-.29 2.86 3.26 3.26 0 0 1-2.61 1.49zm.42-5.31l-.29.06a1.85 1.85 0 0 0-1.58 1.29 2 2 0 0 0 .18 1.81 2 2 0 0 0 3.37 0 2.07 2.07 0 0 0 .19-1.82 1.85 1.85 0 0 0-1.56-1.28zM37 130.07a3.2 3.2 0 0 1-3.19-3.18 3.2 3.2 0 1 1 3.2 3.18zm0-5.29a2.08 2.08 0 0 0-2 2.08 2.05 2.05 0 0 0 2 2.06 2.07 2.07 0 0 0 0-4.14zm-21 5.28a3.22 3.22 0 0 1 0-6.43 3.22 3.22 0 0 1 0 6.43v-.57.57zm0-5.29a2.07 2.07 0 0 0 0 4.14 2 2 0 0 0 2-2.06 2.07 2.07 0 0 0-2-2.07zM26.5 116a5.84 5.84 0 0 1-5.78-5.17 1.15 1.15 0 0 1 .22-.94 1.13 1.13 0 0 1 .89-.3h9.3a1.11 1.11 0 0 1 .89.3 1.15 1.15 0 0 1 .21.94A5.83 5.83 0 0 1 26.5 116zm-4.63-5.26a4.64 4.64 0 0 0 9.22 0h-5.91c-1.09-.01-2.18-.01-3.32-.03zm12.86-5.26H18.24a1.11 1.11 0 0 1-.83-.27 1.07 1.07 0 0 1-.26-.78v-4.36a1.08 1.08 0 0 1 .27-.78 1.1 1.1 0 0 1 .83-.27h16.44a1.11 1.11 0 0 1 .83.27 1.07 1.07 0 0 1 .26.78v4.36a1.09 1.09 0 0 1-.27.79 1.08 1.08 0 0 1-.78.23zm-16.43-5.35v4.18h16.34v-4.18H18.3z" fill="#444"/><g clip-path="url(#a)"><path d="M32.9 0c14.19 113-.81 190.42-.81 190.42S32.53-2.85 32.9 0z" fill="#e2e2e2"/></g><path d="M36.1 99.28c0-.54-.19-.6-.56-.6h-17.8c-.37 0-.57.05-.56.6v5.59c0 .53.18.61.56.6h17.82c.38 0 .56-.07.56-.6q-.06-2.79-.02-5.59z" fill="#fff"/><path d="M17.71 105.76a.82.82 0 0 1-.61-.19 1 1 0 0 1-.21-.7v-5.58a.94.94 0 0 1 .2-.69.85.85 0 0 1 .64-.2h17.8a.86.86 0 0 1 .64.19 1 1 0 0 1 .21.69v5.58a1 1 0 0 1-.21.7.84.84 0 0 1-.64.2H17.71zm0-6.79h-.23v6.17h18.28v-6.17a.62.62 0 0 0-.23 0H17.92z"/><path fill="#7cea82" d="M29.5 104.44v-2.77l-.72.72-4.29.62-1.11-1.66-2.21 1.1-1.76-1.17-1.32.27-.11-.57 1.55-.31 1.68 1.12 2.37-1.18 1.19 1.78 3.74-.54 1.57-1.57v2.97l2.5-2 2.13.3-.08.57-1.89-.27-3.24 2.59z"/><path d="M34.09 127a2.89 2.89 0 0 0 2.91 2.94 2.92 2.92 0 1 0-2.9-2.91z" fill="#777"/><path d="M37 130.51a3.47 3.47 0 0 1-3.49-3.51 3.48 3.48 0 1 1 3.49 3.51zm0-5.84a2.36 2.36 0 0 0-2.34 2.33 2.32 2.32 0 0 0 2.34 2.37 2.35 2.35 0 1 0 0-4.69z" fill="#444"/><circle cx="26.44" cy="149.82" r=".57" transform="rotate(-18.74 26.425 149.781)"/><path d="M26.45 150.68a.86.86 0 1 1 .81-1.14.86.86 0 0 1-.54 1.09.86.86 0 0 1-.27.05zm0-1.15h-.09a.29.29 0 1 0 .36.18.29.29 0 0 0-.27-.19z"/><circle cx="11.63" cy="163.68" r=".57" transform="rotate(-18.2 13.09 164.42)"/><path d="M11.63 164.55a.86.86 0 1 1 .28 0 .85.85 0 0 1-.28 0zm0-1.15h-.09a.29.29 0 0 0 0 .53.28.28 0 0 0 .22 0 .29.29 0 0 0 .18-.36.29.29 0 0 0-.27-.19z"/><circle cx="37.01" cy="161.25" r=".57" transform="rotate(-18.74 36.99 161.205)"/><path d="M37 162.11a.86.86 0 1 1 .28 0 .85.85 0 0 1-.28 0zm0-1.11h-.09a.29.29 0 0 0 0 .53.28.28 0 0 0 .22 0 .29.29 0 0 0 .18-.36.29.29 0 0 0-.31-.17z"/><path d="M37 153.93a7.31 7.31 0 1 0 7.31 7.31 7.31 7.31 0 0 0-7.31-7.31zm0 10.8a3.48 3.48 0 1 1 3.48-3.48 3.48 3.48 0 0 1-3.48 3.48z" fill="#828694"/><path d="M37 168.85a7.6 7.6 0 1 1 7.6-7.6 7.61 7.61 0 0 1-7.6 7.6zm0-14.63a7 7 0 1 0 7 7 7 7 0 0 0-7-7zM37 165a3.77 3.77 0 1 1 3.77-3.77A3.77 3.77 0 0 1 37 165zm0-7a3.2 3.2 0 1 0 3.2 3.2 3.2 3.2 0 0 0-3.2-3.15z"/><path d="M26.44 143.8a6 6 0 1 0 6 6 6 6 0 0 0-6-6zm0 8.89a2.87 2.87 0 1 1 2.87-2.87 2.87 2.87 0 0 1-2.87 2.87z" fill="#828694"/><path d="M26.44 156.13a6.31 6.31 0 1 1 6.31-6.31 6.32 6.32 0 0 1-6.31 6.31zm0-12a5.74 5.74 0 1 0 5.74 5.74 5.74 5.74 0 0 0-5.74-5.78zm0 8.89a3.15 3.15 0 1 1 3.15-3.15 3.16 3.16 0 0 1-3.15 3.13zm0-5.74a2.58 2.58 0 1 0 2.56 2.54 2.58 2.58 0 0 0-2.56-2.58z"/><path d="M44.7 156.61l-13.76-13.76a5.54 5.54 0 0 0-8 0c-2.33 2.29-17.81 18.35-17.81 18.35-4 4-2.29 8 1.72 8.6 4 0 22.94.57 31 0 10.29 0 10.29-9.75 6.85-13.19zm-9 10.7c-6.37.45-21.38 0-24.56 0-5.77-.08-6.91-1.81-1.36-6.82l14.1-14.55c2.15-2.22 3.87-2.22 6.37 0 1.92 1.71 8.08 8.3 10.92 10.92 3.83 3.48 2.76 10.45-5.43 10.45z" fill="#686a69"/><path d="M27.12 170.34c-5.28 0-11-.1-15.12-.18-2.34 0-4.19-.08-5.15-.08a4.75 4.75 0 0 1-4.08-3c-.62-1.87.16-4.09 2.16-6.08.15-.16 15.51-16.08 17.78-18.35a5.83 5.83 0 0 1 8.44 0l13.77 13.77a8.68 8.68 0 0 1 1.53 8.9c-.74 1.78-2.84 4.78-8.62 4.78-2.68.18-6.57.24-10.71.24zM7 169.52c1 0 2.76 0 5 .07 7.37.13 19.71.36 25.79-.08 4.05 0 6.93-1.57 8.11-4.42a8.07 8.07 0 0 0-1.41-8.28L30.73 143a5.27 5.27 0 0 0-7.62 0c-2.27 2.27-17.62 18.19-17.78 18.35-1.84 1.84-2.58 3.84-2 5.5a4.18 4.18 0 0 0 3.58 2.62zm20.24-1.72c-4.19 0-8.7-.08-12-.14-1.86 0-3.32-.06-4.08-.06-3.12 0-4.76-.57-5.17-1.66s.69-3 3.61-5.66l14.09-14.54c2.25-2.34 4.15-2.34 6.76 0 .94.84 2.88 2.82 4.93 4.93 2.23 2.28 4.53 4.65 6 6a6.4 6.4 0 0 1 1.81 6.92c-1 2.56-3.72 4-7.45 4-2.12.15-5.21.21-8.49.21zm-16.05-.8c.77 0 2.23 0 4.09.06 5.85.11 15.63.28 20.44-.06 3.49 0 6-1.34 6.93-3.67a5.82 5.82 0 0 0-1.65-6.27c-1.47-1.35-3.78-3.72-6-6-2-2.1-4-4.08-4.9-4.9-2.38-2.11-3.94-2.12-6 0L10 160.68c-2.66 2.41-3.83 4.1-3.47 5S8.42 167 11.19 167z"/><path fill="#2b1c1c" stroke="#000" stroke-miterlimit="10" stroke-width=".5" d="M79.56 171.4l-2-5 2-4 6.18 1.69 1.79-2.89 3.03 4.2 5-3 3 2 1 7h-20z"/></g></svg>