<svg data-name="Calque 1" xmlns="http://www.w3.org/2000/svg" viewBox="0 0 560 560"><defs><clipPath id="a"><path d="M248.94 308.69V182.5c0-11.37.21-22.74-.09-34.1-.27-10.07-1.3-20.14-4.58-29.87a92.32 92.32 0 0 0-18.36-31.79C212 71 194.61 61.66 174.18 57.63c-3.17-.62-6.47-.4-9.61-1.33h-11.4c-3.13.93-6.44.71-9.61 1.33-20.43 4-37.85 13.34-51.73 29.12a92.32 92.32 0 0 0-18.36 31.79c-3.28 9.71-4.31 19.76-4.58 29.87-.3 11.36-.08 22.73-.09 34.1v126.18c0 5 .15 10 0 14.95-.09 2.55.78 3.16 3.21 3.14 13.25-.1 26.51 0 39.76 0H206c13.25 0 26.51-.07 39.76 0 2.44 0 3.31-.6 3.21-3.14-.19-4.98-.04-9.97-.03-14.95zm-143.87-27.17a13.53 13.53 0 1 1 13.46-13.6v.13a13.42 13.42 0 0 1-13.36 13.47zm53.79 0c-10.79-.77-15.24-10.81-12.31-18.22 1.84-4.67 5.17-7.68 10.31-8.4a15 15 0 0 0 2-.5 15 15 0 0 0 2 .5c5.15.72 8.46 3.73 10.31 8.4 2.9 7.45-1.56 17.49-12.34 18.25zm26.54-96c-1.57 13.5-12.52 23.36-26.54 23.88-14-.52-25-10.39-26.54-23.88-.25-2.2.07-3.14 2.66-3.07 8 .19 15.92.11 23.88.13s15.92.06 23.89-.13c2.58-.09 2.91.85 2.65 3.06zm27.25 96a13.42 13.42 0 0 1-13.46-13.37v-.09a13.46 13.46 0 1 1 13.4 13.46z" fill="none"/></clipPath></defs><title>robot_vert</title><ellipse cx="152.73" cy="473" rx="129.39" ry="33.27" opacity=".4"/><path d="M422.24 112a8.47 8.47 0 0 1 8.06-8.06c3.86 0 7.91 4 8 7.91.07 4-3.92 8.06-8.06 8.06-3.97.01-7.94-3.91-8-7.91z" fill="#6f7487"/><path d="M431.64 372.82L464 481.46a8.71 8.71 0 0 0 16.65.19l35-108.64a8.71 8.71 0 0 0-8.29-11.39H440a8.71 8.71 0 0 0-8.36 11.2z" fill="#454545"/><path d="M472.34 489.16h-.13a10 10 0 0 1-9.64-7.28l-32.34-108.64a10.18 10.18 0 0 1 9.77-13.09h67.36a10.18 10.18 0 0 1 9.64 13.3L482 482.1a10 10 0 0 1-9.66 7.06zM433.05 372.4L465.38 481a7 7 0 0 0 6.86 5.18h.08a7 7 0 0 0 6.9-5l35-108.64a7.24 7.24 0 0 0-6.9-9.47H440a7.24 7.24 0 0 0-6.94 9.31z"/><rect x="428.35" y="370.19" width="86.07" height="10.43" rx="1.02" ry="1.02" transform="rotate(-18.74 471.256 375.328)" fill="#454545"/><path d="M435.56 394.24a6.69 6.69 0 0 1-2.14-13l71.63-24.29a6.68 6.68 0 0 1 4.29 12.66l-71.63 24.29a6.7 6.7 0 0 1-2.15.34zm71.64-34.73a3.71 3.71 0 0 0-1.2.2L434.36 384a3.75 3.75 0 1 0 2.41 7.1l71.63-24.29a3.75 3.75 0 0 0-1.2-7.3z"/><path d="M68.8 182.88v126.18c-5 0-10-.1-15 .1-2.43.1-3-.74-3-3q.11-42 0-84c0-12.09.06-24.17-.05-36.19 0-2.34.59-3.12 3-3 5.08.03 10.07-.08 15.05-.09z" fill="#777"/><path d="M53.46 312.11a5.6 5.6 0 0 1-4-1.38 6 6 0 0 1-1.56-4.58c.07-27.88.07-56.16 0-84v-9.42c0-8.94 0-17.86-.06-26.75a6.1 6.1 0 0 1 1.55-4.62 6 6 0 0 1 4.52-1.36c3.39.09 6.78.05 10.17 0h7.65v132H65c-3.65 0-7.41 0-11.09.11zm.25-126.29v.09c.08 8.88.07 17.83.06 26.79v9.4c.07 27.88.07 56.17 0 84.06v.08c3.8-.15 7.61-.14 11.32-.11h.79v-120.3h-1.72c-3.47 0-6.94.07-10.43 0z" fill="#444"/><path d="M119.66 268.18a14.54 14.54 0 0 1-14.48 14.6h-.1a14.73 14.73 0 0 1-14.63-14.64 14.89 14.89 0 0 1 14.66-14.68 14.71 14.71 0 0 1 14.55 14.72z" fill="#777"/><path d="M105.2 287.19a19.07 19.07 0 1 1 18.87-19 18.95 18.95 0 0 1-18.87 19zm-.13-29.33a10.26 10.26 0 0 0 0 20.52 10.14 10.14 0 0 0 10.15-10.18 10.34 10.34 0 0 0-10.16-10.34z" fill="#444"/><path d="M173.6 268.18a14.54 14.54 0 0 1-14.48 14.6H159a14.73 14.73 0 0 1-14.63-14.64A14.89 14.89 0 0 1 159 253.46a14.71 14.71 0 0 1 14.6 14.72z" fill="#6f7487"/><path d="M265.35 203.71c1-1.39 1.89-3 3.78-3.51 3.47-1 6.5 1.35 6.83 5.35.18 2.16.15 4.32.21 6.49 0 13.09-.08 26.28-.08 39.42 0 10.45.08 20.9.12 31.35-.07 1.47-.22 3-.2 4.42 0 3-.22 5.9-3.37 7.27s-5.36-.59-7.29-2.83z" fill="#828694"/><path d="M270.59 296.43c-3.08 0-5.21-2.47-6.36-3.8l-.36-.41v-89l.68-.95c.91-1.31 2-2.95 4.19-3.51a6.57 6.57 0 0 1 5.6.88 7.59 7.59 0 0 1 3.06 5.77c.13 1.55.15 3.1.18 4.65v41.38q0 10.45.07 20.89v10.46l-.09 1.51c-.06 1-.13 1.94-.11 2.9 0 2.55 0 6.79-4.25 8.64a6.58 6.58 0 0 1-2.61.59zm-3.78-5.31c2.06 2.28 3.47 2.81 5.24 2 2.12-.92 2.49-2.64 2.49-5.92 0-1 .05-2.07.12-3.12l.08-1.38-.05-10.38q-.06-10.45-.07-20.91v-41.32c0-1.49 0-3-.17-4.45a4.73 4.73 0 0 0-1.82-3.6 3.64 3.64 0 0 0-3.16-.45c-1.12.29-1.78 1.24-2.55 2.35l-.15.22z"/><path d="M453.48 98.4c.08-1.78.12-3.58.26-5.36.5-6.39 4.31-10.27 10.72-10.53 5.17-.21 10.35-.23 15.52 0 6.62.3 10.53 4.54 10.59 11.23.07 10 0 19.9 0 29.86 0 4.15-.95 5.26-5.11 6.51h-26.59c-4.13-1.26-5-2.48-5.21-6.77-.09-3-.14-6.13-.21-9.21a74.7 74.7 0 0 0 .03-15.73z" fill="#828694"/><path d="M485.67 131.57l-27.23-.06c-4.71-1.43-6.05-3.18-6.25-8.11-.06-2.09-.1-4.2-.15-6.32l-.06-2.92a74.82 74.82 0 0 0 0-15.61v-.11l.07-1.63c.05-1.3.1-2.59.2-3.88.56-7.16 5.09-11.6 12.12-11.89 5.42-.22 10.69-.22 15.65 0 7.34.33 11.93 5.19 12 12.68v29.92c0 4.76-1.32 6.46-6.15 7.91zm-26.58-2.94h26.15c3.42-1 3.86-1.66 3.86-5V93.74c0-5.95-3.39-9.51-9.18-9.78-4.88-.22-10.06-.22-15.4 0-5.56.23-8.86 3.49-9.31 9.18-.1 1.25-.15 2.51-.19 3.76l-.02 1.45a76.33 76.33 0 0 1 0 15.94V117c0 2.1.09 4.21.15 6.27.12 3.63.61 4.33 3.94 5.37z"/><path d="M464.21 240.82v-96.53c0-1.29-.13-2.58-.21-3.87h16.43c-.08 1.29-.23 2.58-.23 3.86v96.55z" fill="#828694"/><path d="M481.66 242.3h-18.92v-98c0-.9-.07-1.8-.13-2.7l-.17-2.64H482l-.19 2.81c-.07.84-.13 1.68-.13 2.51zm-16-2.94h13.05v-95.08c0-.79.05-1.59.11-2.39h-13.25c.06.8.1 1.6.1 2.4z"/><path d="M276.22 282.8c0-10.45-.12-20.9-.12-31.35 0-13.09 0-26.28.08-39.42 3.18.75 6.42 1.32 9.54 2.28a8.06 8.06 0 0 1 6 6.78v52.72a7.61 7.61 0 0 1-6 6.81c-3.19.81-6.36 1.45-9.5 2.18z" fill="#828694"/><path d="M274.75 284.64v-1.84q0-7.84-.06-15.67t-.06-15.68c0-13.1 0-26.28.08-39.43v-1.84l1.79.42c1 .23 2 .44 2.94.66 2.2.48 4.48 1 6.69 1.65a9.44 9.44 0 0 1 7 8v52.9a9.16 9.16 0 0 1-7.21 8.25c-2.09.56-4.29 1-6.48 1.53zm2.88-70.79c-.07 12.53-.07 25.1-.07 37.59q0 7.84.06 15.67c0 4.62.05 9.23.06 13.85l1.14-.26c2.16-.48 4.31-1 6.44-1.53a6.21 6.21 0 0 0 5-5.52v-52.57a6.52 6.52 0 0 0-4.87-5.36c-2.16-.66-4.37-1.14-6.52-1.61z"/><path d="M480.54 262.26c3.17 0 6.35-.17 9.51-.08 4 .11 5.82 2 5.88 6.19v7.74c0 4.78-.75 5.78-5.31 7.27h-15.77c-3.67 0-7.33 0-11-.18a10.37 10.37 0 0 1-10.07-10.67v-.06c.08-5.74 4.21-9.88 10.16-10.18z" fill="#7cea82"/><path d="M490.86 284.85h-16c-3.62 0-7.37 0-11.06-.19a11.85 11.85 0 0 1-11.47-12.17c.09-6.54 4.85-11.32 11.56-11.67h16.66c1.24 0 2.49 0 3.73-.05 1.95 0 3.89-.08 5.83 0 4.77.13 7.23 2.7 7.31 7.64v7.76c0 5.43-1.12 7-6.32 8.67zm-10.32-21.12h-16.59c-5.1.26-8.63 3.77-8.7 8.74a8.91 8.91 0 0 0 8.65 9.24c3.65.18 7.36.18 10.95.18h15.54c3.76-1.24 4.07-1.74 4.07-5.81v-7.74c0-3.39-1.21-4.64-4.45-4.72-1.88-.06-3.78 0-5.68 0-1.26 0-2.53.05-3.79.05z"/><path d="M312.71 215.72v63.36c-1.59 0-3.18.07-4.77 0-3.2-.12-5.19-2.13-5.48-5.42v-52.5c.61-3.65 2.3-5.26 5.83-5.46 1.45-.08 2.94.01 4.42.02z" fill="#d4dbeb"/><path d="M309.52 280.58h-1.65c-3.94-.15-6.52-2.68-6.88-6.76v-52.66c.75-4.56 3-6.68 7.22-6.92 1-.06 2 0 3.09 0h2.88v66.29h-3zm.08-63.45h-1.24c-2.83.16-4 1.23-4.46 4.24v52.26a4 4 0 0 0 4.07 4h3.24v-60.47z"/><path d="M302.41 221.17v52.5l-10.76.13v-52.71z" fill="#484857"/><path d="M290.19 275.29v-55.68l13.69.1v55.41zm2.94-52.72v49.75l7.82-.1v-49.6z"/><path d="M480.41 140.42H464c-3-.15-4.52-1.86-4.87-4.65-.23-1.86-.17-3.76-.24-5.64h26.61c-.08 1.87-.06 3.77-.26 5.63-.34 2.79-1.89 4.49-4.83 4.66z" fill="#7cea82"/><path d="M480.46 141.88H464c-3.65-.18-5.87-2.29-6.33-5.94a37.1 37.1 0 0 1-.21-4.07v-1.7l-.05-1.52H487l-.12 3.27c0 1.33-.07 2.67-.21 4-.41 3.65-2.6 5.76-6.18 6zm-20.08-10.29v.24a34.48 34.48 0 0 0 .19 3.75c.28 2.22 1.36 3.26 3.49 3.37h16.31c2.1-.13 3.15-1.17 3.39-3.36.13-1.24.16-2.49.2-3.74v-.26z"/><path d="M464.21 240.82h15.93c4.2 1.39 5.73 3.5 5 6.74-.62 2.63-2.66 3.49-4.95 4.1h-16c-4.37-1.43-6-4-4.8-7.31.84-2.23 2.77-2.96 4.82-3.53z" fill="#5d668a"/><path d="M480.34 253.13l-16.6-.07c-2.86-.94-4.76-2.36-5.66-4.23a6.25 6.25 0 0 1-.06-5c1.19-3.15 4.19-4 5.8-4.42l.39-.05 16.4.07c4.89 1.62 6.88 4.47 5.92 8.47-.91 3.83-4.34 4.74-6 5.17zm-15.91-2.94H480c2.09-.57 3.3-1.24 3.71-3s.45-3.48-3.77-4.93h-15.53c-1.94.55-3.1 1.14-3.64 2.57a3.33 3.33 0 0 0 0 2.69c.47 1.1 1.75 2.01 3.67 2.67z"/><path d="M453.48 98.4a74.7 74.7 0 0 1 0 15.75l-11.08-.09c1.59-5.67.26-10.8-3-15.56z" fill="#484857"/><path d="M454.8 115.63l-14.33-.12.52-1.85c1.37-4.88.47-9.57-2.76-14.35l-1.53-2.27 18.1-.13.14 1.32a76 76 0 0 1 0 16.06zm-10.55-3l7.9.07a73.38 73.38 0 0 0 0-12.8l-10.1.07a18.71 18.71 0 0 1 2.2 12.64z"/><path d="M464.2 251.66h16c.21 3.54-.38 7.05.34 10.61h-16.6c.54-3.52.06-7.08.26-10.61z" fill="#7cea82"/><path d="M482.29 263.73h-20.05l.26-1.69a37.41 37.41 0 0 0 .23-6.35c0-1.37-.05-2.73 0-4.1l.06-1.4h18.74l.08 1.38c.08 1.38 0 2.76 0 4.13a27.19 27.19 0 0 0 .3 6.27zm-16.7-2.94h13.2a38.65 38.65 0 0 1-.09-5.17v-2.5h-13.1v2.51c.09 1.69.13 3.42-.01 5.17z"/><path d="M360.46 231.77a15.27 15.27 0 0 1 15.64 14.89v.75a15.66 15.66 0 0 1-15.42 15.9h-.15a16.2 16.2 0 0 1-16-16 15.66 15.66 0 0 1 15.76-15.56z" fill="#6f7487"/><path d="M360.7 264.78a17.6 17.6 0 0 1-17.64-17.43 17.16 17.16 0 0 1 17.13-17.05h.11l.15 1.47v-1.47a16.74 16.74 0 0 1 17.15 16.32v.83a17.13 17.13 0 0 1-16.86 17.33zm-.46-31.55A14.22 14.22 0 0 0 346 247.34a14.64 14.64 0 0 0 14.54 14.51 14.2 14.2 0 0 0 14.09-14.41v-.75a13.8 13.8 0 0 0-14.14-13.45h-.25z"/><path d="M248.93 182.13v126.19c5 0 10-.1 15 .1 2.43.1 3-.74 3-3q-.11-42 0-84c0-12.09-.06-24.17.05-36.19 0-2.34-.59-3.12-3-3-5.06.04-10.09-.1-15.05-.1z" fill="#777"/><path d="M264.27 311.36h-.5c-3.67-.15-7.45-.13-11.08-.11H246V179.19h8.07c3.26 0 6.54.07 9.8 0a6 6 0 0 1 4.48 1.36 6.07 6.07 0 0 1 1.55 4.59c-.08 8.92-.07 17.84-.06 26.78v9.41c-.07 27.89-.07 56.16 0 84a6.06 6.06 0 0 1-1.56 4.59 5.6 5.6 0 0 1-4.01 1.44zm-7.88-6c2.51 0 5.05 0 7.59.13v-.09c-.07-27.88-.07-56.16 0-84.06v-9.39c0-9 0-17.9.06-26.81v-.06c-3.37.09-6.7.06-10 0h-2.13v120.3h4.52z" fill="#444"/><path d="M206.43 326.75h-94.67c4.23 19.88 26 36.33 47.23 35.8h.23c21.25.52 42.98-15.93 47.21-35.8z" fill="#777"/><path d="M158.08 365.5c-22.41 0-44.74-17.24-49.19-38.14l-.75-3.55h101.92l-.75 3.55c-4.52 21.22-27.51 38.71-50.16 38.13zm-42.49-35.81c5.61 17 24.62 30.37 43.32 29.93h.3c18.55.4 37.75-13.19 43.37-29.93z" fill="#444"/><path d="M183.76 181.89c-8.2.2-16.41.12-24.61.13h-.51c-8.2 0-16.41.07-24.61-.13-2.68-.07-3 .92-2.76 3.19 1.62 13.94 12.88 24.17 27.32 24.81h.58c14.44-.66 25.69-10.87 27.32-24.81.3-2.27-.08-3.25-2.73-3.19z" fill="#717588"/><path d="M473.31 348.67h-44.05c-1.13 0-1.47-.21-1.47-1.42q.07-28 0-56.09c0-1.12.31-1.36 1.39-1.36h88.37c1.07 0 1.4.22 1.4 1.36q-.06 28.11 0 56.22c0 1.07-.31 1.3-1.33 1.29q-22.15-.03-44.31 0zm23.75-32.48h8.06c.64 0 .94-.1.93-.85 0-2.33-.05-4.66 0-7 0-.82-.31-.92-1-.92h-16c-.88 0-1 .32-1 1.08 0 2.2.05 4.4 0 6.6 0 .85.18 1.13 1.08 1.11 2.65-.06 5.29-.02 7.93-.02zM473.24 334h7.92c.77 0 1.1-.12 1.07-1q-.09-3.42 0-6.86c0-.88-.32-1-1.08-1h-15.57c-.76 0-1.1.12-1.07 1q.09 3.42 0 6.86c0 .88.32 1 1.08 1h7.65zm23.64 0h7.93c.75 0 1.11-.1 1.08-1-.06-2.29-.05-4.58 0-6.87 0-.82-.24-1-1-1H489c-.72 0-1 .15-1 .94q.07 3.49 0 7.05c0 .76.22 1 1 1 2.6-.13 5.22-.1 7.87-.1z" fill="#d4dbeb"/><path d="M517.67 350.14h-88.41c-1.26 0-2.94-.3-2.94-2.89q.07-28 0-56.08c0-1.91.93-2.83 2.86-2.83h88.37c1.93 0 2.87.93 2.87 2.83q-.06 28.11 0 56.22a2.78 2.78 0 0 1-.7 2.08 2.73 2.73 0 0 1-2.05.67zm-88.42-2.94h88.2v-55.93h-88.2q.08 27.96 0 55.93zm59.84-11.64a2.27 2.27 0 0 1-2.54-2.47v-7a2.22 2.22 0 0 1 2.47-2.44h15.85a2.23 2.23 0 0 1 2.47 2.48c0 2.29-.06 4.57 0 6.83a2.5 2.5 0 0 1-.6 1.85 2.56 2.56 0 0 1-1.94.66h-9.14c-2.22 0-4.4 0-6.57.1zm.41-9v6c1.67-.06 3.25-.17 5-.07h9.93v-5.94zm-8.34 8.88h-15.55A2.25 2.25 0 0 1 463 333c.06-2.3.06-4.56 0-6.82a2.5 2.5 0 0 1 .6-1.85 2.55 2.55 0 0 1 1.93-.66h15.57a2.25 2.25 0 0 1 2.55 2.47c-.06 2.3-.06 4.56 0 6.82a2.5 2.5 0 0 1-.6 1.85 2.56 2.56 0 0 1-1.89.64zm-13.59-3h13.17v-5.93H466v5.93zM489 317.67a2.47 2.47 0 0 1-1.79-.62 2.63 2.63 0 0 1-.67-1.95v-6.6a2.25 2.25 0 0 1 2.47-2.55h16a2.2 2.2 0 0 1 2.47 2.39v7a2.32 2.32 0 0 1-.6 1.69 2.39 2.39 0 0 1-1.8.62h-15.91zm.49-8.78v5.79h15.04v-5.81z"/><path d="M473.28 290.55h-59c-1.17 0-1.57-.24-1.55-1.5.08-5.34 0-10.67 0-16 0-2.29.63-3 3-3 1.4 0 2.8.18 4.21.18h104.2a58.92 58.92 0 0 1 7.89 0 1.94 1.94 0 0 1 1.93 2v17.46c0 .71-.26.95-.93.89H532z" fill="#7cea82"/><path d="M473.28 292h-59a2.62 2.62 0 0 1-3-3c.05-3.55 0-7.09 0-10.64v-5.34c0-3.11 1.27-4.41 4.39-4.49.77 0 1.49 0 2.22.09s1.34.09 2 .09h104.25a60.82 60.82 0 0 1 8 0 3.34 3.34 0 0 1 2.32 1 3.37 3.37 0 0 1 1 2.42v17.45a2.16 2.16 0 0 1-2.56 2.42h-.9zm-59.09-2.94h118.28v-16.78c0-.4-.2-.61-.47-.62a58.68 58.68 0 0 0-7.78 0H419.9c-.74 0-1.47 0-2.21-.09s-1.34-.09-2-.09c-1.49 0-1.49.07-1.49 1.55v16.03z"/><path d="M497.06 316.19h-7.92c-.9 0-1.1-.26-1.08-1.11.06-2.2 0-4.4 0-6.6 0-.76.11-1.09 1-1.08h16c.69 0 1 .1 1 .92-.05 2.33 0 4.66 0 7 0 .75-.28.86-.93.85z" fill="#1f1f1f"/><path d="M473.24 334h-7.65c-.76 0-1.1-.11-1.08-1q.09-3.42 0-6.86c0-.88.31-1 1.07-1h15.57c.76 0 1.1.11 1.08 1q-.09 3.42 0 6.86c0 .88-.31 1-1.07 1h-7.92z" fill="#212121"/><path d="M496.89 334H489c-.75 0-1-.2-1-1q.07-3.49 0-7.05c0-.79.28-.94 1-.94h15.85c.81 0 1.07.22 1 1-.05 2.29-.06 4.58 0 6.87 0 .89-.33 1-1.08 1-2.6.12-5.24.12-7.88.12z" fill="#252121"/><path d="M473.36 347.54h44.16c1.16 0 1.49.27 1.47 1.45-.07 4.41 0 8.81 0 13.22a2.82 2.82 0 0 1-2.74 2.9h-85.31a10.24 10.24 0 0 1-1.57-.09 1.72 1.72 0 0 1-1.61-1.73 22.78 22.78 0 0 1-.17-3v-10.74c0-2.17-.25-1.93 1.87-1.93z" fill="#7cea82"/><path d="M430.76 366.59a12.36 12.36 0 0 1-1.58-.11 3.17 3.17 0 0 1-2.89-3.2 21.71 21.71 0 0 1-.17-3V349a2.79 2.79 0 0 1 .58-2.22 2.71 2.71 0 0 1 2.23-.58h.54l88.06-.08a3 3 0 0 1 2.24.74 2.94 2.94 0 0 1 .7 2.21v13.2a4.29 4.29 0 0 1-4.17 4.37h-85.54zm-1.71-17.5v11.19a21.83 21.83 0 0 0 .16 2.84c0 .32.11.44.25.44a9.28 9.28 0 0 0 1.45.09h85.22a1.4 1.4 0 0 0 1-.42 1.34 1.34 0 0 0 .37-1v-13.25z"/><rect x="437.32" y="400.54" width="79.88" height="10.43" rx="1.02" ry="1.02" transform="rotate(-18.2 483.165 403.745)" fill="#454545"/><path d="M444.37 423.6a6.69 6.69 0 0 1-2.14-13L508 388.28a6.68 6.68 0 1 1 4.29 12.66l-65.77 22.3a6.7 6.7 0 0 1-2.15.36zm65.77-32.74a3.76 3.76 0 0 0-1.2.2l-65.77 22.3a3.75 3.75 0 1 0 2.41 7.1l65.77-22.3a3.75 3.75 0 0 0-1.21-7.3z"/><rect x="446.47" y="433.3" width="58.53" height="9.19" rx=".9" ry=".9" transform="rotate(-18.74 475.603 437.83)" fill="#454545"/><path d="M452.37 451.88a6.06 6.06 0 0 1-1.94-11.8l46.73-15.85a6.06 6.06 0 0 1 7.68 3.79 6.06 6.06 0 0 1-3.79 7.69l-46.73 15.85a6 6 0 0 1-1.95.32zm46.73-25a3.15 3.15 0 0 0-1 .17l-46.73 15.85a3.13 3.13 0 0 0-.38 5.76 3.13 3.13 0 0 0 2.39.15l46.73-15.85a3.13 3.13 0 0 0-1-6.08z"/><rect x="456.76" y="466.06" width="35.3" height="9.12" rx=".89" ry=".89" transform="rotate(-18.74 474.282 470.544)" fill="#454545"/><path d="M462 480.85a6 6 0 0 1-1.93-11.74l24.78-8.41a6 6 0 0 1 3.87 11.42L464 480.53a6 6 0 0 1-2 .32zm24.79-17.53a3.07 3.07 0 0 0-1 .17l-24.79 8.4a3.09 3.09 0 1 0 2 5.86l24.78-8.41a3.1 3.1 0 0 0-1-6z"/><path d="M359.88 214.2l40-80.36c4.34-8.72 8.67-17.4 13-26.16 4.76-9.61 9.08-12.14 19.59-11.37 5.37 2 9.41 5.47 11.38 11 1.15 4.91 0 9.39-2.16 13.86Q415.74 173 389.95 224.9c-.5 1-1.17 2.06-1.73 3.12a2 2 0 0 1-1.71-1 34.24 34.24 0 0 0-13.61-9.82c-4.21-1.78-8.66-2.12-13.02-3zm62.18-97.7c2.37 3.26 7.88 4.18 11 1.88 3.36-2.46 4.33-8 1.94-11.23s-7.91-4.07-11.07-1.86a8.47 8.47 0 0 0-1.87 11.21z" fill="#7cea82"/><path d="M389.1 229.5h-.9a3.5 3.5 0 0 1-3-1.72 32.89 32.89 0 0 0-12.88-9.2 39.47 39.47 0 0 0-9.14-2.28c-1.21-.2-2.42-.4-3.63-.65l-1.88-.38L411.55 107c5-10.15 10-13 21-12.18l.41.09c6.23 2.37 10.24 6.26 12.24 11.9 1.16 4.89.43 9.61-2.23 15q-25.93 51.83-51.72 103.72c-.29.62-.66 1.24-1 1.88-.24.42-.49.84-.72 1.28zm-27-16.39l1.64.28a42.34 42.34 0 0 1 9.77 2.46 35.79 35.79 0 0 1 14.16 10.23l.07-.13c.33-.56.65-1.12.92-1.69q25.81-51.92 51.73-103.74c2.37-4.8 3-8.77 2-12.87-1.63-4.56-5-7.85-10.27-9.9-9.75-.67-13.46 1.52-18 10.57zm66.75-92a10.54 10.54 0 0 1-1.63-.13 9.58 9.58 0 0 1-6.31-3.63v-.07a9.91 9.91 0 0 1 2.09-13.15c3.9-2.73 10.39-1.63 13.16 2.15a9.17 9.17 0 0 1 1.49 6.81 9.82 9.82 0 0 1-3.74 6.47 8.65 8.65 0 0 1-5.1 1.56zm-5.54-5.45a6.74 6.74 0 0 0 4.36 2.42 6.16 6.16 0 0 0 4.58-.9 7 7 0 0 0 2.57-4.55 6.23 6.23 0 0 0-.95-4.62c-1.82-2.48-6.56-3.28-9.05-1.54a7 7 0 0 0-1.55 9.2z"/><path d="M382.62 217.57c3 3.23 6.5 6 8.9 9.9a34.24 34.24 0 0 1 5.48 15.88 2 2 0 0 0 .83 1.8c-.77 3.49-.52 7.05-1.36 10.61a36.77 36.77 0 0 1-35 28.6c-14.1.3-28.26.11-42.39.08-3.71 0-5-1.22-6.41-5.36v-63.36c1.47-4.33 2.78-5.29 7.41-5.29 13.09 0 26.12.06 39.18 0 8.61-.1 16.23 2.66 23.36 7.14zm-22.16 56.15A26 26 0 0 0 386.74 248v-.52c-.05-14.95-11.34-26.24-26.29-26.28a26 26 0 0 0-26.27 25.72v.26a26 26 0 0 0 26.25 26.58z" fill="#828694"/><path d="M343.34 286H319.1c-4.81 0-6.4-2.14-7.8-6.36l-.07-.46.08-63.84c1.68-4.93 3.57-6.28 8.8-6.28h39.18c8.09-.06 16.1 2.31 24.13 7.37l.29.24c.87.93 1.78 1.83 2.69 2.72a41.09 41.09 0 0 1 6.39 7.41 35.72 35.72 0 0 1 5.67 16.53c0 .44.07.62.22.73l.78.56-.21.94a35.86 35.86 0 0 0-.61 4.91 36.87 36.87 0 0 1-.75 5.71 38.2 38.2 0 0 1-36.35 29.74c-6.05.08-12.15.08-18.2.08zm-29.18-7.15c1.22 3.61 2.18 4.13 4.94 4.13h10.38c10.5.05 21.35.11 32-.12A35.27 35.27 0 0 0 395 255.43a34.67 34.67 0 0 0 .69-5.28 44.81 44.81 0 0 1 .51-4.52 3.5 3.5 0 0 1-.7-2.4 32.92 32.92 0 0 0-5.22-14.94 38.47 38.47 0 0 0-6-6.9c-.89-.88-1.78-1.75-2.64-2.66-7.49-4.67-14.74-7-22.39-6.82H320.1c-3.88 0-4.72.54-5.94 4.06zm46.57-3.65h-.28a27.51 27.51 0 0 1-19.67-8 27.93 27.93 0 0 1-8-20v-.31a27.27 27.27 0 0 1 8.25-19.3 27.86 27.86 0 0 1 19.5-7.84c15.76 0 27.69 12 27.74 27.74v.51a27.53 27.53 0 0 1-27.55 27.19zm-.53-52.57a24.53 24.53 0 0 0-24.53 24.27 25.17 25.17 0 0 0 7.19 18.19 24.6 24.6 0 0 0 17.59 7.18h.28a24.58 24.58 0 0 0 24.56-24.32v-.48c0-14.13-10.72-24.8-24.82-24.84z"/><path d="M360.44 273.72c-14.82 0-26.31-11.6-26.28-26.57a26 26 0 0 1 26-26h.26c14.95 0 26.19 11.33 26.29 26.28a26 26 0 0 1-25.77 26.28zm0-41.95a15.66 15.66 0 0 0-15.9 15.42v.14a16.2 16.2 0 0 0 16 16 15.66 15.66 0 0 0 15.57-15.75v-.15a15.27 15.27 0 0 0-14.9-15.63h-.74z" fill="#7cea82"/><path d="M360.44 275.19a27.54 27.54 0 0 1-19.67-8 28 28 0 0 1-8.08-20 27.5 27.5 0 0 1 27.47-27.45c16 0 27.91 11.93 28 27.74A27.49 27.49 0 0 1 361 275.19zm0-52.55a24.61 24.61 0 0 0-24.78 24.52 25.08 25.08 0 0 0 7.22 17.94 24.63 24.63 0 0 0 17.59 7.16h.51a24.58 24.58 0 0 0 24.3-24.8c-.09-14.15-10.77-24.82-24.82-24.82zm.1 42.14a17.58 17.58 0 0 1-17.45-17.42 17.13 17.13 0 0 1 5.2-12.22 17.64 17.64 0 0 1 12.18-4.83h.77a16.76 16.76 0 0 1 16.33 17.13 17.17 17.17 0 0 1-17.05 17.34zm-.33-31.54a14.19 14.19 0 0 0-14.18 14 14.67 14.67 0 0 0 14.52 14.62 14.19 14.19 0 0 0 14.08-14.27 13.87 13.87 0 0 0-13.47-14.33h-1z"/><path fill="#282828" d="M46.66 458.5l94.41-102.67 25.96-3.02 82.2 79.26-19.09 51.38-168.8-1.47-14.68-23.48z"/><path d="M233.2 487.88l-174.32-1.51L41.14 458l97.79-106.34 29.65-3.45 85.78 82.71zM63.79 477.6l163.3 1.4 17-45.78-78.63-75.82-22.26 2.6-91 99z"/><path d="M82.87 425.71a30.83 30.83 0 1 0 30.83 30.83 30.83 30.83 0 0 0-30.83-30.83zm0 45.5a14.68 14.68 0 1 1 14.68-14.68 14.68 14.68 0 0 1-14.68 14.69z" fill="#828694"/><path d="M82.86 488.83a32.29 32.29 0 1 1 32.29-32.29 32.33 32.33 0 0 1-32.29 32.29zm0-61.65a29.36 29.36 0 1 0 29.36 29.36 29.39 29.39 0 0 0-29.36-29.36zm0 45.5A16.15 16.15 0 1 1 99 456.54a16.17 16.17 0 0 1-16.14 16.15zm0-29.36a13.21 13.21 0 1 0 13.21 13.21 13.23 13.23 0 0 0-13.21-13.2z"/><path d="M121 397.21a23.3 23.3 0 1 0 23.3 23.3 23.3 23.3 0 0 0-23.3-23.3zm0 34.4a11.1 11.1 0 1 1 11.1-11.1 11.1 11.1 0 0 1-11.1 11.1z" fill="#828694"/><path d="M121 445.29a24.77 24.77 0 1 1 24.77-24.77A24.8 24.8 0 0 1 121 445.29zm0-46.61a21.83 21.83 0 1 0 21.83 21.83A21.86 21.86 0 0 0 121 398.68zm0 34.4a12.56 12.56 0 1 1 12.56-12.56A12.58 12.58 0 0 1 121 433.08zm0-22.19a9.63 9.63 0 1 0 9.63 9.63 9.64 9.64 0 0 0-9.63-9.63z"/><path d="M136.75 443.82a21.47 21.47 0 1 0 21.47 21.47 21.47 21.47 0 0 0-21.47-21.47zm0 31.69A10.22 10.22 0 1 1 147 465.29a10.22 10.22 0 0 1-10.25 10.22z" fill="#828694"/><path d="M136.75 488.22a22.94 22.94 0 1 1 22.94-22.94 23 23 0 0 1-22.94 22.94zm0-42.94a20 20 0 1 0 20 20 20 20 0 0 0-20-19.99zm0 31.69a11.69 11.69 0 1 1 11.69-11.69A11.7 11.7 0 0 1 136.75 477zm0-20.45a8.76 8.76 0 1 0 8.76 8.76 8.77 8.77 0 0 0-8.76-8.75z"/><circle cx="158.71" cy="385.59" r="8.81" fill="#f9f9f9"/><path d="M158.71 395.5a9.91 9.91 0 1 1 9.91-9.91 9.92 9.92 0 0 1-9.91 9.91zm0-17.61a7.71 7.71 0 1 0 7.71 7.71 7.72 7.72 0 0 0-7.71-7.71z"/><circle cx="82.87" cy="456.54" r="8.81" fill="#f9f9f9"/><path d="M82.86 466.45a9.91 9.91 0 1 1 9.91-9.91 9.92 9.92 0 0 1-9.91 9.91zm0-17.61a7.71 7.71 0 1 0 7.71 7.71 7.72 7.72 0 0 0-7.71-7.72z"/><circle cx="212.77" cy="444.06" r="10.28" fill="#f9f9f9"/><path d="M212.77 455.44a11.38 11.38 0 1 1 11.38-11.38 11.39 11.39 0 0 1-11.38 11.38zm0-20.55a9.17 9.17 0 1 0 9.17 9.17 9.19 9.19 0 0 0-9.17-9.17z"/><circle cx="120.97" cy="420.52" r="6.08" transform="rotate(-45 120.963 420.515)" fill="#f9f9f9"/><path d="M121 427.69a7.18 7.18 0 1 1 5.08-2.1 7.17 7.17 0 0 1-5.08 2.1zm0-12.15a5 5 0 1 0 3.52 1.46 4.95 4.95 0 0 0-3.52-1.46z"/><circle cx="136.75" cy="465.29" r="5.6" transform="rotate(-45 136.757 465.284)" fill="#f9f9f9"/><path d="M136.75 472a6.7 6.7 0 1 1 4.74-2 6.69 6.69 0 0 1-4.74 2zm0-11.19a4.5 4.5 0 1 0 3.18 1.32 4.48 4.48 0 0 0-3.18-1.34z"/><path d="M170.33 461.43a8.44 8.44 0 1 0 8.44 8.44 8.44 8.44 0 0 0-8.44-8.44zm0 12.46a4 4 0 1 1 4-4 4 4 0 0 1-4 4z" fill="#828694"/><path d="M170.33 479.78a9.91 9.91 0 1 1 9.91-9.91 9.92 9.92 0 0 1-9.91 9.91zm0-16.88a7 7 0 1 0 7 7 7 7 0 0 0-7-7zm0 12.46a5.49 5.49 0 1 1 5.49-5.49 5.49 5.49 0 0 1-5.49 5.49zm0-8a2.55 2.55 0 1 0 2.55 2.55 2.55 2.55 0 0 0-2.55-2.59z"/><path d="M193.45 390.24A11.74 11.74 0 1 0 205.19 402a11.74 11.74 0 0 0-11.74-11.76zm0 17.34A5.59 5.59 0 1 1 199 402a5.59 5.59 0 0 1-5.55 5.58z" fill="#828694"/><path d="M193.45 415.19A13.21 13.21 0 1 1 206.66 402a13.23 13.23 0 0 1-13.21 13.19zm0-23.49a10.28 10.28 0 1 0 10.27 10.3 10.29 10.29 0 0 0-10.27-10.29zm0 17.33a7.06 7.06 0 1 1 7.06-7.06 7.06 7.06 0 0 1-7.06 7.03zm0-11.18a4.12 4.12 0 1 0 4.12 4.12 4.13 4.13 0 0 0-4.12-4.11z"/><circle cx="193.45" cy="401.98" r="3.06" transform="rotate(-45 193.45 401.99)" fill="#f9f9f9"/><path d="M193.45 406.15a4.16 4.16 0 1 1 2.95-1.22 4.16 4.16 0 0 1-2.95 1.22zm0-6.12a2 2 0 1 0 1.39.57 2 2 0 0 0-1.39-.6z"/><path d="M248.94 308.69V182.5c0-11.37.21-22.74-.09-34.1-.27-10.07-1.3-20.14-4.58-29.87a92.32 92.32 0 0 0-18.36-31.79C212 71 194.61 61.66 174.18 57.63c-3.17-.62-6.47-.4-9.61-1.33h-11.4c-3.13.93-6.44.71-9.61 1.33-20.43 4-37.85 13.34-51.73 29.12a92.32 92.32 0 0 0-18.36 31.79c-3.28 9.71-4.31 19.76-4.58 29.87-.3 11.36-.08 22.73-.09 34.1v126.18c0 5 .15 10 0 14.95-.09 2.55.78 3.16 3.21 3.14 13.25-.1 26.51 0 39.76 0H206c13.25 0 26.51-.07 39.76 0 2.44 0 3.31-.6 3.21-3.14-.19-4.98-.04-9.97-.03-14.95zm-132.16-180.4c13.9.05 27.81 0 41.71.05h.73q20.85 0 41.71-.05c1.76 0 2.71.22 2.67 2.4q-.2 11.21 0 22.43c0 2.14-.85 2.43-2.65 2.42-13.92-.06-27.83 0-41.75-.06h-.72q-20.88 0-41.75.06c-1.8 0-2.68-.28-2.65-2.42q.19-11.21 0-22.43c-.01-2.18.92-2.41 2.7-2.4zm-11.71 153.23a13.53 13.53 0 1 1 13.46-13.6v.13a13.42 13.42 0 0 1-13.36 13.47zm53.79 0c-10.79-.77-15.24-10.81-12.31-18.22 1.84-4.67 5.17-7.68 10.31-8.4a15 15 0 0 0 2-.5 15 15 0 0 0 2 .5c5.15.72 8.46 3.73 10.31 8.4 2.9 7.45-1.56 17.49-12.34 18.25zm26.54-96c-1.57 13.5-12.52 23.36-26.54 23.88-14-.52-25-10.39-26.54-23.88-.25-2.2.07-3.14 2.66-3.07 8 .19 15.92.11 23.88.13s15.92.06 23.89-.13c2.58-.09 2.91.85 2.65 3.06zm27.25 96a13.42 13.42 0 0 1-13.46-13.37v-.09a13.46 13.46 0 1 1 13.4 13.46z" fill="#bcbcbc"/><path d="M71.89 329.72a5.32 5.32 0 0 1-6-6.18c.1-3.24.06-6.59 0-9.82V172.1c0-7.79-.09-15.84.12-23.78.34-12.57 1.8-22.05 4.74-30.73A94.69 94.69 0 0 1 89.64 84.8C103.43 69.12 121.39 59 143 54.75a39.47 39.47 0 0 1 4.42-.54 24.68 24.68 0 0 0 4.93-.73l.83-.12 12.23.12a24.8 24.8 0 0 0 4.93.73 39.59 39.59 0 0 1 4.41.54c21.63 4.28 39.59 14.39 53.37 30.06a94.73 94.73 0 0 1 18.94 32.79c2.94 8.7 4.4 18.18 4.73 30.73.22 8.1.17 16.31.13 24.26v140.35c0 3.48-.07 7.08.08 10.57a6.08 6.08 0 0 1-1.4 4.61 6.29 6.29 0 0 1-4.75 1.59H72.03zm-.16-5.87H72c8.84-.07 17.69 0 26.54 0h147.53v-.09c-.15-3.64-.12-7.31-.08-10.87V172.5c0-7.9.09-16.07-.13-24.07-.32-11.93-1.68-20.88-4.43-29a88.94 88.94 0 0 0-17.78-30.78c-13.09-14.89-29.48-24.11-50.1-28.18a33.7 33.7 0 0 0-3.76-.45 31.43 31.43 0 0 1-5.69-.83h-10.52a31.36 31.36 0 0 1-5.68.83 33.72 33.72 0 0 0-3.76.45c-20.6 4.06-37 13.28-50.09 28.17a88.89 88.89 0 0 0-17.78 30.78c-2.74 8.11-4.11 17.06-4.43 29-.21 7.84-.17 15.85-.12 23.59v141.68c0 3.29.07 6.7 0 10.08.02 0 .02.04.01.07zm85-39.2l-.13-.44a16.38 16.38 0 0 1-11.34-7.43 16.22 16.22 0 0 1-1.44-14.54c2.31-5.87 6.68-9.4 12.64-10.23a11.68 11.68 0 0 0 1.51-.39l.91-.3.91.3a11.67 11.67 0 0 0 1.61.41c5.83.81 10.21 4.34 12.53 10.21a16.34 16.34 0 0 1-1.49 14.62 16.71 16.71 0 0 1-13.37 7.64zm2.15-27.18q-.74.2-1.51.33c-4 .56-6.54 2.65-8.09 6.59a10.46 10.46 0 0 0 .95 9.26 10 10 0 0 0 17.25.06 10.58 10.58 0 0 0 1-9.33c-1.56-3.93-4.1-6-8-6.56a29.4 29.4 0 0 1-1.6-.36zm53.73 27a16.37 16.37 0 0 1-16.35-16.3 16.39 16.39 0 1 1 16.4 16.29h-.05zm0-27.05a10.66 10.66 0 0 0-10.46 10.65 10.51 10.51 0 0 0 10.46 10.54 10.59 10.59 0 0 0 0-21.17zM105 284.45a16.46 16.46 0 0 1-.09-32.92h.09a16.46 16.46 0 0 1 .17 32.92l-.1-2.94v2.94zm0-27.05h-.06a10.59 10.59 0 0 0 .05 21.18h.16a10.49 10.49 0 0 0 10.43-10.52A10.59 10.59 0 0 0 105 257.4zm54-45.08c-15.75-.58-27.82-11.47-29.56-26.48-.12-1-.37-3.21 1.1-4.81a5.77 5.77 0 0 1 4.55-1.53c5.7.14 11.53.13 17.16.13h8.55c7.19 0 14.62 0 21.92-.14a5.69 5.69 0 0 1 4.55 1.54c1.47 1.61 1.21 3.77 1.09 4.81-1.79 15.01-13.86 25.9-29.36 26.48zm-23.71-26.94c1.49 11.95 11.21 20.61 23.71 21.08 12.28-.47 22-9.12 23.49-21.08-7.26.17-14.61.15-21.71.13h-8.53c-5.58-.01-11.32 0-16.99-.13zm65.84-26.91h-.17c-13.9-.06-27.82 0-41.74-.06h-.71q-20.87 0-41.73.06a5.7 5.7 0 0 1-4.23-1.4 5.49 5.49 0 0 1-1.35-4c.13-7.41.13-14.92 0-22.34a5.5 5.5 0 0 1 1.38-4 5.63 5.63 0 0 1 4.26-1.37c13.89 0 27.81 0 41.71.05h.71q20.84 0 41.69-.05a5.66 5.66 0 0 1 4.26 1.4 5.45 5.45 0 0 1 1.34 4c-.13 7.4-.13 14.91 0 22.32a5.59 5.59 0 0 1-1.39 4 5.52 5.52 0 0 1-4.06 1.39zM117 131.22c.11 7.08.11 14.27 0 21.37q20.7-.09 41.45-.06h.72c13.84.06 27.64 0 41.45.06-.12-7.06-.12-14.26 0-21.37q-20.7.08-41.43.05h-.73c-13.81-.04-27.62.01-41.46-.05z" fill="#444"/><g clip-path="url(#a)"><path d="M191.73-381.13c72.63 578.35-4.15 974.68-4.15 974.68s2.29-989.42 4.15-974.68z" fill="#e2e2e2"/></g><path d="M208.12 126.88c0-2.78-1-3.07-2.87-3.06-15.19.06-30.38 0-45.57.06s-30.38 0-45.57-.06c-1.89 0-2.91.28-2.87 3.06q.22 14.3 0 28.6c0 2.72.9 3.1 2.85 3.09 15.19-.08 30.4 0 45.59-.08s30.4 0 45.59.08c1.94 0 2.88-.37 2.85-3.09q-.21-14.27 0-28.6z" fill="#fff"/><path d="M114 160a4.22 4.22 0 0 1-3.15-1 4.92 4.92 0 0 1-1.09-3.57c.14-9.5.14-19.11 0-28.58a4.81 4.81 0 0 1 1-3.54 4.35 4.35 0 0 1 3.3-1h1c14.86.06 29.71.13 44.58.06 15.19-.06 30.38 0 45.57-.06a4.38 4.38 0 0 1 3.26 1 4.88 4.88 0 0 1 1.09 3.55c-.14 9.5-.14 19.1 0 28.55a4.85 4.85 0 0 1-1.06 3.56 4.32 4.32 0 0 1-3.26 1c-14.95-.08-30.4-.16-45.58-.08s-30.4 0-45.59.08zm.1-34.75c-1 0-1.16.1-1.2.13s-.22.24-.2 1.44c.14 9.5.14 19.14 0 28.65 0 1.23.22 1.47.22 1.47s.13.12 1.15.13c15.2-.08 30.4 0 45.59-.08s30.66 0 45.61.08c1 0 1.15-.13 1.17-.14s.22-.24.21-1.46c-.14-9.47-.14-19.11 0-28.63 0-1.22-.22-1.46-.22-1.46a3.2 3.2 0 0 0-1.17-.12c-15.2.06-30.38 0-45.57.06-14.86.07-29.73 0-44.6-.06z"/><path fill="#7cea82" d="M174.36 153.29v-14.18l-3.71 3.71-21.95 3.13-5.66-8.5-11.35 5.68-9.01-6.01-6.74 1.35-.58-2.88 7.94-1.59 8.6 5.74 12.14-6.07 6.08 9.12 19.15-2.74 8.03-8.03v15.17l12.79-10.23 10.9 1.55-.41 2.91-9.65-1.38-16.57 13.25z"/><path d="M197.83 268.93a14.82 14.82 0 0 0 14.74 14.89h.12a14.94 14.94 0 1 0-14.87-14.89z" fill="#777"/><path d="M212.72 286.75a17.75 17.75 0 0 1-17.82-17.83 17.83 17.83 0 1 1 17.82 17.83zm-.09-29.88a12.07 12.07 0 0 0-11.86 12.06 11.88 11.88 0 0 0 11.82 11.94 12 12 0 1 0 0-24z" fill="#444"/><circle cx="158.71" cy="385.59" r="2.94" transform="rotate(-18.74 158.66 385.5)"/><path d="M158.71 390a4.4 4.4 0 1 1 4.17-5.82 4.4 4.4 0 0 1-2.76 5.58 4.41 4.41 0 0 1-1.41.24zm0-5.87a1.41 1.41 0 0 0-.47.08 1.47 1.47 0 1 0 1.86.92 1.47 1.47 0 0 0-1.39-1z"/><circle cx="82.87" cy="456.54" r="2.94" transform="rotate(-18.74 82.834 456.437)"/><path d="M82.86 460.95a4.42 4.42 0 1 1 1.42-.24 4.38 4.38 0 0 1-1.42.24zm0-5.87a1.41 1.41 0 0 0-.47.08 1.47 1.47 0 0 0-.18 2.71 1.43 1.43 0 0 0 1.12.07 1.46 1.46 0 0 0 .92-1.86 1.47 1.47 0 0 0-1.39-1z"/><circle cx="212.77" cy="444.06" r="2.94" transform="rotate(-18.74 212.726 443.974)"/><path d="M212.77 448.47a4.42 4.42 0 1 1 1.42-.24 4.38 4.38 0 0 1-1.42.24zm0-5.87a1.41 1.41 0 0 0-.47.08 1.47 1.47 0 0 0-.18 2.71 1.42 1.42 0 0 0 1.12.07 1.46 1.46 0 0 0 .92-1.86 1.47 1.47 0 0 0-1.39-1z"/><path d="M212.77 406.63a37.43 37.43 0 1 0 37.43 37.43 37.43 37.43 0 0 0-37.43-37.43zm0 55.26a17.82 17.82 0 1 1 17.82-17.82 17.82 17.82 0 0 1-17.82 17.82z" fill="#828694"/><path d="M212.77 483a38.9 38.9 0 1 1 38.9-38.9 38.94 38.94 0 0 1-38.9 38.9zm0-74.86a36 36 0 1 0 36 36 36 36 0 0 0-36-36.04zm0 55.26a19.29 19.29 0 1 1 19.29-19.29 19.32 19.32 0 0 1-19.29 19.25zm0-35.65a16.36 16.36 0 1 0 16.36 16.36 16.37 16.37 0 0 0-16.36-16.4z"/><path d="M158.71 354.77a30.83 30.83 0 1 0 30.83 30.83 30.83 30.83 0 0 0-30.83-30.83zm0 45.5a14.68 14.68 0 1 1 14.68-14.68 14.68 14.68 0 0 1-14.68 14.68z" fill="#828694"/><path d="M158.71 417.89a32.29 32.29 0 1 1 32.29-32.3 32.33 32.33 0 0 1-32.29 32.3zm0-61.65a29.36 29.36 0 1 0 29.36 29.36 29.39 29.39 0 0 0-29.36-29.36zm0 45.5a16.15 16.15 0 1 1 16.15-16.15 16.17 16.17 0 0 1-16.15 16.15zm0-29.36a13.21 13.21 0 1 0 13.21 13.21 13.23 13.23 0 0 0-13.21-13.21z"/><path d="M252.16 420.33l-70.46-70.46c-11.74-11.74-29.36-11.74-41.1 0s-91 93.94-91 93.94c-20.55 20.55-11.74 41.1 8.81 44 20.55 0 117.43 2.94 158.53 0 52.84.04 52.84-49.86 35.22-67.48zm-45.88 54.75c-32.59 2.33-109.41 0-125.71 0-29.52-.43-35.39-9.24-7-34.92 0 0 63-65 72.17-74.49 11-11.39 19.8-11.39 32.59 0 9.84 8.76 41.34 42.49 55.87 55.87 19.43 17.87 13.99 53.54-27.91 53.54z" fill="#686a69"/><path d="M162.16 490.63c-27 0-56.2-.53-77.38-.91-12-.22-21.42-.39-26.37-.39-10.41-1.48-18.19-7.24-20.91-15.42-3.19-9.57.84-20.91 11.06-31.13.77-.8 79.39-82.33 91-93.94 12.31-12.31 30.87-12.31 43.18 0l70.46 70.46c9.29 9.29 14.76 28.88 7.84 45.58-3.78 9.13-14.54 24.45-44.11 24.45-13.68.97-33.57 1.3-54.77 1.3zm-103-4.23c4.94 0 14.12.17 25.62.38 37.74.69 100.9 1.84 132-.39 20.75 0 35.45-8 41.5-22.64 6.45-15.57 1.4-33.77-7.2-42.38l-70.46-70.46c-11.12-11.12-27.9-11.12-39 0-11.6 11.6-90.2 93.1-91 93.92-9.42 9.42-13.19 19.67-10.37 28.14 2.37 7.1 9.22 12.12 18.33 13.42zm103.62-8.82c-21.44 0-44.56-.42-61.34-.73-9.51-.17-17-.31-20.91-.31-15.95-.24-24.34-2.94-26.44-8.51-2.35-6.24 3.52-15.45 18.47-29 0 0 63-65 72.1-74.42 11.53-12 21.25-12 34.62-.07 4.81 4.27 14.73 14.45 25.24 25.23 11.4 11.69 23.2 23.79 30.66 30.66 10.16 9.36 13.88 23.6 9.26 35.44-5.12 13.11-19 20.63-38.14 20.65-10.86.8-26.66 1.06-43.48 1.06zm-82.22-4c3.92 0 11.4.13 20.93.31 29.92.54 80 1.46 104.64-.31h.1c17.88 0 30.8-6.84 35.46-18.78 4.19-10.72.76-23.67-8.52-32.21-7.52-6.93-19.34-19.05-30.77-30.77-10.4-10.71-20.3-20.82-25.03-25.06-12.17-10.83-20.16-10.85-30.56-.07-9.15 9.48-72.17 74.49-72.17 74.49C61 453.51 55.06 462.17 56.88 467c1.57 4.18 9.55 6.4 23.72 6.61z"/><path fill="#2b1c1c" stroke="#000" stroke-miterlimit="10" stroke-width=".5" d="M430.56 496.03l-10.24-25.59 10.24-20.48 31.68 8.63 9.14-14.77 15.49 21.5 25.59-15.36 15.35 10.24 5.12 35.83H430.56z"/></svg>