<svg data-name="Calque 1" xmlns="http://www.w3.org/2000/svg" viewBox="0 0 560 560"><defs><clipPath id="a"><path d="M249.76 301.34V176.08c0-11.29.21-22.57-.09-33.85-.27-10-1.29-20-4.55-29.65A91.64 91.64 0 0 0 226.89 81c-13.77-15.66-31.07-24.89-51.35-28.9-3.15-.62-6.42-.4-9.54-1.32h-11.31c-3.11.92-6.39.7-9.54 1.32-20.28 4-37.57 13.25-51.35 28.9a91.64 91.64 0 0 0-18.23 31.55c-3.26 9.64-4.28 19.62-4.55 29.65-.3 11.28-.08 22.56-.09 33.85v125.29c0 4.95.15 9.9 0 14.84-.09 2.53.77 3.14 3.19 3.12 13.16-.1 26.31 0 39.47 0h93.55c13.16 0 26.31-.07 39.47 0 2.42 0 3.29-.6 3.19-3.12-.2-4.94-.05-9.9-.04-14.84zm-142.82-27a13.43 13.43 0 1 1 13.36-13.5v.13a13.32 13.32 0 0 1-13.3 13.4zm53.4 0c-10.71-.76-15.13-10.73-12.22-18.09 1.83-4.64 5.13-7.63 10.24-8.34a14.94 14.94 0 0 0 2-.5 14.94 14.94 0 0 0 2 .5c5.11.71 8.4 3.7 10.24 8.34 2.88 7.4-1.55 17.37-12.25 18.12zm26.34-95.31c-1.56 13.4-12.43 23.18-26.34 23.7-13.92-.52-24.78-10.32-26.34-23.7-.25-2.18.07-3.12 2.64-3 7.9.19 15.81.11 23.7.13s15.81.06 23.71-.13c2.56-.09 2.89.84 2.63 3.03zm27.05 95.32a13.32 13.32 0 0 1-13.36-13.28v-.09a13.36 13.36 0 1 1 13.3 13.36z" fill="none"/></clipPath></defs><title>robot_bleu</title><ellipse cx="154.25" cy="464.44" rx="128.44" ry="33.03" opacity=".4"/><path d="M421.79 106.06a8.41 8.41 0 0 1 8-8c3.83 0 7.85 4 7.91 7.85s-3.89 8-8 8c-3.92.04-7.85-3.91-7.91-7.85z" fill="#6f7487"/><path d="M431.11 365l32.1 107.85a8.65 8.65 0 0 0 16.52.19l34.77-107.86a8.65 8.65 0 0 0-8.23-11.3h-66.86a8.65 8.65 0 0 0-8.3 11.12z" fill="#454545"/><path d="M471.51 480.48h-.13a9.94 9.94 0 0 1-9.57-7.22l-32.1-107.84a10.11 10.11 0 0 1 9.69-13h66.87a10.11 10.11 0 0 1 9.62 13.21l-34.77 107.84a9.93 9.93 0 0 1-9.61 7.01zm-39-115.9l32.1 107.84a7 7 0 0 0 6.81 5.14h.08a7 7 0 0 0 6.84-5l34.77-107.85a7.19 7.19 0 0 0-6.84-9.4h-66.86a7.19 7.19 0 0 0-6.89 9.25z"/><rect x="427.84" y="362.39" width="85.44" height="10.36" rx="1.02" ry="1.02" transform="rotate(-18.74 470.461 367.508)" fill="#454545"/><path d="M435 386.26a6.64 6.64 0 0 1-2.13-12.92L504 349.22a6.64 6.64 0 0 1 4.26 12.57l-71.11 24.12a6.65 6.65 0 0 1-2.15.35zm71.11-34.48a3.68 3.68 0 0 0-1.2.2l-71.1 24.12a3.72 3.72 0 1 0 2.39 7l71.11-24.1a3.72 3.72 0 0 0-1.2-7.25z"/><path d="M70.94 176.45v125.26c-4.95 0-9.9-.1-14.85.1-2.41.1-3-.73-3-3q.11-41.71 0-83.43c0-12 .06-24 0-35.92 0-2.32.59-3.1 3-3 4.91.13 9.91 0 14.85-.01z" fill="#777"/><path d="M55.71 304.73a5.56 5.56 0 0 1-4-1.37 6 6 0 0 1-1.55-4.55c.07-27.68.07-55.75 0-83.42V206c0-8.87 0-17.73-.06-26.56a6.06 6.06 0 0 1 1.54-4.59 6 6 0 0 1 4.49-1.35c3.36.09 6.73.05 10.1 0h7.59v131.1h-6.61c-3.62 0-7.36 0-11 .11zM56 179.37v.09c.08 8.82.07 17.7.06 26.59v9.33c.07 27.68.07 55.76 0 83.44v.08c3.77-.15 7.56-.14 11.24-.11h.7V179.38h-1.7c-3.44 0-6.88.07-10.36 0z" fill="#444"/><path d="M121.42 261.13a14.44 14.44 0 0 1-14.42 14.5h-.1a14.63 14.63 0 0 1-14.53-14.54A14.78 14.78 0 0 1 107 246.51a14.61 14.61 0 0 1 14.42 14.62z" fill="#777"/><path d="M107.07 280a18.93 18.93 0 1 1 18.73-18.88A18.81 18.81 0 0 1 107.07 280zm-.13-29.11a10.18 10.18 0 0 0 0 20.37 10.06 10.06 0 0 0 10.08-10.1 10.27 10.27 0 0 0-10.09-10.27z" fill="#444"/><path d="M175 261.13a14.44 14.44 0 0 1-14.38 14.5h-.1A14.63 14.63 0 0 1 146 261.09a14.78 14.78 0 0 1 14.56-14.58A14.61 14.61 0 0 1 175 261.13z" fill="#6f7487"/><path d="M266 197.13c1-1.38 1.88-3 3.75-3.49 3.45-.95 6.45 1.34 6.78 5.31.18 2.14.15 4.29.21 6.44 0 13-.08 26.08-.08 39.13 0 10.38.08 20.75.12 31.12-.07 1.46-.22 2.93-.2 4.39 0 3-.22 5.86-3.35 7.22s-5.32-.59-7.24-2.81z" fill="#828694"/><path d="M271.24 289.17c-3.05 0-5.17-2.45-6.31-3.77l-.36-.41v-88.33l.67-.94a7.47 7.47 0 0 1 4.16-3.48 6.52 6.52 0 0 1 5.56.87 7.53 7.53 0 0 1 3 5.72c.13 1.53.15 3.07.18 4.62v41.07q0 10.37.07 20.74v10.38l-.09 1.49c-.06 1-.13 1.92-.11 2.88 0 2.53 0 6.74-4.22 8.57a6.53 6.53 0 0 1-2.55.59zm-3.75-5.27c2 2.26 3.45 2.79 5.2 2 2.1-.91 2.47-2.62 2.47-5.88 0-1 .05-2.06.12-3.1l.08-1.37-.05-10.3q-.06-10.37-.07-20.75v-41.03c0-1.48 0-3-.17-4.42a4.69 4.69 0 0 0-1.8-3.57 3.61 3.61 0 0 0-3.14-.45c-1.11.29-1.76 1.24-2.53 2.33l-.15.21z"/><path d="M452.79 92.59c.08-1.77.12-3.55.26-5.32.5-6.34 4.28-10.2 10.64-10.46 5.13-.21 10.28-.23 15.41 0 6.57.3 10.46 4.51 10.51 11.15.07 9.88 0 19.76 0 29.64 0 4.12-.94 5.22-5.07 6.46h-26.4c-4.1-1.25-5-2.46-5.17-6.72-.09-3-.14-6.09-.21-9.14a74.15 74.15 0 0 0 .03-15.61z" fill="#828694"/><path d="M484.75 125.52l-27-.06c-4.67-1.42-6-3.16-6.2-8.05-.06-2.07-.1-4.17-.15-6.27l-.06-2.89a74.27 74.27 0 0 0 0-15.5v-.11l.06-1.64c.05-1.29.1-2.57.2-3.85.56-7.1 5.06-11.51 12-11.8 5.38-.22 10.61-.22 15.53 0 7.28.33 11.84 5.15 11.9 12.59v29.65c0 4.73-1.31 6.41-6.11 7.85zm-26.39-2.91h26c3.39-1 3.83-1.64 3.83-5V87.98c0-5.91-3.37-9.44-9.12-9.7-4.84-.22-10-.22-15.28 0-5.52.22-8.8 3.46-9.25 9.11-.1 1.24-.15 2.49-.19 3.74l-.06 1.42a75.77 75.77 0 0 1 0 15.82l.07 2.71c0 2.09.09 4.18.15 6.23.06 3.57.55 4.27 3.85 5.29z"/><path d="M463.44 234v-95.85c0-1.28-.13-2.56-.21-3.84h16.31c-.08 1.28-.23 2.56-.23 3.83V234z" fill="#828694"/><path d="M480.77 235.43H462v-97.28c0-.89-.07-1.78-.13-2.68l-.17-2.62h19.41l-.19 2.79c-.07.83-.13 1.66-.13 2.49zm-15.87-2.92h13v-94.37c0-.79.05-1.58.11-2.37h-13.22c.06.79.1 1.59.1 2.38z"/><path d="M276.83 275.64c0-10.38-.12-20.75-.12-31.12 0-13 0-26.08.08-39.13 3.16.74 6.37 1.31 9.47 2.26a8 8 0 0 1 5.93 6.73v52.32a7.56 7.56 0 0 1-6 6.76c-3.09.82-6.24 1.46-9.36 2.18z" fill="#828694"/><path d="M275.37 277.47v-1.83q0-7.78-.06-15.56t-.06-15.57c0-13 0-26.09.08-39.14v-1.83l1.78.42c1 .23 1.94.44 2.92.65 2.19.47 4.45 1 6.64 1.64a9.37 9.37 0 0 1 6.95 7.93v52.52a9.09 9.09 0 0 1-7.16 8.18c-2.07.55-4.25 1-6.43 1.52zm2.86-70.27c-.07 12.44-.07 24.92-.07 37.31q0 7.78.06 15.55c0 4.58.05 9.17.06 13.75l1.13-.25c2.14-.48 4.28-1 6.4-1.51a6.17 6.17 0 0 0 4.92-5.48v-52.2a6.48 6.48 0 0 0-4.84-5.32c-2.14-.66-4.34-1.13-6.47-1.59z"/><path d="M479.66 255.25c3.15 0 6.3-.17 9.44-.08 4 .11 5.78 2 5.84 6.15V269c0 4.75-.74 5.74-5.27 7.22H474c-3.64 0-7.28 0-10.91-.18a10.3 10.3 0 0 1-10-10.59v-.06c.08-5.7 4.18-9.81 10.09-10.11z" fill="#3053be"/><path d="M489.9 277.68H474c-3.6 0-7.32 0-11-.18a11.76 11.76 0 0 1-11.38-12.08c.09-6.49 4.81-11.24 11.47-11.58h16.54c1.24 0 2.47 0 3.7-.05 1.93 0 3.86-.08 5.78 0 4.74.13 7.18 2.68 7.25 7.58V269c0 5.39-1.11 6.92-6.27 8.61zm-10.24-21H463.2c-5.07.26-8.57 3.75-8.63 8.67a8.84 8.84 0 0 0 8.58 9.17c3.62.18 7.31.18 10.87.18h15.42c3.74-1.24 4-1.73 4-5.76v-7.68c0-3.37-1.2-4.6-4.42-4.69-1.87-.06-3.75 0-5.64 0-1.25 0-2.51.05-3.76.05z"/><path d="M313.05 209.05v62.9c-1.58 0-3.16.07-4.74 0-3.18-.12-5.15-2.11-5.44-5.38v-52.12c.61-3.62 2.28-5.22 5.79-5.42 1.44-.03 2.92-.03 4.39.02z" fill="#d4dbeb"/><path d="M309.89 273.44h-1.64c-3.91-.15-6.47-2.66-6.83-6.71v-52.28c.74-4.53 3-6.63 7.16-6.87 1-.06 2 0 3.07 0h2.86v65.8h-3zm.08-63h-1.23c-2.81.16-3.93 1.22-4.43 4.21v51.88a3.92 3.92 0 0 0 4 3.92h3.22v-60z"/><path d="M302.83 214.46v52.12l-10.68.13v-52.33z" fill="#484857"/><path d="M290.7 268.18v-55.27l13.59.1v55zm2.91-52.33v49.39l7.76-.1v-49.23z"/><path d="M479.53 134.3h-16.31c-2.94-.15-4.49-1.85-4.84-4.62-.23-1.85-.17-3.73-.24-5.6h26.41c-.08 1.86-.06 3.74-.26 5.59-.29 2.78-1.84 4.46-4.76 4.63z" fill="#3053be"/><path d="M479.57 135.76h-16.35c-3.62-.18-5.83-2.27-6.28-5.89a36.83 36.83 0 0 1-.21-4v-1.69l-.05-1.51h29.44l-.12 3.24c0 1.32-.07 2.65-.21 4-.4 3.62-2.58 5.72-6.14 5.93zm-19.94-10.22v.24a34.23 34.23 0 0 0 .19 3.72c.28 2.21 1.35 3.24 3.47 3.34h16.19c2.09-.13 3.12-1.16 3.37-3.33.13-1.23.16-2.47.2-3.71v-.26z"/><path d="M463.44 234h15.82c4.17 1.38 5.69 3.48 4.92 6.69-.62 2.61-2.64 3.47-4.91 4.07h-15.84c-4.34-1.42-6-4-4.77-7.26.83-2.24 2.75-2.97 4.78-3.5z" fill="#5d668a"/><path d="M479.46 246.18l-16.46-.07c-2.84-.93-4.73-2.34-5.62-4.2a6.21 6.21 0 0 1-.06-5c1.18-3.13 4.16-3.95 5.75-4.39l.39-.05 16.28.07c4.86 1.61 6.83 4.43 5.88 8.41-.9 3.8-4.31 4.7-6 5.14zm-15.79-2.91h15.41c2.07-.57 3.28-1.23 3.68-2.95s.44-3.45-3.74-4.9h-15.38c-1.93.55-3.08 1.14-3.61 2.55a3.3 3.3 0 0 0 0 2.68c.46 1.06 1.74 1.96 3.64 2.62z"/><path d="M452.79 92.59a74.15 74.15 0 0 1 0 15.64l-11-.09c1.58-5.63.26-10.72-2.93-15.45z" fill="#484857"/><path d="M454.1 109.7l-14.22-.12.52-1.83c1.36-4.84.46-9.5-2.73-14.24l-1.52-2.25 18-.13.14 1.31a75.42 75.42 0 0 1 0 15.95zm-10.48-3l7.85.07a72.85 72.85 0 0 0 0-12.7l-10 .07a18.58 18.58 0 0 1 2.16 12.55z"/><path d="M463.43 244.73h15.84c.21 3.51-.38 7 .34 10.53h-16.43c.53-3.5.1-7.03.25-10.53z" fill="#3053be"/><path d="M481.39 256.71h-19.91l.26-1.68a37.14 37.14 0 0 0 .23-6.3c0-1.36-.05-2.71 0-4.07l.06-1.39h18.61l.08 1.37c.08 1.37 0 2.73 0 4.1A27 27 0 0 0 481 255zm-16.58-2.91h13.1a38.36 38.36 0 0 1-.09-5.13v-2.48h-13v2.49c.09 1.67.13 3.39-.01 5.12z"/><path d="M360.45 225A15.16 15.16 0 0 1 376 239.76v.75a15.55 15.55 0 0 1-15.3 15.78h-.15a16.08 16.08 0 0 1-15.88-15.87A15.55 15.55 0 0 1 360.29 225z" fill="#6f7487"/><path d="M360.7 257.76a17.48 17.48 0 0 1-17.51-17.3 17 17 0 0 1 17-16.93h.11l.15 1.46v-1.46a16.62 16.62 0 0 1 17 16.2v.82a17 17 0 0 1-16.74 17.21zm-.46-31.31a14.12 14.12 0 0 0-14.14 14 14.53 14.53 0 0 0 14.44 14.4 14.09 14.09 0 0 0 14-14.31v-.74a13.7 13.7 0 0 0-14-13.35h-.25z"/><path d="M249.75 175.71V301c4.95 0 9.9-.1 14.85.1 2.41.1 3-.73 3-3q-.11-41.71 0-83.43c0-12-.06-24 0-35.92 0-2.32-.59-3.1-3-3-4.94.1-9.94-.04-14.85-.04z" fill="#777"/><path d="M265 304h-.5c-3.65-.15-7.39-.13-11-.11h-6.64v-131.1h8c3.24 0 6.49.07 9.73 0a5.91 5.91 0 0 1 4.45 1.35 6 6 0 0 1 1.54 4.56c-.08 8.85-.07 17.71-.06 26.58v9.34c-.07 27.69-.07 55.75 0 83.42a6 6 0 0 1-1.55 4.56A5.56 5.56 0 0 1 265 304zm-7.83-6c2.49 0 5 0 7.53.13v-.09c-.07-27.67-.07-55.75 0-83.44v-9.32c0-8.89 0-17.77.06-26.62v-.06c-3.34.09-6.65.06-9.95 0h-2.12V298h4.49z" fill="#444"/><path d="M207.56 319.27h-94c4.2 19.74 25.76 36.06 46.88 35.54h.23c21.11.51 42.69-15.81 46.89-35.54z" fill="#777"/><path d="M159.56 357.73c-22.25 0-44.42-17.12-48.83-37.86l-.75-3.52h101.18l-.75 3.52c-4.49 21.06-27.31 38.43-49.79 37.85zm-42.18-35.55c5.57 16.87 24.44 30.14 43 29.71h.3c18.42.4 37.47-13.09 43.05-29.71z" fill="#444"/><path d="M185.05 175.47c-8.14.2-16.29.12-24.42.13h-.51c-8.14 0-16.29.07-24.42-.13-2.66-.07-3 .91-2.74 3.17 1.61 13.84 12.79 24 27.12 24.62h.58c14.34-.66 25.5-10.79 27.12-24.62.28-2.26-.1-3.23-2.73-3.17z" fill="#717588"/><path d="M472.48 341h-43.73c-1.12 0-1.46-.21-1.46-1.41q.07-27.83 0-55.68c0-1.11.31-1.35 1.38-1.35h87.72c1.06 0 1.39.22 1.39 1.35q-.06 27.9 0 55.81c0 1.06-.31 1.29-1.32 1.28h-43.98zm23.57-32.24h8c.64 0 .93-.1.92-.84v-6.95c0-.81-.31-.91-1-.91h-15.85c-.87 0-1 .32-1 1.07v6.55c0 .84.18 1.12 1.07 1.1 2.62-.04 5.24 0 7.86 0zm-23.64 17.67h7.86c.76 0 1.09-.12 1.06-1q-.09-3.4 0-6.81c0-.87-.32-1-1.07-1H464.8c-.75 0-1.09.12-1.06 1q.09 3.4 0 6.81c0 .87.32 1 1.07 1 2.54-.01 5.07.02 7.6.02zm23.46 0h7.87c.74 0 1.1-.1 1.07-1-.06-2.27 0-4.55 0-6.82 0-.81-.24-1-1-1h-15.73c-.71 0-1 .15-1 .93q.07 3.47 0 7c0 .75.22 1 1 1 2.58-.13 5.18-.1 7.81-.1z" fill="#d4dbeb"/><path d="M516.52 342.48h-87.77c-1.25 0-2.92-.3-2.92-2.87q.07-27.83 0-55.67c0-1.89.93-2.81 2.84-2.81h87.72c1.92 0 2.85.92 2.85 2.81q-.06 27.9 0 55.8a2.76 2.76 0 0 1-.7 2.06 2.71 2.71 0 0 1-2.02.68zm-87.77-2.91h87.56v-55.52h-87.56q.07 27.75 0 55.52zM488.14 328a2.25 2.25 0 0 1-2.52-2.45v-7a2.2 2.2 0 0 1 2.46-2.42h15.74a2.22 2.22 0 0 1 2.46 2.46c0 2.28-.06 4.53 0 6.78a2.48 2.48 0 0 1-.6 1.84 2.54 2.54 0 0 1-1.93.66h-9.07c-2.2 0-4.36 0-6.52.1zm.4-8.92v6c1.66-.06 3.23-.17 4.94-.07h9.86v-5.9zm-8.28 8.82h-15.39a2.23 2.23 0 0 1-2.54-2.46c.06-2.29.06-4.53 0-6.77a2.48 2.48 0 0 1 .6-1.84 2.54 2.54 0 0 1 1.92-.66h15.46a2.23 2.23 0 0 1 2.53 2.46c-.06 2.29-.06 4.53 0 6.77a2.48 2.48 0 0 1-.59 1.84 2.54 2.54 0 0 1-1.98.66zm-13.48-2.9h13.08v-5.89h-14.65v5.88zm21.32-14.72a2.45 2.45 0 0 1-1.78-.62 2.61 2.61 0 0 1-.66-1.94v-6.55a2.23 2.23 0 0 1 2.46-2.53H504a2.18 2.18 0 0 1 2.46 2.37v6.95a2.3 2.3 0 0 1-.59 1.68 2.37 2.37 0 0 1-1.78.61h-15.87zm.48-8.72v5.78h14.93v-5.78z"/><path d="M472.45 283.33h-58.57c-1.16 0-1.56-.24-1.54-1.49.08-5.3 0-10.59 0-15.89 0-2.27.63-2.94 2.94-3 1.39 0 2.78.18 4.18.18h103.48a58.49 58.49 0 0 1 7.83 0 1.93 1.93 0 0 1 1.91 1.94v17.34c0 .7-.26.94-.92.88h-1z" fill="#3053be"/><path d="M472.45 284.78h-58.57a2.6 2.6 0 0 1-3-3c.05-3.52 0-7 0-10.56v-5.3c0-3.08 1.26-4.38 4.36-4.46.76 0 1.48 0 2.2.09s1.33.09 2 .09h103.5a60.38 60.38 0 0 1 7.93 0 3.31 3.31 0 0 1 2.3 1 3.35 3.35 0 0 1 1 2.4v17.32a2.15 2.15 0 0 1-2.51 2.33h-.92zm-58.65-2.91h117.42V265.2c0-.4-.2-.61-.46-.61a58.25 58.25 0 0 0-7.72 0H419.46c-.73 0-1.46 0-2.19-.09s-1.33-.09-2-.09c-1.48 0-1.48.07-1.48 1.54v15.91z"/><path d="M496.05 308.78h-7.85c-.89 0-1.09-.26-1.07-1.1.06-2.18 0-4.37 0-6.55 0-.75.11-1.08 1-1.07H504c.69 0 1 .1 1 .91v6.95c0 .74-.28.85-.92.84z" fill="#1f1f1f"/><path d="M472.41 326.45h-7.6c-.75 0-1.09-.11-1.07-1q.09-3.4 0-6.81c0-.87.31-1 1.06-1h15.46c.75 0 1.09.11 1.07 1q-.09 3.4 0 6.81c0 .87-.31 1-1.06 1-2.61-.03-5.27 0-7.86 0z" fill="#212121"/><path d="M495.88 326.46H488c-.74 0-1-.2-1-1q.07-3.47 0-7c0-.78.28-.93 1-.93h15.74c.8 0 1.06.22 1 1 0 2.27-.06 4.55 0 6.82 0 .88-.33 1-1.07 1-2.55.08-5.17.11-7.79.11z" fill="#252121"/><path d="M472.53 339.9h43.84c1.15 0 1.48.27 1.46 1.44-.07 4.38 0 8.75 0 13.13a2.8 2.8 0 0 1-2.72 2.88h-84.69a10.17 10.17 0 0 1-1.56-.09 1.71 1.71 0 0 1-1.6-1.72 22.61 22.61 0 0 1-.17-3V341.9c0-2.15-.25-1.92 1.86-1.92z" fill="#3053be"/><path d="M430.24 358.81a12.26 12.26 0 0 1-1.57-.11 3.14 3.14 0 0 1-2.87-3.18 21.55 21.55 0 0 1-.17-3v-11.21a2.77 2.77 0 0 1 .57-2.21 2.69 2.69 0 0 1 2.22-.58h.58l87.42-.08a3 3 0 0 1 2.22.73 2.91 2.91 0 0 1 .69 2.19v13.11a4.26 4.26 0 0 1-4.14 4.33h-84.95zm-1.69-17.37v11.1a21.67 21.67 0 0 0 .16 2.82c0 .32.11.43.25.44a9.21 9.21 0 0 0 1.44.09H515a1.39 1.39 0 0 0 1-.42 1.33 1.33 0 0 0 .36-1v-13.11z"/><rect x="436.75" y="392.52" width="79.29" height="10.36" rx="1.02" ry="1.02" transform="rotate(-18.74 476.29 397.635)" fill="#454545"/><path d="M443.75 415.41a6.64 6.64 0 0 1-2.13-12.92l65.29-22.14a6.64 6.64 0 1 1 4.26 12.57l-65.28 22.14a6.65 6.65 0 0 1-2.14.35zM509 382.9a3.73 3.73 0 0 0-1.2.2l-65.28 22.14a3.72 3.72 0 1 0 2.39 7l65.29-22.14a3.72 3.72 0 0 0-1.2-7.25z"/><rect x="445.83" y="425.04" width="58.1" height="9.12" rx=".9" ry=".9" transform="rotate(-18.74 474.767 429.506)" fill="#454545"/><path d="M451.69 443.48a6 6 0 0 1-1.93-11.72L496.15 416a6 6 0 0 1 7.63 3.77 6 6 0 0 1-3.77 7.63l-46.39 15.73a6 6 0 0 1-1.93.35zm46.39-24.85a3.12 3.12 0 0 0-1 .17l-46.39 15.73a3.1 3.1 0 0 0-.37 5.72 3.11 3.11 0 0 0 2.37.15l46.39-15.73a3.1 3.1 0 0 0-1-6z"/><rect x="456.05" y="457.55" width="35.04" height="9.06" rx=".89" ry=".89" transform="rotate(-18.74 473.45 462.002)" fill="#454545"/><path d="M461.27 472.24a6 6 0 0 1-1.92-11.65l24.6-8.35a6 6 0 0 1 3.84 11.34l-24.6 8.34a6 6 0 0 1-1.92.32zm24.61-17.41a3.05 3.05 0 0 0-1 .17l-24.6 8.35a3.07 3.07 0 1 0 2 5.81l24.6-8.34a3.07 3.07 0 0 0-1-6z"/><path d="M359.88 207.54l39.67-79.77c4.3-8.66 8.61-17.28 12.93-26 4.73-9.54 9-12.05 19.45-11.28 5.33 2 9.34 5.43 11.29 10.94 1.14 4.87 0 9.32-2.15 13.75q-25.73 51.44-51.34 103c-.49 1-1.16 2-1.72 3.1a2 2 0 0 1-1.7-1 34 34 0 0 0-13.51-9.75c-4.17-1.78-8.6-2.12-12.92-2.99zm61.73-97c2.36 3.23 7.82 4.15 10.93 1.86 3.33-2.44 4.3-7.93 1.92-11.15s-7.86-4-11-1.85a8.41 8.41 0 0 0-1.86 11.16z" fill="#3053be"/><path d="M388.88 222.73H388a3.48 3.48 0 0 1-3-1.73 32.65 32.65 0 0 0-12.79-9.14 39.18 39.18 0 0 0-9.07-2.26c-1.2-.2-2.4-.4-3.6-.64l-1.86-.38 53.44-107.44c5-10.08 9.88-12.9 20.86-12.09l.41.09c6.19 2.35 10.16 6.22 12.15 11.81 1.15 4.86.43 9.54-2.21 14.89q-25.74 51.45-51.34 103c-.29.61-.65 1.24-1 1.86-.24.42-.49.84-.71 1.27zM362 206.46l1.63.28a42 42 0 0 1 9.7 2.44 35.53 35.53 0 0 1 14.05 10.15l.07-.13c.32-.56.65-1.11.92-1.67Q414 166 439.76 114.56c2.35-4.77 3-8.71 2-12.77-1.62-4.53-5-7.8-10.2-9.83-9.68-.67-13.36 1.51-17.82 10.49zm66.26-91.31a10.46 10.46 0 0 1-1.62-.13 9.51 9.51 0 0 1-6.26-3.6v-.07a9.83 9.83 0 0 1 2.19-13.07c3.87-2.71 10.31-1.62 13.07 2.13a9.1 9.1 0 0 1 1.48 6.76 9.74 9.74 0 0 1-3.71 6.43 8.58 8.58 0 0 1-5.1 1.55zm-5.5-5.41a6.69 6.69 0 0 0 4.33 2.4 6.12 6.12 0 0 0 4.54-.89 6.92 6.92 0 0 0 2.56-4.52 6.18 6.18 0 0 0-.94-4.58c-1.81-2.46-6.51-3.26-9-1.53a6.91 6.91 0 0 0-1.44 9.12z"/><path d="M382.46 210.89c3 3.21 6.45 6 8.84 9.83a34 34 0 0 1 5.41 15.76 2 2 0 0 0 .82 1.79c-.76 3.47-.52 7-1.35 10.53a36.5 36.5 0 0 1-34.7 28.39c-14 .3-28.05.11-42.08.08-3.68 0-5-1.21-6.36-5.32v-62.9c1.46-4.3 2.76-5.25 7.36-5.25 13 0 25.92.06 38.89 0 8.52-.1 16.09 2.64 23.17 7.09zm-22 55.74A25.83 25.83 0 0 0 386.55 241v-.51c0-14.84-11.26-26-26.09-26.08A25.8 25.8 0 0 0 334.38 240v.26a25.81 25.81 0 0 0 26.05 26.38z" fill="#828694"/><path d="M343.46 278.81h-24.07c-4.77 0-6.35-2.13-7.74-6.32l-.07-.46.08-63.37c1.66-4.9 3.54-6.24 8.74-6.24h38.9c8-.06 16 2.3 24 7.31l.29.24c.86.92 1.76 1.81 2.67 2.7a40.79 40.79 0 0 1 6.34 7.35 35.46 35.46 0 0 1 5.62 16.41c0 .43.07.62.22.73l.77.56-.2.93a35.6 35.6 0 0 0-.61 4.88 36.6 36.6 0 0 1-.75 5.67 37.92 37.92 0 0 1-36.09 29.52c-6.04.05-12.09.09-18.1.09zm-29-7.1c1.22 3.58 2.17 4.1 4.9 4.1h10.3c10.42.05 21.19.11 31.75-.12a35 35 0 0 0 33.31-27.26 34.41 34.41 0 0 0 .68-5.25 44.48 44.48 0 0 1 .51-4.49 3.47 3.47 0 0 1-.69-2.38 32.68 32.68 0 0 0-5.18-14.83 38.19 38.19 0 0 0-5.93-6.84c-.88-.87-1.77-1.74-2.62-2.64-7.43-4.64-14.63-7-22.22-6.77h-38.92c-3.86 0-4.68.54-5.9 4zm46.22-3.62h-.28a27.31 27.31 0 0 1-19.52-8 27.72 27.72 0 0 1-8-19.87v-.3a27.07 27.07 0 0 1 8.18-19.16 27.66 27.66 0 0 1 19.41-7.76c15.64 0 27.48 11.88 27.54 27.54v.54a27.32 27.32 0 0 1-27.3 27.01zm-.53-52.18A24.35 24.35 0 0 0 335.84 240a25 25 0 0 0 7.16 18 24.42 24.42 0 0 0 17.46 7.12h.28A24.4 24.4 0 0 0 385.09 241v-.47c0-14-10.64-24.62-24.64-24.65z"/><path d="M360.43 266.63c-14.71 0-26.11-11.52-26.08-26.37a25.8 25.8 0 0 1 25.81-25.8h.26c14.84 0 26 11.25 26.09 26.08a25.83 25.83 0 0 1-25.58 26.08zm0-41.64a15.55 15.55 0 0 0-15.78 15.3v.14a16.08 16.08 0 0 0 15.86 15.86A15.55 15.55 0 0 0 376 240.66v-.15A15.16 15.16 0 0 0 361.17 225h-.74z" fill="#3053be"/><path d="M360.43 268.09a27.34 27.34 0 0 1-19.52-8 27.78 27.78 0 0 1-8-19.87A27.29 27.29 0 0 1 360.16 213c15.86 0 27.71 11.84 27.81 27.53a27.29 27.29 0 0 1-27 27.55zm0-52.17a24.43 24.43 0 0 0-24.6 24.34 24.9 24.9 0 0 0 7.17 17.8 24.45 24.45 0 0 0 17.46 7.11h.5a24.4 24.4 0 0 0 24.12-24.61c-.09-14.05-10.69-24.64-24.64-24.64zm.1 41.83a17.45 17.45 0 0 1-17.32-17.29 17 17 0 0 1 5.17-12.13 17.51 17.51 0 0 1 12.09-4.79h.76a16.64 16.64 0 0 1 16.21 17 17 17 0 0 1-16.93 17.21zm-.33-31.31a14.09 14.09 0 0 0-14.08 13.87 14.56 14.56 0 0 0 14.42 14.52 14.08 14.08 0 0 0 14-14.17 13.77 13.77 0 0 0-13.37-14.22h-1z"/><path fill="#282828" d="M48.95 450.05l93.72-101.91 25.77-3.01 81.6 78.69-18.95 51-167.56-1.46-14.58-23.31z"/><path d="M234.13 479.21l-173-1.5-17.65-28.17L140.55 344l29.45-3.45 85.15 82.11zM66 469l162.1 1.41L244.94 425l-78-75.26-22.1 2.58-90.41 98.23z"/><path d="M84.9 417.5a30.6 30.6 0 1 0 30.6 30.6 30.6 30.6 0 0 0-30.6-30.6zm0 45.17a14.57 14.57 0 1 1 14.57-14.57 14.57 14.57 0 0 1-14.57 14.58z" fill="#828694"/><path d="M84.9 480.16A32.06 32.06 0 1 1 117 448.1a32.09 32.09 0 0 1-32.1 32.06zm0-61.2A29.14 29.14 0 1 0 114 448.1 29.18 29.18 0 0 0 84.9 419zm0 45.17a16 16 0 1 1 16-16 16 16 0 0 1-16 16zm0-29.14A13.11 13.11 0 1 0 98 448.1 13.13 13.13 0 0 0 84.9 435z"/><path d="M122.72 389.21a23.13 23.13 0 1 0 23.13 23.13 23.13 23.13 0 0 0-23.13-23.13zm0 34.15a11 11 0 1 1 11-11 11 11 0 0 1-11 11z" fill="#828694"/><path d="M122.72 436.93a24.59 24.59 0 1 1 24.59-24.59 24.62 24.62 0 0 1-24.59 24.59zm0-46.26a21.67 21.67 0 1 0 21.67 21.67 21.7 21.7 0 0 0-21.67-21.67zm0 34.15a12.47 12.47 0 1 1 12.47-12.47 12.49 12.49 0 0 1-12.47 12.46zm0-22a9.56 9.56 0 1 0 9.56 9.56 9.57 9.57 0 0 0-9.56-9.59z"/><path d="M138.39 435.48a21.31 21.31 0 1 0 21.31 21.31 21.31 21.31 0 0 0-21.31-21.31zm0 31.46a10.15 10.15 0 1 1 10.15-10.15 10.15 10.15 0 0 1-10.15 10.14z" fill="#828694"/><path d="M138.39 479.55a22.77 22.77 0 1 1 22.77-22.77 22.79 22.79 0 0 1-22.77 22.77zm0-42.62a19.85 19.85 0 1 0 19.85 19.85 19.87 19.87 0 0 0-19.85-19.85zm0 31.46a11.61 11.61 0 1 1 11.61-11.6 11.62 11.62 0 0 1-11.61 11.6zm0-20.3a8.69 8.69 0 1 0 8.69 8.69 8.7 8.7 0 0 0-8.69-8.69z"/><circle cx="160.18" cy="377.68" r="8.74" fill="#f9f9f9"/><path d="M160.18 387.51a9.84 9.84 0 1 1 9.84-9.84 9.85 9.85 0 0 1-9.84 9.84zm0-17.49a7.65 7.65 0 1 0 7.65 7.65 7.66 7.66 0 0 0-7.65-7.67z"/><circle cx="84.9" cy="448.1" r="8.74" fill="#f9f9f9"/><path d="M84.9 457.94a9.84 9.84 0 1 1 9.84-9.84 9.85 9.85 0 0 1-9.84 9.84zm0-17.49a7.65 7.65 0 1 0 7.65 7.65 7.66 7.66 0 0 0-7.65-7.65z"/><circle cx="213.85" cy="435.72" r="10.2" fill="#f9f9f9"/><path d="M213.85 447a11.29 11.29 0 1 1 11.29-11.29A11.31 11.31 0 0 1 213.85 447zm0-20.4a9.11 9.11 0 1 0 9.11 9.11 9.12 9.12 0 0 0-9.11-9.1z"/><circle cx="122.72" cy="412.34" r="6.03" transform="rotate(-45 122.72 412.348)" fill="#f9f9f9"/><path d="M122.72 419.47a7.12 7.12 0 1 1 5-2.08 7.11 7.11 0 0 1-5 2.08zm0-12.06a4.94 4.94 0 1 0 3.49 1.45 4.91 4.91 0 0 0-3.49-1.45z"/><circle cx="138.39" cy="456.79" r="5.56" transform="rotate(-45 138.384 456.78)" fill="#f9f9f9"/><path d="M138.39 463.43a6.65 6.65 0 1 1 4.7-1.94 6.64 6.64 0 0 1-4.7 1.94zm0-11.11a4.46 4.46 0 1 0 3.16 1.31 4.44 4.44 0 0 0-3.16-1.31z"/><path d="M171.72 453a8.38 8.38 0 1 0 8.38 8.38 8.38 8.38 0 0 0-8.38-8.38zm0 12.37a4 4 0 1 1 4-4 4 4 0 0 1-4 3.96z" fill="#828694"/><path d="M171.72 471.17a9.84 9.84 0 1 1 9.84-9.84 9.85 9.85 0 0 1-9.84 9.84zm0-16.76a6.92 6.92 0 1 0 6.92 6.92 6.93 6.93 0 0 0-6.92-6.91zm0 12.37a5.45 5.45 0 1 1 5.45-5.45 5.45 5.45 0 0 1-5.45 5.46zm0-8a2.53 2.53 0 1 0 2.53 2.53 2.53 2.53 0 0 0-2.53-2.5z"/><path d="M194.67 382.29a11.66 11.66 0 1 0 11.66 11.66 11.66 11.66 0 0 0-11.66-11.66zm0 17.21a5.55 5.55 0 1 1 5.55-5.55 5.55 5.55 0 0 1-5.55 5.55z" fill="#828694"/><path d="M194.67 407.06a13.11 13.11 0 1 1 13.11-13.11 13.13 13.13 0 0 1-13.11 13.11zm0-23.31a10.2 10.2 0 1 0 10.2 10.2 10.21 10.21 0 0 0-10.2-10.2zm0 17.21a7 7 0 1 1 7-7 7 7 0 0 1-7 7.04zm0-11.1a4.09 4.09 0 1 0 4.09 4.09 4.1 4.1 0 0 0-4.09-4.09z"/><circle cx="194.67" cy="393.95" r="3.04" transform="rotate(-45 194.66 393.95)" fill="#f9f9f9"/><path d="M194.67 398.08a4.13 4.13 0 1 1 2.93-1.21 4.13 4.13 0 0 1-2.93 1.21zm0-6.08a1.95 1.95 0 1 0 1.38.57 1.95 1.95 0 0 0-1.38-.57z"/><path d="M249.76 301.34V176.08c0-11.29.21-22.57-.09-33.85-.27-10-1.29-20-4.55-29.65A91.64 91.64 0 0 0 226.89 81c-13.77-15.66-31.07-24.89-51.35-28.9-3.15-.62-6.42-.4-9.54-1.32h-11.31c-3.11.92-6.39.7-9.54 1.32-20.28 4-37.57 13.25-51.35 28.9a91.64 91.64 0 0 0-18.23 31.55c-3.26 9.64-4.28 19.62-4.55 29.65-.3 11.28-.08 22.56-.09 33.85v125.29c0 4.95.15 9.9 0 14.84-.09 2.53.77 3.14 3.19 3.12 13.16-.1 26.31 0 39.47 0h93.55c13.16 0 26.31-.07 39.47 0 2.42 0 3.29-.6 3.19-3.12-.2-4.94-.05-9.9-.04-14.84zM118.57 122.26h83.52c1.75 0 2.69.22 2.65 2.38q-.2 11.13 0 22.27c0 2.12-.84 2.41-2.63 2.4-13.82-.06-27.62 0-41.44-.06H160q-20.73 0-41.44.06c-1.79 0-2.66-.28-2.63-2.4q.19-11.13 0-22.27c-.05-2.16.89-2.39 2.64-2.38zm-11.63 152.11a13.43 13.43 0 1 1 13.36-13.5v.13a13.32 13.32 0 0 1-13.3 13.37zm53.4 0c-10.71-.76-15.13-10.73-12.22-18.09 1.83-4.64 5.13-7.63 10.24-8.34a14.94 14.94 0 0 0 2-.5 14.94 14.94 0 0 0 2 .5c5.11.71 8.4 3.7 10.24 8.34 2.88 7.4-1.55 17.37-12.25 18.12zm26.34-95.31c-1.56 13.4-12.43 23.18-26.34 23.7-13.92-.52-24.78-10.32-26.34-23.7-.25-2.18.07-3.12 2.64-3 7.9.19 15.81.11 23.7.13s15.81.06 23.71-.13c2.56-.12 2.89.81 2.63 3zm27.05 95.32a13.32 13.32 0 0 1-13.36-13.28v-.09a13.36 13.36 0 1 1 13.3 13.36z" fill="#bcbcbc"/><path d="M74 322.21a5.28 5.28 0 0 1-6-6.14c.1-3.22.06-6.54 0-9.75V165.75c0-7.73-.09-15.72.12-23.6.34-12.48 1.79-21.89 4.7-30.51a94 94 0 0 1 18.8-32.55c13.69-15.56 31.52-25.6 53-29.83a39.18 39.18 0 0 1 4.38-.53 24.49 24.49 0 0 0 4.89-.72l.83-.12 12.14.12a24.61 24.61 0 0 0 4.9.72 39.3 39.3 0 0 1 4.38.53c21.47 4.25 39.3 14.28 53 29.84a94 94 0 0 1 18.8 32.55c2.91 8.64 4.37 18 4.7 30.5.21 8 .17 16.19.13 24.08v139.33c0 3.45-.07 7 .08 10.5a6 6 0 0 1-1.39 4.58 6.24 6.24 0 0 1-4.71 1.58H74.15zm-.16-5.83h.26c8.78-.07 17.56 0 26.34 0H246.9v-.09c-.15-3.61-.12-7.26-.08-10.79V166.2c0-7.84.09-15.95-.13-23.89-.32-11.84-1.67-20.73-4.39-28.8a88.29 88.29 0 0 0-17.65-30.55C211.71 68.17 195.45 59 175 55a33.45 33.45 0 0 0-3.73-.44 31.2 31.2 0 0 1-5.64-.82h-10.54a31.13 31.13 0 0 1-5.64.82 33.48 33.48 0 0 0-3.73.44C125.27 59 109 68.16 96 82.94a88.24 88.24 0 0 0-17.66 30.56c-2.72 8-4.08 16.93-4.4 28.8-.21 7.79-.17 15.73-.12 23.42v140.54c0 3.27.07 6.65 0 10 .03.04.03.08.03.12zm84.38-38.92l-.13-.44a16.26 16.26 0 0 1-11.25-7.38 16.1 16.1 0 0 1-1.43-14.44c2.3-5.82 6.63-9.33 12.54-10.15a11.59 11.59 0 0 0 1.5-.39l.9-.29.9.29a11.58 11.58 0 0 0 1.6.4c5.79.8 10.13 4.31 12.44 10.13a16.22 16.22 0 0 1-1.48 14.51 16.59 16.59 0 0 1-13.27 7.58zm2.13-27q-.74.2-1.49.33c-4 .55-6.49 2.63-8 6.54a10.39 10.39 0 0 0 .94 9.19 9.95 9.95 0 0 0 17.13.06 10.51 10.51 0 0 0 1-9.26c-1.55-3.9-4.07-6-7.93-6.51-.62-.08-1.14-.2-1.64-.33zm53.34 26.81a16.25 16.25 0 0 1-16.23-16.18 16.27 16.27 0 1 1 16.28 16.17h-.05zm0-26.85a10.59 10.59 0 0 0-10.4 10.58 10.44 10.44 0 0 0 10.38 10.46 10.51 10.51 0 0 0 0-21zm-106.82 26.86a16.34 16.34 0 0 1-.09-32.68h.09a16.34 16.34 0 0 1 .17 32.68l-.1-2.91v2.91zm0-26.85h-.06a10.51 10.51 0 0 0 .05 21h.14A10.41 10.41 0 0 0 117.38 261a10.51 10.51 0 0 0-10.51-10.58zm53.57-44.75c-15.63-.57-27.61-11.38-29.35-26.28-.12-1-.37-3.18 1.09-4.78a5.72 5.72 0 0 1 4.52-1.52c5.65.14 11.44.13 17 .13h8.49c7.14 0 14.51 0 21.75-.14a5.65 5.65 0 0 1 4.51 1.53c1.46 1.6 1.2 3.75 1.08 4.78-1.69 14.89-13.67 25.7-29.09 26.27zm-23.53-26.74c1.48 11.86 11.13 20.46 23.53 20.92 12.19-.46 21.83-9.06 23.32-20.92-7.21.17-14.5.15-21.55.13h-8.47c-5.51-.07-11.2-.01-16.83-.14zm65.35-26.71h-.17c-13.8-.06-27.61 0-41.44-.06H160q-20.72 0-41.43.06a5.66 5.66 0 0 1-4.2-1.39 5.45 5.45 0 0 1-1.34-4c.13-7.36.13-14.81 0-22.17a5.46 5.46 0 0 1 1.37-4 5.58 5.58 0 0 1 4.23-1.36c13.79 0 27.6 0 41.4.05h.71q20.69 0 41.39-.05a5.62 5.62 0 0 1 4.23 1.39 5.41 5.41 0 0 1 1.33 4c-.13 7.35-.13 14.8 0 22.16a5.55 5.55 0 0 1-1.38 4 5.48 5.48 0 0 1-4.04 1.36zm-83.46-27c.11 7 .11 14.17 0 21.22q20.55-.09 41.15-.06h.71c13.74.06 27.43 0 41.15.06-.12-7-.12-14.16 0-21.22q-20.55.08-41.13.05H160c-13.77-.1-27.48-.05-41.19-.11z" fill="#444"/><g clip-path="url(#a)"><path d="M193-383.42c72.09 574.1-4.12 967.53-4.12 967.53s2.24-982.17 4.12-967.53z" fill="#e2e2e2"/></g><path d="M209.24 120.86c0-2.76-1-3.05-2.85-3-15.08.06-30.15 0-45.23.06s-30.15 0-45.23-.06c-1.88 0-2.89.28-2.85 3q.21 14.19 0 28.39c0 2.7.9 3.08 2.83 3.06 15.08-.08 30.17 0 45.26-.08s30.17 0 45.26.08c1.92 0 2.86-.37 2.83-3.06q-.26-14.16-.02-28.39z" fill="#fff"/><path d="M115.81 153.78a4.19 4.19 0 0 1-3.12-1 4.88 4.88 0 0 1-1.08-3.55c.14-9.43.14-19 0-28.37a4.78 4.78 0 0 1 1-3.52 4.32 4.32 0 0 1 3.27-1h1c14.75.06 29.49.13 44.25.06 15.08-.06 30.15 0 45.23-.06a4.35 4.35 0 0 1 3.23 1 4.84 4.84 0 0 1 1.08 3.53c-.14 9.43-.14 19 0 28.35a4.82 4.82 0 0 1-1 3.54 4.29 4.29 0 0 1-3.24 1c-14.84-.08-30.17-.16-45.25-.08s-30.17 0-45.26.08zm.1-34.5c-1 0-1.16.1-1.19.13s-.21.24-.2 1.43c.14 9.43.14 19 0 28.44 0 1.22.22 1.45.22 1.45s.13.12 1.14.13c15.09-.08 30.18 0 45.26-.08s30.44 0 45.27.08c1 0 1.14-.13 1.16-.14s.22-.24.2-1.45c-.14-9.4-.14-19 0-28.42 0-1.21-.22-1.45-.22-1.45a3.18 3.18 0 0 0-1.16-.12c-15.09.06-30.16 0-45.24.06-14.75.07-29.51 0-44.27-.06z"/><path fill="#3053be" d="M175.72 147.08V133l-3.68 3.68-21.79 3.11-5.62-8.43-11.27 5.63-8.94-5.96-6.7 1.34-.56-2.86 7.87-1.58 8.54 5.7 12.05-6.03 6.04 9.05 19.01-2.71 7.97-7.98v15.06l12.69-10.16 10.83 1.55-.41 2.88-9.58-1.36-16.45 13.15z"/><path d="M199 261.87a14.71 14.71 0 0 0 14.64 14.78h.12A14.83 14.83 0 1 0 199 261.87z" fill="#777"/><path d="M213.79 279.56a17.62 17.62 0 0 1-17.69-17.7 17.7 17.7 0 1 1 17.69 17.7zm-.09-29.66a12 12 0 0 0-11.77 12 11.79 11.79 0 0 0 11.74 11.85 11.92 11.92 0 1 0 0-23.83z" fill="#444"/><circle cx="160.18" cy="377.68" r="2.91" transform="rotate(-18.74 160.151 377.59)"/><path d="M160.19 382a4.37 4.37 0 1 1 4.14-5.78 4.37 4.37 0 0 1-2.73 5.54 4.38 4.38 0 0 1-1.41.24zm0-5.83a1.4 1.4 0 0 0-.47.08 1.46 1.46 0 1 0 1.84.91 1.46 1.46 0 0 0-1.38-1z"/><circle cx="84.9" cy="448.1" r="2.91" transform="rotate(-18.74 84.876 448.027)"/><path d="M84.89 452.48a4.39 4.39 0 1 1 1.41-.23 4.34 4.34 0 0 1-1.41.23zm0-5.83a1.4 1.4 0 0 0-.47.08 1.46 1.46 0 0 0-.18 2.69 1.42 1.42 0 0 0 1.11.07 1.45 1.45 0 0 0 .91-1.84 1.46 1.46 0 0 0-1.38-1z"/><circle cx="213.85" cy="435.72" r="2.91" transform="rotate(-18.74 213.793 435.622)"/><path d="M213.85 440.09a4.39 4.39 0 1 1 1.41-.23 4.34 4.34 0 0 1-1.41.23zm0-5.83a1.4 1.4 0 0 0-.47.08 1.46 1.46 0 0 0-.18 2.69 1.41 1.41 0 0 0 1.11.07 1.45 1.45 0 0 0 .91-1.84 1.46 1.46 0 0 0-1.38-1z"/><path d="M213.85 398.56A37.16 37.16 0 1 0 251 435.72a37.16 37.16 0 0 0-37.15-37.16zm0 54.85a17.69 17.69 0 1 1 17.69-17.69 17.69 17.69 0 0 1-17.69 17.69z" fill="#828694"/><path d="M213.85 474.33a38.61 38.61 0 1 1 38.61-38.61 38.66 38.66 0 0 1-38.61 38.61zm0-74.31a35.7 35.7 0 1 0 35.7 35.7 35.74 35.74 0 0 0-35.7-35.72zm0 54.85A19.15 19.15 0 1 1 233 435.72a19.17 19.17 0 0 1-19.15 19.15zm0-35.39a16.24 16.24 0 1 0 16.24 16.24 16.25 16.25 0 0 0-16.24-16.24z"/><path d="M160.18 347.08a30.6 30.6 0 1 0 30.6 30.6 30.6 30.6 0 0 0-30.6-30.6zm0 45.17a14.57 14.57 0 1 1 14.57-14.57 14.57 14.57 0 0 1-14.57 14.57z" fill="#828694"/><path d="M160.18 409.73a32.06 32.06 0 1 1 32.06-32.06 32.09 32.09 0 0 1-32.06 32.06zm0-61.2a29.14 29.14 0 1 0 29.14 29.14 29.18 29.18 0 0 0-29.14-29.13zm0 45.17a16 16 0 1 1 16-16 16 16 0 0 1-16 16.01zm0-29.14a13.11 13.11 0 1 0 13.11 13.11 13.13 13.13 0 0 0-13.11-13.11z"/><path d="M253 412.16l-70-69.94c-11.66-11.66-29.14-11.66-40.8 0s-90.34 93.26-90.34 93.26c-20.4 20.4-11.66 40.8 8.74 43.71 20.4 0 116.57 2.91 157.37 0 52.47 0 52.47-49.54 35.03-67.03zm-45.54 54.34c-32.35 2.31-108.61 0-124.79 0-29.3-.43-35.13-9.17-6.93-34.66 0 0 62.56-64.54 71.64-73.95 10.91-11.3 19.65-11.3 32.35 0 9.76 8.69 41 42.18 55.46 55.46 19.22 17.75 13.81 53.16-27.78 53.16z" fill="#686a69"/><path d="M163.61 481.94c-26.84 0-55.79-.53-76.81-.91-11.88-.22-21.26-.39-26.18-.39-10.36-1.47-18-7.18-20.75-15.3-3.16-9.5.84-20.76 11-30.9.77-.8 78.81-81.72 90.34-93.26C153.4 329 171.83 329 184 341.19l70 69.94c9.22 9.22 14.65 28.66 7.78 45.24-3.75 9.07-14.43 24.27-43.78 24.27-13.6.98-33.35 1.3-54.39 1.3zm-102.2-4.19c4.9 0 14 .17 25.43.37 37.46.68 100.16 1.82 131-.38 20.6 0 35.19-8 41.19-22.48 6.4-15.45 1.39-33.52-7.15-42.07L182 343.25c-11-11-27.7-11-38.74 0-11.51 11.51-89.54 92.42-90.32 93.24-9.35 9.35-13.1 19.53-10.29 27.94 2.35 7 9.15 12 18.19 13.32zM164.27 469c-21.29 0-44.23-.42-60.89-.72-9.44-.17-16.85-.31-20.75-.31-15.83-.23-24.16-2.92-26.25-8.45-2.33-6.2 3.49-15.33 18.34-28.76 0 0 62.49-64.47 71.57-73.88 11.45-11.87 21.09-11.89 34.36-.07 4.77 4.24 14.62 14.35 25 25 11.32 11.61 23 23.61 30.43 30.43 10.09 9.29 13.78 23.43 9.2 35.18-5.08 13-18.88 20.48-37.86 20.5-10.78.81-26.42 1.08-43.15 1.08zm-81.62-4c3.89 0 11.32.13 20.78.31 29.7.54 79.4 1.45 103.88-.3h.1c17.74 0 30.57-6.79 35.2-18.64 4.16-10.64.76-23.49-8.46-32-7.46-6.88-19.2-18.91-30.54-30.55-10.39-10.66-20.21-20.72-24.9-24.9-12.08-10.75-20-10.77-30.33-.07-9.08 9.41-71.64 73.95-71.64 73.95-13.53 12.24-19.44 20.84-17.63 25.63 1.56 4.15 9.48 6.35 23.54 6.56z"/><path fill="#2b1c1c" stroke="#000" stroke-miterlimit="10" stroke-width=".5" d="M430.04 487.31l-10.16-25.41 10.16-20.33 31.45 8.57 9.07-14.66 15.37 21.34 25.41-15.25 15.24 10.17 5.08 35.57H430.04z"/></svg>