<svg data-name="Calque 1" xmlns="http://www.w3.org/2000/svg" viewBox="0 0 560 560"><defs><clipPath id="a"><path d="M250.6 300.78V174.93c0-11.34.21-22.68-.09-34-.27-10-1.3-20.09-4.57-29.79a92.07 92.07 0 0 0-18.31-31.7c-13.83-15.73-31.22-25-51.59-29-3.16-.62-6.45-.4-9.58-1.33h-11.37c-3.12.92-6.42.7-9.58 1.33-20.37 4-37.75 13.31-51.59 29a92.07 92.07 0 0 0-18.31 31.7c-3.27 9.68-4.3 19.71-4.57 29.79-.3 11.33-.08 22.67-.09 34v125.85c0 5 .15 9.94 0 14.91-.09 2.54.77 3.15 3.2 3.13 13.22-.1 26.44 0 39.65 0h94c13.22 0 26.44-.07 39.65 0 2.43 0 3.3-.6 3.2-3.13-.21-4.97-.06-9.95-.05-14.91zm-143.48-27.1a13.49 13.49 0 1 1 13.42-13.56v.13a13.38 13.38 0 0 1-13.33 13.43zm53.65 0c-10.76-.76-15.2-10.78-12.27-18.17 1.84-4.66 5.15-7.66 10.29-8.38a15 15 0 0 0 2-.5 15 15 0 0 0 2 .5c5.13.71 8.44 3.72 10.29 8.38 2.89 7.43-1.56 17.45-12.3 18.2zm26.47-95.75c-1.57 13.46-12.49 23.29-26.47 23.81-14-.52-24.9-10.37-26.47-23.81-.25-2.19.07-3.13 2.65-3.06 7.93.19 15.88.11 23.81.13s15.88.06 23.82-.13c2.58-.08 2.91.86 2.65 3.06zm27.18 95.76A13.38 13.38 0 0 1 201 260.35v-.09a13.42 13.42 0 1 1 13.36 13.42z" fill="none"/></clipPath></defs><title>robot_rouge</title><ellipse cx="154.65" cy="464.64" rx="129.04" ry="33.18" opacity=".4"/><path d="M423.43 104.59a8.45 8.45 0 0 1 8-8c3.85 0 7.88 4 7.94 7.88.07 4-3.91 8-8 8-3.92.04-7.88-3.89-7.94-7.88z" fill="#6f7487"/><path d="M432.8 364.73L465 473.07a8.69 8.69 0 0 0 16.6.19l34.93-108.35a8.69 8.69 0 0 0-8.27-11.36h-67.13a8.69 8.69 0 0 0-8.33 11.18z" fill="#454545"/><path d="M473.39 480.75h-.13a10 10 0 0 1-9.62-7.26L431.4 365.15a10.15 10.15 0 0 1 9.73-13.05h67.18a10.15 10.15 0 0 1 9.69 13.26l-35 108.35a10 10 0 0 1-9.61 7.04zm-39.18-116.44l32.25 108.35a7 7 0 0 0 6.84 5.16h.08a7 7 0 0 0 6.88-5l34.93-108.35a7.22 7.22 0 0 0-6.88-9.44h-67.18a7.22 7.22 0 0 0-6.92 9.29z"/><rect x="429.51" y="362.11" width="85.84" height="10.4" rx="1.02" ry="1.02" transform="rotate(-18.74 472.309 367.253)" fill="#454545"/><path d="M436.71 386.1a6.67 6.67 0 0 1-2.14-13L506 348.88a6.67 6.67 0 0 1 4.28 12.63l-71.44 24.23a6.68 6.68 0 0 1-2.13.36zm71.44-34.64a3.7 3.7 0 0 0-1.2.2l-71.44 24.23a3.74 3.74 0 1 0 2.4 7.08l71.44-24.23a3.74 3.74 0 0 0-1.2-7.28z"/><path d="M70.95 175.3v125.85c-5 0-9.94-.1-14.92.1-2.42.1-3-.73-3-3q.11-41.9 0-83.82c0-12.05.06-24.11-.05-36.09 0-2.33.59-3.11 3-3 5.02.1 10.02-.03 14.97-.04z" fill="#777"/><path d="M55.65 304.19a5.58 5.58 0 0 1-4-1.38 6 6 0 0 1-1.56-4.57c.07-27.81.07-56 0-83.81V205c0-8.91 0-17.82-.06-26.68a6.08 6.08 0 0 1 1.55-4.61 6 6 0 0 1 4.51-1.36c3.38.09 6.76.05 10.15 0h7.62v131.73h-6.65c-3.64 0-7.39 0-11.06.11zm.25-125.94v.09c.1 8.85.1 17.77.1 26.66v9.38c.07 27.81.07 56 0 83.83v.08c3.79-.15 7.59-.14 11.29-.11H68v-120h-1.71c-3.46 0-6.92.07-10.4 0z" fill="#444"/><path d="M121.67 260.38a14.5 14.5 0 0 1-14.44 14.56h-.1a14.69 14.69 0 0 1-14.59-14.6 14.85 14.85 0 0 1 14.62-14.64 14.67 14.67 0 0 1 14.51 14.68z" fill="#777"/><path d="M107.25 279.33a19 19 0 1 1 18.82-19 18.89 18.89 0 0 1-18.82 19zm-.13-29.25a10.23 10.23 0 0 0 0 20.46 10.11 10.11 0 0 0 10.12-10.15 10.31 10.31 0 0 0-10.13-10.3z" fill="#444"/><path d="M175.46 260.38A14.5 14.5 0 0 1 161 274.94h-.1a14.69 14.69 0 0 1-14.59-14.6 14.85 14.85 0 0 1 14.62-14.64 14.67 14.67 0 0 1 14.53 14.68z" fill="#6f7487"/><path d="M267 196.09c1-1.39 1.89-3 3.77-3.51 3.47-1 6.48 1.35 6.81 5.33.18 2.15.15 4.31.21 6.47 0 13.06-.08 26.21-.08 39.31 0 10.43.08 20.84.12 31.27-.07 1.47-.22 2.94-.2 4.41 0 3-.22 5.89-3.36 7.25s-5.34-.59-7.27-2.82z" fill="#828694"/><path d="M272.18 288.55c-3.07 0-5.2-2.46-6.34-3.79l-.36-.41v-88.74l.67-.95a7.5 7.5 0 0 1 4.18-3.5 6.55 6.55 0 0 1 5.59.88 7.57 7.57 0 0 1 3.05 5.75c.13 1.54.15 3.09.18 4.64v41.26q0 10.42.07 20.83v10.43l-.09 1.5c-.06 1-.13 1.93-.11 2.9 0 2.54 0 6.77-4.24 8.61a6.56 6.56 0 0 1-2.6.59zm-3.77-5.3c2.06 2.27 3.47 2.8 5.23 2 2.11-.92 2.48-2.64 2.48-5.91 0-1 .05-2.07.12-3.11l.08-1.37-.05-10.35q-.06-10.42-.07-20.85v-41.22c0-1.48 0-3-.17-4.44a4.72 4.72 0 0 0-1.81-3.59 3.63 3.63 0 0 0-3.15-.45c-1.11.29-1.77 1.24-2.54 2.34l-.15.21z"/><path d="M454.58 91.06c.08-1.78.12-3.57.26-5.34.5-6.37 4.3-10.25 10.69-10.51 5.15-.21 10.33-.23 15.48 0 6.6.3 10.51 4.53 10.56 11.2.07 9.92 0 19.85 0 29.78 0 4.14-.94 5.24-5.09 6.49H460c-4.12-1.26-5-2.47-5.19-6.75-.09-3-.14-6.12-.21-9.18a74.5 74.5 0 0 0-.02-15.69z" fill="#828694"/><path d="M486.69 124.14l-27.16-.06c-4.69-1.43-6-3.17-6.23-8.09-.06-2.08-.1-4.19-.15-6.3l-.06-2.91a74.62 74.62 0 0 0 0-15.57v-.11l.07-1.63c.05-1.29.1-2.58.2-3.87.56-7.14 5.08-11.57 12.09-11.85 5.41-.22 10.66-.22 15.61 0 7.32.33 11.9 5.18 12 12.65v29.79c0 4.75-1.32 6.44-6.14 7.89zm-26.51-2.93h26.08c3.41-1 3.85-1.65 3.85-5V86.44c0-5.93-3.39-9.49-9.16-9.75-4.87-.22-10-.22-15.35 0-5.54.23-8.84 3.48-9.29 9.16-.1 1.25-.15 2.5-.19 3.75L456 91a76.12 76.12 0 0 1 0 15.89l.07 2.72c0 2.1.09 4.2.15 6.26.15 3.6.64 4.31 3.96 5.34z"/><path d="M465.28 233.09v-96.26c0-1.29-.13-2.57-.21-3.86h16.38c-.08 1.29-.23 2.57-.23 3.85v96.28z" fill="#828694"/><path d="M482.68 234.57h-18.87v-97.74c0-.9-.07-1.79-.13-2.69l-.17-2.63H483l-.19 2.8c-.07.84-.13 1.67-.13 2.5zm-15.94-2.94h13v-94.81c0-.79.05-1.59.11-2.38h-13.21c.06.8.1 1.6.1 2.39z"/><path d="M277.8 275c0-10.43-.12-20.84-.12-31.27 0-13.06 0-26.21.08-39.31 3.17.74 6.4 1.32 9.51 2.27a8 8 0 0 1 6 6.76V266a7.59 7.59 0 0 1-6 6.79c-3.17.8-6.34 1.44-9.47 2.21z" fill="#828694"/><path d="M276.33 276.8V275q0-7.82-.06-15.63t-.06-15.64c0-13.06 0-26.21.08-39.32v-1.84l1.79.42c1 .23 2 .44 2.93.65 2.2.47 4.47 1 6.67 1.64a9.42 9.42 0 0 1 7 8V266a9.13 9.13 0 0 1-7.19 8.22c-2.08.55-4.27 1-6.46 1.53zm2.88-70.59c-.07 12.5-.07 25-.07 37.48q0 7.81.06 15.62c0 4.61.05 9.21.06 13.82l1.14-.25c2.15-.48 4.3-1 6.43-1.52a6.19 6.19 0 0 0 4.94-5.5V213.4a6.51 6.51 0 0 0-4.86-5.34c-2.15-.66-4.36-1.14-6.5-1.6z"/><path d="M481.57 254.48c3.16 0 6.33-.17 9.48-.08 4 .11 5.81 2 5.87 6.18v7.71c0 4.77-.74 5.77-5.29 7.25h-15.74c-3.66 0-7.31 0-11-.18a10.35 10.35 0 0 1-10-10.64v-.06c.08-5.73 4.2-9.85 10.13-10.15z" fill="#d83b38"/><path d="M491.86 277h-16c-3.61 0-7.35 0-11-.19a11.82 11.82 0 0 1-11.44-12.14c.09-6.52 4.83-11.29 11.53-11.63h16.61c1.24 0 2.48 0 3.72-.05 1.94 0 3.88-.08 5.81 0 4.76.13 7.21 2.69 7.29 7.62v7.73c0 5.42-1.12 7-6.3 8.65zm-10.29-21.06L465 256c-5.09.26-8.61 3.76-8.67 8.71a8.88 8.88 0 0 0 8.62 9.21c3.64.18 7.34.18 10.92.18h15.49c3.75-1.24 4.06-1.74 4.06-5.79v-7.71c0-3.39-1.21-4.63-4.44-4.71-1.88-.06-3.77 0-5.66 0-1.26 0-2.52.05-3.78.05z"/><path d="M314.19 208.06v63.19c-1.59 0-3.17.07-4.76 0-3.19-.12-5.17-2.12-5.46-5.4v-52.37c.61-3.64 2.29-5.24 5.82-5.44 1.44-.04 2.92-.04 4.4.02z" fill="#d4dbeb"/><path d="M311 272.74h-1.65c-3.93-.15-6.5-2.67-6.86-6.74v-52.52c.75-4.55 3-6.66 7.2-6.9 1-.06 2 0 3.08 0h2.88v66.11h-3zm.08-63.28h-1.24c-2.82.16-3.95 1.23-4.45 4.23v52.12a3.94 3.94 0 0 0 4.06 3.94h3.24v-60.3z"/><path d="M303.92 213.49v52.36l-10.72.15v-52.59z" fill="#484857"/><path d="M291.73 267.47v-55.53l13.66.1v55.26zm2.93-52.58v49.61l7.8-.1v-49.45z"/><path d="M481.44 133h-16.38c-3-.15-4.51-1.86-4.86-4.64-.23-1.86-.17-3.75-.24-5.62h26.54c-.08 1.87-.06 3.76-.26 5.61-.32 2.75-1.87 4.44-4.8 4.65z" fill="#d83b38"/><path d="M481.48 134.42h-16.42c-3.64-.18-5.85-2.28-6.31-5.92a37 37 0 0 1-.21-4.06v-1.7l-.05-1.52H488l-.12 3.26c0 1.33-.07 2.66-.21 4-.41 3.64-2.59 5.75-6.16 6zm-20-10.26v.24a34.39 34.39 0 0 0 .19 3.74c.28 2.22 1.36 3.25 3.48 3.36h16.26c2.1-.13 3.14-1.17 3.38-3.35.13-1.23.16-2.48.2-3.73v-.26z"/><path d="M465.28 233.09h15.89c4.19 1.39 5.72 3.5 4.94 6.72-.62 2.62-2.65 3.49-4.93 4.09h-15.91c-4.36-1.43-6-4-4.79-7.29.83-2.22 2.76-2.96 4.8-3.52z" fill="#5d668a"/><path d="M481.37 245.36l-16.56-.07c-2.85-.93-4.75-2.35-5.64-4.22a6.24 6.24 0 0 1-.06-5c1.18-3.15 4.17-4 5.78-4.41l.39-.05 16.35.07c4.88 1.61 6.86 4.45 5.9 8.45-.9 3.82-4.33 4.72-6 5.16zm-15.86-2.93H481c2.08-.57 3.29-1.23 3.7-3s.45-3.47-3.76-4.92h-15.46c-1.94.55-3.09 1.14-3.63 2.56a3.32 3.32 0 0 0 0 2.69c.47 1.11 1.74 2.02 3.66 2.68z"/><path d="M454.58 91.06a74.5 74.5 0 0 1 0 15.71l-11-.09c1.59-5.65.26-10.77-2.94-15.52z" fill="#484857"/><path d="M455.9 108.24l-14.29-.12.52-1.84c1.36-4.86.47-9.54-2.75-14.31l-1.53-2.26 18-.13.15 1.32a75.77 75.77 0 0 1 0 16zm-10.52-3l7.88.07a73.18 73.18 0 0 0 0-12.76l-10.08.07a18.66 18.66 0 0 1 2.19 12.6z"/><path d="M465.27 243.9h15.91c.21 3.53-.38 7 .34 10.58H465c.55-3.48.12-7.06.27-10.58z" fill="#d83b38"/><path d="M483.31 255.94h-20l.26-1.68a37.31 37.31 0 0 0 .23-6.33c0-1.36-.05-2.72 0-4.09l.06-1.4h18.69l.08 1.38c.08 1.38 0 2.75 0 4.12a27.12 27.12 0 0 0 .3 6.25zM466.65 253h13.16a38.54 38.54 0 0 1-.09-5.16v-2.49H466.7v2.5c.06 1.7.09 3.42-.05 5.15z"/><path d="M361.81 224.07a15.23 15.23 0 0 1 15.6 14.85v.75A15.62 15.62 0 0 1 362 255.53h-.15a16.15 16.15 0 0 1-16-15.94 15.62 15.62 0 0 1 15.72-15.52z" fill="#6f7487"/><path d="M362.05 257a17.56 17.56 0 0 1-17.59-17.38 17.11 17.11 0 0 1 17.08-17h.11l.15 1.47v-1.46a16.69 16.69 0 0 1 17.1 16.27v.83A17.08 17.08 0 0 1 362.05 257zm-.46-31.46a14.18 14.18 0 0 0-14.2 14.07 14.6 14.6 0 0 0 14.5 14.47 14.16 14.16 0 0 0 14-14.37v-.74a13.76 13.76 0 0 0-14.1-13.42h-.25z"/><path d="M250.59 174.56v125.85c5 0 9.94-.1 14.92.1 2.42.1 3-.73 3-3q-.11-41.9 0-83.82c0-12.05-.06-24.11.05-36.09 0-2.33-.59-3.11-3-3-5.01.1-10.03-.04-14.97-.04z" fill="#777"/><path d="M265.89 303.44h-.5c-3.66-.15-7.43-.13-11.05-.11h-6.67v-131.7h8.04c3.25 0 6.52.07 9.78 0a5.94 5.94 0 0 1 4.47 1.36 6.06 6.06 0 0 1 1.55 4.58c-.08 8.89-.07 17.79-.06 26.71v9.38c-.07 27.81-.07 56 0 83.81a6 6 0 0 1-1.56 4.58 5.59 5.59 0 0 1-4 1.39zm-7.86-6c2.5 0 5 0 7.57.13v-.09c-.07-27.8-.07-56 0-83.83v-9.35c0-8.93 0-17.86.06-26.74v-.06c-3.36.09-6.68.06-10 0h-2.13v120H258z" fill="#444"/><path d="M208.2 318.79h-94.41c4.22 19.83 25.88 36.23 47.1 35.71h.23c21.19.5 42.88-15.9 47.08-35.71z" fill="#777"/><path d="M160 357.43c-22.35 0-44.62-17.2-49.06-38l-.75-3.54h101.63l-.75 3.54c-4.51 21.16-27.44 38.6-50 38zm-42.37-35.72c5.59 16.95 24.55 30.28 43.2 29.85h.3c18.5.4 37.65-13.16 43.25-29.85z" fill="#444"/><path d="M185.59 174.32c-8.18.2-16.36.12-24.54.13h-.51c-8.18 0-16.36.07-24.54-.13-2.67-.07-3 .91-2.75 3.18 1.62 13.9 12.85 24.11 27.25 24.74h.58c14.4-.66 25.62-10.84 27.25-24.74.29-2.27-.1-3.24-2.74-3.18z" fill="#717588"/><path d="M474.36 340.65h-43.94c-1.12 0-1.47-.21-1.47-1.42q.07-28 0-55.94c0-1.11.31-1.36 1.39-1.36h88.13c1.06 0 1.4.22 1.4 1.36q-.06 28 0 56.07c0 1.06-.31 1.3-1.33 1.29q-22.09-.03-44.18 0zm23.64-32.4h8c.64 0 .93-.1.92-.84 0-2.32-.05-4.65 0-7 0-.81-.31-.91-1-.91h-15.85c-.87 0-1 .32-1 1.07 0 2.19.05 4.39 0 6.58 0 .84.18 1.12 1.07 1.1 2.64-.04 5.27 0 7.86 0zM474.29 326h7.89c.76 0 1.09-.12 1.06-1q-.09-3.42 0-6.84c0-.87-.32-1-1.07-1h-15.53c-.75 0-1.09.12-1.06 1q.09 3.42 0 6.84c0 .87.32 1 1.07 1h7.64zm23.57 0h7.9c.74 0 1.1-.1 1.07-1-.06-2.28-.05-4.57 0-6.85 0-.81-.24-1-1-1H490c-.71 0-1 .15-1 .93q.07 3.49 0 7c0 .75.22 1 1 1 2.59-.13 5.2-.1 7.84-.1z" fill="#d4dbeb"/><path d="M518.6 342.11h-88.18c-1.26 0-2.93-.3-2.93-2.88q.07-28 0-55.93c0-1.9.93-2.82 2.85-2.82h88.13c1.93 0 2.86.92 2.86 2.82q-.06 28 0 56.06a2.78 2.78 0 0 1-.7 2.07 2.73 2.73 0 0 1-2.03.68zm-88.18-2.93h87.93V283.4h-88q.14 27.89.07 55.78zm59.67-11.61a2.26 2.26 0 0 1-2.54-2.46v-7a2.21 2.21 0 0 1 2.47-2.43h15.81a2.23 2.23 0 0 1 2.47 2.47c0 2.29-.06 4.55 0 6.81a2.49 2.49 0 0 1-.6 1.84 2.56 2.56 0 0 1-1.94.66h-9.12c-2.21 0-4.38 0-6.55.1zm.41-9v6c1.67-.06 3.24-.17 5-.07h9.91v-5.93zm-8.32 8.86h-15.51a2.25 2.25 0 0 1-2.56-2.47c.06-2.3.06-4.55 0-6.8a2.49 2.49 0 0 1 .6-1.85 2.55 2.55 0 0 1 1.93-.66h15.53a2.24 2.24 0 0 1 2.54 2.47c-.06 2.3-.06 4.55 0 6.8a2.49 2.49 0 0 1-.6 1.84 2.55 2.55 0 0 1-1.93.71zm-13.55-2.94h13.14v-5.91h-14.71v5.91zM490 309.74a2.46 2.46 0 0 1-1.79-.62 2.62 2.62 0 0 1-.66-1.94v-6.58a2.24 2.24 0 0 1 2.47-2.54H506a2.19 2.19 0 0 1 2.47 2.38v6.98a2.31 2.31 0 0 1-.59 1.69 2.38 2.38 0 0 1-1.79.62h-15.91zm.49-8.76v5.79h15v-5.78z"/><path d="M474.33 282.68h-58.84c-1.17 0-1.57-.24-1.55-1.5.08-5.32 0-10.64 0-16 0-2.28.63-3 3-3 1.4 0 2.79.18 4.2.18h104a58.76 58.76 0 0 1 7.86 0 1.94 1.94 0 0 1 1.92 2v17.42c0 .7-.26.94-.92.88h-1.05z" fill="#d83b38"/><path d="M474.33 284.14h-58.84a2.61 2.61 0 0 1-3-3c.05-3.54 0-7.07 0-10.61v-5.33c0-3.1 1.27-4.4 4.38-4.48.76 0 1.49 0 2.21.09s1.34.09 2 .09H525a60.66 60.66 0 0 1 8 0 3.33 3.33 0 0 1 2.31 1 3.37 3.37 0 0 1 1 2.41v17.4a2.16 2.16 0 0 1-2.52 2.34h-.92zm-58.92-2.93h117.96v-16.74c0-.4-.2-.61-.47-.61a58.52 58.52 0 0 0-7.76 0H421.09c-.73 0-1.47 0-2.2-.09s-1.33-.09-2-.09c-1.49 0-1.49.07-1.49 1.55v15.99z"/><path d="M498 308.25h-7.89c-.89 0-1.09-.26-1.07-1.1.06-2.19 0-4.39 0-6.58 0-.75.11-1.08 1-1.07H506c.69 0 1 .1 1 .91-.05 2.32 0 4.65 0 7 0 .74-.28.85-.92.84z" fill="#1f1f1f"/><path d="M474.29 326h-7.63c-.75 0-1.09-.11-1.07-1q.09-3.42 0-6.84c0-.87.31-1 1.06-1h15.53c.75 0 1.09.11 1.07 1q-.09 3.42 0 6.84c0 .87-.31 1-1.06 1h-7.9z" fill="#212121"/><path d="M497.87 326H490c-.74 0-1-.2-1-1q.07-3.49 0-7c0-.78.28-.93 1-.93h15.81c.8 0 1.06.22 1 1-.05 2.28-.06 4.57 0 6.85 0 .88-.33 1-1.07 1-2.61.08-5.24.08-7.87.08z" fill="#252121"/><path d="M474.41 339.52h44c1.16 0 1.49.27 1.47 1.45-.07 4.4 0 8.79 0 13.19a2.81 2.81 0 0 1-2.73 2.89H432.1a10.21 10.21 0 0 1-1.57-.09 1.72 1.72 0 0 1-1.61-1.73 22.72 22.72 0 0 1-.17-3v-10.7c0-2.16-.25-1.93 1.87-1.93z" fill="#d83b38"/><path d="M431.92 358.52a12.32 12.32 0 0 1-1.58-.11 3.16 3.16 0 0 1-2.88-3.19 21.65 21.65 0 0 1-.17-3v-11.29a2.78 2.78 0 0 1 .58-2.22 2.71 2.71 0 0 1 2.23-.58h.53l87.83-.08a3 3 0 0 1 2.23.73 2.93 2.93 0 0 1 .7 2.2v13.17a4.28 4.28 0 0 1-4.15 4.35h-85.32zm-1.7-17.46v11.16a21.77 21.77 0 0 0 .16 2.84c0 .32.11.43.25.44a9.25 9.25 0 0 0 1.45.09h85a1.39 1.39 0 0 0 1-.42 1.34 1.34 0 0 0 .37-1v-13.21z"/><rect x="438.46" y="392.38" width="79.66" height="10.4" rx="1.02" ry="1.02" transform="rotate(-18.74 478.179 397.511)" fill="#454545"/><path d="M445.49 415.37a6.67 6.67 0 0 1-2.14-13l65.59-22.24a6.67 6.67 0 1 1 4.28 12.63L447.64 415a6.68 6.68 0 0 1-2.15.37zm65.59-32.65a3.75 3.75 0 0 0-1.2.2l-65.58 22.24a3.74 3.74 0 1 0 2.4 7.08L512.29 390a3.74 3.74 0 0 0-1.2-7.28z"/><rect x="447.59" y="425.05" width="58.37" height="9.16" rx=".9" ry=".9" transform="rotate(-18.74 476.655 429.569)" fill="#454545"/><path d="M453.47 443.58a6 6 0 0 1-1.94-11.77L498.14 416a6 6 0 0 1 7.66 3.78 6 6 0 0 1-3.78 7.67l-46.6 15.81a6 6 0 0 1-1.95.32zm46.61-25a3.14 3.14 0 0 0-1 .17l-46.6 15.81a3.12 3.12 0 0 0-.37 5.75 3.13 3.13 0 0 0 2.38.15l46.6-15.81a3.12 3.12 0 0 0-1-6.07z"/><rect x="457.86" y="457.71" width="35.2" height="9.1" rx=".89" ry=".89" transform="rotate(-18.74 475.35 462.191)" fill="#454545"/><path d="M463.09 472.47a6 6 0 0 1-1.92-11.71l24.72-8.39a6 6 0 0 1 3.86 11.39L465 472.15a6 6 0 0 1-1.91.32zM487.82 455a3.07 3.07 0 0 0-1 .17l-24.72 8.39a3.08 3.08 0 1 0 2 5.84l24.71-8.4a3.09 3.09 0 0 0-1-6z"/><path d="M361.23 206.54l39.85-80.14c4.32-8.7 8.65-17.36 13-26.09 4.75-9.59 9.06-12.11 19.54-11.33C439 91 443 94.43 445 100c1.15 4.9 0 9.36-2.16 13.82q-25.85 51.68-51.58 103.43c-.5 1-1.17 2.05-1.73 3.11a2 2 0 0 1-1.71-1 34.15 34.15 0 0 0-13.57-9.8c-4.25-1.8-8.67-2.14-13.02-3.02zm62-97.43c2.37 3.25 7.86 4.17 11 1.87 3.35-2.45 4.32-8 1.93-11.2s-7.89-4.06-11-1.86a8.45 8.45 0 0 0-1.91 11.19z" fill="#d83b38"/><path d="M390.37 221.8h-.89a3.5 3.5 0 0 1-3-1.72 32.8 32.8 0 0 0-12.85-9.18 39.36 39.36 0 0 0-9.11-2.27c-1.21-.2-2.42-.4-3.62-.65l-1.87-.38 53.73-107.94c5-10.13 9.93-13 21-12.15l.41.09c6.22 2.36 10.21 6.24 12.21 11.87 1.15 4.88.43 9.58-2.22 15q-25.86 51.69-51.58 103.43c-.29.61-.65 1.24-1 1.87-.24.42-.49.84-.72 1.27zm-27-16.35l1.64.28a42.23 42.23 0 0 1 9.74 2.45 35.69 35.69 0 0 1 14.12 10.2l.07-.13c.33-.56.65-1.12.92-1.68q25.74-51.78 51.59-103.45c2.36-4.79 3-8.75 2-12.83-1.63-4.55-5-7.83-10.24-9.88-9.72-.67-13.43 1.52-17.9 10.54zM430 113.72a10.51 10.51 0 0 1-1.63-.13 9.55 9.55 0 0 1-6.29-3.62v-.07a9.88 9.88 0 0 1 2.2-13.13c3.89-2.72 10.36-1.63 13.13 2.14a9.14 9.14 0 0 1 1.48 6.79 9.79 9.79 0 0 1-3.73 6.46 8.62 8.62 0 0 1-5.16 1.56zm-5.52-5.44a6.72 6.72 0 0 0 4.35 2.41 6.15 6.15 0 0 0 4.56-.9 7 7 0 0 0 2.57-4.54 6.21 6.21 0 0 0-.95-4.61c-1.82-2.48-6.54-3.27-9-1.53a6.94 6.94 0 0 0-1.55 9.17z"/><path d="M383.92 209.91c3 3.22 6.48 6 8.88 9.87a34.15 34.15 0 0 1 5.43 15.83 2 2 0 0 0 .82 1.8c-.76 3.49-.52 7-1.36 10.58a36.67 36.67 0 0 1-34.86 28.53c-14.06.3-28.18.11-42.28.08-3.7 0-5-1.22-6.39-5.34v-63.2c1.47-4.32 2.77-5.27 7.39-5.27 13.06 0 26 .06 39.07 0 8.58-.11 16.18 2.65 23.3 7.12zm-22.1 56A26 26 0 0 0 388 240.2v-.51c-.05-14.91-11.31-26.17-26.22-26.21a25.92 25.92 0 0 0-26.19 25.65v.26a25.93 25.93 0 0 0 26.18 26.51z" fill="#828694"/><path d="M344.74 278.14h-24.19c-4.79 0-6.38-2.14-7.77-6.34l-.07-.46.08-63.66c1.67-4.92 3.56-6.26 8.78-6.26h39.05c8.07-.06 16.05 2.31 24.07 7.35l.29.24c.87.93 1.77 1.82 2.68 2.71A41 41 0 0 1 394 219a35.63 35.63 0 0 1 5.65 16.48c0 .43.07.62.22.73l.78.56-.21.94a35.76 35.76 0 0 0-.61 4.9 36.77 36.77 0 0 1-.75 5.7A38.1 38.1 0 0 1 362.87 278c-6.02.1-12.1.14-18.13.14zM315.63 271c1.22 3.6 2.18 4.12 4.92 4.12h10.35c10.47.05 21.29.11 31.9-.12a35.17 35.17 0 0 0 33.47-27.39 34.57 34.57 0 0 0 .69-5.27 44.69 44.69 0 0 1 .51-4.51 3.49 3.49 0 0 1-.69-2.4 32.83 32.83 0 0 0-5.2-14.9 38.37 38.37 0 0 0-6-6.88c-.89-.87-1.78-1.75-2.63-2.66-7.47-4.66-14.7-7-22.33-6.8h-39c-3.87 0-4.71.54-5.93 4.05zm46.44-3.64h-.28a27.44 27.44 0 0 1-19.61-8 27.85 27.85 0 0 1-8-20v-.31a27.19 27.19 0 0 1 8.22-19.25 27.78 27.78 0 0 1 19.42-7.8c15.71 0 27.61 11.94 27.67 27.67v.55a27.45 27.45 0 0 1-27.42 27.15zm-.53-52.42a24.46 24.46 0 0 0-24.46 24.2 25.11 25.11 0 0 0 7.17 18.14 24.53 24.53 0 0 0 17.54 7.16h.28a24.52 24.52 0 0 0 24.49-24.25v-.47c0-14.09-10.69-24.73-24.75-24.77z"/><path d="M361.79 265.9c-14.78 0-26.24-11.57-26.21-26.5a25.92 25.92 0 0 1 25.93-25.92h.26c14.91 0 26.12 11.3 26.22 26.21a26 26 0 0 1-25.7 26.21zm0-41.83a15.62 15.62 0 0 0-15.86 15.38v.14a16.15 16.15 0 0 0 15.93 15.93 15.62 15.62 0 0 0 15.53-15.71v-.15a15.23 15.23 0 0 0-14.86-15.59h-.74z" fill="#d83b38"/><path d="M361.79 267.37a27.46 27.46 0 0 1-19.61-8 27.91 27.91 0 0 1-8.05-20A27.42 27.42 0 0 1 361.51 212c15.93 0 27.83 11.89 27.94 27.66a27.42 27.42 0 0 1-27.15 27.68zm0-52.41A24.54 24.54 0 0 0 337 239.41a25 25 0 0 0 7.2 17.89 24.56 24.56 0 0 0 17.54 7.14h.51a24.51 24.51 0 0 0 24.23-24.73c-.05-14.11-10.69-24.71-24.7-24.71zm.1 42a17.53 17.53 0 0 1-17.4-17.37 17.09 17.09 0 0 1 5.19-12.19 17.59 17.59 0 0 1 12.15-4.81h.76a16.72 16.72 0 0 1 16.29 17.09A17.13 17.13 0 0 1 361.87 257zm-.33-31.45a14.15 14.15 0 0 0-14.14 13.94 14.63 14.63 0 0 0 14.48 14.58 14.15 14.15 0 0 0 14-14.23 13.83 13.83 0 0 0-13.43-14.29h-1z"/><path fill="#282828" d="M48.86 450.18l94.16-102.39 25.88-3.02 81.98 79.05-19.03 51.24L63.5 473.6l-14.64-23.42z"/><path d="M234.9 479.48L61.06 478l-17.69-28.3 97.52-106 29.57-3.45L256 422.66zM66 469.23l162.86 1.42 17-45.65-78.41-75.61-22.31 2.61-90.78 98.68z"/><path d="M85 417.48a30.74 30.74 0 1 0 30.74 30.74A30.74 30.74 0 0 0 85 417.48zm0 45.38a14.64 14.64 0 1 1 14.64-14.64A14.64 14.64 0 0 1 85 462.86z" fill="#828694"/><path d="M85 480.43a32.21 32.21 0 1 1 32.21-32.21A32.24 32.24 0 0 1 85 480.43zm0-61.48a29.28 29.28 0 1 0 29.28 29.28A29.31 29.31 0 0 0 85 418.94zm0 45.38a16.1 16.1 0 1 1 16.1-16.1 16.12 16.12 0 0 1-16.1 16.1zM85 435a13.18 13.18 0 1 0 13.18 13.18A13.19 13.19 0 0 0 85 435z"/><path d="M123 389.06a23.24 23.24 0 1 0 23.24 23.24A23.24 23.24 0 0 0 123 389.06zm0 34.31a11.07 11.07 0 1 1 11-11.07 11.07 11.07 0 0 1-11 11.06z" fill="#828694"/><path d="M123 437a24.7 24.7 0 1 1 24.7-24.7A24.73 24.73 0 0 1 123 437zm0-46.48a21.78 21.78 0 1 0 21.78 21.78A21.8 21.8 0 0 0 123 390.52zm0 34.3a12.53 12.53 0 1 1 12.5-12.52 12.54 12.54 0 0 1-12.5 12.53zm0-22.13a9.6 9.6 0 1 0 9.6 9.6 9.61 9.61 0 0 0-9.6-9.59z"/><path d="M138.71 435.54a21.41 21.41 0 1 0 21.41 21.41 21.41 21.41 0 0 0-21.41-21.41zm0 31.6a10.19 10.19 0 1 1 10.19-10.19 10.19 10.19 0 0 1-10.19 10.19z" fill="#828694"/><path d="M138.71 479.82a22.87 22.87 0 1 1 22.87-22.87 22.9 22.9 0 0 1-22.87 22.87zm0-42.82a19.95 19.95 0 1 0 19.95 19.95A20 20 0 0 0 138.71 437zm0 31.61a11.66 11.66 0 1 1 11.66-11.66 11.67 11.67 0 0 1-11.66 11.66zm0-20.39a8.73 8.73 0 1 0 8.73 8.73 8.74 8.74 0 0 0-8.73-8.74z"/><circle cx="160.61" cy="377.47" r="8.78" fill="#f9f9f9"/><path d="M160.61 387.35a9.88 9.88 0 1 1 9.88-9.88 9.89 9.89 0 0 1-9.88 9.88zm0-17.57a7.69 7.69 0 1 0 7.69 7.69 7.69 7.69 0 0 0-7.69-7.69z"/><circle cx="84.97" cy="448.22" r="8.78" fill="#f9f9f9"/><path d="M85 458.1a9.88 9.88 0 1 1 9.88-9.88A9.89 9.89 0 0 1 85 458.1zm0-17.57a7.69 7.69 0 1 0 7.69 7.69 7.69 7.69 0 0 0-7.69-7.68z"/><circle cx="214.53" cy="435.78" r="10.25" fill="#f9f9f9"/><path d="M214.53 447.12a11.35 11.35 0 1 1 11.35-11.35 11.36 11.36 0 0 1-11.35 11.35zm0-20.49a9.15 9.15 0 1 0 9.15 9.15 9.16 9.16 0 0 0-9.15-9.15z"/><circle cx="122.97" cy="412.3" r="6.06" transform="rotate(-45 122.968 412.295)" fill="#f9f9f9"/><path d="M123 419.45a7.16 7.16 0 1 1 5.06-2.09 7.15 7.15 0 0 1-5.06 2.09zm0-12.12a5 5 0 1 0 3.51 1.45 4.93 4.93 0 0 0-3.51-1.44z"/><circle cx="138.71" cy="456.95" r="5.59" transform="rotate(-45 138.712 456.944)" fill="#f9f9f9"/><path d="M138.71 463.62a6.68 6.68 0 1 1 4.73-2 6.67 6.67 0 0 1-4.73 2zm0-11.16a4.48 4.48 0 1 0 3.17 1.31 4.46 4.46 0 0 0-3.17-1.31z"/><path d="M172.2 453.1a8.42 8.42 0 1 0 8.42 8.42 8.42 8.42 0 0 0-8.42-8.42zm0 12.43a4 4 0 1 1 4-4 4 4 0 0 1-4 4z" fill="#828694"/><path d="M172.2 471.4a9.88 9.88 0 1 1 9.88-9.88 9.89 9.89 0 0 1-9.88 9.88zm0-16.83a7 7 0 1 0 7 7 7 7 0 0 0-7-7zm0 12.43a5.47 5.47 0 1 1 5.47-5.47 5.48 5.48 0 0 1-5.47 5.47zm0-8a2.54 2.54 0 1 0 2.54 2.54 2.55 2.55 0 0 0-2.54-2.54z"/><path d="M195.25 382.1A11.71 11.71 0 1 0 207 393.82a11.71 11.71 0 0 0-11.75-11.72zm0 17.29a5.58 5.58 0 1 1 5.58-5.58 5.58 5.58 0 0 1-5.58 5.58z" fill="#828694"/><path d="M195.25 407a13.18 13.18 0 1 1 13.18-13.18A13.19 13.19 0 0 1 195.25 407zm0-23.42a10.25 10.25 0 1 0 10.25 10.25 10.26 10.26 0 0 0-10.25-10.26zm0 17.29a7 7 0 1 1 7-7 7 7 0 0 1-7 6.98zm0-11.15a4.11 4.11 0 1 0 4.11 4.11 4.12 4.12 0 0 0-4.11-4.13z"/><circle cx="195.25" cy="393.82" r="3.06" transform="rotate(-45 195.253 393.814)" fill="#f9f9f9"/><path d="M195.25 398a4.15 4.15 0 1 1 2.94-1.22 4.15 4.15 0 0 1-2.94 1.22zm0-6.11a2 2 0 1 0 1.38.57 2 2 0 0 0-1.38-.6z"/><path d="M250.6 300.78V174.93c0-11.34.21-22.68-.09-34-.27-10-1.3-20.09-4.57-29.79a92.07 92.07 0 0 0-18.31-31.7c-13.83-15.73-31.22-25-51.59-29-3.16-.62-6.45-.4-9.58-1.33h-11.37c-3.12.92-6.42.7-9.58 1.33-20.37 4-37.75 13.31-51.59 29a92.07 92.07 0 0 0-18.31 31.7c-3.27 9.68-4.3 19.71-4.57 29.79-.3 11.33-.08 22.67-.09 34v125.85c0 5 .15 9.94 0 14.91-.09 2.54.77 3.15 3.2 3.13 13.22-.1 26.44 0 39.65 0h94c13.22 0 26.44-.07 39.65 0 2.43 0 3.3-.6 3.2-3.13-.21-4.97-.06-9.95-.05-14.91zM118.8 120.86c13.86.05 27.73 0 41.59.05h.72q20.79 0 41.59-.05c1.76 0 2.7.22 2.66 2.39q-.2 11.18 0 22.37c0 2.13-.84 2.42-2.64 2.41-13.88-.06-27.75 0-41.63-.06h-.71q-20.82 0-41.63.06c-1.8 0-2.67-.28-2.64-2.41q.19-11.18 0-22.37c-.01-2.16.89-2.4 2.69-2.39zm-11.68 152.82a13.49 13.49 0 1 1 13.42-13.56v.13a13.38 13.38 0 0 1-13.33 13.43zm53.65 0c-10.76-.76-15.2-10.78-12.27-18.17 1.84-4.66 5.15-7.66 10.29-8.38a15 15 0 0 0 2-.5 15 15 0 0 0 2 .5c5.13.71 8.44 3.72 10.29 8.38 2.89 7.43-1.56 17.45-12.3 18.2zm26.47-95.75c-1.57 13.46-12.49 23.29-26.47 23.81-14-.52-24.9-10.37-26.47-23.81-.25-2.19.07-3.13 2.65-3.06 7.93.19 15.88.11 23.81.13s15.88.06 23.82-.13c2.58-.08 2.91.86 2.65 3.06zm27.18 95.76A13.38 13.38 0 0 1 201 260.35v-.09a13.42 13.42 0 1 1 13.36 13.42z" fill="#bcbcbc"/><path d="M74 321.74a5.31 5.31 0 0 1-6-6.17c.1-3.23.06-6.57 0-9.8V164.56c0-7.77-.09-15.8.12-23.71.34-12.54 1.8-22 4.73-30.65a94.43 94.43 0 0 1 18.89-32.7c13.76-15.64 31.66-25.72 53.21-30a39.37 39.37 0 0 1 4.4-.53 24.61 24.61 0 0 0 4.91-.73l.83-.12 12.2.12a24.73 24.73 0 0 0 4.92.73 39.48 39.48 0 0 1 4.4.53c21.57 4.27 39.48 14.35 53.22 30a94.47 94.47 0 0 1 18.89 32.7c2.93 8.68 4.39 18.13 4.72 30.64.21 8.07.17 16.27.13 24.19v139.98c0 3.47-.07 7.06.08 10.54a6.06 6.06 0 0 1-1.4 4.6 6.27 6.27 0 0 1-4.73 1.59H74.18zm-.16-5.86h.26c8.82-.07 17.64 0 26.47 0h147.16v-.09c-.15-3.63-.12-7.29-.08-10.84V165c0-7.88.09-16-.13-24-.32-11.9-1.68-20.82-4.41-28.93a88.7 88.7 0 0 0-17.73-30.7c-13.06-14.85-29.4-24-50-28.1a33.61 33.61 0 0 0-3.75-.45 31.34 31.34 0 0 1-5.67-.83h-10.47a31.28 31.28 0 0 1-5.67.83 33.63 33.63 0 0 0-3.75.45c-20.54 4.05-36.88 13.24-50 28.1a88.65 88.65 0 0 0-17.73 30.7c-2.74 8.09-4.1 17-4.42 28.94-.21 7.82-.17 15.81-.12 23.53v141.18c0 3.29.07 6.68 0 10 .07.09.07.13.07.17zm84.77-39.1l-.13-.44a16.34 16.34 0 0 1-11.31-7.41 16.17 16.17 0 0 1-1.44-14.5c2.31-5.85 6.66-9.38 12.6-10.2a11.64 11.64 0 0 0 1.51-.39l.91-.29.91.29a11.64 11.64 0 0 0 1.61.41c5.82.8 10.18 4.33 12.5 10.18a16.3 16.3 0 0 1-1.46 14.57 16.66 16.66 0 0 1-13.31 7.63zm2.14-27.11q-.74.2-1.5.33c-4 .56-6.52 2.64-8.07 6.57a10.44 10.44 0 0 0 .94 9.24 10 10 0 0 0 17.21.06 10.56 10.56 0 0 0 1-9.31c-1.56-3.92-4.09-6-8-6.54-.51-.09-1.04-.2-1.55-.34zm53.58 26.93a16.33 16.33 0 0 1-16.31-16.26 16.35 16.35 0 1 1 16.36 16.25h-.05zm0-27a10.64 10.64 0 0 0-10.43 10.62 10.49 10.49 0 0 0 10.43 10.51 10.56 10.56 0 0 0 0-21.11zm-107.3 27a16.42 16.42 0 0 1-.09-32.83h.09a16.42 16.42 0 0 1 .17 32.83l-.1-2.93v2.93zm0-27H107a10.56 10.56 0 0 0 .05 21.12h.16a10.46 10.46 0 0 0 10.4-10.49 10.56 10.56 0 0 0-10.56-10.63zm53.82-45c-15.71-.58-27.74-11.44-29.48-26.4-.12-1-.37-3.2 1.1-4.8a5.75 5.75 0 0 1 4.54-1.53c5.68.14 11.5.13 17.11.13h8.53c7.17 0 14.58 0 21.86-.14a5.67 5.67 0 0 1 4.53 1.53c1.46 1.6 1.21 3.76 1.09 4.8-1.74 15.04-13.77 25.9-29.26 26.48zm-23.62-26.8c1.49 11.92 11.18 20.55 23.64 21 12.25-.47 21.94-9.1 23.43-21-7.25.17-14.57.15-21.65.13h-8.51c-5.54-.01-11.26 0-16.91-.13zm65.66-26.8h-.17c-13.87-.06-27.74 0-41.63-.06h-.7q-20.82 0-41.62.06a5.68 5.68 0 0 1-4.22-1.4 5.48 5.48 0 0 1-1.34-4c.13-7.39.13-14.88 0-22.28a5.49 5.49 0 0 1 1.38-4 5.61 5.61 0 0 1 4.25-1.37c13.86 0 27.73 0 41.59.05h.71q20.79 0 41.58-.05a5.65 5.65 0 0 1 4.25 1.4 5.44 5.44 0 0 1 1.33 4c-.13 7.38-.13 14.87 0 22.26a5.57 5.57 0 0 1-1.39 4 5.51 5.51 0 0 1-4.02 1.39zM119 123.79c.11 7.06.11 14.23 0 21.32q20.65-.09 41.34-.06h.71c13.8.06 27.56 0 41.34.06-.12-7-.12-14.22 0-21.32q-20.65.08-41.32.05h-.72c-13.76-.04-27.53.01-41.35-.05z" fill="#444"/><g clip-path="url(#a)"><path d="M193.54-387.17c72.43 576.77-4.14 972-4.14 972s2.29-986.7 4.14-972z" fill="#e2e2e2"/></g><path d="M209.89 119.46c0-2.77-1-3.06-2.86-3.05-15.15.06-30.29 0-45.44.06s-30.29 0-45.44-.06c-1.89 0-2.91.28-2.86 3.05q.21 14.26 0 28.53c0 2.71.9 3.09 2.84 3.08 15.15-.08 30.31 0 45.47-.08s30.31 0 45.47.08c1.93 0 2.87-.37 2.84-3.08q-.23-14.24-.02-28.53z" fill="#fff"/><path d="M116 152.53a4.2 4.2 0 0 1-3.14-1 4.9 4.9 0 0 1-1.09-3.56c.14-9.48.14-19.06 0-28.5a4.8 4.8 0 0 1 1-3.53 4.34 4.34 0 0 1 3.29-1h1c14.82.06 29.63.13 44.45.06 15.15-.06 30.29 0 45.44-.06a4.37 4.37 0 0 1 3.25 1 4.86 4.86 0 0 1 1.09 3.54c-.14 9.47-.14 19.05 0 28.48a4.84 4.84 0 0 1-1.05 3.55 4.31 4.31 0 0 1-3.25 1c-14.9-.08-30.31-.16-45.46-.08s-30.31 0-45.47.08zm.1-34.66c-1 0-1.16.1-1.2.13s-.21.24-.2 1.43c.14 9.48.14 19.08 0 28.57 0 1.23.22 1.46.22 1.46s.13.12 1.15.13c15.16-.08 30.32 0 45.47-.08s30.58 0 45.48.08c1 0 1.15-.13 1.16-.14s.22-.24.21-1.46c-.14-9.45-.14-19.05 0-28.55 0-1.21-.22-1.46-.22-1.46a3.19 3.19 0 0 0-1.17-.12c-15.16.06-30.3 0-45.45.06-14.82.07-29.65 0-44.48-.06z"/><path fill="#d83b38" d="M176.22 145.8v-14.15l-3.7 3.7-21.89 3.13-5.65-8.48-11.32 5.66-8.98-5.99-6.73 1.35-.57-2.87 7.92-1.59 8.58 5.72 12.1-6.05 6.06 9.09 19.1-2.73 8.01-8.01v15.13l12.76-10.2 10.87 1.55-.41 2.9-9.62-1.38-16.53 13.22z"/><path d="M199.62 261.13A14.78 14.78 0 0 0 214.33 276h.12a14.9 14.9 0 1 0-14.83-14.85z" fill="#777"/><path d="M214.47 278.9a17.7 17.7 0 0 1-17.77-17.78 17.78 17.78 0 1 1 17.77 17.78zm-.09-29.8a12 12 0 0 0-11.83 12 11.85 11.85 0 0 0 11.79 11.9 12 12 0 1 0 0-23.95z" fill="#444"/><circle cx="160.61" cy="377.47" r="2.93" transform="rotate(-18.74 160.56 377.378)"/><path d="M160.61 381.86a4.39 4.39 0 1 1 4.15-5.8 4.39 4.39 0 0 1-2.75 5.57 4.4 4.4 0 0 1-1.4.23zm0-5.86a1.41 1.41 0 0 0-.47.08 1.46 1.46 0 1 0 1.86.92 1.46 1.46 0 0 0-1.38-1z"/><circle cx="84.97" cy="448.22" r="2.93" transform="rotate(-18.74 84.952 448.133)"/><path d="M85 452.62a4.41 4.41 0 1 1 1.41-.23 4.36 4.36 0 0 1-1.41.23zm0-5.86a1.41 1.41 0 0 0-.47.08 1.46 1.46 0 0 0-.18 2.7 1.43 1.43 0 0 0 1.12.07 1.46 1.46 0 0 0 .92-1.85 1.46 1.46 0 0 0-1.38-1z"/><circle cx="214.53" cy="435.78" r="2.93" transform="rotate(-18.2 219.347 436.18)"/><path d="M214.52 440.17a4.41 4.41 0 1 1 1.41-.23 4.36 4.36 0 0 1-1.41.23zm0-5.86a1.41 1.41 0 0 0-.47.08 1.46 1.46 0 0 0-.18 2.7 1.41 1.41 0 0 0 1.12.07 1.46 1.46 0 0 0 .92-1.85 1.46 1.46 0 0 0-1.38-1z"/><path d="M214.53 398.45a37.33 37.33 0 1 0 37.33 37.33 37.33 37.33 0 0 0-37.33-37.33zm0 55.11a17.78 17.78 0 1 1 17.78-17.78 17.78 17.78 0 0 1-17.78 17.78z" fill="#828694"/><path d="M214.53 474.57a38.79 38.79 0 1 1 38.79-38.79 38.84 38.84 0 0 1-38.79 38.79zm0-74.66a35.87 35.87 0 1 0 35.87 35.87 35.91 35.91 0 0 0-35.87-35.87zm0 55.11a19.24 19.24 0 1 1 19.24-19.24A19.26 19.26 0 0 1 214.53 455zm0-35.55a16.31 16.31 0 1 0 16.31 16.31 16.33 16.33 0 0 0-16.31-16.31z"/><path d="M160.61 346.73a30.74 30.74 0 1 0 30.74 30.74 30.74 30.74 0 0 0-30.74-30.74zm0 45.38a14.64 14.64 0 1 1 14.64-14.64 14.64 14.64 0 0 1-14.64 14.64z" fill="#828694"/><path d="M160.61 409.67a32.21 32.21 0 1 1 32.21-32.21 32.24 32.24 0 0 1-32.21 32.21zm0-61.48a29.28 29.28 0 1 0 29.28 29.28 29.31 29.31 0 0 0-29.28-29.28zm0 45.38a16.1 16.1 0 1 1 16.1-16.1 16.12 16.12 0 0 1-16.1 16.1zm0-29.28a13.18 13.18 0 1 0 13.18 13.18 13.19 13.19 0 0 0-13.18-13.18z"/><path d="M253.81 412.11l-70.27-70.27c-11.71-11.71-29.28-11.71-41 0s-90.76 93.69-90.76 93.69c-20.49 20.49-11.71 41 8.78 43.92 20.49 0 117.11 2.93 158.1 0 52.72 0 52.72-49.77 35.15-67.34zm-45.75 54.6c-32.5 2.32-109.11 0-125.37 0-29.44-.43-35.29-9.22-7-34.82 0 0 62.85-64.84 72-74.29 11-11.36 19.74-11.36 32.5 0 9.81 8.73 41.23 42.37 55.72 55.72 19.36 17.82 13.94 53.39-27.85 53.39z" fill="#686a69"/><path d="M164 482.22c-27 0-56.05-.53-77.17-.91-11.94-.22-21.36-.39-26.3-.39-10.41-1.47-18.13-7.21-20.85-15.37-3.18-9.54.84-20.85 11-31 .77-.8 79.18-82.1 90.76-93.69 12.27-12.27 30.79-12.27 43.06 0l70.27 70.27c9.26 9.26 14.72 28.8 7.82 45.45-3.77 9.11-14.5 24.39-44 24.39-13.59.92-33.4 1.25-54.59 1.25zM61.38 478c4.92 0 14.08.17 25.55.37 37.64.68 100.62 1.83 131.64-.39 20.69 0 35.36-8 41.39-22.58 6.43-15.53 1.4-33.68-7.19-42.26l-70.27-70.27c-11.09-11.09-27.83-11.09-38.92 0-11.57 11.57-90 92.85-90.74 93.67-9.4 9.4-13.16 19.62-10.34 28.07 2.36 7.08 9.19 12.09 18.28 13.38zm103.34-8.8c-21.39 0-44.43-.42-61.17-.72-9.49-.17-16.93-.31-20.85-.31-15.9-.23-24.27-2.93-26.37-8.49-2.34-6.23 3.51-15.41 18.42-28.89 0 0 62.78-64.77 71.9-74.22 11.5-11.92 21.19-11.95 34.52-.07 4.79 4.26 14.69 14.41 25.17 25.16 11.37 11.66 23.13 23.72 30.57 30.58 10.13 9.34 13.85 23.54 9.24 35.35-5.1 13.07-19 20.58-38 20.59-10.91.77-26.66 1.03-43.44 1.03zm-82-4c3.91 0 11.37.13 20.87.31 29.84.54 79.77 1.45 104.36-.31h.1c17.83 0 30.72-6.82 35.36-18.73 4.17-10.69.76-23.6-8.49-32.13-7.5-6.91-19.29-19-30.68-30.69-10.44-10.71-20.3-20.82-25-25-12.13-10.8-20.11-10.82-30.48-.07-9.12 9.45-72 74.29-72 74.29-13.59 12.29-19.53 20.93-17.72 25.75 1.57 4.17 9.53 6.38 23.65 6.59z"/><path fill="#2b1c1c" stroke="#000" stroke-miterlimit="10" stroke-width=".5" d="M431.72 490.16l-10.21-25.53 10.21-20.41 31.59 8.6 9.12-14.73 15.44 21.44 25.53-15.31 15.31 10.21 5.11 35.73h-102.1z"/></svg>