<svg xmlns="http://www.w3.org/2000/svg" viewBox="0 0 81.36 52.5"><title>solar_panel</title><g data-name="menu"><rect x="24.83" y="24.31" width="11.34" height="3.88" rx="1.94" ry="1.94" fill="#0c0c0c"/><rect x="25.43" y="19.69" width="2.39" height="13.13" rx="1.19" ry="1.19" fill="#0c0c0c"/><rect x=".45" y=".45" width="25.95" height="51.61" rx="3.38" ry="3.38" fill="#0b206d"/><path d="M22.82 52.5H4a4 4 0 0 1-4-4V4a4 4 0 0 1 4-4h18.82a4 4 0 0 1 4 4v44.47a4 4 0 0 1-4 4.03zM4 .89A3.14 3.14 0 0 0 .89 4v44.47A3.14 3.14 0 0 0 4 51.61h18.82A3.14 3.14 0 0 0 26 48.47V4A3.14 3.14 0 0 0 22.82.89z" fill="#0c0c0c"/><path fill="#cca811" d="M.67 5.22h25.36v.6H.67zm0 6.86h25.36v.6H.67zm0 6.86h25.36v.6H.67zm0 6.86h25.36v.6H.67zm0 6.86h25.36v.6H.67zm0 6.86h25.36v.6H.67zm0 6.86h25.36v.6H.67z"/><path fill="#cca811" d="M13.13.75h.6v51.01h-.6z"/><rect x="45.19" y="24.31" width="11.34" height="3.88" rx="1.94" ry="1.94" transform="rotate(-180 50.86 26.25)" fill="#0c0c0c"/><rect x="53.54" y="19.69" width="2.39" height="13.13" rx="1.19" ry="1.19" transform="rotate(180 54.735 26.25)" fill="#0c0c0c"/><rect x="54.96" y=".45" width="25.95" height="51.61" rx="3.79" ry="3.79" transform="rotate(-180 67.935 26.25)" fill="#0b206d"/><path d="M77.33 52.5H58.54a4 4 0 0 1-4-4V4a4 4 0 0 1 4-4h18.79a4 4 0 0 1 4 4v44.47a4 4 0 0 1-4 4.03zM58.54.89A3.14 3.14 0 0 0 55.41 4v44.47a3.14 3.14 0 0 0 3.13 3.13h18.79a3.14 3.14 0 0 0 3.13-3.13V4A3.14 3.14 0 0 0 77.33.89z" fill="#0c0c0c"/><path fill="#cca811" d="M55.33 5.22h25.36v.6H55.33zm0 6.86h25.36v.6H55.33zm0 6.86h25.36v.6H55.33zm0 6.86h25.36v.6H55.33zm0 6.86h25.36v.6H55.33zm0 6.86h25.36v.6H55.33zm0 6.86h25.36v.6H55.33z"/><path fill="#cca811" d="M67.64.75h.6v51.01h-.6z"/></g></svg>