<svg xmlns="http://www.w3.org/2000/svg" viewBox="0 0 1920 491"><title>Fichier 1</title><g data-name="Calque 2"><path fill="#e34b30" d="M0 247.4L145 37l129 138 58-82 100 170 39-55 66 104h549l33-10 27.36 10h142.53l57.11-35 52 35 172-252 80 51 41 132 53-68 78 137 98-76.5V471H0V247.4z"/><path fill="#ba3525" d="M0 471V132.87l107-81.1 58 60.39L260 0l96 185.5 48-12.94 75 110.72 57-14.38 77 63.27L725 328l83-49h270l10 17 72 36 62 3.05 42-40.26 88 40.26 67-106.41 81 18.69 113-225.76 78 63.27 40 156.74 77-69.02 38 122.23 74-86.69V471H0z"/><path fill="#991f16" d="M0 491h1920V179l-68.33 87.14-42.97-34.16-76.95 102.47L1648.8 0l-93.94 294.6-91.94 67.71-36.97-45.54-93.94 18.5-54.97 24.38-382.75-.18-31.98-21.35-39.97 21.35h-305.8l-42.97-91.56-67.96-23.12-93.94-149.44-45.97 27.04L190.75 0l-58.96 135.2-36.98-24.19L0 205v286z"/></g></svg>