<svg xmlns="http://www.w3.org/2000/svg" viewBox="0 0 1920 521.33"><title>univers_vert</title><g data-name="Calque 2"><path d="M185.93 311.81c-47.5-23.93 10-70.2 42.29-136.17 44.94-93.25 109.22-70.12 109.22-70.12 43.3 12.84 66.78.94 66.78.94 38.1-12.11 15.89 15.54 15.89 15.54-24.5 27.19-63.85 20.85-63.85 20.85-63.76-8.66-83.5 42.7-89 64.77-9 39.49-33.82 128.11-81.33 104.19z" fill="#50d686"/><path d="M367.68 132.43c3.49-.32 6.12-2.46 6-4.87s-3.17-4.15-6.65-3.84-6.13 2.48-5.94 4.84 3.08 4.17 6.59 3.87zm-24.61-9.97c-4-.22-7.37 1.77-7.52 4.5s2.92 5.19 6.91 5.46 7.29-1.8 7.46-4.56-2.92-5.16-6.85-5.4zm-95.42 68.88c2.7 1.41 6.48-.56 8.55-4.43s1.51-8.11-1.19-9.55-6.49.61-8.49 4.44-1.52 8.15 1.13 9.54zm46.5-56.27c-1.76-2.44-6.08-2.37-9.61.12s-5 6.56-3.31 9 6.07 2.39 9.6-.1 5.07-6.56 3.32-9.02zm13.19-5.07c.41 3 4.33 4.87 8.6 4.18s7.44-3.64 6.94-6.6-4.36-4.83-8.65-4.12-7.4 3.6-6.89 6.54zm78.84-8.56c-2.59 1.28-3.92 3.87-3 5.63s3.78 2.2 6.35.83 4-3.9 3-5.67-3.77-2.15-6.35-.79zm-116.03 42.08c2.63-3.5 2.8-7.73.4-9.6s-6.48-.51-9.09 3-2.83 7.77-.39 9.55 6.47.53 9.08-2.95z" fill="#73e8a7"/><path data-name="Left-arm" d="M702.93 380.31c4.28-22.33 7.83-77.24-53.72-96 0 0-38.39-10.69-49.28-45.64 0 0-8.6-34.42 20.94-7.5 0 0 16.36 20.63 61.05 27.07 0 0 68.06 5.87 69.89 109.37C753.59 441 786.44 507.08 733.29 509s-38.64-89.06-30.36-128.69z" fill="#50d686"/><path d="M643.21 270c-3-1.75-4.53-4.8-3.38-6.92s4.62-2.45 7.65-.7 4.54 4.81 3.37 6.88-4.57 2.49-7.64.74zm26.52 1.25c3.69 1.46 6 4.69 4.94 7.23s-4.82 3.49-8.56 2.08-5.87-4.69-4.87-7.26 4.76-3.49 8.49-2.05zm57.88 102.47c-3 .15-5.65-3.22-5.91-7.6s2-8 5.08-8.18 5.64 3.26 5.85 7.58-2.04 8.04-5.02 8.2zm-18.72-70.56c2.62-1.48 6.51.39 8.68 4.13s1.81 8.05-.77 9.58-6.51-.37-8.68-4.1-1.84-8.11.77-9.61zM699 293c-1.64 2.59-6 2.61-9.56.2s-5.23-6.42-3.55-8.9 6-2.56 9.58-.12 5.26 6.4 3.53 8.82zm-68-40.71c1.81 2.25 1.94 5.16.35 6.36s-4.35.42-6.12-1.9-2-5.2-.34-6.4 4.34-.35 6.11 1.94zM718.8 339c-.93-4.28.69-8.19 3.66-8.89s6.1 2.25 7 6.53-.68 8.24-3.64 8.84-6.1-2.2-7.02-6.48z" fill="#73e8a7"/><path data-name="Left-arm" d="M1611.35 169.93c6.84-21.68 16.76-75.81-42.18-101.63 0 0-36.89-15.09-43.63-51.06 0 0-4.54-35.19 21.67-5 0 0 13.85 22.39 57.49 34 0 0 66.92 13.74 56.7 116.76-6.79 73.15 18.16 142.59-34.85 138.26s-28.03-92.93-15.2-131.33z" fill="#50d686"/><path d="M1564.87 53.44c-2.81-2.09-3.94-5.29-2.55-7.26s4.87-1.89 7.68.19 3.95 5.31 2.54 7.23-4.83 1.92-7.67-.16zm26.19 4.31c3.49 1.88 5.37 5.35 4.07 7.76s-5.2 2.91-8.74 1.07-5.28-5.34-4-7.77 5.18-2.91 8.67-1.06zm45.57 108.51c-3-.2-5.24-3.85-5-8.23s2.94-7.71 6-7.53 5.22 3.9 4.93 8.21-2.95 7.73-5.93 7.55zM1626.25 94c2.78-1.16 6.42 1.14 8.14 5.11s.86 8.21-1.87 9.42-6.43-1.12-8.14-5.09-.91-8.25 1.87-9.44zm-8.61-11.2c-1.93 2.38-6.23 1.9-9.52-.92s-4.45-7-2.49-9.25 6.23-1.85 9.53 1 4.44 6.93 2.48 9.17zm-62.84-48.39c1.54 2.45 1.33 5.35-.39 6.36s-4.37-.09-5.86-2.6-1.36-5.39.41-6.39 4.35.13 5.84 2.63zm77.12 96.37c-.42-4.36 1.64-8.05 4.66-8.4s5.79 2.94 6.19 7.3-1.64 8.11-4.65 8.35-5.79-2.92-6.2-7.25zM0 163.33c71-2 288 10 356 52S495.63 387.28 568.82 391.8 780 380.33 832 363.33s101-35 194-33 240 33 312 11 373-133 497-123l85 8.45v294.55H0z" fill="#73e8a7"/><path d="M0 235.33c132 2 274-30 537 107 127.62 66.48 214.25 37.2 242.63 2.1s230.37-54.1 298.37-28.1 272 72 348 31 372-133 494-109v283H0z" fill="#50d686"/><path d="M0 301.33c124-44 377 129 808.76 60.44C1045.1 324.24 1316 409.33 1456 351.33s392-98.5 464-49v217H0z" fill="#2bb25e"/></g></svg>